%TF.GenerationSoftware,KiCad,Pcbnew,(6.0.5)*%
%TF.CreationDate,2022-05-29T20:54:02+08:00*%
%TF.ProjectId,keyboard,6b657962-6f61-4726-942e-6b696361645f,rev?*%
%TF.SameCoordinates,Original*%
%TF.FileFunction,Copper,L2,Bot*%
%TF.FilePolarity,Positive*%
%FSLAX46Y46*%
G04 Gerber Fmt 4.6, Leading zero omitted, Abs format (unit mm)*
G04 Created by KiCad (PCBNEW (6.0.5)) date 2022-05-29 20:54:02*
%MOMM*%
%LPD*%
G01*
G04 APERTURE LIST*
%ADD10C,0.300000*%
%TA.AperFunction,NonConductor*%
%ADD11C,0.300000*%
%TD*%
%TA.AperFunction,NonConductor*%
%ADD12C,0.200000*%
%TD*%
%TA.AperFunction,ComponentPad*%
%ADD13C,3.000000*%
%TD*%
%TA.AperFunction,ComponentPad*%
%ADD14R,1.700000X1.700000*%
%TD*%
%TA.AperFunction,ComponentPad*%
%ADD15O,1.700000X1.700000*%
%TD*%
%TA.AperFunction,ViaPad*%
%ADD16C,3.100000*%
%TD*%
%TA.AperFunction,ViaPad*%
%ADD17C,0.800000*%
%TD*%
%TA.AperFunction,ViaPad*%
%ADD18C,4.100000*%
%TD*%
%TA.AperFunction,Conductor*%
%ADD19C,0.304800*%
%TD*%
%TA.AperFunction,Conductor*%
%ADD20C,0.200000*%
%TD*%
G04 APERTURE END LIST*
D10*
D11*
X87972142Y-150421428D02*
X87829285Y-150350000D01*
X87757857Y-150278571D01*
X87686428Y-150135714D01*
X87686428Y-150064285D01*
X87757857Y-149921428D01*
X87829285Y-149850000D01*
X87972142Y-149778571D01*
X88257857Y-149778571D01*
X88400714Y-149850000D01*
X88472142Y-149921428D01*
X88543571Y-150064285D01*
X88543571Y-150135714D01*
X88472142Y-150278571D01*
X88400714Y-150350000D01*
X88257857Y-150421428D01*
X87972142Y-150421428D01*
X87829285Y-150492857D01*
X87757857Y-150564285D01*
X87686428Y-150707142D01*
X87686428Y-150992857D01*
X87757857Y-151135714D01*
X87829285Y-151207142D01*
X87972142Y-151278571D01*
X88257857Y-151278571D01*
X88400714Y-151207142D01*
X88472142Y-151135714D01*
X88543571Y-150992857D01*
X88543571Y-150707142D01*
X88472142Y-150564285D01*
X88400714Y-150492857D01*
X88257857Y-150421428D01*
X89472142Y-149778571D02*
X89615000Y-149778571D01*
X89757857Y-149850000D01*
X89829285Y-149921428D01*
X89900714Y-150064285D01*
X89972142Y-150350000D01*
X89972142Y-150707142D01*
X89900714Y-150992857D01*
X89829285Y-151135714D01*
X89757857Y-151207142D01*
X89615000Y-151278571D01*
X89472142Y-151278571D01*
X89329285Y-151207142D01*
X89257857Y-151135714D01*
X89186428Y-150992857D01*
X89115000Y-150707142D01*
X89115000Y-150350000D01*
X89186428Y-150064285D01*
X89257857Y-149921428D01*
X89329285Y-149850000D01*
X89472142Y-149778571D01*
X90615000Y-151135714D02*
X90686428Y-151207142D01*
X90615000Y-151278571D01*
X90543571Y-151207142D01*
X90615000Y-151135714D01*
X90615000Y-151278571D01*
X91615000Y-149778571D02*
X91757857Y-149778571D01*
X91900714Y-149850000D01*
X91972142Y-149921428D01*
X92043571Y-150064285D01*
X92115000Y-150350000D01*
X92115000Y-150707142D01*
X92043571Y-150992857D01*
X91972142Y-151135714D01*
X91900714Y-151207142D01*
X91757857Y-151278571D01*
X91615000Y-151278571D01*
X91472142Y-151207142D01*
X91400714Y-151135714D01*
X91329285Y-150992857D01*
X91257857Y-150707142D01*
X91257857Y-150350000D01*
X91329285Y-150064285D01*
X91400714Y-149921428D01*
X91472142Y-149850000D01*
X91615000Y-149778571D01*
X93543571Y-151278571D02*
X92686428Y-151278571D01*
X93115000Y-151278571D02*
X93115000Y-149778571D01*
X92972142Y-149992857D01*
X92829285Y-150135714D01*
X92686428Y-150207142D01*
X94472142Y-149778571D02*
X94615000Y-149778571D01*
X94757857Y-149850000D01*
X94829285Y-149921428D01*
X94900714Y-150064285D01*
X94972142Y-150350000D01*
X94972142Y-150707142D01*
X94900714Y-150992857D01*
X94829285Y-151135714D01*
X94757857Y-151207142D01*
X94615000Y-151278571D01*
X94472142Y-151278571D01*
X94329285Y-151207142D01*
X94257857Y-151135714D01*
X94186428Y-150992857D01*
X94115000Y-150707142D01*
X94115000Y-150350000D01*
X94186428Y-150064285D01*
X94257857Y-149921428D01*
X94329285Y-149850000D01*
X94472142Y-149778571D01*
X95900714Y-149778571D02*
X96043571Y-149778571D01*
X96186428Y-149850000D01*
X96257857Y-149921428D01*
X96329285Y-150064285D01*
X96400714Y-150350000D01*
X96400714Y-150707142D01*
X96329285Y-150992857D01*
X96257857Y-151135714D01*
X96186428Y-151207142D01*
X96043571Y-151278571D01*
X95900714Y-151278571D01*
X95757857Y-151207142D01*
X95686428Y-151135714D01*
X95615000Y-150992857D01*
X95543571Y-150707142D01*
X95543571Y-150350000D01*
X95615000Y-150064285D01*
X95686428Y-149921428D01*
X95757857Y-149850000D01*
X95900714Y-149778571D01*
X98186428Y-151278571D02*
X98186428Y-150278571D01*
X98186428Y-150421428D02*
X98257857Y-150350000D01*
X98400714Y-150278571D01*
X98615000Y-150278571D01*
X98757857Y-150350000D01*
X98829285Y-150492857D01*
X98829285Y-151278571D01*
X98829285Y-150492857D02*
X98900714Y-150350000D01*
X99043571Y-150278571D01*
X99257857Y-150278571D01*
X99400714Y-150350000D01*
X99472142Y-150492857D01*
X99472142Y-151278571D01*
X100186428Y-151278571D02*
X100186428Y-150278571D01*
X100186428Y-150421428D02*
X100257857Y-150350000D01*
X100400714Y-150278571D01*
X100615000Y-150278571D01*
X100757857Y-150350000D01*
X100829285Y-150492857D01*
X100829285Y-151278571D01*
X100829285Y-150492857D02*
X100900714Y-150350000D01*
X101043571Y-150278571D01*
X101257857Y-150278571D01*
X101400714Y-150350000D01*
X101472142Y-150492857D01*
X101472142Y-151278571D01*
D12*
X54610000Y-146550000D02*
X54610000Y-152986420D01*
X134620000Y-146550000D02*
X134620000Y-152986420D01*
X54610000Y-152400000D02*
X134620000Y-152400000D01*
X54610000Y-152400000D02*
X134620000Y-152400000D01*
X54610000Y-152400000D02*
X55736504Y-152986421D01*
X54610000Y-152400000D02*
X55736504Y-151813579D01*
X134620000Y-152400000D02*
X133493496Y-151813579D01*
X134620000Y-152400000D02*
X133493496Y-152986421D01*
D10*
D11*
X45868571Y-104575714D02*
X45868571Y-104290000D01*
X45797142Y-104147142D01*
X45725714Y-104075714D01*
X45511428Y-103932857D01*
X45225714Y-103861428D01*
X44654285Y-103861428D01*
X44511428Y-103932857D01*
X44440000Y-104004285D01*
X44368571Y-104147142D01*
X44368571Y-104432857D01*
X44440000Y-104575714D01*
X44511428Y-104647142D01*
X44654285Y-104718571D01*
X45011428Y-104718571D01*
X45154285Y-104647142D01*
X45225714Y-104575714D01*
X45297142Y-104432857D01*
X45297142Y-104147142D01*
X45225714Y-104004285D01*
X45154285Y-103932857D01*
X45011428Y-103861428D01*
X44368571Y-102575714D02*
X44368571Y-102861428D01*
X44440000Y-103004285D01*
X44511428Y-103075714D01*
X44725714Y-103218571D01*
X45011428Y-103290000D01*
X45582857Y-103290000D01*
X45725714Y-103218571D01*
X45797142Y-103147142D01*
X45868571Y-103004285D01*
X45868571Y-102718571D01*
X45797142Y-102575714D01*
X45725714Y-102504285D01*
X45582857Y-102432857D01*
X45225714Y-102432857D01*
X45082857Y-102504285D01*
X45011428Y-102575714D01*
X44940000Y-102718571D01*
X44940000Y-103004285D01*
X45011428Y-103147142D01*
X45082857Y-103218571D01*
X45225714Y-103290000D01*
X45725714Y-101790000D02*
X45797142Y-101718571D01*
X45868571Y-101790000D01*
X45797142Y-101861428D01*
X45725714Y-101790000D01*
X45868571Y-101790000D01*
X44368571Y-100361428D02*
X44368571Y-101075714D01*
X45082857Y-101147142D01*
X45011428Y-101075714D01*
X44940000Y-100932857D01*
X44940000Y-100575714D01*
X45011428Y-100432857D01*
X45082857Y-100361428D01*
X45225714Y-100290000D01*
X45582857Y-100290000D01*
X45725714Y-100361428D01*
X45797142Y-100432857D01*
X45868571Y-100575714D01*
X45868571Y-100932857D01*
X45797142Y-101075714D01*
X45725714Y-101147142D01*
X44511428Y-99718571D02*
X44440000Y-99647142D01*
X44368571Y-99504285D01*
X44368571Y-99147142D01*
X44440000Y-99004285D01*
X44511428Y-98932857D01*
X44654285Y-98861428D01*
X44797142Y-98861428D01*
X45011428Y-98932857D01*
X45868571Y-99790000D01*
X45868571Y-98861428D01*
X44368571Y-97932857D02*
X44368571Y-97790000D01*
X44440000Y-97647142D01*
X44511428Y-97575714D01*
X44654285Y-97504285D01*
X44940000Y-97432857D01*
X45297142Y-97432857D01*
X45582857Y-97504285D01*
X45725714Y-97575714D01*
X45797142Y-97647142D01*
X45868571Y-97790000D01*
X45868571Y-97932857D01*
X45797142Y-98075714D01*
X45725714Y-98147142D01*
X45582857Y-98218571D01*
X45297142Y-98290000D01*
X44940000Y-98290000D01*
X44654285Y-98218571D01*
X44511428Y-98147142D01*
X44440000Y-98075714D01*
X44368571Y-97932857D01*
X44368571Y-96504285D02*
X44368571Y-96361428D01*
X44440000Y-96218571D01*
X44511428Y-96147142D01*
X44654285Y-96075714D01*
X44940000Y-96004285D01*
X45297142Y-96004285D01*
X45582857Y-96075714D01*
X45725714Y-96147142D01*
X45797142Y-96218571D01*
X45868571Y-96361428D01*
X45868571Y-96504285D01*
X45797142Y-96647142D01*
X45725714Y-96718571D01*
X45582857Y-96790000D01*
X45297142Y-96861428D01*
X44940000Y-96861428D01*
X44654285Y-96790000D01*
X44511428Y-96718571D01*
X44440000Y-96647142D01*
X44368571Y-96504285D01*
X45868571Y-94218571D02*
X44868571Y-94218571D01*
X45011428Y-94218571D02*
X44940000Y-94147142D01*
X44868571Y-94004285D01*
X44868571Y-93790000D01*
X44940000Y-93647142D01*
X45082857Y-93575714D01*
X45868571Y-93575714D01*
X45082857Y-93575714D02*
X44940000Y-93504285D01*
X44868571Y-93361428D01*
X44868571Y-93147142D01*
X44940000Y-93004285D01*
X45082857Y-92932857D01*
X45868571Y-92932857D01*
X45868571Y-92218571D02*
X44868571Y-92218571D01*
X45011428Y-92218571D02*
X44940000Y-92147142D01*
X44868571Y-92004285D01*
X44868571Y-91790000D01*
X44940000Y-91647142D01*
X45082857Y-91575714D01*
X45868571Y-91575714D01*
X45082857Y-91575714D02*
X44940000Y-91504285D01*
X44868571Y-91361428D01*
X44868571Y-91147142D01*
X44940000Y-91004285D01*
X45082857Y-90932857D01*
X45868571Y-90932857D01*
D12*
X54110000Y-49530000D02*
X46403580Y-49530000D01*
X54110000Y-146050000D02*
X46403580Y-146050000D01*
X46990000Y-49530000D02*
X46990000Y-146050000D01*
X46990000Y-49530000D02*
X46990000Y-146050000D01*
X46990000Y-49530000D02*
X46403579Y-50656504D01*
X46990000Y-49530000D02*
X47576421Y-50656504D01*
X46990000Y-146050000D02*
X47576421Y-144923496D01*
X46990000Y-146050000D02*
X46403579Y-144923496D01*
D10*
D11*
X138578571Y-104575714D02*
X138578571Y-104290000D01*
X138507142Y-104147142D01*
X138435714Y-104075714D01*
X138221428Y-103932857D01*
X137935714Y-103861428D01*
X137364285Y-103861428D01*
X137221428Y-103932857D01*
X137150000Y-104004285D01*
X137078571Y-104147142D01*
X137078571Y-104432857D01*
X137150000Y-104575714D01*
X137221428Y-104647142D01*
X137364285Y-104718571D01*
X137721428Y-104718571D01*
X137864285Y-104647142D01*
X137935714Y-104575714D01*
X138007142Y-104432857D01*
X138007142Y-104147142D01*
X137935714Y-104004285D01*
X137864285Y-103932857D01*
X137721428Y-103861428D01*
X138578571Y-102432857D02*
X138578571Y-103290000D01*
X138578571Y-102861428D02*
X137078571Y-102861428D01*
X137292857Y-103004285D01*
X137435714Y-103147142D01*
X137507142Y-103290000D01*
X138435714Y-101790000D02*
X138507142Y-101718571D01*
X138578571Y-101790000D01*
X138507142Y-101861428D01*
X138435714Y-101790000D01*
X138578571Y-101790000D01*
X137578571Y-100432857D02*
X138578571Y-100432857D01*
X137007142Y-100790000D02*
X138078571Y-101147142D01*
X138078571Y-100218571D01*
X137578571Y-99004285D02*
X138578571Y-99004285D01*
X137007142Y-99361428D02*
X138078571Y-99718571D01*
X138078571Y-98790000D01*
X137078571Y-97932857D02*
X137078571Y-97790000D01*
X137150000Y-97647142D01*
X137221428Y-97575714D01*
X137364285Y-97504285D01*
X137650000Y-97432857D01*
X138007142Y-97432857D01*
X138292857Y-97504285D01*
X138435714Y-97575714D01*
X138507142Y-97647142D01*
X138578571Y-97790000D01*
X138578571Y-97932857D01*
X138507142Y-98075714D01*
X138435714Y-98147142D01*
X138292857Y-98218571D01*
X138007142Y-98290000D01*
X137650000Y-98290000D01*
X137364285Y-98218571D01*
X137221428Y-98147142D01*
X137150000Y-98075714D01*
X137078571Y-97932857D01*
X137078571Y-96504285D02*
X137078571Y-96361428D01*
X137150000Y-96218571D01*
X137221428Y-96147142D01*
X137364285Y-96075714D01*
X137650000Y-96004285D01*
X138007142Y-96004285D01*
X138292857Y-96075714D01*
X138435714Y-96147142D01*
X138507142Y-96218571D01*
X138578571Y-96361428D01*
X138578571Y-96504285D01*
X138507142Y-96647142D01*
X138435714Y-96718571D01*
X138292857Y-96790000D01*
X138007142Y-96861428D01*
X137650000Y-96861428D01*
X137364285Y-96790000D01*
X137221428Y-96718571D01*
X137150000Y-96647142D01*
X137078571Y-96504285D01*
X138578571Y-94218571D02*
X137578571Y-94218571D01*
X137721428Y-94218571D02*
X137650000Y-94147142D01*
X137578571Y-94004285D01*
X137578571Y-93790000D01*
X137650000Y-93647142D01*
X137792857Y-93575714D01*
X138578571Y-93575714D01*
X137792857Y-93575714D02*
X137650000Y-93504285D01*
X137578571Y-93361428D01*
X137578571Y-93147142D01*
X137650000Y-93004285D01*
X137792857Y-92932857D01*
X138578571Y-92932857D01*
X138578571Y-92218571D02*
X137578571Y-92218571D01*
X137721428Y-92218571D02*
X137650000Y-92147142D01*
X137578571Y-92004285D01*
X137578571Y-91790000D01*
X137650000Y-91647142D01*
X137792857Y-91575714D01*
X138578571Y-91575714D01*
X137792857Y-91575714D02*
X137650000Y-91504285D01*
X137578571Y-91361428D01*
X137578571Y-91147142D01*
X137650000Y-91004285D01*
X137792857Y-90932857D01*
X138578571Y-90932857D01*
D12*
X132580000Y-52070000D02*
X140286420Y-52070000D01*
X132580000Y-143510000D02*
X140286420Y-143510000D01*
X139700000Y-52070000D02*
X139700000Y-143510000D01*
X139700000Y-52070000D02*
X139700000Y-143510000D01*
X139700000Y-52070000D02*
X139113579Y-53196504D01*
X139700000Y-52070000D02*
X140286421Y-53196504D01*
X139700000Y-143510000D02*
X140286421Y-142383496D01*
X139700000Y-143510000D02*
X139113579Y-142383496D01*
D10*
D11*
X87615000Y-43098571D02*
X88615000Y-43098571D01*
X87972142Y-44598571D01*
X89829285Y-43598571D02*
X89829285Y-44598571D01*
X89472142Y-43027142D02*
X89115000Y-44098571D01*
X90043571Y-44098571D01*
X90615000Y-44455714D02*
X90686428Y-44527142D01*
X90615000Y-44598571D01*
X90543571Y-44527142D01*
X90615000Y-44455714D01*
X90615000Y-44598571D01*
X91400714Y-44598571D02*
X91686428Y-44598571D01*
X91829285Y-44527142D01*
X91900714Y-44455714D01*
X92043571Y-44241428D01*
X92115000Y-43955714D01*
X92115000Y-43384285D01*
X92043571Y-43241428D01*
X91972142Y-43170000D01*
X91829285Y-43098571D01*
X91543571Y-43098571D01*
X91400714Y-43170000D01*
X91329285Y-43241428D01*
X91257857Y-43384285D01*
X91257857Y-43741428D01*
X91329285Y-43884285D01*
X91400714Y-43955714D01*
X91543571Y-44027142D01*
X91829285Y-44027142D01*
X91972142Y-43955714D01*
X92043571Y-43884285D01*
X92115000Y-43741428D01*
X92615000Y-43098571D02*
X93543571Y-43098571D01*
X93043571Y-43670000D01*
X93257857Y-43670000D01*
X93400714Y-43741428D01*
X93472142Y-43812857D01*
X93543571Y-43955714D01*
X93543571Y-44312857D01*
X93472142Y-44455714D01*
X93400714Y-44527142D01*
X93257857Y-44598571D01*
X92829285Y-44598571D01*
X92686428Y-44527142D01*
X92615000Y-44455714D01*
X94472142Y-43098571D02*
X94615000Y-43098571D01*
X94757857Y-43170000D01*
X94829285Y-43241428D01*
X94900714Y-43384285D01*
X94972142Y-43670000D01*
X94972142Y-44027142D01*
X94900714Y-44312857D01*
X94829285Y-44455714D01*
X94757857Y-44527142D01*
X94615000Y-44598571D01*
X94472142Y-44598571D01*
X94329285Y-44527142D01*
X94257857Y-44455714D01*
X94186428Y-44312857D01*
X94115000Y-44027142D01*
X94115000Y-43670000D01*
X94186428Y-43384285D01*
X94257857Y-43241428D01*
X94329285Y-43170000D01*
X94472142Y-43098571D01*
X95900714Y-43098571D02*
X96043571Y-43098571D01*
X96186428Y-43170000D01*
X96257857Y-43241428D01*
X96329285Y-43384285D01*
X96400714Y-43670000D01*
X96400714Y-44027142D01*
X96329285Y-44312857D01*
X96257857Y-44455714D01*
X96186428Y-44527142D01*
X96043571Y-44598571D01*
X95900714Y-44598571D01*
X95757857Y-44527142D01*
X95686428Y-44455714D01*
X95615000Y-44312857D01*
X95543571Y-44027142D01*
X95543571Y-43670000D01*
X95615000Y-43384285D01*
X95686428Y-43241428D01*
X95757857Y-43170000D01*
X95900714Y-43098571D01*
X98186428Y-44598571D02*
X98186428Y-43598571D01*
X98186428Y-43741428D02*
X98257857Y-43670000D01*
X98400714Y-43598571D01*
X98615000Y-43598571D01*
X98757857Y-43670000D01*
X98829285Y-43812857D01*
X98829285Y-44598571D01*
X98829285Y-43812857D02*
X98900714Y-43670000D01*
X99043571Y-43598571D01*
X99257857Y-43598571D01*
X99400714Y-43670000D01*
X99472142Y-43812857D01*
X99472142Y-44598571D01*
X100186428Y-44598571D02*
X100186428Y-43598571D01*
X100186428Y-43741428D02*
X100257857Y-43670000D01*
X100400714Y-43598571D01*
X100615000Y-43598571D01*
X100757857Y-43670000D01*
X100829285Y-43812857D01*
X100829285Y-44598571D01*
X100829285Y-43812857D02*
X100900714Y-43670000D01*
X101043571Y-43598571D01*
X101257857Y-43598571D01*
X101400714Y-43670000D01*
X101472142Y-43812857D01*
X101472142Y-44598571D01*
D12*
X57150000Y-51570000D02*
X57150000Y-45133580D01*
X132080000Y-51570000D02*
X132080000Y-45133580D01*
X57150000Y-45720000D02*
X132080000Y-45720000D01*
X57150000Y-45720000D02*
X132080000Y-45720000D01*
X57150000Y-45720000D02*
X58276504Y-46306421D01*
X57150000Y-45720000D02*
X58276504Y-45133579D01*
X132080000Y-45720000D02*
X130953496Y-45133579D01*
X132080000Y-45720000D02*
X130953496Y-46306421D01*
D13*
%TO.P,,1*%
%TO.N,N/C*%
X100316608Y-79988890D03*
%TD*%
%TO.P,,1*%
%TO.N,N/C*%
X106680000Y-57150000D03*
%TD*%
%TO.P,,1*%
%TO.N,N/C*%
X127000000Y-77470000D03*
%TD*%
%TO.P,,1*%
%TO.N,N/C*%
X86360000Y-57150000D03*
%TD*%
%TO.P,,1*%
%TO.N,N/C*%
X120650000Y-59690000D03*
%TD*%
D14*
%TO.P,REF\u002A\u002A,1*%
%TO.N,N/C*%
X133350000Y-135915000D03*
D15*
%TO.P,REF\u002A\u002A,2*%
X130810000Y-135915000D03*
%TO.P,REF\u002A\u002A,3*%
X128270000Y-135915000D03*
%TO.P,REF\u002A\u002A,4*%
X125730000Y-135915000D03*
%TO.P,REF\u002A\u002A,5*%
X123190000Y-135915000D03*
%TO.P,REF\u002A\u002A,6*%
X120650000Y-135915000D03*
%TO.P,REF\u002A\u002A,7*%
X118110000Y-135915000D03*
%TO.P,REF\u002A\u002A,8*%
X115570000Y-135915000D03*
%TO.P,REF\u002A\u002A,9*%
X113030000Y-135915000D03*
%TO.P,REF\u002A\u002A,10*%
X110490000Y-135915000D03*
%TO.P,REF\u002A\u002A,11*%
X107950000Y-135915000D03*
%TO.P,REF\u002A\u002A,12*%
X105410000Y-135915000D03*
%TO.P,REF\u002A\u002A,13*%
X102870000Y-135915000D03*
%TO.P,REF\u002A\u002A,14*%
X100330000Y-135915000D03*
%TO.P,REF\u002A\u002A,15*%
X97790000Y-135915000D03*
%TO.P,REF\u002A\u002A,16*%
X95250000Y-135915000D03*
%TO.P,REF\u002A\u002A,17*%
X92710000Y-135915000D03*
%TO.P,REF\u002A\u002A,18*%
X90170000Y-135915000D03*
%TO.P,REF\u002A\u002A,19*%
X87630000Y-135915000D03*
%TO.P,REF\u002A\u002A,20*%
X85090000Y-135915000D03*
%TD*%
D13*
%TO.P,,1*%
%TO.N,N/C*%
X80010000Y-80010000D03*
%TD*%
%TO.P,,1*%
%TO.N,N/C*%
X80010000Y-59690000D03*
%TD*%
%TO.P,,1*%
%TO.N,N/C*%
X100316608Y-59659281D03*
%TD*%
%TO.P,,1*%
%TO.N,N/C*%
X59690000Y-58420000D03*
%TD*%
%TO.P,,1*%
%TO.N,N/C*%
X120650000Y-100330000D03*
%TD*%
%TO.P,,1*%
%TO.N,N/C*%
X100316608Y-100318499D03*
%TD*%
%TO.P,,1*%
%TO.N,N/C*%
X66040000Y-77470000D03*
%TD*%
%TO.P,,1*%
%TO.N,N/C*%
X86360000Y-97790000D03*
%TD*%
%TO.P,,1*%
%TO.N,N/C*%
X66040000Y-97790000D03*
%TD*%
%TO.P,,1*%
%TO.N,N/C*%
X86340782Y-77460391D03*
%TD*%
%TO.P,,1*%
%TO.N,N/C*%
X80010000Y-100330000D03*
%TD*%
%TO.P,,1*%
%TO.N,N/C*%
X106680000Y-97790000D03*
%TD*%
%TO.P,,1*%
%TO.N,N/C*%
X59690000Y-80010000D03*
%TD*%
D14*
%TO.P,REF\u002A\u002A,1*%
%TO.N,N/C*%
X133320000Y-118135000D03*
D15*
%TO.P,REF\u002A\u002A,2*%
X130780000Y-118135000D03*
%TO.P,REF\u002A\u002A,3*%
X128240000Y-118135000D03*
%TO.P,REF\u002A\u002A,4*%
X125700000Y-118135000D03*
%TO.P,REF\u002A\u002A,5*%
X123160000Y-118135000D03*
%TO.P,REF\u002A\u002A,6*%
X120620000Y-118135000D03*
%TO.P,REF\u002A\u002A,7*%
X118080000Y-118135000D03*
%TO.P,REF\u002A\u002A,8*%
X115540000Y-118135000D03*
%TO.P,REF\u002A\u002A,9*%
X113000000Y-118135000D03*
%TO.P,REF\u002A\u002A,10*%
X110460000Y-118135000D03*
%TO.P,REF\u002A\u002A,11*%
X107920000Y-118135000D03*
%TO.P,REF\u002A\u002A,12*%
X105380000Y-118135000D03*
%TO.P,REF\u002A\u002A,13*%
X102840000Y-118135000D03*
%TO.P,REF\u002A\u002A,14*%
X100300000Y-118135000D03*
%TO.P,REF\u002A\u002A,15*%
X97760000Y-118135000D03*
%TO.P,REF\u002A\u002A,16*%
X95220000Y-118135000D03*
%TO.P,REF\u002A\u002A,17*%
X92680000Y-118135000D03*
%TO.P,REF\u002A\u002A,18*%
X90140000Y-118135000D03*
%TO.P,REF\u002A\u002A,19*%
X87600000Y-118135000D03*
%TO.P,REF\u002A\u002A,20*%
X85060000Y-118135000D03*
%TD*%
D13*
%TO.P,,1*%
%TO.N,N/C*%
X106680000Y-77470000D03*
%TD*%
%TO.P,,1*%
%TO.N,N/C*%
X127000000Y-97790000D03*
%TD*%
%TO.P,,1*%
%TO.N,N/C*%
X120646217Y-79988890D03*
%TD*%
D14*
%TO.P,REF\u002A\u002A,1*%
%TO.N,N/C*%
X73660000Y-140995000D03*
D15*
%TO.P,REF\u002A\u002A,2*%
X71120000Y-140995000D03*
%TO.P,REF\u002A\u002A,3*%
X68580000Y-140995000D03*
%TO.P,REF\u002A\u002A,4*%
X66040000Y-140995000D03*
%TO.P,REF\u002A\u002A,5*%
X63500000Y-140995000D03*
%TD*%
D13*
%TO.P,,1*%
%TO.N,N/C*%
X66040000Y-57150000D03*
%TD*%
%TO.P,,1*%
%TO.N,N/C*%
X59690000Y-100330000D03*
%TD*%
%TO.P,,1*%
%TO.N,N/C*%
X127000000Y-57150000D03*
%TD*%
D14*
%TO.P,REF\u002A\u002A,1*%
%TO.N,N/C*%
X80010000Y-123200000D03*
D15*
%TO.P,REF\u002A\u002A,2*%
X80010000Y-125740000D03*
%TO.P,REF\u002A\u002A,3*%
X80010000Y-128280000D03*
%TO.P,REF\u002A\u002A,4*%
X80010000Y-130820000D03*
%TD*%
D16*
%TO.N,*%
X132080000Y-143510000D03*
X57150000Y-143510000D03*
X57150000Y-52070000D03*
X132080000Y-52070000D03*
D17*
X63500000Y-92710000D03*
X63500000Y-72390000D03*
X68580000Y-72390000D03*
X68580000Y-92710000D03*
D18*
X83820000Y-82550000D03*
X124460000Y-82550000D03*
X104140000Y-102870000D03*
X83820000Y-102870000D03*
X63500000Y-82550000D03*
X124460000Y-62230000D03*
X83820000Y-62230000D03*
X63500000Y-102870000D03*
X104140000Y-82550000D03*
X124460000Y-102870000D03*
X63500000Y-62230000D03*
X104140000Y-62230000D03*
%TD*%
D19*
%TO.N,*%
X123190000Y-128270000D02*
X123190000Y-135915000D01*
X120650000Y-125730000D02*
X123190000Y-128270000D01*
D20*
X120640000Y-125740000D02*
X120650000Y-125730000D01*
D19*
X80010000Y-125740000D02*
X120640000Y-125740000D01*
X63500000Y-114300000D02*
X59690000Y-110490000D01*
X96520000Y-116840000D02*
X93980000Y-116840000D01*
X93980000Y-116840000D02*
X91440000Y-114300000D01*
X91440000Y-114300000D02*
X63500000Y-114300000D01*
X59690000Y-110490000D02*
X59690000Y-100330000D01*
D20*
X96520000Y-116895000D02*
X96520000Y-116840000D01*
D19*
X97760000Y-118135000D02*
X96520000Y-116895000D01*
X100300000Y-116810000D02*
X100300000Y-118135000D01*
X91440000Y-113030000D02*
X93980000Y-115570000D01*
X93980000Y-115570000D02*
X99060000Y-115570000D01*
X74930000Y-113030000D02*
X91440000Y-113030000D01*
X99060000Y-115570000D02*
X100300000Y-116810000D01*
X69850000Y-107950000D02*
X74930000Y-113030000D01*
X68580000Y-92710000D02*
X69850000Y-93980000D01*
X69850000Y-93980000D02*
X69850000Y-107950000D01*
X105380000Y-115600000D02*
X105380000Y-118135000D01*
D20*
X105410000Y-115570000D02*
X105380000Y-115600000D01*
D19*
X93980000Y-114300000D02*
X104140000Y-114300000D01*
X104140000Y-114300000D02*
X105410000Y-115570000D01*
X91440000Y-111760000D02*
X93980000Y-114300000D01*
X72390000Y-106680000D02*
X77470000Y-111760000D01*
X72390000Y-76200000D02*
X72390000Y-106680000D01*
X77470000Y-111760000D02*
X91440000Y-111760000D01*
X68580000Y-72390000D02*
X72390000Y-76200000D01*
X62230000Y-92710000D02*
X63500000Y-92710000D01*
X59690000Y-80010000D02*
X59690000Y-90170000D01*
X59690000Y-90170000D02*
X62230000Y-92710000D01*
X62230000Y-72390000D02*
X63500000Y-72390000D01*
X59690000Y-69850000D02*
X62230000Y-72390000D01*
X59690000Y-58420000D02*
X59690000Y-69850000D01*
X107920000Y-114330000D02*
X107920000Y-118135000D01*
D20*
X107950000Y-114300000D02*
X107920000Y-114330000D01*
D19*
X106680000Y-113030000D02*
X107950000Y-114300000D01*
X93980000Y-113030000D02*
X106680000Y-113030000D01*
X78740000Y-110490000D02*
X91440000Y-110490000D01*
X73660000Y-105410000D02*
X78740000Y-110490000D01*
X73660000Y-66040000D02*
X73660000Y-105410000D01*
X91440000Y-110490000D02*
X93980000Y-113030000D01*
X80010000Y-59690000D02*
X73660000Y-66040000D01*
X110460000Y-113060000D02*
X110460000Y-118135000D01*
D20*
X110490000Y-113030000D02*
X110460000Y-113060000D01*
D19*
X109220000Y-111760000D02*
X110490000Y-113030000D01*
X95250000Y-111760000D02*
X109220000Y-111760000D01*
X91440000Y-107950000D02*
X95250000Y-111760000D01*
X78740000Y-107950000D02*
X91440000Y-107950000D01*
X76200000Y-105410000D02*
X78740000Y-107950000D01*
X76200000Y-83820000D02*
X76200000Y-105410000D01*
X80010000Y-80010000D02*
X76200000Y-83820000D01*
D20*
X113030000Y-111760000D02*
X113000000Y-111790000D01*
D19*
X111760000Y-110490000D02*
X113030000Y-111760000D01*
X96520000Y-110490000D02*
X111760000Y-110490000D01*
X92710000Y-106680000D02*
X96520000Y-110490000D01*
X80010000Y-105410000D02*
X81280000Y-106680000D01*
X81280000Y-106680000D02*
X92710000Y-106680000D01*
X80010000Y-100330000D02*
X80010000Y-105410000D01*
X113000000Y-111790000D02*
X113000000Y-118135000D01*
D20*
X118110000Y-114300000D02*
X118080000Y-114330000D01*
D19*
X113030000Y-109220000D02*
X118110000Y-114300000D01*
X118080000Y-114330000D02*
X118080000Y-118135000D01*
X97790000Y-109220000D02*
X113030000Y-109220000D01*
X93980000Y-65995889D02*
X93980000Y-105410000D01*
X93980000Y-105410000D02*
X97790000Y-109220000D01*
X100316608Y-59659281D02*
X93980000Y-65995889D01*
X120620000Y-114330000D02*
X120620000Y-118135000D01*
D20*
X120650000Y-114300000D02*
X120620000Y-114330000D01*
D19*
X114300000Y-107950000D02*
X120650000Y-114300000D01*
X100330000Y-107950000D02*
X114300000Y-107950000D01*
X96520000Y-104140000D02*
X100330000Y-107950000D01*
X96520000Y-83785498D02*
X96520000Y-104140000D01*
X100316608Y-79988890D02*
X96520000Y-83785498D01*
X121920000Y-111760000D02*
X123190000Y-113030000D01*
D20*
X123190000Y-113030000D02*
X123160000Y-113060000D01*
D19*
X119380000Y-111760000D02*
X121920000Y-111760000D01*
X102870000Y-106680000D02*
X114300000Y-106680000D01*
X100316608Y-104126608D02*
X102870000Y-106680000D01*
X123160000Y-113060000D02*
X123160000Y-118135000D01*
X114300000Y-106680000D02*
X119380000Y-111760000D01*
X100316608Y-100318499D02*
X100316608Y-104126608D01*
X124460000Y-110490000D02*
X125730000Y-111760000D01*
X120650000Y-110490000D02*
X124460000Y-110490000D01*
X116840000Y-106680000D02*
X120650000Y-110490000D01*
X125700000Y-111790000D02*
X125700000Y-118135000D01*
X120650000Y-59690000D02*
X116840000Y-63500000D01*
X116840000Y-63500000D02*
X116840000Y-106680000D01*
D20*
X125730000Y-111760000D02*
X125700000Y-111790000D01*
D19*
X129540000Y-109220000D02*
X130810000Y-110490000D01*
X118110000Y-105410000D02*
X121920000Y-109220000D01*
X118110000Y-82525107D02*
X118110000Y-105410000D01*
X121920000Y-109220000D02*
X129540000Y-109220000D01*
D20*
X130810000Y-111760000D02*
X130780000Y-111790000D01*
D19*
X130780000Y-111790000D02*
X130780000Y-118135000D01*
X130810000Y-110490000D02*
X130810000Y-111760000D01*
X120646217Y-79988890D02*
X118110000Y-82525107D01*
X133320000Y-109250000D02*
X133320000Y-118135000D01*
X132080000Y-107950000D02*
X133350000Y-109220000D01*
D20*
X133350000Y-109220000D02*
X133320000Y-109250000D01*
D19*
X124460000Y-107950000D02*
X132080000Y-107950000D01*
X120650000Y-104140000D02*
X124460000Y-107950000D01*
X120650000Y-100330000D02*
X120650000Y-104140000D01*
X106680000Y-57150000D02*
X106680000Y-54610000D01*
X67285000Y-142240000D02*
X120650000Y-142240000D01*
X66040000Y-139700000D02*
X66040000Y-140995000D01*
X59690000Y-138430000D02*
X64770000Y-138430000D01*
X63500000Y-142240000D02*
X64770000Y-143510000D01*
X64770000Y-143510000D02*
X125730000Y-143510000D01*
X86360000Y-57150000D02*
X86360000Y-97790000D01*
X127000000Y-57150000D02*
X123190000Y-53340000D01*
X55880000Y-134620000D02*
X59690000Y-138430000D01*
X123190000Y-139700000D02*
X123190000Y-135915000D01*
X66040000Y-57150000D02*
X66040000Y-77470000D01*
X120650000Y-142240000D02*
X123190000Y-139700000D01*
X125740000Y-123200000D02*
X128270000Y-125730000D01*
X125730000Y-143510000D02*
X128270000Y-140970000D01*
X66040000Y-54610000D02*
X64770000Y-53340000D01*
X106680000Y-54610000D02*
X105410000Y-53340000D01*
X86360000Y-54610000D02*
X85090000Y-53340000D01*
X85090000Y-53340000D02*
X58420000Y-53340000D01*
X55880000Y-133375000D02*
X55880000Y-134620000D01*
X66040000Y-57150000D02*
X66040000Y-54610000D01*
X66040000Y-140995000D02*
X67285000Y-142240000D01*
X64770000Y-138430000D02*
X66040000Y-139700000D01*
X66040000Y-77470000D02*
X66040000Y-97790000D01*
X127000000Y-57150000D02*
X127000000Y-97790000D01*
X123190000Y-53340000D02*
X85090000Y-53340000D01*
X106680000Y-57150000D02*
X106680000Y-97790000D01*
X58420000Y-53340000D02*
X55880000Y-55880000D01*
X128270000Y-125730000D02*
X128270000Y-135915000D01*
X128270000Y-140970000D02*
X128270000Y-135915000D01*
X63500000Y-140995000D02*
X63500000Y-142240000D01*
X80010000Y-123200000D02*
X125740000Y-123200000D01*
X55880000Y-55880000D02*
X55880000Y-133375000D01*
X86360000Y-57150000D02*
X86360000Y-54610000D01*
%TD*%
M02*
