M48
; DRILL file {KiCad (6.0.5)} date Sun May 29 20:53:57 2022
; FORMAT={-:-/ absolute / inch / decimal}
; #@! TF.CreationDate,2022-05-29T20:53:57+08:00
; #@! TF.GenerationSoftware,Kicad,Pcbnew,(6.0.5)
; #@! TF.FileFunction,Plated,1,2,PTH
FMAT,2
INCH
; #@! TA.AperFunction,Plated,PTH,ViaDrill
T1C0.0157
; #@! TA.AperFunction,Plated,PTH,ComponentDrill
T2C0.0394
; #@! TA.AperFunction,Plated,PTH,ComponentDrill
T3C0.0591
; #@! TA.AperFunction,Plated,PTH,ViaDrill
T4C0.1181
; #@! TA.AperFunction,Plated,PTH,ViaDrill
T5C0.1575
%
G90
G05
T1
X2.5Y-2.85
X2.5Y-3.65
X2.7Y-2.85
X2.7Y-3.65
T2
X2.5Y-5.551
X2.6Y-5.551
X2.7Y-5.551
X2.8Y-5.551
X2.9Y-5.551
X3.15Y-4.8504
X3.15Y-4.9504
X3.15Y-5.0504
X3.15Y-5.1504
X3.3488Y-4.651
X3.35Y-5.351
X3.4488Y-4.651
X3.45Y-5.351
X3.5488Y-4.651
X3.55Y-5.351
X3.6488Y-4.651
X3.65Y-5.351
X3.7488Y-4.651
X3.75Y-5.351
X3.8488Y-4.651
X3.85Y-5.351
X3.9488Y-4.651
X3.95Y-5.351
X4.0488Y-4.651
X4.05Y-5.351
X4.1488Y-4.651
X4.15Y-5.351
X4.2488Y-4.651
X4.25Y-5.351
X4.3488Y-4.651
X4.35Y-5.351
X4.4488Y-4.651
X4.45Y-5.351
X4.5488Y-4.651
X4.55Y-5.351
X4.6488Y-4.651
X4.65Y-5.351
X4.7488Y-4.651
X4.75Y-5.351
X4.8488Y-4.651
X4.85Y-5.351
X4.9488Y-4.651
X4.95Y-5.351
X5.0488Y-4.651
X5.05Y-5.351
X5.1488Y-4.651
X5.15Y-5.351
X5.2488Y-4.651
X5.25Y-5.351
T3
X2.35Y-2.3
X2.35Y-3.15
X2.35Y-3.95
X2.6Y-2.25
X2.6Y-3.05
X2.6Y-3.85
X3.15Y-2.35
X3.15Y-3.15
X3.15Y-3.95
X3.3992Y-3.0496
X3.4Y-2.25
X3.4Y-3.85
X3.9495Y-2.3488
X3.9495Y-3.1492
X3.9495Y-3.9495
X4.2Y-2.25
X4.2Y-3.05
X4.2Y-3.85
X4.7499Y-3.1492
X4.75Y-2.35
X4.75Y-3.95
X5.0Y-2.25
X5.0Y-3.05
X5.0Y-3.85
T4
X2.25Y-2.05
X2.25Y-5.65
X5.2Y-2.05
X5.2Y-5.65
T5
X2.5Y-2.45
X2.5Y-3.25
X2.5Y-4.05
X3.3Y-2.45
X3.3Y-3.25
X3.3Y-4.05
X4.1Y-2.45
X4.1Y-3.25
X4.1Y-4.05
X4.9Y-2.45
X4.9Y-3.25
X4.9Y-4.05
T0
M30
