%TF.GenerationSoftware,KiCad,Pcbnew,(6.0.5)*%
%TF.CreationDate,2022-05-29T20:54:02+08:00*%
%TF.ProjectId,keyboard,6b657962-6f61-4726-942e-6b696361645f,rev?*%
%TF.SameCoordinates,Original*%
%TF.FileFunction,Soldermask,Bot*%
%TF.FilePolarity,Negative*%
%FSLAX46Y46*%
G04 Gerber Fmt 4.6, Leading zero omitted, Abs format (unit mm)*
G04 Created by KiCad (PCBNEW (6.0.5)) date 2022-05-29 20:54:02*
%MOMM*%
%LPD*%
G01*
G04 APERTURE LIST*
%ADD10C,3.000000*%
%ADD11R,1.700000X1.700000*%
%ADD12O,1.700000X1.700000*%
G04 APERTURE END LIST*
D10*
%TO.C,*%
X100316608Y-79988890D03*
%TD*%
%TO.C,*%
X106680000Y-57150000D03*
%TD*%
%TO.C,*%
X127000000Y-77470000D03*
%TD*%
%TO.C,*%
X86360000Y-57150000D03*
%TD*%
%TO.C,*%
X120650000Y-59690000D03*
%TD*%
D11*
%TO.C,REF\u002A\u002A*%
X133350000Y-135915000D03*
D12*
X130810000Y-135915000D03*
X128270000Y-135915000D03*
X125730000Y-135915000D03*
X123190000Y-135915000D03*
X120650000Y-135915000D03*
X118110000Y-135915000D03*
X115570000Y-135915000D03*
X113030000Y-135915000D03*
X110490000Y-135915000D03*
X107950000Y-135915000D03*
X105410000Y-135915000D03*
X102870000Y-135915000D03*
X100330000Y-135915000D03*
X97790000Y-135915000D03*
X95250000Y-135915000D03*
X92710000Y-135915000D03*
X90170000Y-135915000D03*
X87630000Y-135915000D03*
X85090000Y-135915000D03*
%TD*%
D10*
%TO.C,*%
X80010000Y-80010000D03*
%TD*%
%TO.C,*%
X80010000Y-59690000D03*
%TD*%
%TO.C,*%
X100316608Y-59659281D03*
%TD*%
%TO.C,*%
X59690000Y-58420000D03*
%TD*%
%TO.C,*%
X120650000Y-100330000D03*
%TD*%
%TO.C,*%
X100316608Y-100318499D03*
%TD*%
%TO.C,*%
X66040000Y-77470000D03*
%TD*%
%TO.C,*%
X86360000Y-97790000D03*
%TD*%
%TO.C,*%
X66040000Y-97790000D03*
%TD*%
%TO.C,*%
X86340782Y-77460391D03*
%TD*%
%TO.C,*%
X80010000Y-100330000D03*
%TD*%
%TO.C,*%
X106680000Y-97790000D03*
%TD*%
%TO.C,*%
X59690000Y-80010000D03*
%TD*%
D11*
%TO.C,REF\u002A\u002A*%
X133320000Y-118135000D03*
D12*
X130780000Y-118135000D03*
X128240000Y-118135000D03*
X125700000Y-118135000D03*
X123160000Y-118135000D03*
X120620000Y-118135000D03*
X118080000Y-118135000D03*
X115540000Y-118135000D03*
X113000000Y-118135000D03*
X110460000Y-118135000D03*
X107920000Y-118135000D03*
X105380000Y-118135000D03*
X102840000Y-118135000D03*
X100300000Y-118135000D03*
X97760000Y-118135000D03*
X95220000Y-118135000D03*
X92680000Y-118135000D03*
X90140000Y-118135000D03*
X87600000Y-118135000D03*
X85060000Y-118135000D03*
%TD*%
D10*
%TO.C,*%
X106680000Y-77470000D03*
%TD*%
%TO.C,*%
X127000000Y-97790000D03*
%TD*%
%TO.C,*%
X120646217Y-79988890D03*
%TD*%
D11*
%TO.C,REF\u002A\u002A*%
X73660000Y-140995000D03*
D12*
X71120000Y-140995000D03*
X68580000Y-140995000D03*
X66040000Y-140995000D03*
X63500000Y-140995000D03*
%TD*%
D10*
%TO.C,*%
X66040000Y-57150000D03*
%TD*%
%TO.C,*%
X59690000Y-100330000D03*
%TD*%
%TO.C,*%
X127000000Y-57150000D03*
%TD*%
D11*
%TO.C,REF\u002A\u002A*%
X80010000Y-123200000D03*
D12*
X80010000Y-125740000D03*
X80010000Y-128280000D03*
X80010000Y-130820000D03*
%TD*%
M02*
