%TF.GenerationSoftware,KiCad,Pcbnew,(6.0.5)*%
%TF.CreationDate,2022-06-14T18:11:56+08:00*%
%TF.ProjectId,keyboard_V4___,6b657962-6f61-4726-945f-56345f087f2e,rev?*%
%TF.SameCoordinates,Original*%
%TF.FileFunction,Copper,L1,Top*%
%TF.FilePolarity,Positive*%
%FSLAX46Y46*%
G04 Gerber Fmt 4.6, Leading zero omitted, Abs format (unit mm)*
G04 Created by KiCad (PCBNEW (6.0.5)) date 2022-06-14 18:11:56*
%MOMM*%
%LPD*%
G01*
G04 APERTURE LIST*
G04 Aperture macros list*
%AMRoundRect*
0 Rectangle with rounded corners*
0 $1 Rounding radius*
0 $2 $3 $4 $5 $6 $7 $8 $9 X,Y pos of 4 corners*
0 Add a 4 corners polygon primitive as box body*
4,1,4,$2,$3,$4,$5,$6,$7,$8,$9,$2,$3,0*
0 Add four circle primitives for the rounded corners*
1,1,$1+$1,$2,$3*
1,1,$1+$1,$4,$5*
1,1,$1+$1,$6,$7*
1,1,$1+$1,$8,$9*
0 Add four rect primitives between the rounded corners*
20,1,$1+$1,$2,$3,$4,$5,0*
20,1,$1+$1,$4,$5,$6,$7,0*
20,1,$1+$1,$6,$7,$8,$9,0*
20,1,$1+$1,$8,$9,$2,$3,0*%
G04 Aperture macros list end*
%TA.AperFunction,Profile*%
%ADD10C,0.050000*%
%TD*%
%TA.AperFunction,SMDPad,CuDef*%
%ADD11RoundRect,0.218750X-0.218750X-0.256250X0.218750X-0.256250X0.218750X0.256250X-0.218750X0.256250X0*%
%TD*%
%TA.AperFunction,SMDPad,CuDef*%
%ADD12RoundRect,0.250000X-0.475000X0.250000X-0.475000X-0.250000X0.475000X-0.250000X0.475000X0.250000X0*%
%TD*%
%TA.AperFunction,ComponentPad*%
%ADD13C,2.200000*%
%TD*%
%TA.AperFunction,ComponentPad*%
%ADD14R,1.700000X1.700000*%
%TD*%
%TA.AperFunction,ComponentPad*%
%ADD15O,1.700000X1.700000*%
%TD*%
%TA.AperFunction,SMDPad,CuDef*%
%ADD16RoundRect,0.250000X0.475000X-0.250000X0.475000X0.250000X-0.475000X0.250000X-0.475000X-0.250000X0*%
%TD*%
%TA.AperFunction,ViaPad*%
%ADD17C,0.800000*%
%TD*%
%TA.AperFunction,Conductor*%
%ADD18C,0.304800*%
%TD*%
G04 APERTURE END LIST*
D10*
X110490000Y-125095000D02*
G75*
G03*
X109220000Y-123825000I-1270000J0D01*
G01*
X40005000Y-146050000D02*
G75*
G03*
X41275000Y-147320000I1270000J0D01*
G01*
X119380000Y-60960000D02*
X118110000Y-60960000D01*
X114300000Y-116840000D02*
X114300000Y-118110000D01*
X30480000Y-113030000D02*
X30480000Y-114300000D01*
X106680000Y-148590000D02*
X106680000Y-147320000D01*
X44450000Y-122555000D02*
X44450000Y-123825000D01*
X40005000Y-125095000D02*
X40005000Y-127000000D01*
X111760000Y-148590000D02*
X111760000Y-144780000D01*
X43241538Y-103567747D02*
X38059938Y-103567747D01*
X38059938Y-103567747D02*
X38059938Y-98356147D01*
X38059938Y-98356147D02*
X43241538Y-98356147D01*
X43241538Y-98356147D02*
X43241538Y-103567747D01*
X110490000Y-126365000D02*
X110490000Y-125095000D01*
X109220000Y-147320000D02*
G75*
G03*
X110490000Y-146050000I0J1270000D01*
G01*
X119380000Y-111760000D02*
X119380000Y-60960000D01*
X113030000Y-55880000D02*
X35560000Y-55880000D01*
X118110000Y-111760000D02*
X119380000Y-111760000D01*
X57789200Y-139414200D02*
X62970800Y-139414200D01*
X62970800Y-139414200D02*
X62970800Y-144666600D01*
X62970800Y-144666600D02*
X57789200Y-144666600D01*
X57789200Y-144666600D02*
X57789200Y-139414200D01*
X113030000Y-55880000D02*
X113030000Y-54610000D01*
X29210000Y-54610000D02*
X29210000Y-59690000D01*
X107950000Y-147320000D02*
X107950000Y-148590000D01*
X35560000Y-116840000D02*
X35560000Y-118110000D01*
X34290000Y-54610000D02*
X34290000Y-55880000D01*
X83870800Y-83235800D02*
X78689200Y-83235800D01*
X78689200Y-83235800D02*
X78689200Y-78054200D01*
X78689200Y-78054200D02*
X83870800Y-78054200D01*
X83870800Y-78054200D02*
X83870800Y-83235800D01*
X40005000Y-128270000D02*
X40005000Y-142240000D01*
X27940000Y-53340000D02*
X120650000Y-53340000D01*
X120650000Y-53340000D02*
X120650000Y-152400000D01*
X120650000Y-152400000D02*
X27940000Y-152400000D01*
X27940000Y-152400000D02*
X27940000Y-53340000D01*
X40005000Y-143510000D02*
X40005000Y-146050000D01*
X114300000Y-55880000D02*
X114300000Y-54610000D01*
X117332000Y-57658000D02*
G75*
G03*
X117332000Y-57658000I-1000000J0D01*
G01*
X110490000Y-144780000D02*
X110490000Y-146050000D01*
X38735000Y-142240000D02*
X38735000Y-128270000D01*
X110490000Y-143510000D02*
X111760000Y-143510000D01*
X111760000Y-143510000D02*
X111760000Y-127635000D01*
X34290000Y-54610000D02*
X29210000Y-54610000D01*
X30480000Y-60960000D02*
X29210000Y-60960000D01*
X83876806Y-103618547D02*
X78695206Y-103618547D01*
X78695206Y-103618547D02*
X78695206Y-98315347D01*
X78695206Y-98315347D02*
X83876806Y-98315347D01*
X83876806Y-98315347D02*
X83876806Y-103618547D01*
X35560000Y-54610000D02*
X35560000Y-55880000D01*
X43241538Y-83255800D02*
X38059938Y-83255800D01*
X38059938Y-83255800D02*
X38059938Y-78054200D01*
X38059938Y-78054200D02*
X43241538Y-78054200D01*
X43241538Y-78054200D02*
X43241538Y-83255800D01*
X111760000Y-144780000D02*
X110490000Y-144780000D01*
X38735000Y-143510000D02*
X40005000Y-143510000D01*
X91170000Y-146050000D02*
G75*
G03*
X91170000Y-146050000I-1000000J0D01*
G01*
X30480000Y-59690000D02*
X30480000Y-58420000D01*
X29210000Y-60960000D02*
X29210000Y-111760000D01*
X119380000Y-54610000D02*
X119380000Y-59690000D01*
X63559172Y-83255800D02*
X58377572Y-83255800D01*
X58377572Y-83255800D02*
X58377572Y-78054200D01*
X58377572Y-78054200D02*
X63559172Y-78054200D01*
X63559172Y-78054200D02*
X63559172Y-83255800D01*
X63550800Y-103575000D02*
X58369200Y-103575000D01*
X58369200Y-103575000D02*
X58369200Y-98322600D01*
X58369200Y-98322600D02*
X63550800Y-98322600D01*
X63550800Y-98322600D02*
X63550800Y-103575000D01*
X33020000Y-55880000D02*
X34290000Y-55880000D01*
X43815000Y-148590000D02*
X43815000Y-147320000D01*
X119380000Y-118110000D02*
X119380000Y-113030000D01*
X43180000Y-123825000D02*
X41275000Y-123825000D01*
X115570000Y-55880000D02*
X114300000Y-55880000D01*
X117332000Y-115062000D02*
G75*
G03*
X117332000Y-115062000I-1000000J0D01*
G01*
X41275000Y-123825000D02*
G75*
G03*
X40005000Y-125095000I0J-1270000D01*
G01*
X40005000Y-127000000D02*
X38735000Y-127000000D01*
X114300000Y-54610000D02*
X119380000Y-54610000D01*
X78109200Y-139398800D02*
X83290800Y-139398800D01*
X83290800Y-139398800D02*
X83290800Y-144651200D01*
X83290800Y-144651200D02*
X78109200Y-144651200D01*
X78109200Y-144651200D02*
X78109200Y-139398800D01*
X118110000Y-60960000D02*
X118110000Y-111760000D01*
X113030000Y-54610000D02*
X35560000Y-54610000D01*
X30480000Y-60960000D02*
X30480000Y-111760000D01*
X106680000Y-147320000D02*
X45085000Y-147320000D01*
X44450000Y-123825000D02*
X106680000Y-123825000D01*
X30480000Y-114300000D02*
G75*
G03*
X33020000Y-116840000I2540000J0D01*
G01*
X42275000Y-125095000D02*
G75*
G03*
X42275000Y-125095000I-1000000J0D01*
G01*
X45085000Y-147320000D02*
X45085000Y-148590000D01*
X110490000Y-127635000D02*
X110490000Y-143510000D01*
X111760000Y-122555000D02*
X111760000Y-126365000D01*
X30480000Y-113030000D02*
X29210000Y-113030000D01*
X107950000Y-148590000D02*
X111760000Y-148590000D01*
X43230800Y-62935800D02*
X38049200Y-62935800D01*
X38049200Y-62935800D02*
X38049200Y-57714200D01*
X38049200Y-57714200D02*
X43230800Y-57714200D01*
X43230800Y-57714200D02*
X43230800Y-62935800D01*
X34290000Y-118110000D02*
X34290000Y-116840000D01*
X38735000Y-122555000D02*
X43180000Y-122555000D01*
X29210000Y-111760000D02*
X30480000Y-111760000D01*
X40005000Y-142240000D02*
X38735000Y-142240000D01*
X111760000Y-127635000D02*
X110490000Y-127635000D01*
X113030000Y-118110000D02*
X113030000Y-116840000D01*
X119380000Y-59690000D02*
X118110000Y-59690000D01*
X106680000Y-122555000D02*
X44450000Y-122555000D01*
X43815000Y-147320000D02*
X41275000Y-147320000D01*
X45085000Y-148590000D02*
X106680000Y-148590000D01*
X115570000Y-116840000D02*
X114300000Y-116840000D01*
X118110000Y-58420000D02*
X118110000Y-59690000D01*
X114300000Y-118110000D02*
X119380000Y-118110000D01*
X109220000Y-123825000D02*
X107950000Y-123825000D01*
X35560000Y-116840000D02*
X113030000Y-116840000D01*
X29210000Y-113030000D02*
X29210000Y-118110000D01*
X107950000Y-123825000D02*
X107950000Y-122555000D01*
X34290000Y-116840000D02*
X33020000Y-116840000D01*
X83870800Y-62925800D02*
X78689200Y-62925800D01*
X78689200Y-62925800D02*
X78689200Y-57683400D01*
X78689200Y-57683400D02*
X83870800Y-57683400D01*
X83870800Y-57683400D02*
X83870800Y-62925800D01*
X38735000Y-127000000D02*
X38735000Y-122555000D01*
X107950000Y-122555000D02*
X111760000Y-122555000D01*
X35560000Y-118110000D02*
X113030000Y-118110000D01*
X33258000Y-57658000D02*
G75*
G03*
X33258000Y-57658000I-1000000J0D01*
G01*
X38735000Y-143510000D02*
X38735000Y-148590000D01*
X91170000Y-125095000D02*
G75*
G03*
X91170000Y-125095000I-1000000J0D01*
G01*
X29210000Y-118110000D02*
X34290000Y-118110000D01*
X33020000Y-55880000D02*
G75*
G03*
X30480000Y-58420000I0J-2540000D01*
G01*
X118110000Y-58420000D02*
G75*
G03*
X115570000Y-55880000I-2540000J0D01*
G01*
X63550800Y-62935800D02*
X58369200Y-62935800D01*
X58369200Y-62935800D02*
X58369200Y-57714200D01*
X58369200Y-57714200D02*
X63550800Y-57714200D01*
X63550800Y-57714200D02*
X63550800Y-62935800D01*
X98000000Y-94000000D02*
X113000000Y-94000000D01*
X113000000Y-94000000D02*
X113000000Y-114000000D01*
X113000000Y-114000000D02*
X98000000Y-114000000D01*
X98000000Y-114000000D02*
X98000000Y-94000000D01*
X29210000Y-59690000D02*
X30480000Y-59690000D01*
X43180000Y-122555000D02*
X43180000Y-123825000D01*
X106680000Y-123825000D02*
X106680000Y-122555000D01*
X42275000Y-146050000D02*
G75*
G03*
X42275000Y-146050000I-1000000J0D01*
G01*
X118110000Y-113030000D02*
X118110000Y-114300000D01*
X115570000Y-116840000D02*
G75*
G03*
X118110000Y-114300000I0J2540000D01*
G01*
X33258000Y-115062000D02*
G75*
G03*
X33258000Y-115062000I-1000000J0D01*
G01*
X38735000Y-148590000D02*
X43815000Y-148590000D01*
X109220000Y-147320000D02*
X107950000Y-147320000D01*
X119380000Y-113030000D02*
X118110000Y-113030000D01*
X111760000Y-126365000D02*
X110490000Y-126365000D01*
X38735000Y-128270000D02*
X40005000Y-128270000D01*
D11*
%TO.P,MODE\uFF13,1*%
%TO.N,N/C*%
X44932500Y-141605000D03*
%TO.P,MODE\uFF13,2*%
X46507500Y-141605000D03*
%TD*%
%TO.P,MODE\uFF12,1*%
%TO.N,N/C*%
X44932500Y-136525000D03*
%TO.P,MODE\uFF12,2*%
X46507500Y-136525000D03*
%TD*%
%TO.P,MODE\uFF11,1*%
%TO.N,N/C*%
X44932500Y-131445000D03*
%TO.P,MODE\uFF11,2*%
X46507500Y-131445000D03*
%TD*%
D12*
%TO.P,TS4148,1*%
%TO.N,N/C*%
X71046677Y-90451243D03*
%TO.P,TS4148,2*%
X71046677Y-92351243D03*
%TD*%
D13*
%TO.P,SW7,1*%
%TO.N,N/C*%
X38100000Y-71120000D03*
%TO.P,SW7,2*%
X44450000Y-68580000D03*
%TD*%
%TO.P,SW8,1*%
%TO.N,N/C*%
X58420000Y-71120000D03*
%TO.P,SW8,2*%
X64770000Y-68580000D03*
%TD*%
D12*
%TO.P,TS4148,1*%
%TO.N,N/C*%
X50800000Y-70170000D03*
%TO.P,TS4148,2*%
X50800000Y-72070000D03*
%TD*%
%TO.P,TS4148,1*%
%TO.N,N/C*%
X71120000Y-105730000D03*
%TO.P,TS4148,2*%
X71120000Y-107630000D03*
%TD*%
D14*
%TO.P,REF\u002A\u002A,1*%
%TO.N,N/C*%
X95250000Y-145415000D03*
D15*
%TO.P,REF\u002A\u002A,2*%
X97790000Y-145415000D03*
%TO.P,REF\u002A\u002A,3*%
X100330000Y-145415000D03*
%TO.P,REF\u002A\u002A,4*%
X102870000Y-145415000D03*
%TO.P,REF\u002A\u002A,5*%
X105410000Y-145415000D03*
%TD*%
D14*
%TO.P,REF\u002A\u002A,1*%
%TO.N,N/C*%
X97790000Y-77470000D03*
D15*
%TO.P,REF\u002A\u002A,2*%
X97790000Y-74930000D03*
%TO.P,REF\u002A\u002A,3*%
X97790000Y-72390000D03*
%TO.P,REF\u002A\u002A,4*%
X97790000Y-69850000D03*
%TO.P,REF\u002A\u002A,5*%
X97790000Y-67310000D03*
%TO.P,REF\u002A\u002A,6*%
X97790000Y-64770000D03*
%TO.P,REF\u002A\u002A,7*%
X97790000Y-62230000D03*
%TO.P,REF\u002A\u002A,8*%
X97790000Y-59690000D03*
%TO.P,REF\u002A\u002A,9*%
X97790000Y-57150000D03*
%TD*%
D12*
%TO.P,TS4148,1*%
%TO.N,N/C*%
X90170000Y-70170000D03*
%TO.P,TS4148,2*%
X90170000Y-72070000D03*
%TD*%
%TO.P,TS4148,1*%
%TO.N,N/C*%
X50800000Y-90490000D03*
%TO.P,TS4148,2*%
X50800000Y-92390000D03*
%TD*%
D13*
%TO.P,SW3,1*%
%TO.N,N/C*%
X78740000Y-111760000D03*
%TO.P,SW3,2*%
X85090000Y-109220000D03*
%TD*%
%TO.P,SW7,1*%
%TO.N,N/C*%
X62920000Y-131220000D03*
%TO.P,SW7,2*%
X56570000Y-133760000D03*
%TD*%
%TO.P,SW7,1*%
%TO.N,N/C*%
X83240000Y-131220000D03*
%TO.P,SW7,2*%
X76890000Y-133760000D03*
%TD*%
%TO.P,SW2,1*%
%TO.N,N/C*%
X58420000Y-111760000D03*
%TO.P,SW2,2*%
X64770000Y-109220000D03*
%TD*%
%TO.P,SW4,1*%
%TO.N,N/C*%
X38100000Y-91440000D03*
%TO.P,SW4,2*%
X44450000Y-88900000D03*
%TD*%
D14*
%TO.P,REF\u002A\u002A,1*%
%TO.N,N/C*%
X113030000Y-77470000D03*
D15*
%TO.P,REF\u002A\u002A,2*%
X113030000Y-74930000D03*
%TO.P,REF\u002A\u002A,3*%
X113030000Y-72390000D03*
%TO.P,REF\u002A\u002A,4*%
X113030000Y-69850000D03*
%TO.P,REF\u002A\u002A,5*%
X113030000Y-67310000D03*
%TO.P,REF\u002A\u002A,6*%
X113030000Y-64770000D03*
%TO.P,REF\u002A\u002A,7*%
X113030000Y-62230000D03*
%TO.P,REF\u002A\u002A,8*%
X113030000Y-59690000D03*
%TO.P,REF\u002A\u002A,9*%
X113030000Y-57150000D03*
%TD*%
D16*
%TO.P,TS4148,1*%
%TO.N,N/C*%
X71810000Y-133665000D03*
%TO.P,TS4148,2*%
X71810000Y-131765000D03*
%TD*%
D13*
%TO.P,SW5,1*%
%TO.N,N/C*%
X58439218Y-91449609D03*
%TO.P,SW5,2*%
X64789218Y-88909609D03*
%TD*%
%TO.P,SW9,1*%
%TO.N,N/C*%
X78740000Y-71120000D03*
%TO.P,SW9,2*%
X85090000Y-68580000D03*
%TD*%
D12*
%TO.P,TS4148,1*%
%TO.N,N/C*%
X90170000Y-105730000D03*
%TO.P,TS4148,2*%
X90170000Y-107630000D03*
%TD*%
D14*
%TO.P,REF\u002A\u002A,1*%
%TO.N,N/C*%
X92710000Y-145415000D03*
D15*
%TO.P,REF\u002A\u002A,2*%
X92710000Y-142875000D03*
%TO.P,REF\u002A\u002A,3*%
X92710000Y-140335000D03*
%TO.P,REF\u002A\u002A,4*%
X92710000Y-137795000D03*
%TO.P,REF\u002A\u002A,5*%
X92710000Y-135255000D03*
%TO.P,REF\u002A\u002A,6*%
X92710000Y-132715000D03*
%TO.P,REF\u002A\u002A,7*%
X92710000Y-130175000D03*
%TO.P,REF\u002A\u002A,8*%
X92710000Y-127635000D03*
%TO.P,REF\u002A\u002A,9*%
X92710000Y-125095000D03*
%TD*%
D13*
%TO.P,SW6,1*%
%TO.N,N/C*%
X78740000Y-91440000D03*
%TO.P,SW6,2*%
X85090000Y-88900000D03*
%TD*%
D14*
%TO.P,REF\u002A\u002A,1*%
%TO.N,N/C*%
X107950000Y-145415000D03*
D15*
%TO.P,REF\u002A\u002A,2*%
X107950000Y-142875000D03*
%TO.P,REF\u002A\u002A,3*%
X107950000Y-140335000D03*
%TO.P,REF\u002A\u002A,4*%
X107950000Y-137795000D03*
%TO.P,REF\u002A\u002A,5*%
X107950000Y-135255000D03*
%TO.P,REF\u002A\u002A,6*%
X107950000Y-132715000D03*
%TO.P,REF\u002A\u002A,7*%
X107950000Y-130175000D03*
%TO.P,REF\u002A\u002A,8*%
X107950000Y-127635000D03*
%TO.P,REF\u002A\u002A,9*%
X107950000Y-125095000D03*
%TD*%
D13*
%TO.P,SW1,1*%
%TO.N,N/C*%
X38100000Y-111760000D03*
%TO.P,SW1,2*%
X44450000Y-109220000D03*
%TD*%
D14*
%TO.P,REF\u002A\u002A,1*%
%TO.N,N/C*%
X100330000Y-77470000D03*
D15*
%TO.P,REF\u002A\u002A,2*%
X102870000Y-77470000D03*
%TO.P,REF\u002A\u002A,3*%
X105410000Y-77470000D03*
%TO.P,REF\u002A\u002A,4*%
X107950000Y-77470000D03*
%TO.P,REF\u002A\u002A,5*%
X110490000Y-77470000D03*
%TD*%
D14*
%TO.P,OLED,1*%
%TO.N,N/C*%
X101610000Y-84963000D03*
D15*
%TO.P,OLED,2*%
X104150000Y-84963000D03*
%TO.P,OLED,3*%
X106690000Y-84963000D03*
%TO.P,OLED,4*%
X109230000Y-84963000D03*
%TD*%
D12*
%TO.P,TS4148,1*%
%TO.N,N/C*%
X90170000Y-90490000D03*
%TO.P,TS4148,2*%
X90170000Y-92390000D03*
%TD*%
D14*
%TO.P,EC11,1*%
%TO.N,N/C*%
X100203000Y-91440000D03*
D15*
%TO.P,EC11,2*%
X102743000Y-91440000D03*
%TO.P,EC11,3*%
X105283000Y-91440000D03*
%TO.P,EC11,4*%
X107823000Y-91440000D03*
%TO.P,EC11,5*%
X110363000Y-91440000D03*
%TD*%
D12*
%TO.P,TS4148,1*%
%TO.N,N/C*%
X50800000Y-105730000D03*
%TO.P,TS4148,2*%
X50800000Y-107630000D03*
%TD*%
%TO.P,TS4148,1*%
%TO.N,N/C*%
X71120000Y-70170000D03*
%TO.P,TS4148,2*%
X71120000Y-72070000D03*
%TD*%
D16*
%TO.P,TS4148,1*%
%TO.N,N/C*%
X69270000Y-133665000D03*
%TO.P,TS4148,2*%
X69270000Y-131765000D03*
%TD*%
D17*
%TO.N,*%
X69977000Y-145542000D03*
X49022000Y-138811000D03*
X106000000Y-88000000D03*
X76835000Y-74676000D03*
X42672000Y-142367000D03*
X96000000Y-96520000D03*
X96000000Y-99060000D03*
X42672000Y-132207000D03*
X42672000Y-137287000D03*
X55880000Y-95885000D03*
X94000000Y-96520000D03*
X93980000Y-99000000D03*
X55880000Y-75565000D03*
X105000000Y-87000000D03*
X48260000Y-107950000D03*
X48768000Y-144145000D03*
X94996000Y-140589000D03*
X89281000Y-138811000D03*
X86360000Y-97790000D03*
%TD*%
D18*
%TO.N,*%
X42672000Y-132207000D02*
X44170500Y-132207000D01*
X44170500Y-132207000D02*
X44932500Y-131445000D01*
X44170500Y-137287000D02*
X44932500Y-136525000D01*
X42672000Y-137287000D02*
X44170500Y-137287000D01*
X47142500Y-142240000D02*
X46507500Y-141605000D01*
X53467000Y-145542000D02*
X50165000Y-142240000D01*
X50165000Y-142240000D02*
X47142500Y-142240000D01*
X69977000Y-145542000D02*
X53467000Y-145542000D01*
X46507500Y-141605000D02*
X46507500Y-131445000D01*
X44268500Y-142240000D02*
X44283000Y-142254500D01*
X42799000Y-142240000D02*
X44268500Y-142240000D01*
X42672000Y-142367000D02*
X42799000Y-142240000D01*
X44283000Y-142254500D02*
X44932500Y-141605000D01*
X44450000Y-109220000D02*
X49210000Y-109220000D01*
X95250000Y-145415000D02*
X95250000Y-140843000D01*
X44450000Y-88900000D02*
X49210000Y-88900000D01*
X49022000Y-138811000D02*
X65659000Y-138811000D01*
X83240000Y-131220000D02*
X86135000Y-131220000D01*
X77470000Y-91440000D02*
X78740000Y-91440000D01*
X64770000Y-109220000D02*
X69530000Y-109220000D01*
X110490000Y-77470000D02*
X115570000Y-82550000D01*
X71120000Y-72390000D02*
X72390000Y-73660000D01*
X76835000Y-74676000D02*
X76835000Y-90805000D01*
X55880000Y-100965000D02*
X54610000Y-102235000D01*
X36195000Y-73025000D02*
X38100000Y-71120000D01*
X105000000Y-87000000D02*
X110520000Y-87000000D01*
X69530000Y-109220000D02*
X71120000Y-107630000D01*
X36195000Y-109855000D02*
X36195000Y-89535000D01*
X101610000Y-85227000D02*
X107823000Y-91440000D01*
X71120000Y-105730000D02*
X71120000Y-105410000D01*
X101610000Y-58430000D02*
X100330000Y-57150000D01*
X91440000Y-138811000D02*
X91694000Y-139065000D01*
X49210000Y-88900000D02*
X50800000Y-90490000D01*
X110520000Y-87000000D02*
X111760000Y-85760000D01*
X91694000Y-139065000D02*
X94742000Y-139065000D01*
X53086000Y-146558000D02*
X87249000Y-146558000D01*
X69505043Y-88909609D02*
X71046677Y-90451243D01*
X97000000Y-97000000D02*
X97000000Y-87000000D01*
X101610000Y-84963000D02*
X101610000Y-58430000D01*
X85471000Y-145542000D02*
X89408000Y-141605000D01*
X91821000Y-66802000D02*
X94869000Y-69850000D01*
X53975000Y-102870000D02*
X49530000Y-102870000D01*
X86360000Y-128270000D02*
X90805000Y-132715000D01*
X96000000Y-111760000D02*
X78740000Y-111760000D01*
X49210000Y-109220000D02*
X50800000Y-107630000D01*
X71755000Y-128270000D02*
X86360000Y-128270000D01*
X94000000Y-99020000D02*
X94000000Y-102850000D01*
X91760000Y-104140000D02*
X72390000Y-104140000D01*
X94000000Y-96520000D02*
X94000000Y-81260000D01*
X93000000Y-92980000D02*
X93000000Y-79085000D01*
X70800000Y-131765000D02*
X71810000Y-131765000D01*
X95250000Y-63500000D02*
X96520000Y-64770000D01*
X50800000Y-92390000D02*
X50800000Y-92710000D01*
X71046677Y-93271677D02*
X71755000Y-93980000D01*
X50800000Y-105730000D02*
X52390000Y-104140000D01*
X92710000Y-104140000D02*
X91760000Y-104140000D01*
X64789218Y-88909609D02*
X69505043Y-88909609D01*
X106000000Y-88000000D02*
X111330000Y-88000000D01*
X54610000Y-102235000D02*
X53975000Y-102870000D01*
X50673000Y-144145000D02*
X53086000Y-146558000D01*
X115570000Y-82550000D02*
X115570000Y-91430000D01*
X94000000Y-81260000D02*
X97790000Y-77470000D01*
X71120000Y-72070000D02*
X71120000Y-72390000D01*
X94000000Y-102850000D02*
X92710000Y-104140000D01*
X50800000Y-72070000D02*
X52390000Y-73660000D01*
X72390000Y-145542000D02*
X85471000Y-145542000D01*
X85090000Y-109220000D02*
X88580000Y-109220000D01*
X96000000Y-82000000D02*
X99000000Y-79000000D01*
X69276000Y-68580000D02*
X70866000Y-70170000D01*
X90170000Y-92390000D02*
X90170000Y-92710000D01*
X94742000Y-139065000D02*
X95123000Y-138684000D01*
X99037000Y-84963000D02*
X101610000Y-84963000D01*
X52070000Y-93980000D02*
X71755000Y-93980000D01*
X92000000Y-93980000D02*
X93000000Y-92980000D01*
X55880000Y-90805000D02*
X56524609Y-91449609D01*
X107950000Y-77470000D02*
X113665000Y-83185000D01*
X115570000Y-91430000D02*
X114000000Y-93000000D01*
X100330000Y-57150000D02*
X97790000Y-57150000D01*
X71755000Y-93980000D02*
X91440000Y-93980000D01*
X48768000Y-144145000D02*
X50673000Y-144145000D01*
X96520000Y-73660000D02*
X97790000Y-72390000D01*
X85090000Y-88900000D02*
X88580000Y-88900000D01*
X36195000Y-89535000D02*
X36195000Y-73025000D01*
X50800000Y-92710000D02*
X52070000Y-93980000D01*
X87249000Y-146558000D02*
X90932000Y-142875000D01*
X56570000Y-133760000D02*
X68955000Y-133760000D01*
X84328000Y-66802000D02*
X91821000Y-66802000D01*
X90170000Y-72070000D02*
X90170000Y-72390000D01*
X37465000Y-63500000D02*
X95250000Y-63500000D01*
X52390000Y-104140000D02*
X72390000Y-104140000D01*
X55880000Y-95885000D02*
X55880000Y-100965000D01*
X80010000Y-71120000D02*
X84328000Y-66802000D01*
X56524609Y-91449609D02*
X58439218Y-91449609D01*
X111760000Y-83820000D02*
X105410000Y-77470000D01*
X90170000Y-105730000D02*
X91760000Y-104140000D01*
X94488000Y-125095000D02*
X92710000Y-125095000D01*
X86360000Y-97790000D02*
X96210000Y-97790000D01*
X48260000Y-104140000D02*
X48260000Y-107950000D01*
X95250000Y-140843000D02*
X94996000Y-140589000D01*
X36195000Y-73025000D02*
X36195000Y-64770000D01*
X89408000Y-141605000D02*
X94107000Y-141605000D01*
X90805000Y-132715000D02*
X92710000Y-132715000D01*
X71046677Y-92351243D02*
X71046677Y-93271677D01*
X52390000Y-73660000D02*
X96520000Y-73660000D01*
X65659000Y-138811000D02*
X72390000Y-145542000D01*
X64770000Y-68580000D02*
X69276000Y-68580000D01*
X85090000Y-68580000D02*
X88580000Y-68580000D01*
X48956000Y-68580000D02*
X50546000Y-70170000D01*
X44450000Y-68580000D02*
X48956000Y-68580000D01*
X113665000Y-83185000D02*
X113665000Y-85665000D01*
X76890000Y-133760000D02*
X72125000Y-133760000D01*
X49530000Y-102870000D02*
X48260000Y-104140000D01*
X90932000Y-142875000D02*
X92710000Y-142875000D01*
X96210000Y-97790000D02*
X97000000Y-97000000D01*
X90170000Y-72390000D02*
X91440000Y-73660000D01*
X99000000Y-79000000D02*
X99000000Y-71060000D01*
X86135000Y-131220000D02*
X92710000Y-137795000D01*
X76835000Y-90805000D02*
X77470000Y-91440000D01*
X111330000Y-88000000D02*
X113665000Y-85665000D01*
X78740000Y-71120000D02*
X80010000Y-71120000D01*
X89281000Y-138811000D02*
X91440000Y-138811000D01*
X94488000Y-141986000D02*
X94488000Y-143637000D01*
X114000000Y-93000000D02*
X106843000Y-93000000D01*
X97000000Y-87000000D02*
X99037000Y-84963000D01*
X97155000Y-74930000D02*
X97790000Y-74930000D01*
X36195000Y-64770000D02*
X37465000Y-63500000D01*
X96000000Y-99060000D02*
X96000000Y-111760000D01*
X94107000Y-141605000D02*
X94488000Y-141986000D01*
X95123000Y-138684000D02*
X95123000Y-125730000D01*
X96520000Y-64770000D02*
X97790000Y-64770000D01*
X94869000Y-69850000D02*
X97790000Y-69850000D01*
X70800000Y-129225000D02*
X71755000Y-128270000D01*
X91440000Y-93980000D02*
X92000000Y-93980000D01*
X99000000Y-71060000D02*
X97790000Y-69850000D01*
X88580000Y-88900000D02*
X90170000Y-90490000D01*
X94488000Y-143637000D02*
X92710000Y-145415000D01*
X93000000Y-79085000D02*
X97155000Y-74930000D01*
X70800000Y-131765000D02*
X70800000Y-129225000D01*
X55880000Y-75565000D02*
X55880000Y-90805000D01*
X88580000Y-109220000D02*
X90170000Y-107630000D01*
X88580000Y-68580000D02*
X90170000Y-70170000D01*
X95123000Y-125730000D02*
X94488000Y-125095000D01*
X71120000Y-105410000D02*
X72390000Y-104140000D01*
X90170000Y-92710000D02*
X91440000Y-93980000D01*
X96000000Y-96520000D02*
X96000000Y-82000000D01*
X101610000Y-84963000D02*
X101610000Y-85227000D01*
X38100000Y-111760000D02*
X36195000Y-109855000D01*
X69270000Y-131765000D02*
X70800000Y-131765000D01*
X106843000Y-93000000D02*
X105283000Y-91440000D01*
X38100000Y-91440000D02*
X36195000Y-89535000D01*
X93980000Y-99000000D02*
X94000000Y-99020000D01*
X111760000Y-85760000D02*
X111760000Y-83820000D01*
%TD*%
M02*
