%FSLAX45Y45*%
G04 Gerber Fmt 4.5, Leading zero omitted, Abs format (unit mm)*
G04 Created by KiCad (PCBNEW (6.0.5)) date 2022-06-14 18:11:53*
%MOMM*%
%LPD*%
G01*
G04 APERTURE LIST*
%TA.AperFunction,Profile*%
%ADD10C,0.050000*%
%TD*%
%ADD11C,0.200000*%
%ADD12C,0.040000*%
%ADD13C,0.100000*%
%ADD14C,0.150000*%
G04 APERTURE END LIST*
D10*
X11049000Y-12509500D02*
G75*
G03*
X10922000Y-12382500I-127000J0D01*
G01*
X4000500Y-14605000D02*
G75*
G03*
X4127500Y-14732000I127000J0D01*
G01*
X11938000Y-6096000D02*
X11811000Y-6096000D01*
X11430000Y-11684000D02*
X11430000Y-11811000D01*
X3048000Y-11303000D02*
X3048000Y-11430000D01*
X10668000Y-14859000D02*
X10668000Y-14732000D01*
X4445000Y-12255500D02*
X4445000Y-12382500D01*
X4000500Y-12509500D02*
X4000500Y-12700000D01*
X11176000Y-14859000D02*
X11176000Y-14478000D01*
X4324154Y-10356775D02*
X3805994Y-10356775D01*
X3805994Y-10356775D02*
X3805994Y-9835615D01*
X3805994Y-9835615D02*
X4324154Y-9835615D01*
X4324154Y-9835615D02*
X4324154Y-10356775D01*
X11049000Y-12636500D02*
X11049000Y-12509500D01*
X10922000Y-14732000D02*
G75*
G03*
X11049000Y-14605000I0J127000D01*
G01*
X11938000Y-11176000D02*
X11938000Y-6096000D01*
X11303000Y-5588000D02*
X3556000Y-5588000D01*
X11811000Y-11176000D02*
X11938000Y-11176000D01*
X5778920Y-13941420D02*
X6297080Y-13941420D01*
X6297080Y-13941420D02*
X6297080Y-14466660D01*
X6297080Y-14466660D02*
X5778920Y-14466660D01*
X5778920Y-14466660D02*
X5778920Y-13941420D01*
X11303000Y-5588000D02*
X11303000Y-5461000D01*
X2921000Y-5461000D02*
X2921000Y-5969000D01*
X10795000Y-14732000D02*
X10795000Y-14859000D01*
X3556000Y-11684000D02*
X3556000Y-11811000D01*
X3429000Y-5461000D02*
X3429000Y-5588000D01*
X8387080Y-8323580D02*
X7868920Y-8323580D01*
X7868920Y-8323580D02*
X7868920Y-7805420D01*
X7868920Y-7805420D02*
X8387080Y-7805420D01*
X8387080Y-7805420D02*
X8387080Y-8323580D01*
X4000500Y-12827000D02*
X4000500Y-14224000D01*
X2794000Y-5334000D02*
X12065000Y-5334000D01*
X12065000Y-5334000D02*
X12065000Y-15240000D01*
X12065000Y-15240000D02*
X2794000Y-15240000D01*
X2794000Y-15240000D02*
X2794000Y-5334000D01*
X4000500Y-14351000D02*
X4000500Y-14605000D01*
X11430000Y-5588000D02*
X11430000Y-5461000D01*
X11733200Y-5765800D02*
G75*
G03*
X11733200Y-5765800I-100000J0D01*
G01*
X11049000Y-14478000D02*
X11049000Y-14605000D01*
X3873500Y-14224000D02*
X3873500Y-12827000D01*
X11049000Y-14351000D02*
X11176000Y-14351000D01*
X11176000Y-14351000D02*
X11176000Y-12763500D01*
X3429000Y-5461000D02*
X2921000Y-5461000D01*
X3048000Y-6096000D02*
X2921000Y-6096000D01*
X8387681Y-10361855D02*
X7869521Y-10361855D01*
X7869521Y-10361855D02*
X7869521Y-9831535D01*
X7869521Y-9831535D02*
X8387681Y-9831535D01*
X8387681Y-9831535D02*
X8387681Y-10361855D01*
X3556000Y-5461000D02*
X3556000Y-5588000D01*
X4324154Y-8325580D02*
X3805994Y-8325580D01*
X3805994Y-8325580D02*
X3805994Y-7805420D01*
X3805994Y-7805420D02*
X4324154Y-7805420D01*
X4324154Y-7805420D02*
X4324154Y-8325580D01*
X11176000Y-14478000D02*
X11049000Y-14478000D01*
X3873500Y-14351000D02*
X4000500Y-14351000D01*
X9117000Y-14605000D02*
G75*
G03*
X9117000Y-14605000I-100000J0D01*
G01*
X3048000Y-5969000D02*
X3048000Y-5842000D01*
X2921000Y-6096000D02*
X2921000Y-11176000D01*
X11938000Y-5461000D02*
X11938000Y-5969000D01*
X6355917Y-8325580D02*
X5837757Y-8325580D01*
X5837757Y-8325580D02*
X5837757Y-7805420D01*
X5837757Y-7805420D02*
X6355917Y-7805420D01*
X6355917Y-7805420D02*
X6355917Y-8325580D01*
X6355080Y-10357500D02*
X5836920Y-10357500D01*
X5836920Y-10357500D02*
X5836920Y-9832260D01*
X5836920Y-9832260D02*
X6355080Y-9832260D01*
X6355080Y-9832260D02*
X6355080Y-10357500D01*
X3302000Y-5588000D02*
X3429000Y-5588000D01*
X4381500Y-14859000D02*
X4381500Y-14732000D01*
X11938000Y-11811000D02*
X11938000Y-11303000D01*
X4318000Y-12382500D02*
X4127500Y-12382500D01*
X11557000Y-5588000D02*
X11430000Y-5588000D01*
X11733200Y-11506200D02*
G75*
G03*
X11733200Y-11506200I-100000J0D01*
G01*
X4127500Y-12382500D02*
G75*
G03*
X4000500Y-12509500I0J-127000D01*
G01*
X4000500Y-12700000D02*
X3873500Y-12700000D01*
X11430000Y-5461000D02*
X11938000Y-5461000D01*
X7810920Y-13939880D02*
X8329080Y-13939880D01*
X8329080Y-13939880D02*
X8329080Y-14465120D01*
X8329080Y-14465120D02*
X7810920Y-14465120D01*
X7810920Y-14465120D02*
X7810920Y-13939880D01*
X11811000Y-6096000D02*
X11811000Y-11176000D01*
X11303000Y-5461000D02*
X3556000Y-5461000D01*
X3048000Y-6096000D02*
X3048000Y-11176000D01*
X10668000Y-14732000D02*
X4508500Y-14732000D01*
X4445000Y-12382500D02*
X10668000Y-12382500D01*
X3048000Y-11430000D02*
G75*
G03*
X3302000Y-11684000I254000J0D01*
G01*
X4227500Y-12509500D02*
G75*
G03*
X4227500Y-12509500I-100000J0D01*
G01*
X4508500Y-14732000D02*
X4508500Y-14859000D01*
X11049000Y-12763500D02*
X11049000Y-14351000D01*
X11176000Y-12255500D02*
X11176000Y-12636500D01*
X3048000Y-11303000D02*
X2921000Y-11303000D01*
X10795000Y-14859000D02*
X11176000Y-14859000D01*
X4323080Y-6293580D02*
X3804920Y-6293580D01*
X3804920Y-6293580D02*
X3804920Y-5771420D01*
X3804920Y-5771420D02*
X4323080Y-5771420D01*
X4323080Y-5771420D02*
X4323080Y-6293580D01*
X3429000Y-11811000D02*
X3429000Y-11684000D01*
X3873500Y-12255500D02*
X4318000Y-12255500D01*
X2921000Y-11176000D02*
X3048000Y-11176000D01*
X4000500Y-14224000D02*
X3873500Y-14224000D01*
X11176000Y-12763500D02*
X11049000Y-12763500D01*
X11303000Y-11811000D02*
X11303000Y-11684000D01*
X11938000Y-5969000D02*
X11811000Y-5969000D01*
X10668000Y-12255500D02*
X4445000Y-12255500D01*
X4381500Y-14732000D02*
X4127500Y-14732000D01*
X4508500Y-14859000D02*
X10668000Y-14859000D01*
X11557000Y-11684000D02*
X11430000Y-11684000D01*
X11811000Y-5842000D02*
X11811000Y-5969000D01*
X11430000Y-11811000D02*
X11938000Y-11811000D01*
X10922000Y-12382500D02*
X10795000Y-12382500D01*
X3556000Y-11684000D02*
X11303000Y-11684000D01*
X2921000Y-11303000D02*
X2921000Y-11811000D01*
X10795000Y-12382500D02*
X10795000Y-12255500D01*
X3429000Y-11684000D02*
X3302000Y-11684000D01*
X8387080Y-6292580D02*
X7868920Y-6292580D01*
X7868920Y-6292580D02*
X7868920Y-5768340D01*
X7868920Y-5768340D02*
X8387080Y-5768340D01*
X8387080Y-5768340D02*
X8387080Y-6292580D01*
X3873500Y-12700000D02*
X3873500Y-12255500D01*
X10795000Y-12255500D02*
X11176000Y-12255500D01*
X3556000Y-11811000D02*
X11303000Y-11811000D01*
X3325800Y-5765800D02*
G75*
G03*
X3325800Y-5765800I-100000J0D01*
G01*
X3873500Y-14351000D02*
X3873500Y-14859000D01*
X9117000Y-12509500D02*
G75*
G03*
X9117000Y-12509500I-100000J0D01*
G01*
X2921000Y-11811000D02*
X3429000Y-11811000D01*
X3302000Y-5588000D02*
G75*
G03*
X3048000Y-5842000I0J-254000D01*
G01*
X11811000Y-5842000D02*
G75*
G03*
X11557000Y-5588000I-254000J0D01*
G01*
X6355080Y-6293580D02*
X5836920Y-6293580D01*
X5836920Y-6293580D02*
X5836920Y-5771420D01*
X5836920Y-5771420D02*
X6355080Y-5771420D01*
X6355080Y-5771420D02*
X6355080Y-6293580D01*
X9800000Y-9400000D02*
X11300000Y-9400000D01*
X11300000Y-9400000D02*
X11300000Y-11400000D01*
X11300000Y-11400000D02*
X9800000Y-11400000D01*
X9800000Y-11400000D02*
X9800000Y-9400000D01*
X2921000Y-5969000D02*
X3048000Y-5969000D01*
X4318000Y-12255500D02*
X4318000Y-12382500D01*
X10668000Y-12382500D02*
X10668000Y-12255500D01*
X4227500Y-14605000D02*
G75*
G03*
X4227500Y-14605000I-100000J0D01*
G01*
X11811000Y-11303000D02*
X11811000Y-11430000D01*
X11557000Y-11684000D02*
G75*
G03*
X11811000Y-11430000I0J254000D01*
G01*
X3325800Y-11506200D02*
G75*
G03*
X3325800Y-11506200I-100000J0D01*
G01*
X3873500Y-14859000D02*
X4381500Y-14859000D01*
X10922000Y-14732000D02*
X10795000Y-14732000D01*
X11938000Y-11303000D02*
X11811000Y-11303000D01*
X11176000Y-12636500D02*
X11049000Y-12636500D01*
X3873500Y-12827000D02*
X4000500Y-12827000D01*
D11*
D12*
X4247200Y-13200700D02*
X4287200Y-13240700D01*
X4287200Y-13200700D02*
X4247200Y-13240700D01*
X4247200Y-13708700D02*
X4287200Y-13748700D01*
X4287200Y-13708700D02*
X4247200Y-13748700D01*
X4247200Y-14216700D02*
X4287200Y-14256700D01*
X4287200Y-14216700D02*
X4247200Y-14256700D01*
X4806000Y-10775000D02*
X4846000Y-10815000D01*
X4846000Y-10775000D02*
X4806000Y-10815000D01*
X4856800Y-14394500D02*
X4896800Y-14434500D01*
X4896800Y-14394500D02*
X4856800Y-14434500D01*
X4882200Y-13861100D02*
X4922200Y-13901100D01*
X4922200Y-13861100D02*
X4882200Y-13901100D01*
X5568000Y-7536500D02*
X5608000Y-7576500D01*
X5608000Y-7536500D02*
X5568000Y-7576500D01*
X5568000Y-9568500D02*
X5608000Y-9608500D01*
X5608000Y-9568500D02*
X5568000Y-9608500D01*
X6977700Y-14534200D02*
X7017700Y-14574200D01*
X7017700Y-14534200D02*
X6977700Y-14574200D01*
X7663500Y-7447600D02*
X7703500Y-7487600D01*
X7703500Y-7447600D02*
X7663500Y-7487600D01*
X8616000Y-9759000D02*
X8656000Y-9799000D01*
X8656000Y-9759000D02*
X8616000Y-9799000D01*
X8908100Y-13861100D02*
X8948100Y-13901100D01*
X8948100Y-13861100D02*
X8908100Y-13901100D01*
X9378000Y-9880000D02*
X9418000Y-9920000D01*
X9418000Y-9880000D02*
X9378000Y-9920000D01*
X9380000Y-9632000D02*
X9420000Y-9672000D01*
X9420000Y-9632000D02*
X9380000Y-9672000D01*
X9479600Y-14038900D02*
X9519600Y-14078900D01*
X9519600Y-14038900D02*
X9479600Y-14078900D01*
X9580000Y-9632000D02*
X9620000Y-9672000D01*
X9620000Y-9632000D02*
X9580000Y-9672000D01*
X9580000Y-9886000D02*
X9620000Y-9926000D01*
X9620000Y-9886000D02*
X9580000Y-9926000D01*
X10480000Y-8680000D02*
X10520000Y-8720000D01*
X10520000Y-8680000D02*
X10480000Y-8720000D01*
X10580000Y-8780000D02*
X10620000Y-8820000D01*
X10620000Y-8780000D02*
X10580000Y-8820000D01*
D13*
X9321000Y-12509500D02*
G75*
G03*
X9321000Y-12509500I-50000J0D01*
G01*
X9321000Y-12763500D02*
G75*
G03*
X9321000Y-12763500I-50000J0D01*
G01*
X9321000Y-13017500D02*
G75*
G03*
X9321000Y-13017500I-50000J0D01*
G01*
X9321000Y-13271500D02*
G75*
G03*
X9321000Y-13271500I-50000J0D01*
G01*
X9321000Y-13525500D02*
G75*
G03*
X9321000Y-13525500I-50000J0D01*
G01*
X9321000Y-13779500D02*
G75*
G03*
X9321000Y-13779500I-50000J0D01*
G01*
X9321000Y-14033500D02*
G75*
G03*
X9321000Y-14033500I-50000J0D01*
G01*
X9321000Y-14287500D02*
G75*
G03*
X9321000Y-14287500I-50000J0D01*
G01*
X9321000Y-14541500D02*
G75*
G03*
X9321000Y-14541500I-50000J0D01*
G01*
X9575000Y-14541500D02*
G75*
G03*
X9575000Y-14541500I-50000J0D01*
G01*
X9829000Y-5715000D02*
G75*
G03*
X9829000Y-5715000I-50000J0D01*
G01*
X9829000Y-5969000D02*
G75*
G03*
X9829000Y-5969000I-50000J0D01*
G01*
X9829000Y-6223000D02*
G75*
G03*
X9829000Y-6223000I-50000J0D01*
G01*
X9829000Y-6477000D02*
G75*
G03*
X9829000Y-6477000I-50000J0D01*
G01*
X9829000Y-6731000D02*
G75*
G03*
X9829000Y-6731000I-50000J0D01*
G01*
X9829000Y-6985000D02*
G75*
G03*
X9829000Y-6985000I-50000J0D01*
G01*
X9829000Y-7239000D02*
G75*
G03*
X9829000Y-7239000I-50000J0D01*
G01*
X9829000Y-7493000D02*
G75*
G03*
X9829000Y-7493000I-50000J0D01*
G01*
X9829000Y-7747000D02*
G75*
G03*
X9829000Y-7747000I-50000J0D01*
G01*
X9829000Y-14541500D02*
G75*
G03*
X9829000Y-14541500I-50000J0D01*
G01*
X10070300Y-9144000D02*
G75*
G03*
X10070300Y-9144000I-50000J0D01*
G01*
X10083000Y-7747000D02*
G75*
G03*
X10083000Y-7747000I-50000J0D01*
G01*
X10083000Y-14541500D02*
G75*
G03*
X10083000Y-14541500I-50000J0D01*
G01*
X10211000Y-8496300D02*
G75*
G03*
X10211000Y-8496300I-50000J0D01*
G01*
X10324300Y-9144000D02*
G75*
G03*
X10324300Y-9144000I-50000J0D01*
G01*
X10337000Y-7747000D02*
G75*
G03*
X10337000Y-7747000I-50000J0D01*
G01*
X10337000Y-14541500D02*
G75*
G03*
X10337000Y-14541500I-50000J0D01*
G01*
X10465000Y-8496300D02*
G75*
G03*
X10465000Y-8496300I-50000J0D01*
G01*
X10578300Y-9144000D02*
G75*
G03*
X10578300Y-9144000I-50000J0D01*
G01*
X10591000Y-7747000D02*
G75*
G03*
X10591000Y-7747000I-50000J0D01*
G01*
X10591000Y-14541500D02*
G75*
G03*
X10591000Y-14541500I-50000J0D01*
G01*
X10719000Y-8496300D02*
G75*
G03*
X10719000Y-8496300I-50000J0D01*
G01*
X10832300Y-9144000D02*
G75*
G03*
X10832300Y-9144000I-50000J0D01*
G01*
X10845000Y-7747000D02*
G75*
G03*
X10845000Y-7747000I-50000J0D01*
G01*
X10845000Y-12509500D02*
G75*
G03*
X10845000Y-12509500I-50000J0D01*
G01*
X10845000Y-12763500D02*
G75*
G03*
X10845000Y-12763500I-50000J0D01*
G01*
X10845000Y-13017500D02*
G75*
G03*
X10845000Y-13017500I-50000J0D01*
G01*
X10845000Y-13271500D02*
G75*
G03*
X10845000Y-13271500I-50000J0D01*
G01*
X10845000Y-13525500D02*
G75*
G03*
X10845000Y-13525500I-50000J0D01*
G01*
X10845000Y-13779500D02*
G75*
G03*
X10845000Y-13779500I-50000J0D01*
G01*
X10845000Y-14033500D02*
G75*
G03*
X10845000Y-14033500I-50000J0D01*
G01*
X10845000Y-14287500D02*
G75*
G03*
X10845000Y-14287500I-50000J0D01*
G01*
X10845000Y-14541500D02*
G75*
G03*
X10845000Y-14541500I-50000J0D01*
G01*
X10973000Y-8496300D02*
G75*
G03*
X10973000Y-8496300I-50000J0D01*
G01*
X11086300Y-9144000D02*
G75*
G03*
X11086300Y-9144000I-50000J0D01*
G01*
X11099000Y-7747000D02*
G75*
G03*
X11099000Y-7747000I-50000J0D01*
G01*
X11353000Y-5715000D02*
G75*
G03*
X11353000Y-5715000I-50000J0D01*
G01*
X11353000Y-5969000D02*
G75*
G03*
X11353000Y-5969000I-50000J0D01*
G01*
X11353000Y-6223000D02*
G75*
G03*
X11353000Y-6223000I-50000J0D01*
G01*
X11353000Y-6477000D02*
G75*
G03*
X11353000Y-6477000I-50000J0D01*
G01*
X11353000Y-6731000D02*
G75*
G03*
X11353000Y-6731000I-50000J0D01*
G01*
X11353000Y-6985000D02*
G75*
G03*
X11353000Y-6985000I-50000J0D01*
G01*
X11353000Y-7239000D02*
G75*
G03*
X11353000Y-7239000I-50000J0D01*
G01*
X11353000Y-7493000D02*
G75*
G03*
X11353000Y-7493000I-50000J0D01*
G01*
X11353000Y-7747000D02*
G75*
G03*
X11353000Y-7747000I-50000J0D01*
G01*
D14*
X3810000Y-7037000D02*
X3810000Y-7187000D01*
X3735000Y-7112000D02*
X3885000Y-7112000D01*
X3810000Y-9069000D02*
X3810000Y-9219000D01*
X3735000Y-9144000D02*
X3885000Y-9144000D01*
X3810000Y-11101000D02*
X3810000Y-11251000D01*
X3735000Y-11176000D02*
X3885000Y-11176000D01*
X4445000Y-6783000D02*
X4445000Y-6933000D01*
X4370000Y-6858000D02*
X4520000Y-6858000D01*
X4445000Y-8815000D02*
X4445000Y-8965000D01*
X4370000Y-8890000D02*
X4520000Y-8890000D01*
X4445000Y-10847000D02*
X4445000Y-10997000D01*
X4370000Y-10922000D02*
X4520000Y-10922000D01*
X5657000Y-13301000D02*
X5657000Y-13451000D01*
X5582000Y-13376000D02*
X5732000Y-13376000D01*
X5842000Y-7037000D02*
X5842000Y-7187000D01*
X5767000Y-7112000D02*
X5917000Y-7112000D01*
X5842000Y-11101000D02*
X5842000Y-11251000D01*
X5767000Y-11176000D02*
X5917000Y-11176000D01*
X5843922Y-9069961D02*
X5843922Y-9219961D01*
X5768922Y-9144961D02*
X5918922Y-9144961D01*
X6292000Y-13047000D02*
X6292000Y-13197000D01*
X6217000Y-13122000D02*
X6367000Y-13122000D01*
X6477000Y-6783000D02*
X6477000Y-6933000D01*
X6402000Y-6858000D02*
X6552000Y-6858000D01*
X6477000Y-10847000D02*
X6477000Y-10997000D01*
X6402000Y-10922000D02*
X6552000Y-10922000D01*
X6478922Y-8815961D02*
X6478922Y-8965961D01*
X6403922Y-8890961D02*
X6553922Y-8890961D01*
X7689000Y-13301000D02*
X7689000Y-13451000D01*
X7614000Y-13376000D02*
X7764000Y-13376000D01*
X7874000Y-7037000D02*
X7874000Y-7187000D01*
X7799000Y-7112000D02*
X7949000Y-7112000D01*
X7874000Y-9069000D02*
X7874000Y-9219000D01*
X7799000Y-9144000D02*
X7949000Y-9144000D01*
X7874000Y-11101000D02*
X7874000Y-11251000D01*
X7799000Y-11176000D02*
X7949000Y-11176000D01*
X8324000Y-13047000D02*
X8324000Y-13197000D01*
X8249000Y-13122000D02*
X8399000Y-13122000D01*
X8509000Y-6783000D02*
X8509000Y-6933000D01*
X8434000Y-6858000D02*
X8584000Y-6858000D01*
X8509000Y-8815000D02*
X8509000Y-8965000D01*
X8434000Y-8890000D02*
X8584000Y-8890000D01*
X8509000Y-10847000D02*
X8509000Y-10997000D01*
X8434000Y-10922000D02*
X8584000Y-10922000D01*
D11*
X3049119Y-15552976D02*
X3049119Y-15352976D01*
X3096738Y-15352976D01*
X3125309Y-15362500D01*
X3144357Y-15381548D01*
X3153881Y-15400595D01*
X3163405Y-15438690D01*
X3163405Y-15467262D01*
X3153881Y-15505357D01*
X3144357Y-15524405D01*
X3125309Y-15543452D01*
X3096738Y-15552976D01*
X3049119Y-15552976D01*
X3249119Y-15552976D02*
X3249119Y-15419643D01*
X3249119Y-15457738D02*
X3258643Y-15438690D01*
X3268167Y-15429167D01*
X3287214Y-15419643D01*
X3306262Y-15419643D01*
X3372928Y-15552976D02*
X3372928Y-15419643D01*
X3372928Y-15352976D02*
X3363405Y-15362500D01*
X3372928Y-15372024D01*
X3382452Y-15362500D01*
X3372928Y-15352976D01*
X3372928Y-15372024D01*
X3496738Y-15552976D02*
X3477690Y-15543452D01*
X3468167Y-15524405D01*
X3468167Y-15352976D01*
X3601500Y-15552976D02*
X3582452Y-15543452D01*
X3572928Y-15524405D01*
X3572928Y-15352976D01*
X3830071Y-15552976D02*
X3830071Y-15352976D01*
X3896738Y-15495833D01*
X3963405Y-15352976D01*
X3963405Y-15552976D01*
X4144357Y-15552976D02*
X4144357Y-15448214D01*
X4134833Y-15429167D01*
X4115786Y-15419643D01*
X4077690Y-15419643D01*
X4058643Y-15429167D01*
X4144357Y-15543452D02*
X4125309Y-15552976D01*
X4077690Y-15552976D01*
X4058643Y-15543452D01*
X4049119Y-15524405D01*
X4049119Y-15505357D01*
X4058643Y-15486309D01*
X4077690Y-15476786D01*
X4125309Y-15476786D01*
X4144357Y-15467262D01*
X4239595Y-15419643D02*
X4239595Y-15619643D01*
X4239595Y-15429167D02*
X4258643Y-15419643D01*
X4296738Y-15419643D01*
X4315786Y-15429167D01*
X4325310Y-15438690D01*
X4334833Y-15457738D01*
X4334833Y-15514881D01*
X4325310Y-15533928D01*
X4315786Y-15543452D01*
X4296738Y-15552976D01*
X4258643Y-15552976D01*
X4239595Y-15543452D01*
X4420548Y-15533928D02*
X4430071Y-15543452D01*
X4420548Y-15552976D01*
X4411024Y-15543452D01*
X4420548Y-15533928D01*
X4420548Y-15552976D01*
X4420548Y-15429167D02*
X4430071Y-15438690D01*
X4420548Y-15448214D01*
X4411024Y-15438690D01*
X4420548Y-15429167D01*
X4420548Y-15448214D01*
D12*
X2751500Y-15862500D02*
X2791500Y-15902500D01*
X2791500Y-15862500D02*
X2751500Y-15902500D01*
D11*
X3087214Y-15772976D02*
X3106262Y-15772976D01*
X3125309Y-15782500D01*
X3134833Y-15792024D01*
X3144357Y-15811071D01*
X3153881Y-15849167D01*
X3153881Y-15896786D01*
X3144357Y-15934881D01*
X3134833Y-15953928D01*
X3125309Y-15963452D01*
X3106262Y-15972976D01*
X3087214Y-15972976D01*
X3068167Y-15963452D01*
X3058643Y-15953928D01*
X3049119Y-15934881D01*
X3039595Y-15896786D01*
X3039595Y-15849167D01*
X3049119Y-15811071D01*
X3058643Y-15792024D01*
X3068167Y-15782500D01*
X3087214Y-15772976D01*
X3239595Y-15953928D02*
X3249119Y-15963452D01*
X3239595Y-15972976D01*
X3230071Y-15963452D01*
X3239595Y-15953928D01*
X3239595Y-15972976D01*
X3420548Y-15839643D02*
X3420548Y-15972976D01*
X3372928Y-15763452D02*
X3325309Y-15906309D01*
X3449119Y-15906309D01*
X3563405Y-15772976D02*
X3582452Y-15772976D01*
X3601500Y-15782500D01*
X3611024Y-15792024D01*
X3620548Y-15811071D01*
X3630071Y-15849167D01*
X3630071Y-15896786D01*
X3620548Y-15934881D01*
X3611024Y-15953928D01*
X3601500Y-15963452D01*
X3582452Y-15972976D01*
X3563405Y-15972976D01*
X3544357Y-15963452D01*
X3534833Y-15953928D01*
X3525309Y-15934881D01*
X3515786Y-15896786D01*
X3515786Y-15849167D01*
X3525309Y-15811071D01*
X3534833Y-15792024D01*
X3544357Y-15782500D01*
X3563405Y-15772976D01*
X3753881Y-15772976D02*
X3772928Y-15772976D01*
X3791976Y-15782500D01*
X3801500Y-15792024D01*
X3811024Y-15811071D01*
X3820548Y-15849167D01*
X3820548Y-15896786D01*
X3811024Y-15934881D01*
X3801500Y-15953928D01*
X3791976Y-15963452D01*
X3772928Y-15972976D01*
X3753881Y-15972976D01*
X3734833Y-15963452D01*
X3725309Y-15953928D01*
X3715786Y-15934881D01*
X3706262Y-15896786D01*
X3706262Y-15849167D01*
X3715786Y-15811071D01*
X3725309Y-15792024D01*
X3734833Y-15782500D01*
X3753881Y-15772976D01*
X3906262Y-15972976D02*
X3906262Y-15839643D01*
X3906262Y-15858690D02*
X3915786Y-15849167D01*
X3934833Y-15839643D01*
X3963405Y-15839643D01*
X3982452Y-15849167D01*
X3991976Y-15868214D01*
X3991976Y-15972976D01*
X3991976Y-15868214D02*
X4001500Y-15849167D01*
X4020548Y-15839643D01*
X4049119Y-15839643D01*
X4068167Y-15849167D01*
X4077690Y-15868214D01*
X4077690Y-15972976D01*
X4172928Y-15972976D02*
X4172928Y-15839643D01*
X4172928Y-15858690D02*
X4182452Y-15849167D01*
X4201500Y-15839643D01*
X4230071Y-15839643D01*
X4249119Y-15849167D01*
X4258643Y-15868214D01*
X4258643Y-15972976D01*
X4258643Y-15868214D02*
X4268167Y-15849167D01*
X4287214Y-15839643D01*
X4315786Y-15839643D01*
X4334833Y-15849167D01*
X4344357Y-15868214D01*
X4344357Y-15972976D01*
X4734833Y-15763452D02*
X4563405Y-16020595D01*
X4991976Y-15772976D02*
X5011024Y-15772976D01*
X5030071Y-15782500D01*
X5039595Y-15792024D01*
X5049119Y-15811071D01*
X5058643Y-15849167D01*
X5058643Y-15896786D01*
X5049119Y-15934881D01*
X5039595Y-15953928D01*
X5030071Y-15963452D01*
X5011024Y-15972976D01*
X4991976Y-15972976D01*
X4972929Y-15963452D01*
X4963405Y-15953928D01*
X4953881Y-15934881D01*
X4944357Y-15896786D01*
X4944357Y-15849167D01*
X4953881Y-15811071D01*
X4963405Y-15792024D01*
X4972929Y-15782500D01*
X4991976Y-15772976D01*
X5144357Y-15953928D02*
X5153881Y-15963452D01*
X5144357Y-15972976D01*
X5134833Y-15963452D01*
X5144357Y-15953928D01*
X5144357Y-15972976D01*
X5277690Y-15772976D02*
X5296738Y-15772976D01*
X5315786Y-15782500D01*
X5325310Y-15792024D01*
X5334833Y-15811071D01*
X5344357Y-15849167D01*
X5344357Y-15896786D01*
X5334833Y-15934881D01*
X5325310Y-15953928D01*
X5315786Y-15963452D01*
X5296738Y-15972976D01*
X5277690Y-15972976D01*
X5258643Y-15963452D01*
X5249119Y-15953928D01*
X5239595Y-15934881D01*
X5230071Y-15896786D01*
X5230071Y-15849167D01*
X5239595Y-15811071D01*
X5249119Y-15792024D01*
X5258643Y-15782500D01*
X5277690Y-15772976D01*
X5534833Y-15972976D02*
X5420548Y-15972976D01*
X5477690Y-15972976D02*
X5477690Y-15772976D01*
X5458643Y-15801548D01*
X5439595Y-15820595D01*
X5420548Y-15830119D01*
X5715786Y-15772976D02*
X5620548Y-15772976D01*
X5611024Y-15868214D01*
X5620548Y-15858690D01*
X5639595Y-15849167D01*
X5687214Y-15849167D01*
X5706262Y-15858690D01*
X5715786Y-15868214D01*
X5725309Y-15887262D01*
X5725309Y-15934881D01*
X5715786Y-15953928D01*
X5706262Y-15963452D01*
X5687214Y-15972976D01*
X5639595Y-15972976D01*
X5620548Y-15963452D01*
X5611024Y-15953928D01*
X5791976Y-15772976D02*
X5925309Y-15772976D01*
X5839595Y-15972976D01*
X5991976Y-15772976D02*
X5991976Y-15811071D01*
X6068167Y-15772976D02*
X6068167Y-15811071D01*
X6363405Y-16049167D02*
X6353881Y-16039643D01*
X6334833Y-16011071D01*
X6325309Y-15992024D01*
X6315786Y-15963452D01*
X6306262Y-15915833D01*
X6306262Y-15877738D01*
X6315786Y-15830119D01*
X6325309Y-15801548D01*
X6334833Y-15782500D01*
X6353881Y-15753928D01*
X6363405Y-15744405D01*
X6544357Y-15972976D02*
X6430071Y-15972976D01*
X6487214Y-15972976D02*
X6487214Y-15772976D01*
X6468167Y-15801548D01*
X6449119Y-15820595D01*
X6430071Y-15830119D01*
X6639595Y-15972976D02*
X6677690Y-15972976D01*
X6696738Y-15963452D01*
X6706262Y-15953928D01*
X6725309Y-15925357D01*
X6734833Y-15887262D01*
X6734833Y-15811071D01*
X6725309Y-15792024D01*
X6715786Y-15782500D01*
X6696738Y-15772976D01*
X6658643Y-15772976D01*
X6639595Y-15782500D01*
X6630071Y-15792024D01*
X6620548Y-15811071D01*
X6620548Y-15858690D01*
X6630071Y-15877738D01*
X6639595Y-15887262D01*
X6658643Y-15896786D01*
X6696738Y-15896786D01*
X6715786Y-15887262D01*
X6725309Y-15877738D01*
X6734833Y-15858690D01*
X6972928Y-15972976D02*
X6972928Y-15772976D01*
X7058643Y-15972976D02*
X7058643Y-15868214D01*
X7049119Y-15849167D01*
X7030071Y-15839643D01*
X7001500Y-15839643D01*
X6982452Y-15849167D01*
X6972928Y-15858690D01*
X7182452Y-15972976D02*
X7163405Y-15963452D01*
X7153881Y-15953928D01*
X7144357Y-15934881D01*
X7144357Y-15877738D01*
X7153881Y-15858690D01*
X7163405Y-15849167D01*
X7182452Y-15839643D01*
X7211024Y-15839643D01*
X7230071Y-15849167D01*
X7239595Y-15858690D01*
X7249119Y-15877738D01*
X7249119Y-15934881D01*
X7239595Y-15953928D01*
X7230071Y-15963452D01*
X7211024Y-15972976D01*
X7182452Y-15972976D01*
X7363405Y-15972976D02*
X7344357Y-15963452D01*
X7334833Y-15944405D01*
X7334833Y-15772976D01*
X7515786Y-15963452D02*
X7496738Y-15972976D01*
X7458643Y-15972976D01*
X7439595Y-15963452D01*
X7430071Y-15944405D01*
X7430071Y-15868214D01*
X7439595Y-15849167D01*
X7458643Y-15839643D01*
X7496738Y-15839643D01*
X7515786Y-15849167D01*
X7525309Y-15868214D01*
X7525309Y-15887262D01*
X7430071Y-15906309D01*
X7601500Y-15963452D02*
X7620548Y-15972976D01*
X7658643Y-15972976D01*
X7677690Y-15963452D01*
X7687214Y-15944405D01*
X7687214Y-15934881D01*
X7677690Y-15915833D01*
X7658643Y-15906309D01*
X7630071Y-15906309D01*
X7611024Y-15896786D01*
X7601500Y-15877738D01*
X7601500Y-15868214D01*
X7611024Y-15849167D01*
X7630071Y-15839643D01*
X7658643Y-15839643D01*
X7677690Y-15849167D01*
X7753881Y-16049167D02*
X7763405Y-16039643D01*
X7782452Y-16011071D01*
X7791976Y-15992024D01*
X7801500Y-15963452D01*
X7811024Y-15915833D01*
X7811024Y-15877738D01*
X7801500Y-15830119D01*
X7791976Y-15801548D01*
X7782452Y-15782500D01*
X7763405Y-15753928D01*
X7753881Y-15744405D01*
D13*
X2791500Y-16146500D02*
G75*
G03*
X2791500Y-16146500I-50000J0D01*
G01*
D11*
X3153881Y-16236976D02*
X3039595Y-16236976D01*
X3096738Y-16236976D02*
X3096738Y-16036976D01*
X3077690Y-16065548D01*
X3058643Y-16084595D01*
X3039595Y-16094119D01*
X3239595Y-16217928D02*
X3249119Y-16227452D01*
X3239595Y-16236976D01*
X3230071Y-16227452D01*
X3239595Y-16217928D01*
X3239595Y-16236976D01*
X3372928Y-16036976D02*
X3391976Y-16036976D01*
X3411024Y-16046500D01*
X3420548Y-16056024D01*
X3430071Y-16075071D01*
X3439595Y-16113167D01*
X3439595Y-16160786D01*
X3430071Y-16198881D01*
X3420548Y-16217928D01*
X3411024Y-16227452D01*
X3391976Y-16236976D01*
X3372928Y-16236976D01*
X3353881Y-16227452D01*
X3344357Y-16217928D01*
X3334833Y-16198881D01*
X3325309Y-16160786D01*
X3325309Y-16113167D01*
X3334833Y-16075071D01*
X3344357Y-16056024D01*
X3353881Y-16046500D01*
X3372928Y-16036976D01*
X3563405Y-16036976D02*
X3582452Y-16036976D01*
X3601500Y-16046500D01*
X3611024Y-16056024D01*
X3620548Y-16075071D01*
X3630071Y-16113167D01*
X3630071Y-16160786D01*
X3620548Y-16198881D01*
X3611024Y-16217928D01*
X3601500Y-16227452D01*
X3582452Y-16236976D01*
X3563405Y-16236976D01*
X3544357Y-16227452D01*
X3534833Y-16217928D01*
X3525309Y-16198881D01*
X3515786Y-16160786D01*
X3515786Y-16113167D01*
X3525309Y-16075071D01*
X3534833Y-16056024D01*
X3544357Y-16046500D01*
X3563405Y-16036976D01*
X3753881Y-16036976D02*
X3772928Y-16036976D01*
X3791976Y-16046500D01*
X3801500Y-16056024D01*
X3811024Y-16075071D01*
X3820548Y-16113167D01*
X3820548Y-16160786D01*
X3811024Y-16198881D01*
X3801500Y-16217928D01*
X3791976Y-16227452D01*
X3772928Y-16236976D01*
X3753881Y-16236976D01*
X3734833Y-16227452D01*
X3725309Y-16217928D01*
X3715786Y-16198881D01*
X3706262Y-16160786D01*
X3706262Y-16113167D01*
X3715786Y-16075071D01*
X3725309Y-16056024D01*
X3734833Y-16046500D01*
X3753881Y-16036976D01*
X3906262Y-16236976D02*
X3906262Y-16103643D01*
X3906262Y-16122690D02*
X3915786Y-16113167D01*
X3934833Y-16103643D01*
X3963405Y-16103643D01*
X3982452Y-16113167D01*
X3991976Y-16132214D01*
X3991976Y-16236976D01*
X3991976Y-16132214D02*
X4001500Y-16113167D01*
X4020548Y-16103643D01*
X4049119Y-16103643D01*
X4068167Y-16113167D01*
X4077690Y-16132214D01*
X4077690Y-16236976D01*
X4172928Y-16236976D02*
X4172928Y-16103643D01*
X4172928Y-16122690D02*
X4182452Y-16113167D01*
X4201500Y-16103643D01*
X4230071Y-16103643D01*
X4249119Y-16113167D01*
X4258643Y-16132214D01*
X4258643Y-16236976D01*
X4258643Y-16132214D02*
X4268167Y-16113167D01*
X4287214Y-16103643D01*
X4315786Y-16103643D01*
X4334833Y-16113167D01*
X4344357Y-16132214D01*
X4344357Y-16236976D01*
X4734833Y-16027452D02*
X4563405Y-16284595D01*
X4991976Y-16036976D02*
X5011024Y-16036976D01*
X5030071Y-16046500D01*
X5039595Y-16056024D01*
X5049119Y-16075071D01*
X5058643Y-16113167D01*
X5058643Y-16160786D01*
X5049119Y-16198881D01*
X5039595Y-16217928D01*
X5030071Y-16227452D01*
X5011024Y-16236976D01*
X4991976Y-16236976D01*
X4972929Y-16227452D01*
X4963405Y-16217928D01*
X4953881Y-16198881D01*
X4944357Y-16160786D01*
X4944357Y-16113167D01*
X4953881Y-16075071D01*
X4963405Y-16056024D01*
X4972929Y-16046500D01*
X4991976Y-16036976D01*
X5144357Y-16217928D02*
X5153881Y-16227452D01*
X5144357Y-16236976D01*
X5134833Y-16227452D01*
X5144357Y-16217928D01*
X5144357Y-16236976D01*
X5277690Y-16036976D02*
X5296738Y-16036976D01*
X5315786Y-16046500D01*
X5325310Y-16056024D01*
X5334833Y-16075071D01*
X5344357Y-16113167D01*
X5344357Y-16160786D01*
X5334833Y-16198881D01*
X5325310Y-16217928D01*
X5315786Y-16227452D01*
X5296738Y-16236976D01*
X5277690Y-16236976D01*
X5258643Y-16227452D01*
X5249119Y-16217928D01*
X5239595Y-16198881D01*
X5230071Y-16160786D01*
X5230071Y-16113167D01*
X5239595Y-16075071D01*
X5249119Y-16056024D01*
X5258643Y-16046500D01*
X5277690Y-16036976D01*
X5411024Y-16036976D02*
X5534833Y-16036976D01*
X5468167Y-16113167D01*
X5496738Y-16113167D01*
X5515786Y-16122690D01*
X5525310Y-16132214D01*
X5534833Y-16151262D01*
X5534833Y-16198881D01*
X5525310Y-16217928D01*
X5515786Y-16227452D01*
X5496738Y-16236976D01*
X5439595Y-16236976D01*
X5420548Y-16227452D01*
X5411024Y-16217928D01*
X5630071Y-16236976D02*
X5668167Y-16236976D01*
X5687214Y-16227452D01*
X5696738Y-16217928D01*
X5715786Y-16189357D01*
X5725309Y-16151262D01*
X5725309Y-16075071D01*
X5715786Y-16056024D01*
X5706262Y-16046500D01*
X5687214Y-16036976D01*
X5649119Y-16036976D01*
X5630071Y-16046500D01*
X5620548Y-16056024D01*
X5611024Y-16075071D01*
X5611024Y-16122690D01*
X5620548Y-16141738D01*
X5630071Y-16151262D01*
X5649119Y-16160786D01*
X5687214Y-16160786D01*
X5706262Y-16151262D01*
X5715786Y-16141738D01*
X5725309Y-16122690D01*
X5896738Y-16103643D02*
X5896738Y-16236976D01*
X5849119Y-16027452D02*
X5801500Y-16170309D01*
X5925309Y-16170309D01*
X5991976Y-16036976D02*
X5991976Y-16075071D01*
X6068167Y-16036976D02*
X6068167Y-16075071D01*
X6363405Y-16313167D02*
X6353881Y-16303643D01*
X6334833Y-16275071D01*
X6325309Y-16256024D01*
X6315786Y-16227452D01*
X6306262Y-16179833D01*
X6306262Y-16141738D01*
X6315786Y-16094119D01*
X6325309Y-16065548D01*
X6334833Y-16046500D01*
X6353881Y-16017928D01*
X6363405Y-16008405D01*
X6534833Y-16036976D02*
X6439595Y-16036976D01*
X6430071Y-16132214D01*
X6439595Y-16122690D01*
X6458643Y-16113167D01*
X6506262Y-16113167D01*
X6525309Y-16122690D01*
X6534833Y-16132214D01*
X6544357Y-16151262D01*
X6544357Y-16198881D01*
X6534833Y-16217928D01*
X6525309Y-16227452D01*
X6506262Y-16236976D01*
X6458643Y-16236976D01*
X6439595Y-16227452D01*
X6430071Y-16217928D01*
X6725309Y-16036976D02*
X6630071Y-16036976D01*
X6620548Y-16132214D01*
X6630071Y-16122690D01*
X6649119Y-16113167D01*
X6696738Y-16113167D01*
X6715786Y-16122690D01*
X6725309Y-16132214D01*
X6734833Y-16151262D01*
X6734833Y-16198881D01*
X6725309Y-16217928D01*
X6715786Y-16227452D01*
X6696738Y-16236976D01*
X6649119Y-16236976D01*
X6630071Y-16227452D01*
X6620548Y-16217928D01*
X6972928Y-16236976D02*
X6972928Y-16036976D01*
X7058643Y-16236976D02*
X7058643Y-16132214D01*
X7049119Y-16113167D01*
X7030071Y-16103643D01*
X7001500Y-16103643D01*
X6982452Y-16113167D01*
X6972928Y-16122690D01*
X7182452Y-16236976D02*
X7163405Y-16227452D01*
X7153881Y-16217928D01*
X7144357Y-16198881D01*
X7144357Y-16141738D01*
X7153881Y-16122690D01*
X7163405Y-16113167D01*
X7182452Y-16103643D01*
X7211024Y-16103643D01*
X7230071Y-16113167D01*
X7239595Y-16122690D01*
X7249119Y-16141738D01*
X7249119Y-16198881D01*
X7239595Y-16217928D01*
X7230071Y-16227452D01*
X7211024Y-16236976D01*
X7182452Y-16236976D01*
X7363405Y-16236976D02*
X7344357Y-16227452D01*
X7334833Y-16208405D01*
X7334833Y-16036976D01*
X7515786Y-16227452D02*
X7496738Y-16236976D01*
X7458643Y-16236976D01*
X7439595Y-16227452D01*
X7430071Y-16208405D01*
X7430071Y-16132214D01*
X7439595Y-16113167D01*
X7458643Y-16103643D01*
X7496738Y-16103643D01*
X7515786Y-16113167D01*
X7525309Y-16132214D01*
X7525309Y-16151262D01*
X7430071Y-16170309D01*
X7601500Y-16227452D02*
X7620548Y-16236976D01*
X7658643Y-16236976D01*
X7677690Y-16227452D01*
X7687214Y-16208405D01*
X7687214Y-16198881D01*
X7677690Y-16179833D01*
X7658643Y-16170309D01*
X7630071Y-16170309D01*
X7611024Y-16160786D01*
X7601500Y-16141738D01*
X7601500Y-16132214D01*
X7611024Y-16113167D01*
X7630071Y-16103643D01*
X7658643Y-16103643D01*
X7677690Y-16113167D01*
X7753881Y-16313167D02*
X7763405Y-16303643D01*
X7782452Y-16275071D01*
X7791976Y-16256024D01*
X7801500Y-16227452D01*
X7811024Y-16179833D01*
X7811024Y-16141738D01*
X7801500Y-16094119D01*
X7791976Y-16065548D01*
X7782452Y-16046500D01*
X7763405Y-16017928D01*
X7753881Y-16008405D01*
D14*
X2716500Y-16335500D02*
X2716500Y-16485500D01*
X2641500Y-16410500D02*
X2791500Y-16410500D01*
D11*
X3153881Y-16500976D02*
X3039595Y-16500976D01*
X3096738Y-16500976D02*
X3096738Y-16300976D01*
X3077690Y-16329548D01*
X3058643Y-16348595D01*
X3039595Y-16358119D01*
X3239595Y-16481928D02*
X3249119Y-16491452D01*
X3239595Y-16500976D01*
X3230071Y-16491452D01*
X3239595Y-16481928D01*
X3239595Y-16500976D01*
X3430071Y-16300976D02*
X3334833Y-16300976D01*
X3325309Y-16396214D01*
X3334833Y-16386690D01*
X3353881Y-16377167D01*
X3401500Y-16377167D01*
X3420548Y-16386690D01*
X3430071Y-16396214D01*
X3439595Y-16415262D01*
X3439595Y-16462881D01*
X3430071Y-16481928D01*
X3420548Y-16491452D01*
X3401500Y-16500976D01*
X3353881Y-16500976D01*
X3334833Y-16491452D01*
X3325309Y-16481928D01*
X3563405Y-16300976D02*
X3582452Y-16300976D01*
X3601500Y-16310500D01*
X3611024Y-16320024D01*
X3620548Y-16339071D01*
X3630071Y-16377167D01*
X3630071Y-16424786D01*
X3620548Y-16462881D01*
X3611024Y-16481928D01*
X3601500Y-16491452D01*
X3582452Y-16500976D01*
X3563405Y-16500976D01*
X3544357Y-16491452D01*
X3534833Y-16481928D01*
X3525309Y-16462881D01*
X3515786Y-16424786D01*
X3515786Y-16377167D01*
X3525309Y-16339071D01*
X3534833Y-16320024D01*
X3544357Y-16310500D01*
X3563405Y-16300976D01*
X3753881Y-16300976D02*
X3772928Y-16300976D01*
X3791976Y-16310500D01*
X3801500Y-16320024D01*
X3811024Y-16339071D01*
X3820548Y-16377167D01*
X3820548Y-16424786D01*
X3811024Y-16462881D01*
X3801500Y-16481928D01*
X3791976Y-16491452D01*
X3772928Y-16500976D01*
X3753881Y-16500976D01*
X3734833Y-16491452D01*
X3725309Y-16481928D01*
X3715786Y-16462881D01*
X3706262Y-16424786D01*
X3706262Y-16377167D01*
X3715786Y-16339071D01*
X3725309Y-16320024D01*
X3734833Y-16310500D01*
X3753881Y-16300976D01*
X3906262Y-16500976D02*
X3906262Y-16367643D01*
X3906262Y-16386690D02*
X3915786Y-16377167D01*
X3934833Y-16367643D01*
X3963405Y-16367643D01*
X3982452Y-16377167D01*
X3991976Y-16396214D01*
X3991976Y-16500976D01*
X3991976Y-16396214D02*
X4001500Y-16377167D01*
X4020548Y-16367643D01*
X4049119Y-16367643D01*
X4068167Y-16377167D01*
X4077690Y-16396214D01*
X4077690Y-16500976D01*
X4172928Y-16500976D02*
X4172928Y-16367643D01*
X4172928Y-16386690D02*
X4182452Y-16377167D01*
X4201500Y-16367643D01*
X4230071Y-16367643D01*
X4249119Y-16377167D01*
X4258643Y-16396214D01*
X4258643Y-16500976D01*
X4258643Y-16396214D02*
X4268167Y-16377167D01*
X4287214Y-16367643D01*
X4315786Y-16367643D01*
X4334833Y-16377167D01*
X4344357Y-16396214D01*
X4344357Y-16500976D01*
X4734833Y-16291452D02*
X4563405Y-16548595D01*
X4991976Y-16300976D02*
X5011024Y-16300976D01*
X5030071Y-16310500D01*
X5039595Y-16320024D01*
X5049119Y-16339071D01*
X5058643Y-16377167D01*
X5058643Y-16424786D01*
X5049119Y-16462881D01*
X5039595Y-16481928D01*
X5030071Y-16491452D01*
X5011024Y-16500976D01*
X4991976Y-16500976D01*
X4972929Y-16491452D01*
X4963405Y-16481928D01*
X4953881Y-16462881D01*
X4944357Y-16424786D01*
X4944357Y-16377167D01*
X4953881Y-16339071D01*
X4963405Y-16320024D01*
X4972929Y-16310500D01*
X4991976Y-16300976D01*
X5144357Y-16481928D02*
X5153881Y-16491452D01*
X5144357Y-16500976D01*
X5134833Y-16491452D01*
X5144357Y-16481928D01*
X5144357Y-16500976D01*
X5277690Y-16300976D02*
X5296738Y-16300976D01*
X5315786Y-16310500D01*
X5325310Y-16320024D01*
X5334833Y-16339071D01*
X5344357Y-16377167D01*
X5344357Y-16424786D01*
X5334833Y-16462881D01*
X5325310Y-16481928D01*
X5315786Y-16491452D01*
X5296738Y-16500976D01*
X5277690Y-16500976D01*
X5258643Y-16491452D01*
X5249119Y-16481928D01*
X5239595Y-16462881D01*
X5230071Y-16424786D01*
X5230071Y-16377167D01*
X5239595Y-16339071D01*
X5249119Y-16320024D01*
X5258643Y-16310500D01*
X5277690Y-16300976D01*
X5525310Y-16300976D02*
X5430071Y-16300976D01*
X5420548Y-16396214D01*
X5430071Y-16386690D01*
X5449119Y-16377167D01*
X5496738Y-16377167D01*
X5515786Y-16386690D01*
X5525310Y-16396214D01*
X5534833Y-16415262D01*
X5534833Y-16462881D01*
X5525310Y-16481928D01*
X5515786Y-16491452D01*
X5496738Y-16500976D01*
X5449119Y-16500976D01*
X5430071Y-16491452D01*
X5420548Y-16481928D01*
X5630071Y-16500976D02*
X5668167Y-16500976D01*
X5687214Y-16491452D01*
X5696738Y-16481928D01*
X5715786Y-16453357D01*
X5725309Y-16415262D01*
X5725309Y-16339071D01*
X5715786Y-16320024D01*
X5706262Y-16310500D01*
X5687214Y-16300976D01*
X5649119Y-16300976D01*
X5630071Y-16310500D01*
X5620548Y-16320024D01*
X5611024Y-16339071D01*
X5611024Y-16386690D01*
X5620548Y-16405738D01*
X5630071Y-16415262D01*
X5649119Y-16424786D01*
X5687214Y-16424786D01*
X5706262Y-16415262D01*
X5715786Y-16405738D01*
X5725309Y-16386690D01*
X5915786Y-16500976D02*
X5801500Y-16500976D01*
X5858643Y-16500976D02*
X5858643Y-16300976D01*
X5839595Y-16329548D01*
X5820548Y-16348595D01*
X5801500Y-16358119D01*
X5991976Y-16300976D02*
X5991976Y-16339071D01*
X6068167Y-16300976D02*
X6068167Y-16339071D01*
X6363405Y-16577167D02*
X6353881Y-16567643D01*
X6334833Y-16539071D01*
X6325309Y-16520024D01*
X6315786Y-16491452D01*
X6306262Y-16443833D01*
X6306262Y-16405738D01*
X6315786Y-16358119D01*
X6325309Y-16329548D01*
X6334833Y-16310500D01*
X6353881Y-16281928D01*
X6363405Y-16272405D01*
X6430071Y-16320024D02*
X6439595Y-16310500D01*
X6458643Y-16300976D01*
X6506262Y-16300976D01*
X6525309Y-16310500D01*
X6534833Y-16320024D01*
X6544357Y-16339071D01*
X6544357Y-16358119D01*
X6534833Y-16386690D01*
X6420548Y-16500976D01*
X6544357Y-16500976D01*
X6620548Y-16320024D02*
X6630071Y-16310500D01*
X6649119Y-16300976D01*
X6696738Y-16300976D01*
X6715786Y-16310500D01*
X6725309Y-16320024D01*
X6734833Y-16339071D01*
X6734833Y-16358119D01*
X6725309Y-16386690D01*
X6611024Y-16500976D01*
X6734833Y-16500976D01*
X6972928Y-16500976D02*
X6972928Y-16300976D01*
X7058643Y-16500976D02*
X7058643Y-16396214D01*
X7049119Y-16377167D01*
X7030071Y-16367643D01*
X7001500Y-16367643D01*
X6982452Y-16377167D01*
X6972928Y-16386690D01*
X7182452Y-16500976D02*
X7163405Y-16491452D01*
X7153881Y-16481928D01*
X7144357Y-16462881D01*
X7144357Y-16405738D01*
X7153881Y-16386690D01*
X7163405Y-16377167D01*
X7182452Y-16367643D01*
X7211024Y-16367643D01*
X7230071Y-16377167D01*
X7239595Y-16386690D01*
X7249119Y-16405738D01*
X7249119Y-16462881D01*
X7239595Y-16481928D01*
X7230071Y-16491452D01*
X7211024Y-16500976D01*
X7182452Y-16500976D01*
X7363405Y-16500976D02*
X7344357Y-16491452D01*
X7334833Y-16472405D01*
X7334833Y-16300976D01*
X7515786Y-16491452D02*
X7496738Y-16500976D01*
X7458643Y-16500976D01*
X7439595Y-16491452D01*
X7430071Y-16472405D01*
X7430071Y-16396214D01*
X7439595Y-16377167D01*
X7458643Y-16367643D01*
X7496738Y-16367643D01*
X7515786Y-16377167D01*
X7525309Y-16396214D01*
X7525309Y-16415262D01*
X7430071Y-16434309D01*
X7601500Y-16491452D02*
X7620548Y-16500976D01*
X7658643Y-16500976D01*
X7677690Y-16491452D01*
X7687214Y-16472405D01*
X7687214Y-16462881D01*
X7677690Y-16443833D01*
X7658643Y-16434309D01*
X7630071Y-16434309D01*
X7611024Y-16424786D01*
X7601500Y-16405738D01*
X7601500Y-16396214D01*
X7611024Y-16377167D01*
X7630071Y-16367643D01*
X7658643Y-16367643D01*
X7677690Y-16377167D01*
X7753881Y-16577167D02*
X7763405Y-16567643D01*
X7782452Y-16539071D01*
X7791976Y-16520024D01*
X7801500Y-16491452D01*
X7811024Y-16443833D01*
X7811024Y-16405738D01*
X7801500Y-16358119D01*
X7791976Y-16329548D01*
X7782452Y-16310500D01*
X7763405Y-16281928D01*
X7753881Y-16272405D01*
M02*
