%TF.GenerationSoftware,KiCad,Pcbnew,(6.0.5)*%
%TF.CreationDate,2022-06-14T18:11:56+08:00*%
%TF.ProjectId,keyboard_V4___,6b657962-6f61-4726-945f-56345f087f2e,rev?*%
%TF.SameCoordinates,Original*%
%TF.FileFunction,Legend,Top*%
%TF.FilePolarity,Positive*%
%FSLAX46Y46*%
G04 Gerber Fmt 4.6, Leading zero omitted, Abs format (unit mm)*
G04 Created by KiCad (PCBNEW (6.0.5)) date 2022-06-14 18:11:56*
%MOMM*%
%LPD*%
G01*
G04 APERTURE LIST*
%TA.AperFunction,Profile*%
%ADD10C,0.050000*%
%TD*%
%ADD11C,0.200000*%
%ADD12C,0.150000*%
%ADD13C,0.300000*%
%ADD14C,0.120000*%
G04 APERTURE END LIST*
D10*
X110490000Y-125095000D02*
G75*
G03*
X109220000Y-123825000I-1270000J0D01*
G01*
X40005000Y-146050000D02*
G75*
G03*
X41275000Y-147320000I1270000J0D01*
G01*
X119380000Y-60960000D02*
X118110000Y-60960000D01*
X114300000Y-116840000D02*
X114300000Y-118110000D01*
X30480000Y-113030000D02*
X30480000Y-114300000D01*
X106680000Y-148590000D02*
X106680000Y-147320000D01*
X44450000Y-122555000D02*
X44450000Y-123825000D01*
X40005000Y-125095000D02*
X40005000Y-127000000D01*
X111760000Y-148590000D02*
X111760000Y-144780000D01*
X43241538Y-103567747D02*
X38059938Y-103567747D01*
X38059938Y-103567747D02*
X38059938Y-98356147D01*
X38059938Y-98356147D02*
X43241538Y-98356147D01*
X43241538Y-98356147D02*
X43241538Y-103567747D01*
X110490000Y-126365000D02*
X110490000Y-125095000D01*
X109220000Y-147320000D02*
G75*
G03*
X110490000Y-146050000I0J1270000D01*
G01*
X119380000Y-111760000D02*
X119380000Y-60960000D01*
X113030000Y-55880000D02*
X35560000Y-55880000D01*
X118110000Y-111760000D02*
X119380000Y-111760000D01*
X57789200Y-139414200D02*
X62970800Y-139414200D01*
X62970800Y-139414200D02*
X62970800Y-144666600D01*
X62970800Y-144666600D02*
X57789200Y-144666600D01*
X57789200Y-144666600D02*
X57789200Y-139414200D01*
X113030000Y-55880000D02*
X113030000Y-54610000D01*
X29210000Y-54610000D02*
X29210000Y-59690000D01*
X107950000Y-147320000D02*
X107950000Y-148590000D01*
X35560000Y-116840000D02*
X35560000Y-118110000D01*
X34290000Y-54610000D02*
X34290000Y-55880000D01*
X83870800Y-83235800D02*
X78689200Y-83235800D01*
X78689200Y-83235800D02*
X78689200Y-78054200D01*
X78689200Y-78054200D02*
X83870800Y-78054200D01*
X83870800Y-78054200D02*
X83870800Y-83235800D01*
X40005000Y-128270000D02*
X40005000Y-142240000D01*
X27940000Y-53340000D02*
X120650000Y-53340000D01*
X120650000Y-53340000D02*
X120650000Y-152400000D01*
X120650000Y-152400000D02*
X27940000Y-152400000D01*
X27940000Y-152400000D02*
X27940000Y-53340000D01*
X40005000Y-143510000D02*
X40005000Y-146050000D01*
X114300000Y-55880000D02*
X114300000Y-54610000D01*
X117332000Y-57658000D02*
G75*
G03*
X117332000Y-57658000I-1000000J0D01*
G01*
X110490000Y-144780000D02*
X110490000Y-146050000D01*
X38735000Y-142240000D02*
X38735000Y-128270000D01*
X110490000Y-143510000D02*
X111760000Y-143510000D01*
X111760000Y-143510000D02*
X111760000Y-127635000D01*
X34290000Y-54610000D02*
X29210000Y-54610000D01*
X30480000Y-60960000D02*
X29210000Y-60960000D01*
X83876806Y-103618547D02*
X78695206Y-103618547D01*
X78695206Y-103618547D02*
X78695206Y-98315347D01*
X78695206Y-98315347D02*
X83876806Y-98315347D01*
X83876806Y-98315347D02*
X83876806Y-103618547D01*
X35560000Y-54610000D02*
X35560000Y-55880000D01*
X43241538Y-83255800D02*
X38059938Y-83255800D01*
X38059938Y-83255800D02*
X38059938Y-78054200D01*
X38059938Y-78054200D02*
X43241538Y-78054200D01*
X43241538Y-78054200D02*
X43241538Y-83255800D01*
X111760000Y-144780000D02*
X110490000Y-144780000D01*
X38735000Y-143510000D02*
X40005000Y-143510000D01*
X91170000Y-146050000D02*
G75*
G03*
X91170000Y-146050000I-1000000J0D01*
G01*
X30480000Y-59690000D02*
X30480000Y-58420000D01*
X29210000Y-60960000D02*
X29210000Y-111760000D01*
X119380000Y-54610000D02*
X119380000Y-59690000D01*
X63559172Y-83255800D02*
X58377572Y-83255800D01*
X58377572Y-83255800D02*
X58377572Y-78054200D01*
X58377572Y-78054200D02*
X63559172Y-78054200D01*
X63559172Y-78054200D02*
X63559172Y-83255800D01*
X63550800Y-103575000D02*
X58369200Y-103575000D01*
X58369200Y-103575000D02*
X58369200Y-98322600D01*
X58369200Y-98322600D02*
X63550800Y-98322600D01*
X63550800Y-98322600D02*
X63550800Y-103575000D01*
X33020000Y-55880000D02*
X34290000Y-55880000D01*
X43815000Y-148590000D02*
X43815000Y-147320000D01*
X119380000Y-118110000D02*
X119380000Y-113030000D01*
X43180000Y-123825000D02*
X41275000Y-123825000D01*
X115570000Y-55880000D02*
X114300000Y-55880000D01*
X117332000Y-115062000D02*
G75*
G03*
X117332000Y-115062000I-1000000J0D01*
G01*
X41275000Y-123825000D02*
G75*
G03*
X40005000Y-125095000I0J-1270000D01*
G01*
X40005000Y-127000000D02*
X38735000Y-127000000D01*
X114300000Y-54610000D02*
X119380000Y-54610000D01*
X78109200Y-139398800D02*
X83290800Y-139398800D01*
X83290800Y-139398800D02*
X83290800Y-144651200D01*
X83290800Y-144651200D02*
X78109200Y-144651200D01*
X78109200Y-144651200D02*
X78109200Y-139398800D01*
X118110000Y-60960000D02*
X118110000Y-111760000D01*
X113030000Y-54610000D02*
X35560000Y-54610000D01*
X30480000Y-60960000D02*
X30480000Y-111760000D01*
X106680000Y-147320000D02*
X45085000Y-147320000D01*
X44450000Y-123825000D02*
X106680000Y-123825000D01*
X30480000Y-114300000D02*
G75*
G03*
X33020000Y-116840000I2540000J0D01*
G01*
X42275000Y-125095000D02*
G75*
G03*
X42275000Y-125095000I-1000000J0D01*
G01*
X45085000Y-147320000D02*
X45085000Y-148590000D01*
X110490000Y-127635000D02*
X110490000Y-143510000D01*
X111760000Y-122555000D02*
X111760000Y-126365000D01*
X30480000Y-113030000D02*
X29210000Y-113030000D01*
X107950000Y-148590000D02*
X111760000Y-148590000D01*
X43230800Y-62935800D02*
X38049200Y-62935800D01*
X38049200Y-62935800D02*
X38049200Y-57714200D01*
X38049200Y-57714200D02*
X43230800Y-57714200D01*
X43230800Y-57714200D02*
X43230800Y-62935800D01*
X34290000Y-118110000D02*
X34290000Y-116840000D01*
X38735000Y-122555000D02*
X43180000Y-122555000D01*
X29210000Y-111760000D02*
X30480000Y-111760000D01*
X40005000Y-142240000D02*
X38735000Y-142240000D01*
X111760000Y-127635000D02*
X110490000Y-127635000D01*
X113030000Y-118110000D02*
X113030000Y-116840000D01*
X119380000Y-59690000D02*
X118110000Y-59690000D01*
X106680000Y-122555000D02*
X44450000Y-122555000D01*
X43815000Y-147320000D02*
X41275000Y-147320000D01*
X45085000Y-148590000D02*
X106680000Y-148590000D01*
X115570000Y-116840000D02*
X114300000Y-116840000D01*
X118110000Y-58420000D02*
X118110000Y-59690000D01*
X114300000Y-118110000D02*
X119380000Y-118110000D01*
X109220000Y-123825000D02*
X107950000Y-123825000D01*
X35560000Y-116840000D02*
X113030000Y-116840000D01*
X29210000Y-113030000D02*
X29210000Y-118110000D01*
X107950000Y-123825000D02*
X107950000Y-122555000D01*
X34290000Y-116840000D02*
X33020000Y-116840000D01*
X83870800Y-62925800D02*
X78689200Y-62925800D01*
X78689200Y-62925800D02*
X78689200Y-57683400D01*
X78689200Y-57683400D02*
X83870800Y-57683400D01*
X83870800Y-57683400D02*
X83870800Y-62925800D01*
X38735000Y-127000000D02*
X38735000Y-122555000D01*
X107950000Y-122555000D02*
X111760000Y-122555000D01*
X35560000Y-118110000D02*
X113030000Y-118110000D01*
X33258000Y-57658000D02*
G75*
G03*
X33258000Y-57658000I-1000000J0D01*
G01*
X38735000Y-143510000D02*
X38735000Y-148590000D01*
X91170000Y-125095000D02*
G75*
G03*
X91170000Y-125095000I-1000000J0D01*
G01*
X29210000Y-118110000D02*
X34290000Y-118110000D01*
X33020000Y-55880000D02*
G75*
G03*
X30480000Y-58420000I0J-2540000D01*
G01*
X118110000Y-58420000D02*
G75*
G03*
X115570000Y-55880000I-2540000J0D01*
G01*
X63550800Y-62935800D02*
X58369200Y-62935800D01*
X58369200Y-62935800D02*
X58369200Y-57714200D01*
X58369200Y-57714200D02*
X63550800Y-57714200D01*
X63550800Y-57714200D02*
X63550800Y-62935800D01*
X98000000Y-94000000D02*
X113000000Y-94000000D01*
X113000000Y-94000000D02*
X113000000Y-114000000D01*
X113000000Y-114000000D02*
X98000000Y-114000000D01*
X98000000Y-114000000D02*
X98000000Y-94000000D01*
X29210000Y-59690000D02*
X30480000Y-59690000D01*
X43180000Y-122555000D02*
X43180000Y-123825000D01*
X106680000Y-123825000D02*
X106680000Y-122555000D01*
X42275000Y-146050000D02*
G75*
G03*
X42275000Y-146050000I-1000000J0D01*
G01*
X118110000Y-113030000D02*
X118110000Y-114300000D01*
X115570000Y-116840000D02*
G75*
G03*
X118110000Y-114300000I0J2540000D01*
G01*
X33258000Y-115062000D02*
G75*
G03*
X33258000Y-115062000I-1000000J0D01*
G01*
X38735000Y-148590000D02*
X43815000Y-148590000D01*
X109220000Y-147320000D02*
X107950000Y-147320000D01*
X119380000Y-113030000D02*
X118110000Y-113030000D01*
X111760000Y-126365000D02*
X110490000Y-126365000D01*
X38735000Y-128270000D02*
X40005000Y-128270000D01*
D11*
X94365000Y-70385714D02*
X94293571Y-70457142D01*
X94079285Y-70528571D01*
X93936428Y-70528571D01*
X93722142Y-70457142D01*
X93579285Y-70314285D01*
X93507857Y-70171428D01*
X93436428Y-69885714D01*
X93436428Y-69671428D01*
X93507857Y-69385714D01*
X93579285Y-69242857D01*
X93722142Y-69100000D01*
X93936428Y-69028571D01*
X94079285Y-69028571D01*
X94293571Y-69100000D01*
X94365000Y-69171428D01*
X95293571Y-69028571D02*
X95436428Y-69028571D01*
X95579285Y-69100000D01*
X95650714Y-69171428D01*
X95722142Y-69314285D01*
X95793571Y-69600000D01*
X95793571Y-69957142D01*
X95722142Y-70242857D01*
X95650714Y-70385714D01*
X95579285Y-70457142D01*
X95436428Y-70528571D01*
X95293571Y-70528571D01*
X95150714Y-70457142D01*
X95079285Y-70385714D01*
X95007857Y-70242857D01*
X94936428Y-69957142D01*
X94936428Y-69600000D01*
X95007857Y-69314285D01*
X95079285Y-69171428D01*
X95150714Y-69100000D01*
X95293571Y-69028571D01*
X95635000Y-135790714D02*
X95563571Y-135862142D01*
X95349285Y-135933571D01*
X95206428Y-135933571D01*
X94992142Y-135862142D01*
X94849285Y-135719285D01*
X94777857Y-135576428D01*
X94706428Y-135290714D01*
X94706428Y-135076428D01*
X94777857Y-134790714D01*
X94849285Y-134647857D01*
X94992142Y-134505000D01*
X95206428Y-134433571D01*
X95349285Y-134433571D01*
X95563571Y-134505000D01*
X95635000Y-134576428D01*
X96563571Y-134433571D02*
X96706428Y-134433571D01*
X96849285Y-134505000D01*
X96920714Y-134576428D01*
X96992142Y-134719285D01*
X97063571Y-135005000D01*
X97063571Y-135362142D01*
X96992142Y-135647857D01*
X96920714Y-135790714D01*
X96849285Y-135862142D01*
X96706428Y-135933571D01*
X96563571Y-135933571D01*
X96420714Y-135862142D01*
X96349285Y-135790714D01*
X96277857Y-135647857D01*
X96206428Y-135362142D01*
X96206428Y-135005000D01*
X96277857Y-134719285D01*
X96349285Y-134576428D01*
X96420714Y-134505000D01*
X96563571Y-134433571D01*
X94365000Y-67845714D02*
X94293571Y-67917142D01*
X94079285Y-67988571D01*
X93936428Y-67988571D01*
X93722142Y-67917142D01*
X93579285Y-67774285D01*
X93507857Y-67631428D01*
X93436428Y-67345714D01*
X93436428Y-67131428D01*
X93507857Y-66845714D01*
X93579285Y-66702857D01*
X93722142Y-66560000D01*
X93936428Y-66488571D01*
X94079285Y-66488571D01*
X94293571Y-66560000D01*
X94365000Y-66631428D01*
X95793571Y-67988571D02*
X94936428Y-67988571D01*
X95365000Y-67988571D02*
X95365000Y-66488571D01*
X95222142Y-66702857D01*
X95079285Y-66845714D01*
X94936428Y-66917142D01*
X95635000Y-133393571D02*
X95135000Y-132679285D01*
X94777857Y-133393571D02*
X94777857Y-131893571D01*
X95349285Y-131893571D01*
X95492142Y-131965000D01*
X95563571Y-132036428D01*
X95635000Y-132179285D01*
X95635000Y-132393571D01*
X95563571Y-132536428D01*
X95492142Y-132607857D01*
X95349285Y-132679285D01*
X94777857Y-132679285D01*
X96563571Y-131893571D02*
X96706428Y-131893571D01*
X96849285Y-131965000D01*
X96920714Y-132036428D01*
X96992142Y-132179285D01*
X97063571Y-132465000D01*
X97063571Y-132822142D01*
X96992142Y-133107857D01*
X96920714Y-133250714D01*
X96849285Y-133322142D01*
X96706428Y-133393571D01*
X96563571Y-133393571D01*
X96420714Y-133322142D01*
X96349285Y-133250714D01*
X96277857Y-133107857D01*
X96206428Y-132822142D01*
X96206428Y-132465000D01*
X96277857Y-132179285D01*
X96349285Y-132036428D01*
X96420714Y-131965000D01*
X96563571Y-131893571D01*
X94365000Y-65305714D02*
X94293571Y-65377142D01*
X94079285Y-65448571D01*
X93936428Y-65448571D01*
X93722142Y-65377142D01*
X93579285Y-65234285D01*
X93507857Y-65091428D01*
X93436428Y-64805714D01*
X93436428Y-64591428D01*
X93507857Y-64305714D01*
X93579285Y-64162857D01*
X93722142Y-64020000D01*
X93936428Y-63948571D01*
X94079285Y-63948571D01*
X94293571Y-64020000D01*
X94365000Y-64091428D01*
X94936428Y-64091428D02*
X95007857Y-64020000D01*
X95150714Y-63948571D01*
X95507857Y-63948571D01*
X95650714Y-64020000D01*
X95722142Y-64091428D01*
X95793571Y-64234285D01*
X95793571Y-64377142D01*
X95722142Y-64591428D01*
X94865000Y-65448571D01*
X95793571Y-65448571D01*
X94365000Y-78148571D02*
X93865000Y-77434285D01*
X93507857Y-78148571D02*
X93507857Y-76648571D01*
X94079285Y-76648571D01*
X94222142Y-76720000D01*
X94293571Y-76791428D01*
X94365000Y-76934285D01*
X94365000Y-77148571D01*
X94293571Y-77291428D01*
X94222142Y-77362857D01*
X94079285Y-77434285D01*
X93507857Y-77434285D01*
X95293571Y-76648571D02*
X95436428Y-76648571D01*
X95579285Y-76720000D01*
X95650714Y-76791428D01*
X95722142Y-76934285D01*
X95793571Y-77220000D01*
X95793571Y-77577142D01*
X95722142Y-77862857D01*
X95650714Y-78005714D01*
X95579285Y-78077142D01*
X95436428Y-78148571D01*
X95293571Y-78148571D01*
X95150714Y-78077142D01*
X95079285Y-78005714D01*
X95007857Y-77862857D01*
X94936428Y-77577142D01*
X94936428Y-77220000D01*
X95007857Y-76934285D01*
X95079285Y-76791428D01*
X95150714Y-76720000D01*
X95293571Y-76648571D01*
D12*
X103640000Y-89026904D02*
X103592380Y-89122142D01*
X103592380Y-89265000D01*
X103640000Y-89407857D01*
X103735238Y-89503095D01*
X103830476Y-89550714D01*
X104020952Y-89598333D01*
X104163809Y-89598333D01*
X104354285Y-89550714D01*
X104449523Y-89503095D01*
X104544761Y-89407857D01*
X104592380Y-89265000D01*
X104592380Y-89169761D01*
X104544761Y-89026904D01*
X104497142Y-88979285D01*
X104163809Y-88979285D01*
X104163809Y-89169761D01*
X104592380Y-88550714D02*
X103592380Y-88550714D01*
X104592380Y-87979285D01*
X103592380Y-87979285D01*
X104592380Y-87503095D02*
X103592380Y-87503095D01*
X103592380Y-87265000D01*
X103640000Y-87122142D01*
X103735238Y-87026904D01*
X103830476Y-86979285D01*
X104020952Y-86931666D01*
X104163809Y-86931666D01*
X104354285Y-86979285D01*
X104449523Y-87026904D01*
X104544761Y-87122142D01*
X104592380Y-87265000D01*
X104592380Y-87503095D01*
D13*
X116474761Y-105408571D02*
X114474761Y-105408571D01*
X114474761Y-104932380D01*
X114570000Y-104646666D01*
X114760476Y-104456190D01*
X114950952Y-104360952D01*
X115331904Y-104265714D01*
X115617619Y-104265714D01*
X115998571Y-104360952D01*
X116189047Y-104456190D01*
X116379523Y-104646666D01*
X116474761Y-104932380D01*
X116474761Y-105408571D01*
X116379523Y-102646666D02*
X116474761Y-102837142D01*
X116474761Y-103218095D01*
X116379523Y-103408571D01*
X116189047Y-103503809D01*
X115427142Y-103503809D01*
X115236666Y-103408571D01*
X115141428Y-103218095D01*
X115141428Y-102837142D01*
X115236666Y-102646666D01*
X115427142Y-102551428D01*
X115617619Y-102551428D01*
X115808095Y-103503809D01*
X116379523Y-101789523D02*
X116474761Y-101599047D01*
X116474761Y-101218095D01*
X116379523Y-101027619D01*
X116189047Y-100932380D01*
X116093809Y-100932380D01*
X115903333Y-101027619D01*
X115808095Y-101218095D01*
X115808095Y-101503809D01*
X115712857Y-101694285D01*
X115522380Y-101789523D01*
X115427142Y-101789523D01*
X115236666Y-101694285D01*
X115141428Y-101503809D01*
X115141428Y-101218095D01*
X115236666Y-101027619D01*
X116474761Y-100075238D02*
X115141428Y-100075238D01*
X114474761Y-100075238D02*
X114570000Y-100170476D01*
X114665238Y-100075238D01*
X114570000Y-99980000D01*
X114474761Y-100075238D01*
X114665238Y-100075238D01*
X115141428Y-98265714D02*
X116760476Y-98265714D01*
X116950952Y-98360952D01*
X117046190Y-98456190D01*
X117141428Y-98646666D01*
X117141428Y-98932380D01*
X117046190Y-99122857D01*
X116379523Y-98265714D02*
X116474761Y-98456190D01*
X116474761Y-98837142D01*
X116379523Y-99027619D01*
X116284285Y-99122857D01*
X116093809Y-99218095D01*
X115522380Y-99218095D01*
X115331904Y-99122857D01*
X115236666Y-99027619D01*
X115141428Y-98837142D01*
X115141428Y-98456190D01*
X115236666Y-98265714D01*
X115141428Y-97313333D02*
X116474761Y-97313333D01*
X115331904Y-97313333D02*
X115236666Y-97218095D01*
X115141428Y-97027619D01*
X115141428Y-96741904D01*
X115236666Y-96551428D01*
X115427142Y-96456190D01*
X116474761Y-96456190D01*
X115427142Y-93313333D02*
X115522380Y-93027619D01*
X115617619Y-92932380D01*
X115808095Y-92837142D01*
X116093809Y-92837142D01*
X116284285Y-92932380D01*
X116379523Y-93027619D01*
X116474761Y-93218095D01*
X116474761Y-93980000D01*
X114474761Y-93980000D01*
X114474761Y-93313333D01*
X114570000Y-93122857D01*
X114665238Y-93027619D01*
X114855714Y-92932380D01*
X115046190Y-92932380D01*
X115236666Y-93027619D01*
X115331904Y-93122857D01*
X115427142Y-93313333D01*
X115427142Y-93980000D01*
X115141428Y-92170476D02*
X116474761Y-91694285D01*
X115141428Y-91218095D02*
X116474761Y-91694285D01*
X116950952Y-91884761D01*
X117046190Y-91980000D01*
X117141428Y-92170476D01*
X115903333Y-89027619D02*
X115903333Y-88075238D01*
X116474761Y-89218095D02*
X114474761Y-88551428D01*
X116474761Y-87884761D01*
X116474761Y-86932380D02*
X116379523Y-87122857D01*
X116189047Y-87218095D01*
X114474761Y-87218095D01*
X116474761Y-85884761D02*
X116379523Y-86075238D01*
X116189047Y-86170476D01*
X114474761Y-86170476D01*
X116379523Y-84360952D02*
X116474761Y-84551428D01*
X116474761Y-84932380D01*
X116379523Y-85122857D01*
X116189047Y-85218095D01*
X115427142Y-85218095D01*
X115236666Y-85122857D01*
X115141428Y-84932380D01*
X115141428Y-84551428D01*
X115236666Y-84360952D01*
X115427142Y-84265714D01*
X115617619Y-84265714D01*
X115808095Y-85218095D01*
X115141428Y-83408571D02*
X116474761Y-83408571D01*
X115331904Y-83408571D02*
X115236666Y-83313333D01*
X115141428Y-83122857D01*
X115141428Y-82837142D01*
X115236666Y-82646666D01*
X115427142Y-82551428D01*
X116474761Y-82551428D01*
D12*
X107073959Y-89455476D02*
X107121578Y-89312619D01*
X107121578Y-89074523D01*
X107073959Y-88979285D01*
X107026340Y-88931666D01*
X106931102Y-88884047D01*
X106835864Y-88884047D01*
X106740626Y-88931666D01*
X106693007Y-88979285D01*
X106645388Y-89074523D01*
X106597769Y-89265000D01*
X106550150Y-89360238D01*
X106502531Y-89407857D01*
X106407293Y-89455476D01*
X106312055Y-89455476D01*
X106216817Y-89407857D01*
X106169198Y-89360238D01*
X106121578Y-89265000D01*
X106121578Y-89026904D01*
X106169198Y-88884047D01*
X107026340Y-87884047D02*
X107073959Y-87931666D01*
X107121578Y-88074523D01*
X107121578Y-88169761D01*
X107073959Y-88312619D01*
X106978721Y-88407857D01*
X106883483Y-88455476D01*
X106693007Y-88503095D01*
X106550150Y-88503095D01*
X106359674Y-88455476D01*
X106264436Y-88407857D01*
X106169198Y-88312619D01*
X106121578Y-88169761D01*
X106121578Y-88074523D01*
X106169198Y-87931666D01*
X106216817Y-87884047D01*
X107121578Y-86979285D02*
X107121578Y-87455476D01*
X106121578Y-87455476D01*
X117141523Y-112577619D02*
X117141523Y-113577619D01*
X116808190Y-112863333D01*
X116474857Y-113577619D01*
X116474857Y-112577619D01*
X116046285Y-113482380D02*
X115998666Y-113530000D01*
X115903428Y-113577619D01*
X115665333Y-113577619D01*
X115570095Y-113530000D01*
X115522476Y-113482380D01*
X115474857Y-113387142D01*
X115474857Y-113291904D01*
X115522476Y-113149047D01*
X116093904Y-112577619D01*
X115474857Y-112577619D01*
D11*
X95377142Y-127520000D02*
X95234285Y-127448571D01*
X95020000Y-127448571D01*
X94805714Y-127520000D01*
X94662857Y-127662857D01*
X94591428Y-127805714D01*
X94520000Y-128091428D01*
X94520000Y-128305714D01*
X94591428Y-128591428D01*
X94662857Y-128734285D01*
X94805714Y-128877142D01*
X95020000Y-128948571D01*
X95162857Y-128948571D01*
X95377142Y-128877142D01*
X95448571Y-128805714D01*
X95448571Y-128305714D01*
X95162857Y-128305714D01*
X96091428Y-128948571D02*
X96091428Y-127448571D01*
X96948571Y-128948571D01*
X96948571Y-127448571D01*
X97662857Y-128948571D02*
X97662857Y-127448571D01*
X98020000Y-127448571D01*
X98234285Y-127520000D01*
X98377142Y-127662857D01*
X98448571Y-127805714D01*
X98520000Y-128091428D01*
X98520000Y-128305714D01*
X98448571Y-128591428D01*
X98377142Y-128734285D01*
X98234285Y-128877142D01*
X98020000Y-128948571D01*
X97662857Y-128948571D01*
X92122857Y-61408571D02*
X93051428Y-61408571D01*
X92551428Y-61980000D01*
X92765714Y-61980000D01*
X92908571Y-62051428D01*
X92980000Y-62122857D01*
X93051428Y-62265714D01*
X93051428Y-62622857D01*
X92980000Y-62765714D01*
X92908571Y-62837142D01*
X92765714Y-62908571D01*
X92337142Y-62908571D01*
X92194285Y-62837142D01*
X92122857Y-62765714D01*
X93480000Y-61408571D02*
X93980000Y-62908571D01*
X94480000Y-61408571D01*
X94837142Y-61408571D02*
X95765714Y-61408571D01*
X95265714Y-61980000D01*
X95480000Y-61980000D01*
X95622857Y-62051428D01*
X95694285Y-62122857D01*
X95765714Y-62265714D01*
X95765714Y-62622857D01*
X95694285Y-62765714D01*
X95622857Y-62837142D01*
X95480000Y-62908571D01*
X95051428Y-62908571D01*
X94908571Y-62837142D01*
X94837142Y-62765714D01*
D12*
X109637525Y-89479285D02*
X109685144Y-89336428D01*
X109685144Y-89098333D01*
X109637525Y-89003095D01*
X109589906Y-88955476D01*
X109494668Y-88907857D01*
X109399430Y-88907857D01*
X109304192Y-88955476D01*
X109256573Y-89003095D01*
X109208954Y-89098333D01*
X109161335Y-89288809D01*
X109113716Y-89384047D01*
X109066097Y-89431666D01*
X108970859Y-89479285D01*
X108875621Y-89479285D01*
X108780383Y-89431666D01*
X108732764Y-89384047D01*
X108685144Y-89288809D01*
X108685144Y-89050714D01*
X108732764Y-88907857D01*
X109685144Y-88479285D02*
X108685144Y-88479285D01*
X108685144Y-88241190D01*
X108732764Y-88098333D01*
X108828002Y-88003095D01*
X108923240Y-87955476D01*
X109113716Y-87907857D01*
X109256573Y-87907857D01*
X109447049Y-87955476D01*
X109542287Y-88003095D01*
X109637525Y-88098333D01*
X109685144Y-88241190D01*
X109685144Y-88479285D01*
X109399430Y-87526904D02*
X109399430Y-87050714D01*
X109685144Y-87622142D02*
X108685144Y-87288809D01*
X109685144Y-86955476D01*
D11*
X94662857Y-129988571D02*
X95591428Y-129988571D01*
X95091428Y-130560000D01*
X95305714Y-130560000D01*
X95448571Y-130631428D01*
X95520000Y-130702857D01*
X95591428Y-130845714D01*
X95591428Y-131202857D01*
X95520000Y-131345714D01*
X95448571Y-131417142D01*
X95305714Y-131488571D01*
X94877142Y-131488571D01*
X94734285Y-131417142D01*
X94662857Y-131345714D01*
X96020000Y-129988571D02*
X96520000Y-131488571D01*
X97020000Y-129988571D01*
X97377142Y-129988571D02*
X98305714Y-129988571D01*
X97805714Y-130560000D01*
X98020000Y-130560000D01*
X98162857Y-130631428D01*
X98234285Y-130702857D01*
X98305714Y-130845714D01*
X98305714Y-131202857D01*
X98234285Y-131345714D01*
X98162857Y-131417142D01*
X98020000Y-131488571D01*
X97591428Y-131488571D01*
X97448571Y-131417142D01*
X97377142Y-131345714D01*
X94365000Y-73068571D02*
X93865000Y-72354285D01*
X93507857Y-73068571D02*
X93507857Y-71568571D01*
X94079285Y-71568571D01*
X94222142Y-71640000D01*
X94293571Y-71711428D01*
X94365000Y-71854285D01*
X94365000Y-72068571D01*
X94293571Y-72211428D01*
X94222142Y-72282857D01*
X94079285Y-72354285D01*
X93507857Y-72354285D01*
X94936428Y-71711428D02*
X95007857Y-71640000D01*
X95150714Y-71568571D01*
X95507857Y-71568571D01*
X95650714Y-71640000D01*
X95722142Y-71711428D01*
X95793571Y-71854285D01*
X95793571Y-71997142D01*
X95722142Y-72211428D01*
X94865000Y-73068571D01*
X95793571Y-73068571D01*
X95599285Y-124908571D02*
X94885000Y-124908571D01*
X94813571Y-125622857D01*
X94885000Y-125551428D01*
X95027857Y-125480000D01*
X95385000Y-125480000D01*
X95527857Y-125551428D01*
X95599285Y-125622857D01*
X95670714Y-125765714D01*
X95670714Y-126122857D01*
X95599285Y-126265714D01*
X95527857Y-126337142D01*
X95385000Y-126408571D01*
X95027857Y-126408571D01*
X94885000Y-126337142D01*
X94813571Y-126265714D01*
X96099285Y-124908571D02*
X96599285Y-126408571D01*
X97099285Y-124908571D01*
X95635000Y-138330714D02*
X95563571Y-138402142D01*
X95349285Y-138473571D01*
X95206428Y-138473571D01*
X94992142Y-138402142D01*
X94849285Y-138259285D01*
X94777857Y-138116428D01*
X94706428Y-137830714D01*
X94706428Y-137616428D01*
X94777857Y-137330714D01*
X94849285Y-137187857D01*
X94992142Y-137045000D01*
X95206428Y-136973571D01*
X95349285Y-136973571D01*
X95563571Y-137045000D01*
X95635000Y-137116428D01*
X97063571Y-138473571D02*
X96206428Y-138473571D01*
X96635000Y-138473571D02*
X96635000Y-136973571D01*
X96492142Y-137187857D01*
X96349285Y-137330714D01*
X96206428Y-137402142D01*
D12*
X101062380Y-87820476D02*
X101062380Y-88296666D01*
X101538571Y-88344285D01*
X101490952Y-88296666D01*
X101443333Y-88201428D01*
X101443333Y-87963333D01*
X101490952Y-87868095D01*
X101538571Y-87820476D01*
X101633809Y-87772857D01*
X101871904Y-87772857D01*
X101967142Y-87820476D01*
X102014761Y-87868095D01*
X102062380Y-87963333D01*
X102062380Y-88201428D01*
X102014761Y-88296666D01*
X101967142Y-88344285D01*
X101062380Y-87487142D02*
X102062380Y-87153809D01*
X101062380Y-86820476D01*
D11*
X92837142Y-58940000D02*
X92694285Y-58868571D01*
X92480000Y-58868571D01*
X92265714Y-58940000D01*
X92122857Y-59082857D01*
X92051428Y-59225714D01*
X91980000Y-59511428D01*
X91980000Y-59725714D01*
X92051428Y-60011428D01*
X92122857Y-60154285D01*
X92265714Y-60297142D01*
X92480000Y-60368571D01*
X92622857Y-60368571D01*
X92837142Y-60297142D01*
X92908571Y-60225714D01*
X92908571Y-59725714D01*
X92622857Y-59725714D01*
X93551428Y-60368571D02*
X93551428Y-58868571D01*
X94408571Y-60368571D01*
X94408571Y-58868571D01*
X95122857Y-60368571D02*
X95122857Y-58868571D01*
X95480000Y-58868571D01*
X95694285Y-58940000D01*
X95837142Y-59082857D01*
X95908571Y-59225714D01*
X95980000Y-59511428D01*
X95980000Y-59725714D01*
X95908571Y-60011428D01*
X95837142Y-60154285D01*
X95694285Y-60297142D01*
X95480000Y-60368571D01*
X95122857Y-60368571D01*
X94365000Y-75608571D02*
X93865000Y-74894285D01*
X93507857Y-75608571D02*
X93507857Y-74108571D01*
X94079285Y-74108571D01*
X94222142Y-74180000D01*
X94293571Y-74251428D01*
X94365000Y-74394285D01*
X94365000Y-74608571D01*
X94293571Y-74751428D01*
X94222142Y-74822857D01*
X94079285Y-74894285D01*
X93507857Y-74894285D01*
X95793571Y-75608571D02*
X94936428Y-75608571D01*
X95365000Y-75608571D02*
X95365000Y-74108571D01*
X95222142Y-74322857D01*
X95079285Y-74465714D01*
X94936428Y-74537142D01*
X94329285Y-56328571D02*
X93615000Y-56328571D01*
X93543571Y-57042857D01*
X93615000Y-56971428D01*
X93757857Y-56900000D01*
X94115000Y-56900000D01*
X94257857Y-56971428D01*
X94329285Y-57042857D01*
X94400714Y-57185714D01*
X94400714Y-57542857D01*
X94329285Y-57685714D01*
X94257857Y-57757142D01*
X94115000Y-57828571D01*
X93757857Y-57828571D01*
X93615000Y-57757142D01*
X93543571Y-57685714D01*
X94829285Y-56328571D02*
X95329285Y-57828571D01*
X95829285Y-56328571D01*
D12*
%TO.C,MODE\uFF13*%
X43386666Y-140627380D02*
X43386666Y-139627380D01*
X43720000Y-140341666D01*
X44053333Y-139627380D01*
X44053333Y-140627380D01*
X44720000Y-139627380D02*
X44910476Y-139627380D01*
X45005714Y-139675000D01*
X45100952Y-139770238D01*
X45148571Y-139960714D01*
X45148571Y-140294047D01*
X45100952Y-140484523D01*
X45005714Y-140579761D01*
X44910476Y-140627380D01*
X44720000Y-140627380D01*
X44624761Y-140579761D01*
X44529523Y-140484523D01*
X44481904Y-140294047D01*
X44481904Y-139960714D01*
X44529523Y-139770238D01*
X44624761Y-139675000D01*
X44720000Y-139627380D01*
X45577142Y-140627380D02*
X45577142Y-139627380D01*
X45815238Y-139627380D01*
X45958095Y-139675000D01*
X46053333Y-139770238D01*
X46100952Y-139865476D01*
X46148571Y-140055952D01*
X46148571Y-140198809D01*
X46100952Y-140389285D01*
X46053333Y-140484523D01*
X45958095Y-140579761D01*
X45815238Y-140627380D01*
X45577142Y-140627380D01*
X46577142Y-140103571D02*
X46910476Y-140103571D01*
X47053333Y-140627380D02*
X46577142Y-140627380D01*
X46577142Y-139627380D01*
X47053333Y-139627380D01*
X47434285Y-139627380D02*
X48053333Y-139627380D01*
X47720000Y-140008333D01*
X47862857Y-140008333D01*
X47958095Y-140055952D01*
X48005714Y-140103571D01*
X48053333Y-140198809D01*
X48053333Y-140436904D01*
X48005714Y-140532142D01*
X47958095Y-140579761D01*
X47862857Y-140627380D01*
X47577142Y-140627380D01*
X47481904Y-140579761D01*
X47434285Y-140532142D01*
%TO.C,MODE\uFF12*%
X43386666Y-135547380D02*
X43386666Y-134547380D01*
X43720000Y-135261666D01*
X44053333Y-134547380D01*
X44053333Y-135547380D01*
X44720000Y-134547380D02*
X44910476Y-134547380D01*
X45005714Y-134595000D01*
X45100952Y-134690238D01*
X45148571Y-134880714D01*
X45148571Y-135214047D01*
X45100952Y-135404523D01*
X45005714Y-135499761D01*
X44910476Y-135547380D01*
X44720000Y-135547380D01*
X44624761Y-135499761D01*
X44529523Y-135404523D01*
X44481904Y-135214047D01*
X44481904Y-134880714D01*
X44529523Y-134690238D01*
X44624761Y-134595000D01*
X44720000Y-134547380D01*
X45577142Y-135547380D02*
X45577142Y-134547380D01*
X45815238Y-134547380D01*
X45958095Y-134595000D01*
X46053333Y-134690238D01*
X46100952Y-134785476D01*
X46148571Y-134975952D01*
X46148571Y-135118809D01*
X46100952Y-135309285D01*
X46053333Y-135404523D01*
X45958095Y-135499761D01*
X45815238Y-135547380D01*
X45577142Y-135547380D01*
X46577142Y-135023571D02*
X46910476Y-135023571D01*
X47053333Y-135547380D02*
X46577142Y-135547380D01*
X46577142Y-134547380D01*
X47053333Y-134547380D01*
X47481904Y-134642619D02*
X47529523Y-134595000D01*
X47624761Y-134547380D01*
X47862857Y-134547380D01*
X47958095Y-134595000D01*
X48005714Y-134642619D01*
X48053333Y-134737857D01*
X48053333Y-134833095D01*
X48005714Y-134975952D01*
X47434285Y-135547380D01*
X48053333Y-135547380D01*
%TO.C,MODE\uFF11*%
X43386666Y-130467380D02*
X43386666Y-129467380D01*
X43720000Y-130181666D01*
X44053333Y-129467380D01*
X44053333Y-130467380D01*
X44720000Y-129467380D02*
X44910476Y-129467380D01*
X45005714Y-129515000D01*
X45100952Y-129610238D01*
X45148571Y-129800714D01*
X45148571Y-130134047D01*
X45100952Y-130324523D01*
X45005714Y-130419761D01*
X44910476Y-130467380D01*
X44720000Y-130467380D01*
X44624761Y-130419761D01*
X44529523Y-130324523D01*
X44481904Y-130134047D01*
X44481904Y-129800714D01*
X44529523Y-129610238D01*
X44624761Y-129515000D01*
X44720000Y-129467380D01*
X45577142Y-130467380D02*
X45577142Y-129467380D01*
X45815238Y-129467380D01*
X45958095Y-129515000D01*
X46053333Y-129610238D01*
X46100952Y-129705476D01*
X46148571Y-129895952D01*
X46148571Y-130038809D01*
X46100952Y-130229285D01*
X46053333Y-130324523D01*
X45958095Y-130419761D01*
X45815238Y-130467380D01*
X45577142Y-130467380D01*
X46577142Y-129943571D02*
X46910476Y-129943571D01*
X47053333Y-130467380D02*
X46577142Y-130467380D01*
X46577142Y-129467380D01*
X47053333Y-129467380D01*
X48053333Y-130467380D02*
X47481904Y-130467380D01*
X47767619Y-130467380D02*
X47767619Y-129467380D01*
X47672380Y-129610238D01*
X47577142Y-129705476D01*
X47481904Y-129753095D01*
%TO.C,TS4148*%
X72179057Y-94067909D02*
X72179057Y-93496481D01*
X73179057Y-93782195D02*
X72179057Y-93782195D01*
X73131438Y-93210766D02*
X73179057Y-93067909D01*
X73179057Y-92829814D01*
X73131438Y-92734576D01*
X73083819Y-92686957D01*
X72988581Y-92639338D01*
X72893343Y-92639338D01*
X72798105Y-92686957D01*
X72750486Y-92734576D01*
X72702867Y-92829814D01*
X72655248Y-93020290D01*
X72607629Y-93115528D01*
X72560010Y-93163147D01*
X72464772Y-93210766D01*
X72369534Y-93210766D01*
X72274296Y-93163147D01*
X72226677Y-93115528D01*
X72179057Y-93020290D01*
X72179057Y-92782195D01*
X72226677Y-92639338D01*
X72512391Y-91782195D02*
X73179057Y-91782195D01*
X72131438Y-92020290D02*
X72845724Y-92258385D01*
X72845724Y-91639338D01*
X73179057Y-90734576D02*
X73179057Y-91306004D01*
X73179057Y-91020290D02*
X72179057Y-91020290D01*
X72321915Y-91115528D01*
X72417153Y-91210766D01*
X72464772Y-91306004D01*
X72512391Y-89877433D02*
X73179057Y-89877433D01*
X72131438Y-90115528D02*
X72845724Y-90353623D01*
X72845724Y-89734576D01*
X72607629Y-89210766D02*
X72560010Y-89306004D01*
X72512391Y-89353623D01*
X72417153Y-89401243D01*
X72369534Y-89401243D01*
X72274296Y-89353623D01*
X72226677Y-89306004D01*
X72179057Y-89210766D01*
X72179057Y-89020290D01*
X72226677Y-88925052D01*
X72274296Y-88877433D01*
X72369534Y-88829814D01*
X72417153Y-88829814D01*
X72512391Y-88877433D01*
X72560010Y-88925052D01*
X72607629Y-89020290D01*
X72607629Y-89210766D01*
X72655248Y-89306004D01*
X72702867Y-89353623D01*
X72798105Y-89401243D01*
X72988581Y-89401243D01*
X73083819Y-89353623D01*
X73131438Y-89306004D01*
X73179057Y-89210766D01*
X73179057Y-89020290D01*
X73131438Y-88925052D01*
X73083819Y-88877433D01*
X72988581Y-88829814D01*
X72798105Y-88829814D01*
X72702867Y-88877433D01*
X72655248Y-88925052D01*
X72607629Y-89020290D01*
%TO.C,SW7*%
X39306666Y-74318761D02*
X39449523Y-74366380D01*
X39687619Y-74366380D01*
X39782857Y-74318761D01*
X39830476Y-74271142D01*
X39878095Y-74175904D01*
X39878095Y-74080666D01*
X39830476Y-73985428D01*
X39782857Y-73937809D01*
X39687619Y-73890190D01*
X39497142Y-73842571D01*
X39401904Y-73794952D01*
X39354285Y-73747333D01*
X39306666Y-73652095D01*
X39306666Y-73556857D01*
X39354285Y-73461619D01*
X39401904Y-73414000D01*
X39497142Y-73366380D01*
X39735238Y-73366380D01*
X39878095Y-73414000D01*
X40211428Y-73366380D02*
X40449523Y-74366380D01*
X40640000Y-73652095D01*
X40830476Y-74366380D01*
X41068571Y-73366380D01*
X41354285Y-73366380D02*
X42020952Y-73366380D01*
X41592380Y-74366380D01*
%TO.C,SW8*%
X59626666Y-74318761D02*
X59769523Y-74366380D01*
X60007619Y-74366380D01*
X60102857Y-74318761D01*
X60150476Y-74271142D01*
X60198095Y-74175904D01*
X60198095Y-74080666D01*
X60150476Y-73985428D01*
X60102857Y-73937809D01*
X60007619Y-73890190D01*
X59817142Y-73842571D01*
X59721904Y-73794952D01*
X59674285Y-73747333D01*
X59626666Y-73652095D01*
X59626666Y-73556857D01*
X59674285Y-73461619D01*
X59721904Y-73414000D01*
X59817142Y-73366380D01*
X60055238Y-73366380D01*
X60198095Y-73414000D01*
X60531428Y-73366380D02*
X60769523Y-74366380D01*
X60960000Y-73652095D01*
X61150476Y-74366380D01*
X61388571Y-73366380D01*
X61912380Y-73794952D02*
X61817142Y-73747333D01*
X61769523Y-73699714D01*
X61721904Y-73604476D01*
X61721904Y-73556857D01*
X61769523Y-73461619D01*
X61817142Y-73414000D01*
X61912380Y-73366380D01*
X62102857Y-73366380D01*
X62198095Y-73414000D01*
X62245714Y-73461619D01*
X62293333Y-73556857D01*
X62293333Y-73604476D01*
X62245714Y-73699714D01*
X62198095Y-73747333D01*
X62102857Y-73794952D01*
X61912380Y-73794952D01*
X61817142Y-73842571D01*
X61769523Y-73890190D01*
X61721904Y-73985428D01*
X61721904Y-74175904D01*
X61769523Y-74271142D01*
X61817142Y-74318761D01*
X61912380Y-74366380D01*
X62102857Y-74366380D01*
X62198095Y-74318761D01*
X62245714Y-74271142D01*
X62293333Y-74175904D01*
X62293333Y-73985428D01*
X62245714Y-73890190D01*
X62198095Y-73842571D01*
X62102857Y-73794952D01*
%TO.C,TS4148*%
X51932380Y-73786666D02*
X51932380Y-73215238D01*
X52932380Y-73500952D02*
X51932380Y-73500952D01*
X52884761Y-72929523D02*
X52932380Y-72786666D01*
X52932380Y-72548571D01*
X52884761Y-72453333D01*
X52837142Y-72405714D01*
X52741904Y-72358095D01*
X52646666Y-72358095D01*
X52551428Y-72405714D01*
X52503809Y-72453333D01*
X52456190Y-72548571D01*
X52408571Y-72739047D01*
X52360952Y-72834285D01*
X52313333Y-72881904D01*
X52218095Y-72929523D01*
X52122857Y-72929523D01*
X52027619Y-72881904D01*
X51980000Y-72834285D01*
X51932380Y-72739047D01*
X51932380Y-72500952D01*
X51980000Y-72358095D01*
X52265714Y-71500952D02*
X52932380Y-71500952D01*
X51884761Y-71739047D02*
X52599047Y-71977142D01*
X52599047Y-71358095D01*
X52932380Y-70453333D02*
X52932380Y-71024761D01*
X52932380Y-70739047D02*
X51932380Y-70739047D01*
X52075238Y-70834285D01*
X52170476Y-70929523D01*
X52218095Y-71024761D01*
X52265714Y-69596190D02*
X52932380Y-69596190D01*
X51884761Y-69834285D02*
X52599047Y-70072380D01*
X52599047Y-69453333D01*
X52360952Y-68929523D02*
X52313333Y-69024761D01*
X52265714Y-69072380D01*
X52170476Y-69120000D01*
X52122857Y-69120000D01*
X52027619Y-69072380D01*
X51980000Y-69024761D01*
X51932380Y-68929523D01*
X51932380Y-68739047D01*
X51980000Y-68643809D01*
X52027619Y-68596190D01*
X52122857Y-68548571D01*
X52170476Y-68548571D01*
X52265714Y-68596190D01*
X52313333Y-68643809D01*
X52360952Y-68739047D01*
X52360952Y-68929523D01*
X52408571Y-69024761D01*
X52456190Y-69072380D01*
X52551428Y-69120000D01*
X52741904Y-69120000D01*
X52837142Y-69072380D01*
X52884761Y-69024761D01*
X52932380Y-68929523D01*
X52932380Y-68739047D01*
X52884761Y-68643809D01*
X52837142Y-68596190D01*
X52741904Y-68548571D01*
X52551428Y-68548571D01*
X52456190Y-68596190D01*
X52408571Y-68643809D01*
X52360952Y-68739047D01*
X72252380Y-109346666D02*
X72252380Y-108775238D01*
X73252380Y-109060952D02*
X72252380Y-109060952D01*
X73204761Y-108489523D02*
X73252380Y-108346666D01*
X73252380Y-108108571D01*
X73204761Y-108013333D01*
X73157142Y-107965714D01*
X73061904Y-107918095D01*
X72966666Y-107918095D01*
X72871428Y-107965714D01*
X72823809Y-108013333D01*
X72776190Y-108108571D01*
X72728571Y-108299047D01*
X72680952Y-108394285D01*
X72633333Y-108441904D01*
X72538095Y-108489523D01*
X72442857Y-108489523D01*
X72347619Y-108441904D01*
X72300000Y-108394285D01*
X72252380Y-108299047D01*
X72252380Y-108060952D01*
X72300000Y-107918095D01*
X72585714Y-107060952D02*
X73252380Y-107060952D01*
X72204761Y-107299047D02*
X72919047Y-107537142D01*
X72919047Y-106918095D01*
X73252380Y-106013333D02*
X73252380Y-106584761D01*
X73252380Y-106299047D02*
X72252380Y-106299047D01*
X72395238Y-106394285D01*
X72490476Y-106489523D01*
X72538095Y-106584761D01*
X72585714Y-105156190D02*
X73252380Y-105156190D01*
X72204761Y-105394285D02*
X72919047Y-105632380D01*
X72919047Y-105013333D01*
X72680952Y-104489523D02*
X72633333Y-104584761D01*
X72585714Y-104632380D01*
X72490476Y-104680000D01*
X72442857Y-104680000D01*
X72347619Y-104632380D01*
X72300000Y-104584761D01*
X72252380Y-104489523D01*
X72252380Y-104299047D01*
X72300000Y-104203809D01*
X72347619Y-104156190D01*
X72442857Y-104108571D01*
X72490476Y-104108571D01*
X72585714Y-104156190D01*
X72633333Y-104203809D01*
X72680952Y-104299047D01*
X72680952Y-104489523D01*
X72728571Y-104584761D01*
X72776190Y-104632380D01*
X72871428Y-104680000D01*
X73061904Y-104680000D01*
X73157142Y-104632380D01*
X73204761Y-104584761D01*
X73252380Y-104489523D01*
X73252380Y-104299047D01*
X73204761Y-104203809D01*
X73157142Y-104156190D01*
X73061904Y-104108571D01*
X72871428Y-104108571D01*
X72776190Y-104156190D01*
X72728571Y-104203809D01*
X72680952Y-104299047D01*
X91302380Y-73786666D02*
X91302380Y-73215238D01*
X92302380Y-73500952D02*
X91302380Y-73500952D01*
X92254761Y-72929523D02*
X92302380Y-72786666D01*
X92302380Y-72548571D01*
X92254761Y-72453333D01*
X92207142Y-72405714D01*
X92111904Y-72358095D01*
X92016666Y-72358095D01*
X91921428Y-72405714D01*
X91873809Y-72453333D01*
X91826190Y-72548571D01*
X91778571Y-72739047D01*
X91730952Y-72834285D01*
X91683333Y-72881904D01*
X91588095Y-72929523D01*
X91492857Y-72929523D01*
X91397619Y-72881904D01*
X91350000Y-72834285D01*
X91302380Y-72739047D01*
X91302380Y-72500952D01*
X91350000Y-72358095D01*
X91635714Y-71500952D02*
X92302380Y-71500952D01*
X91254761Y-71739047D02*
X91969047Y-71977142D01*
X91969047Y-71358095D01*
X92302380Y-70453333D02*
X92302380Y-71024761D01*
X92302380Y-70739047D02*
X91302380Y-70739047D01*
X91445238Y-70834285D01*
X91540476Y-70929523D01*
X91588095Y-71024761D01*
X91635714Y-69596190D02*
X92302380Y-69596190D01*
X91254761Y-69834285D02*
X91969047Y-70072380D01*
X91969047Y-69453333D01*
X91730952Y-68929523D02*
X91683333Y-69024761D01*
X91635714Y-69072380D01*
X91540476Y-69120000D01*
X91492857Y-69120000D01*
X91397619Y-69072380D01*
X91350000Y-69024761D01*
X91302380Y-68929523D01*
X91302380Y-68739047D01*
X91350000Y-68643809D01*
X91397619Y-68596190D01*
X91492857Y-68548571D01*
X91540476Y-68548571D01*
X91635714Y-68596190D01*
X91683333Y-68643809D01*
X91730952Y-68739047D01*
X91730952Y-68929523D01*
X91778571Y-69024761D01*
X91826190Y-69072380D01*
X91921428Y-69120000D01*
X92111904Y-69120000D01*
X92207142Y-69072380D01*
X92254761Y-69024761D01*
X92302380Y-68929523D01*
X92302380Y-68739047D01*
X92254761Y-68643809D01*
X92207142Y-68596190D01*
X92111904Y-68548571D01*
X91921428Y-68548571D01*
X91826190Y-68596190D01*
X91778571Y-68643809D01*
X91730952Y-68739047D01*
X51932380Y-94106666D02*
X51932380Y-93535238D01*
X52932380Y-93820952D02*
X51932380Y-93820952D01*
X52884761Y-93249523D02*
X52932380Y-93106666D01*
X52932380Y-92868571D01*
X52884761Y-92773333D01*
X52837142Y-92725714D01*
X52741904Y-92678095D01*
X52646666Y-92678095D01*
X52551428Y-92725714D01*
X52503809Y-92773333D01*
X52456190Y-92868571D01*
X52408571Y-93059047D01*
X52360952Y-93154285D01*
X52313333Y-93201904D01*
X52218095Y-93249523D01*
X52122857Y-93249523D01*
X52027619Y-93201904D01*
X51980000Y-93154285D01*
X51932380Y-93059047D01*
X51932380Y-92820952D01*
X51980000Y-92678095D01*
X52265714Y-91820952D02*
X52932380Y-91820952D01*
X51884761Y-92059047D02*
X52599047Y-92297142D01*
X52599047Y-91678095D01*
X52932380Y-90773333D02*
X52932380Y-91344761D01*
X52932380Y-91059047D02*
X51932380Y-91059047D01*
X52075238Y-91154285D01*
X52170476Y-91249523D01*
X52218095Y-91344761D01*
X52265714Y-89916190D02*
X52932380Y-89916190D01*
X51884761Y-90154285D02*
X52599047Y-90392380D01*
X52599047Y-89773333D01*
X52360952Y-89249523D02*
X52313333Y-89344761D01*
X52265714Y-89392380D01*
X52170476Y-89440000D01*
X52122857Y-89440000D01*
X52027619Y-89392380D01*
X51980000Y-89344761D01*
X51932380Y-89249523D01*
X51932380Y-89059047D01*
X51980000Y-88963809D01*
X52027619Y-88916190D01*
X52122857Y-88868571D01*
X52170476Y-88868571D01*
X52265714Y-88916190D01*
X52313333Y-88963809D01*
X52360952Y-89059047D01*
X52360952Y-89249523D01*
X52408571Y-89344761D01*
X52456190Y-89392380D01*
X52551428Y-89440000D01*
X52741904Y-89440000D01*
X52837142Y-89392380D01*
X52884761Y-89344761D01*
X52932380Y-89249523D01*
X52932380Y-89059047D01*
X52884761Y-88963809D01*
X52837142Y-88916190D01*
X52741904Y-88868571D01*
X52551428Y-88868571D01*
X52456190Y-88916190D01*
X52408571Y-88963809D01*
X52360952Y-89059047D01*
%TO.C,SW3*%
X79946666Y-114958761D02*
X80089523Y-115006380D01*
X80327619Y-115006380D01*
X80422857Y-114958761D01*
X80470476Y-114911142D01*
X80518095Y-114815904D01*
X80518095Y-114720666D01*
X80470476Y-114625428D01*
X80422857Y-114577809D01*
X80327619Y-114530190D01*
X80137142Y-114482571D01*
X80041904Y-114434952D01*
X79994285Y-114387333D01*
X79946666Y-114292095D01*
X79946666Y-114196857D01*
X79994285Y-114101619D01*
X80041904Y-114054000D01*
X80137142Y-114006380D01*
X80375238Y-114006380D01*
X80518095Y-114054000D01*
X80851428Y-114006380D02*
X81089523Y-115006380D01*
X81280000Y-114292095D01*
X81470476Y-115006380D01*
X81708571Y-114006380D01*
X81994285Y-114006380D02*
X82613333Y-114006380D01*
X82280000Y-114387333D01*
X82422857Y-114387333D01*
X82518095Y-114434952D01*
X82565714Y-114482571D01*
X82613333Y-114577809D01*
X82613333Y-114815904D01*
X82565714Y-114911142D01*
X82518095Y-114958761D01*
X82422857Y-115006380D01*
X82137142Y-115006380D01*
X82041904Y-114958761D01*
X81994285Y-114911142D01*
%TO.C,SW7*%
X59046666Y-128830761D02*
X59189523Y-128878380D01*
X59427619Y-128878380D01*
X59522857Y-128830761D01*
X59570476Y-128783142D01*
X59618095Y-128687904D01*
X59618095Y-128592666D01*
X59570476Y-128497428D01*
X59522857Y-128449809D01*
X59427619Y-128402190D01*
X59237142Y-128354571D01*
X59141904Y-128306952D01*
X59094285Y-128259333D01*
X59046666Y-128164095D01*
X59046666Y-128068857D01*
X59094285Y-127973619D01*
X59141904Y-127926000D01*
X59237142Y-127878380D01*
X59475238Y-127878380D01*
X59618095Y-127926000D01*
X59951428Y-127878380D02*
X60189523Y-128878380D01*
X60380000Y-128164095D01*
X60570476Y-128878380D01*
X60808571Y-127878380D01*
X61094285Y-127878380D02*
X61760952Y-127878380D01*
X61332380Y-128878380D01*
X79366666Y-128830761D02*
X79509523Y-128878380D01*
X79747619Y-128878380D01*
X79842857Y-128830761D01*
X79890476Y-128783142D01*
X79938095Y-128687904D01*
X79938095Y-128592666D01*
X79890476Y-128497428D01*
X79842857Y-128449809D01*
X79747619Y-128402190D01*
X79557142Y-128354571D01*
X79461904Y-128306952D01*
X79414285Y-128259333D01*
X79366666Y-128164095D01*
X79366666Y-128068857D01*
X79414285Y-127973619D01*
X79461904Y-127926000D01*
X79557142Y-127878380D01*
X79795238Y-127878380D01*
X79938095Y-127926000D01*
X80271428Y-127878380D02*
X80509523Y-128878380D01*
X80700000Y-128164095D01*
X80890476Y-128878380D01*
X81128571Y-127878380D01*
X81414285Y-127878380D02*
X82080952Y-127878380D01*
X81652380Y-128878380D01*
%TO.C,SW2*%
X59626666Y-114958761D02*
X59769523Y-115006380D01*
X60007619Y-115006380D01*
X60102857Y-114958761D01*
X60150476Y-114911142D01*
X60198095Y-114815904D01*
X60198095Y-114720666D01*
X60150476Y-114625428D01*
X60102857Y-114577809D01*
X60007619Y-114530190D01*
X59817142Y-114482571D01*
X59721904Y-114434952D01*
X59674285Y-114387333D01*
X59626666Y-114292095D01*
X59626666Y-114196857D01*
X59674285Y-114101619D01*
X59721904Y-114054000D01*
X59817142Y-114006380D01*
X60055238Y-114006380D01*
X60198095Y-114054000D01*
X60531428Y-114006380D02*
X60769523Y-115006380D01*
X60960000Y-114292095D01*
X61150476Y-115006380D01*
X61388571Y-114006380D01*
X61721904Y-114101619D02*
X61769523Y-114054000D01*
X61864761Y-114006380D01*
X62102857Y-114006380D01*
X62198095Y-114054000D01*
X62245714Y-114101619D01*
X62293333Y-114196857D01*
X62293333Y-114292095D01*
X62245714Y-114434952D01*
X61674285Y-115006380D01*
X62293333Y-115006380D01*
%TO.C,SW4*%
X39306666Y-94638761D02*
X39449523Y-94686380D01*
X39687619Y-94686380D01*
X39782857Y-94638761D01*
X39830476Y-94591142D01*
X39878095Y-94495904D01*
X39878095Y-94400666D01*
X39830476Y-94305428D01*
X39782857Y-94257809D01*
X39687619Y-94210190D01*
X39497142Y-94162571D01*
X39401904Y-94114952D01*
X39354285Y-94067333D01*
X39306666Y-93972095D01*
X39306666Y-93876857D01*
X39354285Y-93781619D01*
X39401904Y-93734000D01*
X39497142Y-93686380D01*
X39735238Y-93686380D01*
X39878095Y-93734000D01*
X40211428Y-93686380D02*
X40449523Y-94686380D01*
X40640000Y-93972095D01*
X40830476Y-94686380D01*
X41068571Y-93686380D01*
X41878095Y-94019714D02*
X41878095Y-94686380D01*
X41640000Y-93638761D02*
X41401904Y-94353047D01*
X42020952Y-94353047D01*
%TO.C,TS4148*%
X71262380Y-130301666D02*
X71262380Y-129730238D01*
X72262380Y-130015952D02*
X71262380Y-130015952D01*
X72214761Y-129444523D02*
X72262380Y-129301666D01*
X72262380Y-129063571D01*
X72214761Y-128968333D01*
X72167142Y-128920714D01*
X72071904Y-128873095D01*
X71976666Y-128873095D01*
X71881428Y-128920714D01*
X71833809Y-128968333D01*
X71786190Y-129063571D01*
X71738571Y-129254047D01*
X71690952Y-129349285D01*
X71643333Y-129396904D01*
X71548095Y-129444523D01*
X71452857Y-129444523D01*
X71357619Y-129396904D01*
X71310000Y-129349285D01*
X71262380Y-129254047D01*
X71262380Y-129015952D01*
X71310000Y-128873095D01*
X71595714Y-128015952D02*
X72262380Y-128015952D01*
X71214761Y-128254047D02*
X71929047Y-128492142D01*
X71929047Y-127873095D01*
X72262380Y-126968333D02*
X72262380Y-127539761D01*
X72262380Y-127254047D02*
X71262380Y-127254047D01*
X71405238Y-127349285D01*
X71500476Y-127444523D01*
X71548095Y-127539761D01*
X71595714Y-126111190D02*
X72262380Y-126111190D01*
X71214761Y-126349285D02*
X71929047Y-126587380D01*
X71929047Y-125968333D01*
X71690952Y-125444523D02*
X71643333Y-125539761D01*
X71595714Y-125587380D01*
X71500476Y-125635000D01*
X71452857Y-125635000D01*
X71357619Y-125587380D01*
X71310000Y-125539761D01*
X71262380Y-125444523D01*
X71262380Y-125254047D01*
X71310000Y-125158809D01*
X71357619Y-125111190D01*
X71452857Y-125063571D01*
X71500476Y-125063571D01*
X71595714Y-125111190D01*
X71643333Y-125158809D01*
X71690952Y-125254047D01*
X71690952Y-125444523D01*
X71738571Y-125539761D01*
X71786190Y-125587380D01*
X71881428Y-125635000D01*
X72071904Y-125635000D01*
X72167142Y-125587380D01*
X72214761Y-125539761D01*
X72262380Y-125444523D01*
X72262380Y-125254047D01*
X72214761Y-125158809D01*
X72167142Y-125111190D01*
X72071904Y-125063571D01*
X71881428Y-125063571D01*
X71786190Y-125111190D01*
X71738571Y-125158809D01*
X71690952Y-125254047D01*
%TO.C,SW5*%
X59645884Y-94648370D02*
X59788741Y-94695989D01*
X60026837Y-94695989D01*
X60122075Y-94648370D01*
X60169694Y-94600751D01*
X60217313Y-94505513D01*
X60217313Y-94410275D01*
X60169694Y-94315037D01*
X60122075Y-94267418D01*
X60026837Y-94219799D01*
X59836360Y-94172180D01*
X59741122Y-94124561D01*
X59693503Y-94076942D01*
X59645884Y-93981704D01*
X59645884Y-93886466D01*
X59693503Y-93791228D01*
X59741122Y-93743609D01*
X59836360Y-93695989D01*
X60074456Y-93695989D01*
X60217313Y-93743609D01*
X60550646Y-93695989D02*
X60788741Y-94695989D01*
X60979218Y-93981704D01*
X61169694Y-94695989D01*
X61407789Y-93695989D01*
X62264932Y-93695989D02*
X61788741Y-93695989D01*
X61741122Y-94172180D01*
X61788741Y-94124561D01*
X61883979Y-94076942D01*
X62122075Y-94076942D01*
X62217313Y-94124561D01*
X62264932Y-94172180D01*
X62312551Y-94267418D01*
X62312551Y-94505513D01*
X62264932Y-94600751D01*
X62217313Y-94648370D01*
X62122075Y-94695989D01*
X61883979Y-94695989D01*
X61788741Y-94648370D01*
X61741122Y-94600751D01*
%TO.C,SW9*%
X79946666Y-74318761D02*
X80089523Y-74366380D01*
X80327619Y-74366380D01*
X80422857Y-74318761D01*
X80470476Y-74271142D01*
X80518095Y-74175904D01*
X80518095Y-74080666D01*
X80470476Y-73985428D01*
X80422857Y-73937809D01*
X80327619Y-73890190D01*
X80137142Y-73842571D01*
X80041904Y-73794952D01*
X79994285Y-73747333D01*
X79946666Y-73652095D01*
X79946666Y-73556857D01*
X79994285Y-73461619D01*
X80041904Y-73414000D01*
X80137142Y-73366380D01*
X80375238Y-73366380D01*
X80518095Y-73414000D01*
X80851428Y-73366380D02*
X81089523Y-74366380D01*
X81280000Y-73652095D01*
X81470476Y-74366380D01*
X81708571Y-73366380D01*
X82137142Y-74366380D02*
X82327619Y-74366380D01*
X82422857Y-74318761D01*
X82470476Y-74271142D01*
X82565714Y-74128285D01*
X82613333Y-73937809D01*
X82613333Y-73556857D01*
X82565714Y-73461619D01*
X82518095Y-73414000D01*
X82422857Y-73366380D01*
X82232380Y-73366380D01*
X82137142Y-73414000D01*
X82089523Y-73461619D01*
X82041904Y-73556857D01*
X82041904Y-73794952D01*
X82089523Y-73890190D01*
X82137142Y-73937809D01*
X82232380Y-73985428D01*
X82422857Y-73985428D01*
X82518095Y-73937809D01*
X82565714Y-73890190D01*
X82613333Y-73794952D01*
%TO.C,TS4148*%
X91302380Y-109346666D02*
X91302380Y-108775238D01*
X92302380Y-109060952D02*
X91302380Y-109060952D01*
X92254761Y-108489523D02*
X92302380Y-108346666D01*
X92302380Y-108108571D01*
X92254761Y-108013333D01*
X92207142Y-107965714D01*
X92111904Y-107918095D01*
X92016666Y-107918095D01*
X91921428Y-107965714D01*
X91873809Y-108013333D01*
X91826190Y-108108571D01*
X91778571Y-108299047D01*
X91730952Y-108394285D01*
X91683333Y-108441904D01*
X91588095Y-108489523D01*
X91492857Y-108489523D01*
X91397619Y-108441904D01*
X91350000Y-108394285D01*
X91302380Y-108299047D01*
X91302380Y-108060952D01*
X91350000Y-107918095D01*
X91635714Y-107060952D02*
X92302380Y-107060952D01*
X91254761Y-107299047D02*
X91969047Y-107537142D01*
X91969047Y-106918095D01*
X92302380Y-106013333D02*
X92302380Y-106584761D01*
X92302380Y-106299047D02*
X91302380Y-106299047D01*
X91445238Y-106394285D01*
X91540476Y-106489523D01*
X91588095Y-106584761D01*
X91635714Y-105156190D02*
X92302380Y-105156190D01*
X91254761Y-105394285D02*
X91969047Y-105632380D01*
X91969047Y-105013333D01*
X91730952Y-104489523D02*
X91683333Y-104584761D01*
X91635714Y-104632380D01*
X91540476Y-104680000D01*
X91492857Y-104680000D01*
X91397619Y-104632380D01*
X91350000Y-104584761D01*
X91302380Y-104489523D01*
X91302380Y-104299047D01*
X91350000Y-104203809D01*
X91397619Y-104156190D01*
X91492857Y-104108571D01*
X91540476Y-104108571D01*
X91635714Y-104156190D01*
X91683333Y-104203809D01*
X91730952Y-104299047D01*
X91730952Y-104489523D01*
X91778571Y-104584761D01*
X91826190Y-104632380D01*
X91921428Y-104680000D01*
X92111904Y-104680000D01*
X92207142Y-104632380D01*
X92254761Y-104584761D01*
X92302380Y-104489523D01*
X92302380Y-104299047D01*
X92254761Y-104203809D01*
X92207142Y-104156190D01*
X92111904Y-104108571D01*
X91921428Y-104108571D01*
X91826190Y-104156190D01*
X91778571Y-104203809D01*
X91730952Y-104299047D01*
%TO.C,SW6*%
X79946666Y-94638761D02*
X80089523Y-94686380D01*
X80327619Y-94686380D01*
X80422857Y-94638761D01*
X80470476Y-94591142D01*
X80518095Y-94495904D01*
X80518095Y-94400666D01*
X80470476Y-94305428D01*
X80422857Y-94257809D01*
X80327619Y-94210190D01*
X80137142Y-94162571D01*
X80041904Y-94114952D01*
X79994285Y-94067333D01*
X79946666Y-93972095D01*
X79946666Y-93876857D01*
X79994285Y-93781619D01*
X80041904Y-93734000D01*
X80137142Y-93686380D01*
X80375238Y-93686380D01*
X80518095Y-93734000D01*
X80851428Y-93686380D02*
X81089523Y-94686380D01*
X81280000Y-93972095D01*
X81470476Y-94686380D01*
X81708571Y-93686380D01*
X82518095Y-93686380D02*
X82327619Y-93686380D01*
X82232380Y-93734000D01*
X82184761Y-93781619D01*
X82089523Y-93924476D01*
X82041904Y-94114952D01*
X82041904Y-94495904D01*
X82089523Y-94591142D01*
X82137142Y-94638761D01*
X82232380Y-94686380D01*
X82422857Y-94686380D01*
X82518095Y-94638761D01*
X82565714Y-94591142D01*
X82613333Y-94495904D01*
X82613333Y-94257809D01*
X82565714Y-94162571D01*
X82518095Y-94114952D01*
X82422857Y-94067333D01*
X82232380Y-94067333D01*
X82137142Y-94114952D01*
X82089523Y-94162571D01*
X82041904Y-94257809D01*
%TO.C,SW1*%
X39306666Y-114958761D02*
X39449523Y-115006380D01*
X39687619Y-115006380D01*
X39782857Y-114958761D01*
X39830476Y-114911142D01*
X39878095Y-114815904D01*
X39878095Y-114720666D01*
X39830476Y-114625428D01*
X39782857Y-114577809D01*
X39687619Y-114530190D01*
X39497142Y-114482571D01*
X39401904Y-114434952D01*
X39354285Y-114387333D01*
X39306666Y-114292095D01*
X39306666Y-114196857D01*
X39354285Y-114101619D01*
X39401904Y-114054000D01*
X39497142Y-114006380D01*
X39735238Y-114006380D01*
X39878095Y-114054000D01*
X40211428Y-114006380D02*
X40449523Y-115006380D01*
X40640000Y-114292095D01*
X40830476Y-115006380D01*
X41068571Y-114006380D01*
X41973333Y-115006380D02*
X41401904Y-115006380D01*
X41687619Y-115006380D02*
X41687619Y-114006380D01*
X41592380Y-114149238D01*
X41497142Y-114244476D01*
X41401904Y-114292095D01*
%TO.C,OLED*%
X98732380Y-86415380D02*
X98732380Y-86224904D01*
X98780000Y-86129666D01*
X98875238Y-86034428D01*
X99065714Y-85986809D01*
X99399047Y-85986809D01*
X99589523Y-86034428D01*
X99684761Y-86129666D01*
X99732380Y-86224904D01*
X99732380Y-86415380D01*
X99684761Y-86510619D01*
X99589523Y-86605857D01*
X99399047Y-86653476D01*
X99065714Y-86653476D01*
X98875238Y-86605857D01*
X98780000Y-86510619D01*
X98732380Y-86415380D01*
X99732380Y-85082047D02*
X99732380Y-85558238D01*
X98732380Y-85558238D01*
X99208571Y-84748714D02*
X99208571Y-84415380D01*
X99732380Y-84272523D02*
X99732380Y-84748714D01*
X98732380Y-84748714D01*
X98732380Y-84272523D01*
X99732380Y-83843952D02*
X98732380Y-83843952D01*
X98732380Y-83605857D01*
X98780000Y-83463000D01*
X98875238Y-83367761D01*
X98970476Y-83320142D01*
X99160952Y-83272523D01*
X99303809Y-83272523D01*
X99494285Y-83320142D01*
X99589523Y-83367761D01*
X99684761Y-83463000D01*
X99732380Y-83605857D01*
X99732380Y-83843952D01*
%TO.C,TS4148*%
X91302380Y-94106666D02*
X91302380Y-93535238D01*
X92302380Y-93820952D02*
X91302380Y-93820952D01*
X92254761Y-93249523D02*
X92302380Y-93106666D01*
X92302380Y-92868571D01*
X92254761Y-92773333D01*
X92207142Y-92725714D01*
X92111904Y-92678095D01*
X92016666Y-92678095D01*
X91921428Y-92725714D01*
X91873809Y-92773333D01*
X91826190Y-92868571D01*
X91778571Y-93059047D01*
X91730952Y-93154285D01*
X91683333Y-93201904D01*
X91588095Y-93249523D01*
X91492857Y-93249523D01*
X91397619Y-93201904D01*
X91350000Y-93154285D01*
X91302380Y-93059047D01*
X91302380Y-92820952D01*
X91350000Y-92678095D01*
X91635714Y-91820952D02*
X92302380Y-91820952D01*
X91254761Y-92059047D02*
X91969047Y-92297142D01*
X91969047Y-91678095D01*
X92302380Y-90773333D02*
X92302380Y-91344761D01*
X92302380Y-91059047D02*
X91302380Y-91059047D01*
X91445238Y-91154285D01*
X91540476Y-91249523D01*
X91588095Y-91344761D01*
X91635714Y-89916190D02*
X92302380Y-89916190D01*
X91254761Y-90154285D02*
X91969047Y-90392380D01*
X91969047Y-89773333D01*
X91730952Y-89249523D02*
X91683333Y-89344761D01*
X91635714Y-89392380D01*
X91540476Y-89440000D01*
X91492857Y-89440000D01*
X91397619Y-89392380D01*
X91350000Y-89344761D01*
X91302380Y-89249523D01*
X91302380Y-89059047D01*
X91350000Y-88963809D01*
X91397619Y-88916190D01*
X91492857Y-88868571D01*
X91540476Y-88868571D01*
X91635714Y-88916190D01*
X91683333Y-88963809D01*
X91730952Y-89059047D01*
X91730952Y-89249523D01*
X91778571Y-89344761D01*
X91826190Y-89392380D01*
X91921428Y-89440000D01*
X92111904Y-89440000D01*
X92207142Y-89392380D01*
X92254761Y-89344761D01*
X92302380Y-89249523D01*
X92302380Y-89059047D01*
X92254761Y-88963809D01*
X92207142Y-88916190D01*
X92111904Y-88868571D01*
X91921428Y-88868571D01*
X91826190Y-88916190D01*
X91778571Y-88963809D01*
X91730952Y-89059047D01*
%TO.C,EC11*%
X97361571Y-93106666D02*
X97361571Y-92773333D01*
X97885380Y-92630476D02*
X97885380Y-93106666D01*
X96885380Y-93106666D01*
X96885380Y-92630476D01*
X97790142Y-91630476D02*
X97837761Y-91678095D01*
X97885380Y-91820952D01*
X97885380Y-91916190D01*
X97837761Y-92059047D01*
X97742523Y-92154285D01*
X97647285Y-92201904D01*
X97456809Y-92249523D01*
X97313952Y-92249523D01*
X97123476Y-92201904D01*
X97028238Y-92154285D01*
X96933000Y-92059047D01*
X96885380Y-91916190D01*
X96885380Y-91820952D01*
X96933000Y-91678095D01*
X96980619Y-91630476D01*
X97885380Y-90678095D02*
X97885380Y-91249523D01*
X97885380Y-90963809D02*
X96885380Y-90963809D01*
X97028238Y-91059047D01*
X97123476Y-91154285D01*
X97171095Y-91249523D01*
X97885380Y-89725714D02*
X97885380Y-90297142D01*
X97885380Y-90011428D02*
X96885380Y-90011428D01*
X97028238Y-90106666D01*
X97123476Y-90201904D01*
X97171095Y-90297142D01*
%TO.C,TS4148*%
X51932380Y-109346666D02*
X51932380Y-108775238D01*
X52932380Y-109060952D02*
X51932380Y-109060952D01*
X52884761Y-108489523D02*
X52932380Y-108346666D01*
X52932380Y-108108571D01*
X52884761Y-108013333D01*
X52837142Y-107965714D01*
X52741904Y-107918095D01*
X52646666Y-107918095D01*
X52551428Y-107965714D01*
X52503809Y-108013333D01*
X52456190Y-108108571D01*
X52408571Y-108299047D01*
X52360952Y-108394285D01*
X52313333Y-108441904D01*
X52218095Y-108489523D01*
X52122857Y-108489523D01*
X52027619Y-108441904D01*
X51980000Y-108394285D01*
X51932380Y-108299047D01*
X51932380Y-108060952D01*
X51980000Y-107918095D01*
X52265714Y-107060952D02*
X52932380Y-107060952D01*
X51884761Y-107299047D02*
X52599047Y-107537142D01*
X52599047Y-106918095D01*
X52932380Y-106013333D02*
X52932380Y-106584761D01*
X52932380Y-106299047D02*
X51932380Y-106299047D01*
X52075238Y-106394285D01*
X52170476Y-106489523D01*
X52218095Y-106584761D01*
X52265714Y-105156190D02*
X52932380Y-105156190D01*
X51884761Y-105394285D02*
X52599047Y-105632380D01*
X52599047Y-105013333D01*
X52360952Y-104489523D02*
X52313333Y-104584761D01*
X52265714Y-104632380D01*
X52170476Y-104680000D01*
X52122857Y-104680000D01*
X52027619Y-104632380D01*
X51980000Y-104584761D01*
X51932380Y-104489523D01*
X51932380Y-104299047D01*
X51980000Y-104203809D01*
X52027619Y-104156190D01*
X52122857Y-104108571D01*
X52170476Y-104108571D01*
X52265714Y-104156190D01*
X52313333Y-104203809D01*
X52360952Y-104299047D01*
X52360952Y-104489523D01*
X52408571Y-104584761D01*
X52456190Y-104632380D01*
X52551428Y-104680000D01*
X52741904Y-104680000D01*
X52837142Y-104632380D01*
X52884761Y-104584761D01*
X52932380Y-104489523D01*
X52932380Y-104299047D01*
X52884761Y-104203809D01*
X52837142Y-104156190D01*
X52741904Y-104108571D01*
X52551428Y-104108571D01*
X52456190Y-104156190D01*
X52408571Y-104203809D01*
X52360952Y-104299047D01*
X72252380Y-73786666D02*
X72252380Y-73215238D01*
X73252380Y-73500952D02*
X72252380Y-73500952D01*
X73204761Y-72929523D02*
X73252380Y-72786666D01*
X73252380Y-72548571D01*
X73204761Y-72453333D01*
X73157142Y-72405714D01*
X73061904Y-72358095D01*
X72966666Y-72358095D01*
X72871428Y-72405714D01*
X72823809Y-72453333D01*
X72776190Y-72548571D01*
X72728571Y-72739047D01*
X72680952Y-72834285D01*
X72633333Y-72881904D01*
X72538095Y-72929523D01*
X72442857Y-72929523D01*
X72347619Y-72881904D01*
X72300000Y-72834285D01*
X72252380Y-72739047D01*
X72252380Y-72500952D01*
X72300000Y-72358095D01*
X72585714Y-71500952D02*
X73252380Y-71500952D01*
X72204761Y-71739047D02*
X72919047Y-71977142D01*
X72919047Y-71358095D01*
X73252380Y-70453333D02*
X73252380Y-71024761D01*
X73252380Y-70739047D02*
X72252380Y-70739047D01*
X72395238Y-70834285D01*
X72490476Y-70929523D01*
X72538095Y-71024761D01*
X72585714Y-69596190D02*
X73252380Y-69596190D01*
X72204761Y-69834285D02*
X72919047Y-70072380D01*
X72919047Y-69453333D01*
X72680952Y-68929523D02*
X72633333Y-69024761D01*
X72585714Y-69072380D01*
X72490476Y-69120000D01*
X72442857Y-69120000D01*
X72347619Y-69072380D01*
X72300000Y-69024761D01*
X72252380Y-68929523D01*
X72252380Y-68739047D01*
X72300000Y-68643809D01*
X72347619Y-68596190D01*
X72442857Y-68548571D01*
X72490476Y-68548571D01*
X72585714Y-68596190D01*
X72633333Y-68643809D01*
X72680952Y-68739047D01*
X72680952Y-68929523D01*
X72728571Y-69024761D01*
X72776190Y-69072380D01*
X72871428Y-69120000D01*
X73061904Y-69120000D01*
X73157142Y-69072380D01*
X73204761Y-69024761D01*
X73252380Y-68929523D01*
X73252380Y-68739047D01*
X73204761Y-68643809D01*
X73157142Y-68596190D01*
X73061904Y-68548571D01*
X72871428Y-68548571D01*
X72776190Y-68596190D01*
X72728571Y-68643809D01*
X72680952Y-68739047D01*
X68722380Y-130301666D02*
X68722380Y-129730238D01*
X69722380Y-130015952D02*
X68722380Y-130015952D01*
X69674761Y-129444523D02*
X69722380Y-129301666D01*
X69722380Y-129063571D01*
X69674761Y-128968333D01*
X69627142Y-128920714D01*
X69531904Y-128873095D01*
X69436666Y-128873095D01*
X69341428Y-128920714D01*
X69293809Y-128968333D01*
X69246190Y-129063571D01*
X69198571Y-129254047D01*
X69150952Y-129349285D01*
X69103333Y-129396904D01*
X69008095Y-129444523D01*
X68912857Y-129444523D01*
X68817619Y-129396904D01*
X68770000Y-129349285D01*
X68722380Y-129254047D01*
X68722380Y-129015952D01*
X68770000Y-128873095D01*
X69055714Y-128015952D02*
X69722380Y-128015952D01*
X68674761Y-128254047D02*
X69389047Y-128492142D01*
X69389047Y-127873095D01*
X69722380Y-126968333D02*
X69722380Y-127539761D01*
X69722380Y-127254047D02*
X68722380Y-127254047D01*
X68865238Y-127349285D01*
X68960476Y-127444523D01*
X69008095Y-127539761D01*
X69055714Y-126111190D02*
X69722380Y-126111190D01*
X68674761Y-126349285D02*
X69389047Y-126587380D01*
X69389047Y-125968333D01*
X69150952Y-125444523D02*
X69103333Y-125539761D01*
X69055714Y-125587380D01*
X68960476Y-125635000D01*
X68912857Y-125635000D01*
X68817619Y-125587380D01*
X68770000Y-125539761D01*
X68722380Y-125444523D01*
X68722380Y-125254047D01*
X68770000Y-125158809D01*
X68817619Y-125111190D01*
X68912857Y-125063571D01*
X68960476Y-125063571D01*
X69055714Y-125111190D01*
X69103333Y-125158809D01*
X69150952Y-125254047D01*
X69150952Y-125444523D01*
X69198571Y-125539761D01*
X69246190Y-125587380D01*
X69341428Y-125635000D01*
X69531904Y-125635000D01*
X69627142Y-125587380D01*
X69674761Y-125539761D01*
X69722380Y-125444523D01*
X69722380Y-125254047D01*
X69674761Y-125158809D01*
X69627142Y-125111190D01*
X69531904Y-125063571D01*
X69341428Y-125063571D01*
X69246190Y-125111190D01*
X69198571Y-125158809D01*
X69150952Y-125254047D01*
D14*
%TO.C,MODE\uFF13*%
X44235000Y-142340000D02*
X46520000Y-142340000D01*
X44235000Y-140870000D02*
X44235000Y-142340000D01*
X46520000Y-140870000D02*
X44235000Y-140870000D01*
%TO.C,MODE\uFF12*%
X44235000Y-137260000D02*
X46520000Y-137260000D01*
X44235000Y-135790000D02*
X44235000Y-137260000D01*
X46520000Y-135790000D02*
X44235000Y-135790000D01*
%TO.C,MODE\uFF11*%
X44235000Y-132180000D02*
X46520000Y-132180000D01*
X44235000Y-130710000D02*
X44235000Y-132180000D01*
X46520000Y-130710000D02*
X44235000Y-130710000D01*
%TO.C,TS4148*%
X71781677Y-91139991D02*
X71781677Y-91662495D01*
X70311677Y-91139991D02*
X70311677Y-91662495D01*
%TO.C,SW7*%
X47625000Y-73025000D02*
X33655000Y-73025000D01*
X33655000Y-59055000D02*
X47625000Y-59055000D01*
X33655000Y-73025000D02*
X33655000Y-59055000D01*
X47625000Y-59055000D02*
X47625000Y-73025000D01*
%TO.C,SW8*%
X67945000Y-73025000D02*
X53975000Y-73025000D01*
X67945000Y-59055000D02*
X67945000Y-73025000D01*
X53975000Y-59055000D02*
X67945000Y-59055000D01*
X53975000Y-73025000D02*
X53975000Y-59055000D01*
%TO.C,TS4148*%
X51535000Y-70858748D02*
X51535000Y-71381252D01*
X50065000Y-70858748D02*
X50065000Y-71381252D01*
X70385000Y-106418748D02*
X70385000Y-106941252D01*
X71855000Y-106418748D02*
X71855000Y-106941252D01*
%TO.C,REF\u002A\u002A*%
X106740000Y-146745000D02*
X106740000Y-144085000D01*
X93920000Y-144085000D02*
X95250000Y-144085000D01*
X96520000Y-146745000D02*
X96520000Y-144085000D01*
X96520000Y-146745000D02*
X106740000Y-146745000D01*
X96520000Y-144085000D02*
X106740000Y-144085000D01*
X93920000Y-145415000D02*
X93920000Y-144085000D01*
X99120000Y-76200000D02*
X96460000Y-76200000D01*
X96460000Y-76200000D02*
X96460000Y-55820000D01*
X99120000Y-76200000D02*
X99120000Y-55820000D01*
X96460000Y-78800000D02*
X96460000Y-77470000D01*
X99120000Y-55820000D02*
X96460000Y-55820000D01*
X97790000Y-78800000D02*
X96460000Y-78800000D01*
%TO.C,TS4148*%
X90905000Y-70858748D02*
X90905000Y-71381252D01*
X89435000Y-70858748D02*
X89435000Y-71381252D01*
X51535000Y-91178748D02*
X51535000Y-91701252D01*
X50065000Y-91178748D02*
X50065000Y-91701252D01*
%TO.C,SW3*%
X88265000Y-113665000D02*
X74295000Y-113665000D01*
X74295000Y-99695000D02*
X88265000Y-99695000D01*
X74295000Y-113665000D02*
X74295000Y-99695000D01*
X88265000Y-99695000D02*
X88265000Y-113665000D01*
%TO.C,SW7*%
X53395000Y-129315000D02*
X67365000Y-129315000D01*
X67365000Y-143285000D02*
X53395000Y-143285000D01*
X67365000Y-129315000D02*
X67365000Y-143285000D01*
X53395000Y-143285000D02*
X53395000Y-129315000D01*
X73715000Y-129315000D02*
X87685000Y-129315000D01*
X87685000Y-143285000D02*
X73715000Y-143285000D01*
X87685000Y-129315000D02*
X87685000Y-143285000D01*
X73715000Y-143285000D02*
X73715000Y-129315000D01*
%TO.C,SW2*%
X67945000Y-99695000D02*
X67945000Y-113665000D01*
X67945000Y-113665000D02*
X53975000Y-113665000D01*
X53975000Y-99695000D02*
X67945000Y-99695000D01*
X53975000Y-113665000D02*
X53975000Y-99695000D01*
%TO.C,SW4*%
X47625000Y-79375000D02*
X47625000Y-93345000D01*
X33655000Y-93345000D02*
X33655000Y-79375000D01*
X33655000Y-79375000D02*
X47625000Y-79375000D01*
X47625000Y-93345000D02*
X33655000Y-93345000D01*
%TO.C,REF\u002A\u002A*%
X114360000Y-76200000D02*
X111700000Y-76200000D01*
X113030000Y-78800000D02*
X111700000Y-78800000D01*
X114360000Y-55820000D02*
X111700000Y-55820000D01*
X111700000Y-76200000D02*
X111700000Y-55820000D01*
X111700000Y-78800000D02*
X111700000Y-77470000D01*
X114360000Y-76200000D02*
X114360000Y-55820000D01*
%TO.C,TS4148*%
X71075000Y-132976252D02*
X71075000Y-132453748D01*
X72545000Y-132976252D02*
X72545000Y-132453748D01*
%TO.C,SW5*%
X67964218Y-93354609D02*
X53994218Y-93354609D01*
X53994218Y-93354609D02*
X53994218Y-79384609D01*
X67964218Y-79384609D02*
X67964218Y-93354609D01*
X53994218Y-79384609D02*
X67964218Y-79384609D01*
%TO.C,SW9*%
X74295000Y-59055000D02*
X88265000Y-59055000D01*
X74295000Y-73025000D02*
X74295000Y-59055000D01*
X88265000Y-73025000D02*
X74295000Y-73025000D01*
X88265000Y-59055000D02*
X88265000Y-73025000D01*
%TO.C,TS4148*%
X89435000Y-106418748D02*
X89435000Y-106941252D01*
X90905000Y-106418748D02*
X90905000Y-106941252D01*
%TO.C,REF\u002A\u002A*%
X94040000Y-144145000D02*
X91380000Y-144145000D01*
X91380000Y-144145000D02*
X91380000Y-123765000D01*
X94040000Y-144145000D02*
X94040000Y-123765000D01*
X91380000Y-146745000D02*
X91380000Y-145415000D01*
X94040000Y-123765000D02*
X91380000Y-123765000D01*
X92710000Y-146745000D02*
X91380000Y-146745000D01*
%TO.C,SW6*%
X88265000Y-79375000D02*
X88265000Y-93345000D01*
X88265000Y-93345000D02*
X74295000Y-93345000D01*
X74295000Y-79375000D02*
X88265000Y-79375000D01*
X74295000Y-93345000D02*
X74295000Y-79375000D01*
%TO.C,REF\u002A\u002A*%
X109280000Y-144145000D02*
X106620000Y-144145000D01*
X107950000Y-146745000D02*
X106620000Y-146745000D01*
X109280000Y-123765000D02*
X106620000Y-123765000D01*
X106620000Y-144145000D02*
X106620000Y-123765000D01*
X106620000Y-146745000D02*
X106620000Y-145415000D01*
X109280000Y-144145000D02*
X109280000Y-123765000D01*
%TO.C,SW1*%
X33655000Y-99695000D02*
X47625000Y-99695000D01*
X47625000Y-113665000D02*
X33655000Y-113665000D01*
X47625000Y-99695000D02*
X47625000Y-113665000D01*
X33655000Y-113665000D02*
X33655000Y-99695000D01*
%TO.C,REF\u002A\u002A*%
X111820000Y-78800000D02*
X111820000Y-76140000D01*
X99000000Y-76140000D02*
X100330000Y-76140000D01*
X101600000Y-78800000D02*
X101600000Y-76140000D01*
X101600000Y-78800000D02*
X111820000Y-78800000D01*
X101600000Y-76140000D02*
X111820000Y-76140000D01*
X99000000Y-77470000D02*
X99000000Y-76140000D01*
%TO.C,OLED*%
X110560000Y-86293000D02*
X110560000Y-83633000D01*
X102880000Y-86293000D02*
X102880000Y-83633000D01*
X102880000Y-83633000D02*
X110560000Y-83633000D01*
X101610000Y-86293000D02*
X100280000Y-86293000D01*
X100280000Y-86293000D02*
X100280000Y-84963000D01*
X102880000Y-86293000D02*
X110560000Y-86293000D01*
%TO.C,TS4148*%
X89435000Y-91178748D02*
X89435000Y-91701252D01*
X90905000Y-91178748D02*
X90905000Y-91701252D01*
%TO.C,EC11*%
X101473000Y-92770000D02*
X111693000Y-92770000D01*
X111693000Y-92770000D02*
X111693000Y-90110000D01*
X101473000Y-90110000D02*
X111693000Y-90110000D01*
X98873000Y-91440000D02*
X98873000Y-90110000D01*
X101473000Y-92770000D02*
X101473000Y-90110000D01*
X98873000Y-90110000D02*
X100203000Y-90110000D01*
%TO.C,TS4148*%
X51535000Y-106418748D02*
X51535000Y-106941252D01*
X50065000Y-106418748D02*
X50065000Y-106941252D01*
X71855000Y-70858748D02*
X71855000Y-71381252D01*
X70385000Y-70858748D02*
X70385000Y-71381252D01*
X68535000Y-132976252D02*
X68535000Y-132453748D01*
X70005000Y-132976252D02*
X70005000Y-132453748D01*
%TD*%
M02*
