%TF.GenerationSoftware,KiCad,Pcbnew,(6.0.5)*%
%TF.CreationDate,2022-06-14T18:11:56+08:00*%
%TF.ProjectId,keyboard_V4___,6b657962-6f61-4726-945f-56345f087f2e,rev?*%
%TF.SameCoordinates,Original*%
%TF.FileFunction,Legend,Bot*%
%TF.FilePolarity,Positive*%
%FSLAX46Y46*%
G04 Gerber Fmt 4.6, Leading zero omitted, Abs format (unit mm)*
G04 Created by KiCad (PCBNEW (6.0.5)) date 2022-06-14 18:11:56*
%MOMM*%
%LPD*%
G01*
G04 APERTURE LIST*
%TA.AperFunction,Profile*%
%ADD10C,0.050000*%
%TD*%
%ADD11C,0.150000*%
%ADD12C,0.120000*%
G04 APERTURE END LIST*
D10*
X110490000Y-125095000D02*
G75*
G03*
X109220000Y-123825000I-1270000J0D01*
G01*
X40005000Y-146050000D02*
G75*
G03*
X41275000Y-147320000I1270000J0D01*
G01*
X119380000Y-60960000D02*
X118110000Y-60960000D01*
X114300000Y-116840000D02*
X114300000Y-118110000D01*
X30480000Y-113030000D02*
X30480000Y-114300000D01*
X106680000Y-148590000D02*
X106680000Y-147320000D01*
X44450000Y-122555000D02*
X44450000Y-123825000D01*
X40005000Y-125095000D02*
X40005000Y-127000000D01*
X111760000Y-148590000D02*
X111760000Y-144780000D01*
X43241538Y-103567747D02*
X38059938Y-103567747D01*
X38059938Y-103567747D02*
X38059938Y-98356147D01*
X38059938Y-98356147D02*
X43241538Y-98356147D01*
X43241538Y-98356147D02*
X43241538Y-103567747D01*
X110490000Y-126365000D02*
X110490000Y-125095000D01*
X109220000Y-147320000D02*
G75*
G03*
X110490000Y-146050000I0J1270000D01*
G01*
X119380000Y-111760000D02*
X119380000Y-60960000D01*
X113030000Y-55880000D02*
X35560000Y-55880000D01*
X118110000Y-111760000D02*
X119380000Y-111760000D01*
X57789200Y-139414200D02*
X62970800Y-139414200D01*
X62970800Y-139414200D02*
X62970800Y-144666600D01*
X62970800Y-144666600D02*
X57789200Y-144666600D01*
X57789200Y-144666600D02*
X57789200Y-139414200D01*
X113030000Y-55880000D02*
X113030000Y-54610000D01*
X29210000Y-54610000D02*
X29210000Y-59690000D01*
X107950000Y-147320000D02*
X107950000Y-148590000D01*
X35560000Y-116840000D02*
X35560000Y-118110000D01*
X34290000Y-54610000D02*
X34290000Y-55880000D01*
X83870800Y-83235800D02*
X78689200Y-83235800D01*
X78689200Y-83235800D02*
X78689200Y-78054200D01*
X78689200Y-78054200D02*
X83870800Y-78054200D01*
X83870800Y-78054200D02*
X83870800Y-83235800D01*
X40005000Y-128270000D02*
X40005000Y-142240000D01*
X27940000Y-53340000D02*
X120650000Y-53340000D01*
X120650000Y-53340000D02*
X120650000Y-152400000D01*
X120650000Y-152400000D02*
X27940000Y-152400000D01*
X27940000Y-152400000D02*
X27940000Y-53340000D01*
X40005000Y-143510000D02*
X40005000Y-146050000D01*
X114300000Y-55880000D02*
X114300000Y-54610000D01*
X117332000Y-57658000D02*
G75*
G03*
X117332000Y-57658000I-1000000J0D01*
G01*
X110490000Y-144780000D02*
X110490000Y-146050000D01*
X38735000Y-142240000D02*
X38735000Y-128270000D01*
X110490000Y-143510000D02*
X111760000Y-143510000D01*
X111760000Y-143510000D02*
X111760000Y-127635000D01*
X34290000Y-54610000D02*
X29210000Y-54610000D01*
X30480000Y-60960000D02*
X29210000Y-60960000D01*
X83876806Y-103618547D02*
X78695206Y-103618547D01*
X78695206Y-103618547D02*
X78695206Y-98315347D01*
X78695206Y-98315347D02*
X83876806Y-98315347D01*
X83876806Y-98315347D02*
X83876806Y-103618547D01*
X35560000Y-54610000D02*
X35560000Y-55880000D01*
X43241538Y-83255800D02*
X38059938Y-83255800D01*
X38059938Y-83255800D02*
X38059938Y-78054200D01*
X38059938Y-78054200D02*
X43241538Y-78054200D01*
X43241538Y-78054200D02*
X43241538Y-83255800D01*
X111760000Y-144780000D02*
X110490000Y-144780000D01*
X38735000Y-143510000D02*
X40005000Y-143510000D01*
X91170000Y-146050000D02*
G75*
G03*
X91170000Y-146050000I-1000000J0D01*
G01*
X30480000Y-59690000D02*
X30480000Y-58420000D01*
X29210000Y-60960000D02*
X29210000Y-111760000D01*
X119380000Y-54610000D02*
X119380000Y-59690000D01*
X63559172Y-83255800D02*
X58377572Y-83255800D01*
X58377572Y-83255800D02*
X58377572Y-78054200D01*
X58377572Y-78054200D02*
X63559172Y-78054200D01*
X63559172Y-78054200D02*
X63559172Y-83255800D01*
X63550800Y-103575000D02*
X58369200Y-103575000D01*
X58369200Y-103575000D02*
X58369200Y-98322600D01*
X58369200Y-98322600D02*
X63550800Y-98322600D01*
X63550800Y-98322600D02*
X63550800Y-103575000D01*
X33020000Y-55880000D02*
X34290000Y-55880000D01*
X43815000Y-148590000D02*
X43815000Y-147320000D01*
X119380000Y-118110000D02*
X119380000Y-113030000D01*
X43180000Y-123825000D02*
X41275000Y-123825000D01*
X115570000Y-55880000D02*
X114300000Y-55880000D01*
X117332000Y-115062000D02*
G75*
G03*
X117332000Y-115062000I-1000000J0D01*
G01*
X41275000Y-123825000D02*
G75*
G03*
X40005000Y-125095000I0J-1270000D01*
G01*
X40005000Y-127000000D02*
X38735000Y-127000000D01*
X114300000Y-54610000D02*
X119380000Y-54610000D01*
X78109200Y-139398800D02*
X83290800Y-139398800D01*
X83290800Y-139398800D02*
X83290800Y-144651200D01*
X83290800Y-144651200D02*
X78109200Y-144651200D01*
X78109200Y-144651200D02*
X78109200Y-139398800D01*
X118110000Y-60960000D02*
X118110000Y-111760000D01*
X113030000Y-54610000D02*
X35560000Y-54610000D01*
X30480000Y-60960000D02*
X30480000Y-111760000D01*
X106680000Y-147320000D02*
X45085000Y-147320000D01*
X44450000Y-123825000D02*
X106680000Y-123825000D01*
X30480000Y-114300000D02*
G75*
G03*
X33020000Y-116840000I2540000J0D01*
G01*
X42275000Y-125095000D02*
G75*
G03*
X42275000Y-125095000I-1000000J0D01*
G01*
X45085000Y-147320000D02*
X45085000Y-148590000D01*
X110490000Y-127635000D02*
X110490000Y-143510000D01*
X111760000Y-122555000D02*
X111760000Y-126365000D01*
X30480000Y-113030000D02*
X29210000Y-113030000D01*
X107950000Y-148590000D02*
X111760000Y-148590000D01*
X43230800Y-62935800D02*
X38049200Y-62935800D01*
X38049200Y-62935800D02*
X38049200Y-57714200D01*
X38049200Y-57714200D02*
X43230800Y-57714200D01*
X43230800Y-57714200D02*
X43230800Y-62935800D01*
X34290000Y-118110000D02*
X34290000Y-116840000D01*
X38735000Y-122555000D02*
X43180000Y-122555000D01*
X29210000Y-111760000D02*
X30480000Y-111760000D01*
X40005000Y-142240000D02*
X38735000Y-142240000D01*
X111760000Y-127635000D02*
X110490000Y-127635000D01*
X113030000Y-118110000D02*
X113030000Y-116840000D01*
X119380000Y-59690000D02*
X118110000Y-59690000D01*
X106680000Y-122555000D02*
X44450000Y-122555000D01*
X43815000Y-147320000D02*
X41275000Y-147320000D01*
X45085000Y-148590000D02*
X106680000Y-148590000D01*
X115570000Y-116840000D02*
X114300000Y-116840000D01*
X118110000Y-58420000D02*
X118110000Y-59690000D01*
X114300000Y-118110000D02*
X119380000Y-118110000D01*
X109220000Y-123825000D02*
X107950000Y-123825000D01*
X35560000Y-116840000D02*
X113030000Y-116840000D01*
X29210000Y-113030000D02*
X29210000Y-118110000D01*
X107950000Y-123825000D02*
X107950000Y-122555000D01*
X34290000Y-116840000D02*
X33020000Y-116840000D01*
X83870800Y-62925800D02*
X78689200Y-62925800D01*
X78689200Y-62925800D02*
X78689200Y-57683400D01*
X78689200Y-57683400D02*
X83870800Y-57683400D01*
X83870800Y-57683400D02*
X83870800Y-62925800D01*
X38735000Y-127000000D02*
X38735000Y-122555000D01*
X107950000Y-122555000D02*
X111760000Y-122555000D01*
X35560000Y-118110000D02*
X113030000Y-118110000D01*
X33258000Y-57658000D02*
G75*
G03*
X33258000Y-57658000I-1000000J0D01*
G01*
X38735000Y-143510000D02*
X38735000Y-148590000D01*
X91170000Y-125095000D02*
G75*
G03*
X91170000Y-125095000I-1000000J0D01*
G01*
X29210000Y-118110000D02*
X34290000Y-118110000D01*
X33020000Y-55880000D02*
G75*
G03*
X30480000Y-58420000I0J-2540000D01*
G01*
X118110000Y-58420000D02*
G75*
G03*
X115570000Y-55880000I-2540000J0D01*
G01*
X63550800Y-62935800D02*
X58369200Y-62935800D01*
X58369200Y-62935800D02*
X58369200Y-57714200D01*
X58369200Y-57714200D02*
X63550800Y-57714200D01*
X63550800Y-57714200D02*
X63550800Y-62935800D01*
X98000000Y-94000000D02*
X113000000Y-94000000D01*
X113000000Y-94000000D02*
X113000000Y-114000000D01*
X113000000Y-114000000D02*
X98000000Y-114000000D01*
X98000000Y-114000000D02*
X98000000Y-94000000D01*
X29210000Y-59690000D02*
X30480000Y-59690000D01*
X43180000Y-122555000D02*
X43180000Y-123825000D01*
X106680000Y-123825000D02*
X106680000Y-122555000D01*
X42275000Y-146050000D02*
G75*
G03*
X42275000Y-146050000I-1000000J0D01*
G01*
X118110000Y-113030000D02*
X118110000Y-114300000D01*
X115570000Y-116840000D02*
G75*
G03*
X118110000Y-114300000I0J2540000D01*
G01*
X33258000Y-115062000D02*
G75*
G03*
X33258000Y-115062000I-1000000J0D01*
G01*
X38735000Y-148590000D02*
X43815000Y-148590000D01*
X109220000Y-147320000D02*
X107950000Y-147320000D01*
X119380000Y-113030000D02*
X118110000Y-113030000D01*
X111760000Y-126365000D02*
X110490000Y-126365000D01*
X38735000Y-128270000D02*
X40005000Y-128270000D01*
D11*
X75200000Y-62777619D02*
X75390476Y-62777619D01*
X75485714Y-62730000D01*
X75580952Y-62634761D01*
X75628571Y-62444285D01*
X75628571Y-62110952D01*
X75580952Y-61920476D01*
X75485714Y-61825238D01*
X75390476Y-61777619D01*
X75200000Y-61777619D01*
X75104761Y-61825238D01*
X75009523Y-61920476D01*
X74961904Y-62110952D01*
X74961904Y-62444285D01*
X75009523Y-62634761D01*
X75104761Y-62730000D01*
X75200000Y-62777619D01*
X76057142Y-62777619D02*
X76057142Y-61968095D01*
X76104761Y-61872857D01*
X76152380Y-61825238D01*
X76247619Y-61777619D01*
X76438095Y-61777619D01*
X76533333Y-61825238D01*
X76580952Y-61872857D01*
X76628571Y-61968095D01*
X76628571Y-62777619D01*
X76961904Y-62777619D02*
X77533333Y-62777619D01*
X77247619Y-61777619D02*
X77247619Y-62777619D01*
X74866666Y-58967619D02*
X75200000Y-57967619D01*
X75533333Y-58967619D01*
X75866666Y-57967619D02*
X75866666Y-58967619D01*
X76104761Y-58967619D01*
X76247619Y-58920000D01*
X76342857Y-58824761D01*
X76390476Y-58729523D01*
X76438095Y-58539047D01*
X76438095Y-58396190D01*
X76390476Y-58205714D01*
X76342857Y-58110476D01*
X76247619Y-58015238D01*
X76104761Y-57967619D01*
X75866666Y-57967619D01*
X76866666Y-57967619D02*
X76866666Y-58967619D01*
X77104761Y-58967619D01*
X77247619Y-58920000D01*
X77342857Y-58824761D01*
X77390476Y-58729523D01*
X77438095Y-58539047D01*
X77438095Y-58396190D01*
X77390476Y-58205714D01*
X77342857Y-58110476D01*
X77247619Y-58015238D01*
X77104761Y-57967619D01*
X76866666Y-57967619D01*
X85598095Y-62730000D02*
X85502857Y-62777619D01*
X85360000Y-62777619D01*
X85217142Y-62730000D01*
X85121904Y-62634761D01*
X85074285Y-62539523D01*
X85026666Y-62349047D01*
X85026666Y-62206190D01*
X85074285Y-62015714D01*
X85121904Y-61920476D01*
X85217142Y-61825238D01*
X85360000Y-61777619D01*
X85455238Y-61777619D01*
X85598095Y-61825238D01*
X85645714Y-61872857D01*
X85645714Y-62206190D01*
X85455238Y-62206190D01*
X86074285Y-61777619D02*
X86074285Y-62777619D01*
X86645714Y-61777619D01*
X86645714Y-62777619D01*
X87121904Y-61777619D02*
X87121904Y-62777619D01*
X87360000Y-62777619D01*
X87502857Y-62730000D01*
X87598095Y-62634761D01*
X87645714Y-62539523D01*
X87693333Y-62349047D01*
X87693333Y-62206190D01*
X87645714Y-62015714D01*
X87598095Y-61920476D01*
X87502857Y-61825238D01*
X87360000Y-61777619D01*
X87121904Y-61777619D01*
X86090190Y-58221619D02*
X86090190Y-59221619D01*
X86566380Y-58221619D02*
X86566380Y-59221619D01*
X87137809Y-58221619D01*
X87137809Y-59221619D01*
X73416190Y-47562380D02*
X72844761Y-47562380D01*
X73130476Y-47562380D02*
X73130476Y-46562380D01*
X73035238Y-46705238D01*
X72940000Y-46800476D01*
X72844761Y-46848095D01*
X74035238Y-46562380D02*
X74130476Y-46562380D01*
X74225714Y-46610000D01*
X74273333Y-46657619D01*
X74320952Y-46752857D01*
X74368571Y-46943333D01*
X74368571Y-47181428D01*
X74320952Y-47371904D01*
X74273333Y-47467142D01*
X74225714Y-47514761D01*
X74130476Y-47562380D01*
X74035238Y-47562380D01*
X73940000Y-47514761D01*
X73892380Y-47467142D01*
X73844761Y-47371904D01*
X73797142Y-47181428D01*
X73797142Y-46943333D01*
X73844761Y-46752857D01*
X73892380Y-46657619D01*
X73940000Y-46610000D01*
X74035238Y-46562380D01*
X74987619Y-46562380D02*
X75082857Y-46562380D01*
X75178095Y-46610000D01*
X75225714Y-46657619D01*
X75273333Y-46752857D01*
X75320952Y-46943333D01*
X75320952Y-47181428D01*
X75273333Y-47371904D01*
X75225714Y-47467142D01*
X75178095Y-47514761D01*
X75082857Y-47562380D01*
X74987619Y-47562380D01*
X74892380Y-47514761D01*
X74844761Y-47467142D01*
X74797142Y-47371904D01*
X74749523Y-47181428D01*
X74749523Y-46943333D01*
X74797142Y-46752857D01*
X74844761Y-46657619D01*
X74892380Y-46610000D01*
X74987619Y-46562380D01*
X75749523Y-47467142D02*
X75797142Y-47514761D01*
X75749523Y-47562380D01*
X75701904Y-47514761D01*
X75749523Y-47467142D01*
X75749523Y-47562380D01*
X76416190Y-46562380D02*
X76511428Y-46562380D01*
X76606666Y-46610000D01*
X76654285Y-46657619D01*
X76701904Y-46752857D01*
X76749523Y-46943333D01*
X76749523Y-47181428D01*
X76701904Y-47371904D01*
X76654285Y-47467142D01*
X76606666Y-47514761D01*
X76511428Y-47562380D01*
X76416190Y-47562380D01*
X76320952Y-47514761D01*
X76273333Y-47467142D01*
X76225714Y-47371904D01*
X76178095Y-47181428D01*
X76178095Y-46943333D01*
X76225714Y-46752857D01*
X76273333Y-46657619D01*
X76320952Y-46610000D01*
X76416190Y-46562380D01*
X77368571Y-46562380D02*
X77463809Y-46562380D01*
X77559047Y-46610000D01*
X77606666Y-46657619D01*
X77654285Y-46752857D01*
X77701904Y-46943333D01*
X77701904Y-47181428D01*
X77654285Y-47371904D01*
X77606666Y-47467142D01*
X77559047Y-47514761D01*
X77463809Y-47562380D01*
X77368571Y-47562380D01*
X77273333Y-47514761D01*
X77225714Y-47467142D01*
X77178095Y-47371904D01*
X77130476Y-47181428D01*
X77130476Y-46943333D01*
X77178095Y-46752857D01*
X77225714Y-46657619D01*
X77273333Y-46610000D01*
X77368571Y-46562380D01*
X78320952Y-46562380D02*
X78416190Y-46562380D01*
X78511428Y-46610000D01*
X78559047Y-46657619D01*
X78606666Y-46752857D01*
X78654285Y-46943333D01*
X78654285Y-47181428D01*
X78606666Y-47371904D01*
X78559047Y-47467142D01*
X78511428Y-47514761D01*
X78416190Y-47562380D01*
X78320952Y-47562380D01*
X78225714Y-47514761D01*
X78178095Y-47467142D01*
X78130476Y-47371904D01*
X78082857Y-47181428D01*
X78082857Y-46943333D01*
X78130476Y-46752857D01*
X78178095Y-46657619D01*
X78225714Y-46610000D01*
X78320952Y-46562380D01*
X79273333Y-46562380D02*
X79368571Y-46562380D01*
X79463809Y-46610000D01*
X79511428Y-46657619D01*
X79559047Y-46752857D01*
X79606666Y-46943333D01*
X79606666Y-47181428D01*
X79559047Y-47371904D01*
X79511428Y-47467142D01*
X79463809Y-47514761D01*
X79368571Y-47562380D01*
X79273333Y-47562380D01*
X79178095Y-47514761D01*
X79130476Y-47467142D01*
X79082857Y-47371904D01*
X79035238Y-47181428D01*
X79035238Y-46943333D01*
X79082857Y-46752857D01*
X79130476Y-46657619D01*
X79178095Y-46610000D01*
X79273333Y-46562380D01*
X80797142Y-47562380D02*
X80797142Y-46895714D01*
X80797142Y-46990952D02*
X80844761Y-46943333D01*
X80940000Y-46895714D01*
X81082857Y-46895714D01*
X81178095Y-46943333D01*
X81225714Y-47038571D01*
X81225714Y-47562380D01*
X81225714Y-47038571D02*
X81273333Y-46943333D01*
X81368571Y-46895714D01*
X81511428Y-46895714D01*
X81606666Y-46943333D01*
X81654285Y-47038571D01*
X81654285Y-47562380D01*
X82130476Y-47562380D02*
X82130476Y-46895714D01*
X82130476Y-46990952D02*
X82178095Y-46943333D01*
X82273333Y-46895714D01*
X82416190Y-46895714D01*
X82511428Y-46943333D01*
X82559047Y-47038571D01*
X82559047Y-47562380D01*
X82559047Y-47038571D02*
X82606666Y-46943333D01*
X82701904Y-46895714D01*
X82844761Y-46895714D01*
X82940000Y-46943333D01*
X82987619Y-47038571D01*
X82987619Y-47562380D01*
D12*
X27940000Y-51760000D02*
X27940000Y-47673580D01*
X127940000Y-51760000D02*
X127940000Y-47673580D01*
X27940000Y-48260000D02*
X127940000Y-48260000D01*
X27940000Y-48260000D02*
X127940000Y-48260000D01*
X27940000Y-48260000D02*
X29066504Y-48846421D01*
X27940000Y-48260000D02*
X29066504Y-47673579D01*
X127940000Y-48260000D02*
X126813496Y-47673579D01*
X127940000Y-48260000D02*
X126813496Y-48846421D01*
D11*
X22162380Y-107393809D02*
X22162380Y-107203333D01*
X22114761Y-107108095D01*
X22067142Y-107060476D01*
X21924285Y-106965238D01*
X21733809Y-106917619D01*
X21352857Y-106917619D01*
X21257619Y-106965238D01*
X21210000Y-107012857D01*
X21162380Y-107108095D01*
X21162380Y-107298571D01*
X21210000Y-107393809D01*
X21257619Y-107441428D01*
X21352857Y-107489047D01*
X21590952Y-107489047D01*
X21686190Y-107441428D01*
X21733809Y-107393809D01*
X21781428Y-107298571D01*
X21781428Y-107108095D01*
X21733809Y-107012857D01*
X21686190Y-106965238D01*
X21590952Y-106917619D01*
X22162380Y-106441428D02*
X22162380Y-106250952D01*
X22114761Y-106155714D01*
X22067142Y-106108095D01*
X21924285Y-106012857D01*
X21733809Y-105965238D01*
X21352857Y-105965238D01*
X21257619Y-106012857D01*
X21210000Y-106060476D01*
X21162380Y-106155714D01*
X21162380Y-106346190D01*
X21210000Y-106441428D01*
X21257619Y-106489047D01*
X21352857Y-106536666D01*
X21590952Y-106536666D01*
X21686190Y-106489047D01*
X21733809Y-106441428D01*
X21781428Y-106346190D01*
X21781428Y-106155714D01*
X21733809Y-106060476D01*
X21686190Y-106012857D01*
X21590952Y-105965238D01*
X22067142Y-105536666D02*
X22114761Y-105489047D01*
X22162380Y-105536666D01*
X22114761Y-105584285D01*
X22067142Y-105536666D01*
X22162380Y-105536666D01*
X21162380Y-104870000D02*
X21162380Y-104774761D01*
X21210000Y-104679523D01*
X21257619Y-104631904D01*
X21352857Y-104584285D01*
X21543333Y-104536666D01*
X21781428Y-104536666D01*
X21971904Y-104584285D01*
X22067142Y-104631904D01*
X22114761Y-104679523D01*
X22162380Y-104774761D01*
X22162380Y-104870000D01*
X22114761Y-104965238D01*
X22067142Y-105012857D01*
X21971904Y-105060476D01*
X21781428Y-105108095D01*
X21543333Y-105108095D01*
X21352857Y-105060476D01*
X21257619Y-105012857D01*
X21210000Y-104965238D01*
X21162380Y-104870000D01*
X21162380Y-103679523D02*
X21162380Y-103870000D01*
X21210000Y-103965238D01*
X21257619Y-104012857D01*
X21400476Y-104108095D01*
X21590952Y-104155714D01*
X21971904Y-104155714D01*
X22067142Y-104108095D01*
X22114761Y-104060476D01*
X22162380Y-103965238D01*
X22162380Y-103774761D01*
X22114761Y-103679523D01*
X22067142Y-103631904D01*
X21971904Y-103584285D01*
X21733809Y-103584285D01*
X21638571Y-103631904D01*
X21590952Y-103679523D01*
X21543333Y-103774761D01*
X21543333Y-103965238D01*
X21590952Y-104060476D01*
X21638571Y-104108095D01*
X21733809Y-104155714D01*
X21162380Y-102965238D02*
X21162380Y-102870000D01*
X21210000Y-102774761D01*
X21257619Y-102727142D01*
X21352857Y-102679523D01*
X21543333Y-102631904D01*
X21781428Y-102631904D01*
X21971904Y-102679523D01*
X22067142Y-102727142D01*
X22114761Y-102774761D01*
X22162380Y-102870000D01*
X22162380Y-102965238D01*
X22114761Y-103060476D01*
X22067142Y-103108095D01*
X21971904Y-103155714D01*
X21781428Y-103203333D01*
X21543333Y-103203333D01*
X21352857Y-103155714D01*
X21257619Y-103108095D01*
X21210000Y-103060476D01*
X21162380Y-102965238D01*
X21162380Y-102012857D02*
X21162380Y-101917619D01*
X21210000Y-101822380D01*
X21257619Y-101774761D01*
X21352857Y-101727142D01*
X21543333Y-101679523D01*
X21781428Y-101679523D01*
X21971904Y-101727142D01*
X22067142Y-101774761D01*
X22114761Y-101822380D01*
X22162380Y-101917619D01*
X22162380Y-102012857D01*
X22114761Y-102108095D01*
X22067142Y-102155714D01*
X21971904Y-102203333D01*
X21781428Y-102250952D01*
X21543333Y-102250952D01*
X21352857Y-102203333D01*
X21257619Y-102155714D01*
X21210000Y-102108095D01*
X21162380Y-102012857D01*
X22162380Y-100489047D02*
X21495714Y-100489047D01*
X21590952Y-100489047D02*
X21543333Y-100441428D01*
X21495714Y-100346190D01*
X21495714Y-100203333D01*
X21543333Y-100108095D01*
X21638571Y-100060476D01*
X22162380Y-100060476D01*
X21638571Y-100060476D02*
X21543333Y-100012857D01*
X21495714Y-99917619D01*
X21495714Y-99774761D01*
X21543333Y-99679523D01*
X21638571Y-99631904D01*
X22162380Y-99631904D01*
X22162380Y-99155714D02*
X21495714Y-99155714D01*
X21590952Y-99155714D02*
X21543333Y-99108095D01*
X21495714Y-99012857D01*
X21495714Y-98870000D01*
X21543333Y-98774761D01*
X21638571Y-98727142D01*
X22162380Y-98727142D01*
X21638571Y-98727142D02*
X21543333Y-98679523D01*
X21495714Y-98584285D01*
X21495714Y-98441428D01*
X21543333Y-98346190D01*
X21638571Y-98298571D01*
X22162380Y-98298571D01*
D12*
X27440000Y-53340000D02*
X22273580Y-53340000D01*
X27440000Y-152400000D02*
X22273580Y-152400000D01*
X22860000Y-53340000D02*
X22860000Y-152400000D01*
X22860000Y-53340000D02*
X22860000Y-152400000D01*
X22860000Y-53340000D02*
X22273579Y-54466504D01*
X22860000Y-53340000D02*
X23446421Y-54466504D01*
X22860000Y-152400000D02*
X23446421Y-151273496D01*
X22860000Y-152400000D02*
X22273579Y-151273496D01*
D11*
%TO.C,RGB*%
X61650476Y-57277380D02*
X61983809Y-56801190D01*
X62221904Y-57277380D02*
X62221904Y-56277380D01*
X61840952Y-56277380D01*
X61745714Y-56325000D01*
X61698095Y-56372619D01*
X61650476Y-56467857D01*
X61650476Y-56610714D01*
X61698095Y-56705952D01*
X61745714Y-56753571D01*
X61840952Y-56801190D01*
X62221904Y-56801190D01*
X60698095Y-56325000D02*
X60793333Y-56277380D01*
X60936190Y-56277380D01*
X61079047Y-56325000D01*
X61174285Y-56420238D01*
X61221904Y-56515476D01*
X61269523Y-56705952D01*
X61269523Y-56848809D01*
X61221904Y-57039285D01*
X61174285Y-57134523D01*
X61079047Y-57229761D01*
X60936190Y-57277380D01*
X60840952Y-57277380D01*
X60698095Y-57229761D01*
X60650476Y-57182142D01*
X60650476Y-56848809D01*
X60840952Y-56848809D01*
X59888571Y-56753571D02*
X59745714Y-56801190D01*
X59698095Y-56848809D01*
X59650476Y-56944047D01*
X59650476Y-57086904D01*
X59698095Y-57182142D01*
X59745714Y-57229761D01*
X59840952Y-57277380D01*
X60221904Y-57277380D01*
X60221904Y-56277380D01*
X59888571Y-56277380D01*
X59793333Y-56325000D01*
X59745714Y-56372619D01*
X59698095Y-56467857D01*
X59698095Y-56563095D01*
X59745714Y-56658333D01*
X59793333Y-56705952D01*
X59888571Y-56753571D01*
X60221904Y-56753571D01*
X64824285Y-59177380D02*
X65395714Y-59177380D01*
X65110000Y-59177380D02*
X65110000Y-58177380D01*
X65205238Y-58320238D01*
X65300476Y-58415476D01*
X65395714Y-58463095D01*
X41330476Y-97917380D02*
X41663809Y-97441190D01*
X41901904Y-97917380D02*
X41901904Y-96917380D01*
X41520952Y-96917380D01*
X41425714Y-96965000D01*
X41378095Y-97012619D01*
X41330476Y-97107857D01*
X41330476Y-97250714D01*
X41378095Y-97345952D01*
X41425714Y-97393571D01*
X41520952Y-97441190D01*
X41901904Y-97441190D01*
X40378095Y-96965000D02*
X40473333Y-96917380D01*
X40616190Y-96917380D01*
X40759047Y-96965000D01*
X40854285Y-97060238D01*
X40901904Y-97155476D01*
X40949523Y-97345952D01*
X40949523Y-97488809D01*
X40901904Y-97679285D01*
X40854285Y-97774523D01*
X40759047Y-97869761D01*
X40616190Y-97917380D01*
X40520952Y-97917380D01*
X40378095Y-97869761D01*
X40330476Y-97822142D01*
X40330476Y-97488809D01*
X40520952Y-97488809D01*
X39568571Y-97393571D02*
X39425714Y-97441190D01*
X39378095Y-97488809D01*
X39330476Y-97584047D01*
X39330476Y-97726904D01*
X39378095Y-97822142D01*
X39425714Y-97869761D01*
X39520952Y-97917380D01*
X39901904Y-97917380D01*
X39901904Y-96917380D01*
X39568571Y-96917380D01*
X39473333Y-96965000D01*
X39425714Y-97012619D01*
X39378095Y-97107857D01*
X39378095Y-97203095D01*
X39425714Y-97298333D01*
X39473333Y-97345952D01*
X39568571Y-97393571D01*
X39901904Y-97393571D01*
X44504285Y-99817380D02*
X45075714Y-99817380D01*
X44790000Y-99817380D02*
X44790000Y-98817380D01*
X44885238Y-98960238D01*
X44980476Y-99055476D01*
X45075714Y-99103095D01*
X41330476Y-57277380D02*
X41663809Y-56801190D01*
X41901904Y-57277380D02*
X41901904Y-56277380D01*
X41520952Y-56277380D01*
X41425714Y-56325000D01*
X41378095Y-56372619D01*
X41330476Y-56467857D01*
X41330476Y-56610714D01*
X41378095Y-56705952D01*
X41425714Y-56753571D01*
X41520952Y-56801190D01*
X41901904Y-56801190D01*
X40378095Y-56325000D02*
X40473333Y-56277380D01*
X40616190Y-56277380D01*
X40759047Y-56325000D01*
X40854285Y-56420238D01*
X40901904Y-56515476D01*
X40949523Y-56705952D01*
X40949523Y-56848809D01*
X40901904Y-57039285D01*
X40854285Y-57134523D01*
X40759047Y-57229761D01*
X40616190Y-57277380D01*
X40520952Y-57277380D01*
X40378095Y-57229761D01*
X40330476Y-57182142D01*
X40330476Y-56848809D01*
X40520952Y-56848809D01*
X39568571Y-56753571D02*
X39425714Y-56801190D01*
X39378095Y-56848809D01*
X39330476Y-56944047D01*
X39330476Y-57086904D01*
X39378095Y-57182142D01*
X39425714Y-57229761D01*
X39520952Y-57277380D01*
X39901904Y-57277380D01*
X39901904Y-56277380D01*
X39568571Y-56277380D01*
X39473333Y-56325000D01*
X39425714Y-56372619D01*
X39378095Y-56467857D01*
X39378095Y-56563095D01*
X39425714Y-56658333D01*
X39473333Y-56705952D01*
X39568571Y-56753571D01*
X39901904Y-56753571D01*
X44504285Y-59177380D02*
X45075714Y-59177380D01*
X44790000Y-59177380D02*
X44790000Y-58177380D01*
X44885238Y-58320238D01*
X44980476Y-58415476D01*
X45075714Y-58463095D01*
X61650476Y-97917380D02*
X61983809Y-97441190D01*
X62221904Y-97917380D02*
X62221904Y-96917380D01*
X61840952Y-96917380D01*
X61745714Y-96965000D01*
X61698095Y-97012619D01*
X61650476Y-97107857D01*
X61650476Y-97250714D01*
X61698095Y-97345952D01*
X61745714Y-97393571D01*
X61840952Y-97441190D01*
X62221904Y-97441190D01*
X60698095Y-96965000D02*
X60793333Y-96917380D01*
X60936190Y-96917380D01*
X61079047Y-96965000D01*
X61174285Y-97060238D01*
X61221904Y-97155476D01*
X61269523Y-97345952D01*
X61269523Y-97488809D01*
X61221904Y-97679285D01*
X61174285Y-97774523D01*
X61079047Y-97869761D01*
X60936190Y-97917380D01*
X60840952Y-97917380D01*
X60698095Y-97869761D01*
X60650476Y-97822142D01*
X60650476Y-97488809D01*
X60840952Y-97488809D01*
X59888571Y-97393571D02*
X59745714Y-97441190D01*
X59698095Y-97488809D01*
X59650476Y-97584047D01*
X59650476Y-97726904D01*
X59698095Y-97822142D01*
X59745714Y-97869761D01*
X59840952Y-97917380D01*
X60221904Y-97917380D01*
X60221904Y-96917380D01*
X59888571Y-96917380D01*
X59793333Y-96965000D01*
X59745714Y-97012619D01*
X59698095Y-97107857D01*
X59698095Y-97203095D01*
X59745714Y-97298333D01*
X59793333Y-97345952D01*
X59888571Y-97393571D01*
X60221904Y-97393571D01*
X64824285Y-99817380D02*
X65395714Y-99817380D01*
X65110000Y-99817380D02*
X65110000Y-98817380D01*
X65205238Y-98960238D01*
X65300476Y-99055476D01*
X65395714Y-99103095D01*
X81970476Y-97917380D02*
X82303809Y-97441190D01*
X82541904Y-97917380D02*
X82541904Y-96917380D01*
X82160952Y-96917380D01*
X82065714Y-96965000D01*
X82018095Y-97012619D01*
X81970476Y-97107857D01*
X81970476Y-97250714D01*
X82018095Y-97345952D01*
X82065714Y-97393571D01*
X82160952Y-97441190D01*
X82541904Y-97441190D01*
X81018095Y-96965000D02*
X81113333Y-96917380D01*
X81256190Y-96917380D01*
X81399047Y-96965000D01*
X81494285Y-97060238D01*
X81541904Y-97155476D01*
X81589523Y-97345952D01*
X81589523Y-97488809D01*
X81541904Y-97679285D01*
X81494285Y-97774523D01*
X81399047Y-97869761D01*
X81256190Y-97917380D01*
X81160952Y-97917380D01*
X81018095Y-97869761D01*
X80970476Y-97822142D01*
X80970476Y-97488809D01*
X81160952Y-97488809D01*
X80208571Y-97393571D02*
X80065714Y-97441190D01*
X80018095Y-97488809D01*
X79970476Y-97584047D01*
X79970476Y-97726904D01*
X80018095Y-97822142D01*
X80065714Y-97869761D01*
X80160952Y-97917380D01*
X80541904Y-97917380D01*
X80541904Y-96917380D01*
X80208571Y-96917380D01*
X80113333Y-96965000D01*
X80065714Y-97012619D01*
X80018095Y-97107857D01*
X80018095Y-97203095D01*
X80065714Y-97298333D01*
X80113333Y-97345952D01*
X80208571Y-97393571D01*
X80541904Y-97393571D01*
X85144285Y-99817380D02*
X85715714Y-99817380D01*
X85430000Y-99817380D02*
X85430000Y-98817380D01*
X85525238Y-98960238D01*
X85620476Y-99055476D01*
X85715714Y-99103095D01*
X81970476Y-57277380D02*
X82303809Y-56801190D01*
X82541904Y-57277380D02*
X82541904Y-56277380D01*
X82160952Y-56277380D01*
X82065714Y-56325000D01*
X82018095Y-56372619D01*
X81970476Y-56467857D01*
X81970476Y-56610714D01*
X82018095Y-56705952D01*
X82065714Y-56753571D01*
X82160952Y-56801190D01*
X82541904Y-56801190D01*
X81018095Y-56325000D02*
X81113333Y-56277380D01*
X81256190Y-56277380D01*
X81399047Y-56325000D01*
X81494285Y-56420238D01*
X81541904Y-56515476D01*
X81589523Y-56705952D01*
X81589523Y-56848809D01*
X81541904Y-57039285D01*
X81494285Y-57134523D01*
X81399047Y-57229761D01*
X81256190Y-57277380D01*
X81160952Y-57277380D01*
X81018095Y-57229761D01*
X80970476Y-57182142D01*
X80970476Y-56848809D01*
X81160952Y-56848809D01*
X80208571Y-56753571D02*
X80065714Y-56801190D01*
X80018095Y-56848809D01*
X79970476Y-56944047D01*
X79970476Y-57086904D01*
X80018095Y-57182142D01*
X80065714Y-57229761D01*
X80160952Y-57277380D01*
X80541904Y-57277380D01*
X80541904Y-56277380D01*
X80208571Y-56277380D01*
X80113333Y-56325000D01*
X80065714Y-56372619D01*
X80018095Y-56467857D01*
X80018095Y-56563095D01*
X80065714Y-56658333D01*
X80113333Y-56705952D01*
X80208571Y-56753571D01*
X80541904Y-56753571D01*
X85144285Y-59177380D02*
X85715714Y-59177380D01*
X85430000Y-59177380D02*
X85430000Y-58177380D01*
X85525238Y-58320238D01*
X85620476Y-58415476D01*
X85715714Y-58463095D01*
X61659808Y-84605160D02*
X61993141Y-84128970D01*
X62231236Y-84605160D02*
X62231236Y-83605160D01*
X61850284Y-83605160D01*
X61755046Y-83652780D01*
X61707427Y-83700399D01*
X61659808Y-83795637D01*
X61659808Y-83938494D01*
X61707427Y-84033732D01*
X61755046Y-84081351D01*
X61850284Y-84128970D01*
X62231236Y-84128970D01*
X60707427Y-83652780D02*
X60802665Y-83605160D01*
X60945522Y-83605160D01*
X61088379Y-83652780D01*
X61183617Y-83748018D01*
X61231236Y-83843256D01*
X61278855Y-84033732D01*
X61278855Y-84176589D01*
X61231236Y-84367065D01*
X61183617Y-84462303D01*
X61088379Y-84557541D01*
X60945522Y-84605160D01*
X60850284Y-84605160D01*
X60707427Y-84557541D01*
X60659808Y-84509922D01*
X60659808Y-84176589D01*
X60850284Y-84176589D01*
X59897903Y-84081351D02*
X59755046Y-84128970D01*
X59707427Y-84176589D01*
X59659808Y-84271827D01*
X59659808Y-84414684D01*
X59707427Y-84509922D01*
X59755046Y-84557541D01*
X59850284Y-84605160D01*
X60231236Y-84605160D01*
X60231236Y-83605160D01*
X59897903Y-83605160D01*
X59802665Y-83652780D01*
X59755046Y-83700399D01*
X59707427Y-83795637D01*
X59707427Y-83890875D01*
X59755046Y-83986113D01*
X59802665Y-84033732D01*
X59897903Y-84081351D01*
X60231236Y-84081351D01*
X56533617Y-82705160D02*
X57105046Y-82705160D01*
X56819332Y-82705160D02*
X56819332Y-81705160D01*
X56914570Y-81848018D01*
X57009808Y-81943256D01*
X57105046Y-81990875D01*
X41336247Y-84605160D02*
X41669580Y-84128970D01*
X41907675Y-84605160D02*
X41907675Y-83605160D01*
X41526723Y-83605160D01*
X41431485Y-83652780D01*
X41383866Y-83700399D01*
X41336247Y-83795637D01*
X41336247Y-83938494D01*
X41383866Y-84033732D01*
X41431485Y-84081351D01*
X41526723Y-84128970D01*
X41907675Y-84128970D01*
X40383866Y-83652780D02*
X40479104Y-83605160D01*
X40621961Y-83605160D01*
X40764818Y-83652780D01*
X40860056Y-83748018D01*
X40907675Y-83843256D01*
X40955294Y-84033732D01*
X40955294Y-84176589D01*
X40907675Y-84367065D01*
X40860056Y-84462303D01*
X40764818Y-84557541D01*
X40621961Y-84605160D01*
X40526723Y-84605160D01*
X40383866Y-84557541D01*
X40336247Y-84509922D01*
X40336247Y-84176589D01*
X40526723Y-84176589D01*
X39574342Y-84081351D02*
X39431485Y-84128970D01*
X39383866Y-84176589D01*
X39336247Y-84271827D01*
X39336247Y-84414684D01*
X39383866Y-84509922D01*
X39431485Y-84557541D01*
X39526723Y-84605160D01*
X39907675Y-84605160D01*
X39907675Y-83605160D01*
X39574342Y-83605160D01*
X39479104Y-83652780D01*
X39431485Y-83700399D01*
X39383866Y-83795637D01*
X39383866Y-83890875D01*
X39431485Y-83986113D01*
X39479104Y-84033732D01*
X39574342Y-84081351D01*
X39907675Y-84081351D01*
X36210056Y-82705160D02*
X36781485Y-82705160D01*
X36495771Y-82705160D02*
X36495771Y-81705160D01*
X36591009Y-81848018D01*
X36686247Y-81943256D01*
X36781485Y-81990875D01*
X81970476Y-84597380D02*
X82303809Y-84121190D01*
X82541904Y-84597380D02*
X82541904Y-83597380D01*
X82160952Y-83597380D01*
X82065714Y-83645000D01*
X82018095Y-83692619D01*
X81970476Y-83787857D01*
X81970476Y-83930714D01*
X82018095Y-84025952D01*
X82065714Y-84073571D01*
X82160952Y-84121190D01*
X82541904Y-84121190D01*
X81018095Y-83645000D02*
X81113333Y-83597380D01*
X81256190Y-83597380D01*
X81399047Y-83645000D01*
X81494285Y-83740238D01*
X81541904Y-83835476D01*
X81589523Y-84025952D01*
X81589523Y-84168809D01*
X81541904Y-84359285D01*
X81494285Y-84454523D01*
X81399047Y-84549761D01*
X81256190Y-84597380D01*
X81160952Y-84597380D01*
X81018095Y-84549761D01*
X80970476Y-84502142D01*
X80970476Y-84168809D01*
X81160952Y-84168809D01*
X80208571Y-84073571D02*
X80065714Y-84121190D01*
X80018095Y-84168809D01*
X79970476Y-84264047D01*
X79970476Y-84406904D01*
X80018095Y-84502142D01*
X80065714Y-84549761D01*
X80160952Y-84597380D01*
X80541904Y-84597380D01*
X80541904Y-83597380D01*
X80208571Y-83597380D01*
X80113333Y-83645000D01*
X80065714Y-83692619D01*
X80018095Y-83787857D01*
X80018095Y-83883095D01*
X80065714Y-83978333D01*
X80113333Y-84025952D01*
X80208571Y-84073571D01*
X80541904Y-84073571D01*
X76844285Y-82697380D02*
X77415714Y-82697380D01*
X77130000Y-82697380D02*
X77130000Y-81697380D01*
X77225238Y-81840238D01*
X77320476Y-81935476D01*
X77415714Y-81983095D01*
X61070476Y-145967380D02*
X61403809Y-145491190D01*
X61641904Y-145967380D02*
X61641904Y-144967380D01*
X61260952Y-144967380D01*
X61165714Y-145015000D01*
X61118095Y-145062619D01*
X61070476Y-145157857D01*
X61070476Y-145300714D01*
X61118095Y-145395952D01*
X61165714Y-145443571D01*
X61260952Y-145491190D01*
X61641904Y-145491190D01*
X60118095Y-145015000D02*
X60213333Y-144967380D01*
X60356190Y-144967380D01*
X60499047Y-145015000D01*
X60594285Y-145110238D01*
X60641904Y-145205476D01*
X60689523Y-145395952D01*
X60689523Y-145538809D01*
X60641904Y-145729285D01*
X60594285Y-145824523D01*
X60499047Y-145919761D01*
X60356190Y-145967380D01*
X60260952Y-145967380D01*
X60118095Y-145919761D01*
X60070476Y-145872142D01*
X60070476Y-145538809D01*
X60260952Y-145538809D01*
X59308571Y-145443571D02*
X59165714Y-145491190D01*
X59118095Y-145538809D01*
X59070476Y-145634047D01*
X59070476Y-145776904D01*
X59118095Y-145872142D01*
X59165714Y-145919761D01*
X59260952Y-145967380D01*
X59641904Y-145967380D01*
X59641904Y-144967380D01*
X59308571Y-144967380D01*
X59213333Y-145015000D01*
X59165714Y-145062619D01*
X59118095Y-145157857D01*
X59118095Y-145253095D01*
X59165714Y-145348333D01*
X59213333Y-145395952D01*
X59308571Y-145443571D01*
X59641904Y-145443571D01*
X55944285Y-144067380D02*
X56515714Y-144067380D01*
X56230000Y-144067380D02*
X56230000Y-143067380D01*
X56325238Y-143210238D01*
X56420476Y-143305476D01*
X56515714Y-143353095D01*
X81390476Y-145967380D02*
X81723809Y-145491190D01*
X81961904Y-145967380D02*
X81961904Y-144967380D01*
X81580952Y-144967380D01*
X81485714Y-145015000D01*
X81438095Y-145062619D01*
X81390476Y-145157857D01*
X81390476Y-145300714D01*
X81438095Y-145395952D01*
X81485714Y-145443571D01*
X81580952Y-145491190D01*
X81961904Y-145491190D01*
X80438095Y-145015000D02*
X80533333Y-144967380D01*
X80676190Y-144967380D01*
X80819047Y-145015000D01*
X80914285Y-145110238D01*
X80961904Y-145205476D01*
X81009523Y-145395952D01*
X81009523Y-145538809D01*
X80961904Y-145729285D01*
X80914285Y-145824523D01*
X80819047Y-145919761D01*
X80676190Y-145967380D01*
X80580952Y-145967380D01*
X80438095Y-145919761D01*
X80390476Y-145872142D01*
X80390476Y-145538809D01*
X80580952Y-145538809D01*
X79628571Y-145443571D02*
X79485714Y-145491190D01*
X79438095Y-145538809D01*
X79390476Y-145634047D01*
X79390476Y-145776904D01*
X79438095Y-145872142D01*
X79485714Y-145919761D01*
X79580952Y-145967380D01*
X79961904Y-145967380D01*
X79961904Y-144967380D01*
X79628571Y-144967380D01*
X79533333Y-145015000D01*
X79485714Y-145062619D01*
X79438095Y-145157857D01*
X79438095Y-145253095D01*
X79485714Y-145348333D01*
X79533333Y-145395952D01*
X79628571Y-145443571D01*
X79961904Y-145443571D01*
X76264285Y-144067380D02*
X76835714Y-144067380D01*
X76550000Y-144067380D02*
X76550000Y-143067380D01*
X76645238Y-143210238D01*
X76740476Y-143305476D01*
X76835714Y-143353095D01*
D12*
%TO.C,TS4148*%
X45981252Y-138330000D02*
X45458748Y-138330000D01*
X45981252Y-139800000D02*
X45458748Y-139800000D01*
%TO.C,RGB*%
X64610000Y-63075000D02*
X57310000Y-63075000D01*
X64610000Y-57575000D02*
X57310000Y-57575000D01*
X57310000Y-63075000D02*
X57310000Y-61925000D01*
X44290000Y-98215000D02*
X36990000Y-98215000D01*
X36990000Y-103715000D02*
X36990000Y-102565000D01*
X44290000Y-103715000D02*
X36990000Y-103715000D01*
X36990000Y-63075000D02*
X36990000Y-61925000D01*
X44290000Y-57575000D02*
X36990000Y-57575000D01*
X44290000Y-63075000D02*
X36990000Y-63075000D01*
X57310000Y-103715000D02*
X57310000Y-102565000D01*
X64610000Y-98215000D02*
X57310000Y-98215000D01*
X64610000Y-103715000D02*
X57310000Y-103715000D01*
X84930000Y-103715000D02*
X77630000Y-103715000D01*
X77630000Y-103715000D02*
X77630000Y-102565000D01*
X84930000Y-98215000D02*
X77630000Y-98215000D01*
X84930000Y-57575000D02*
X77630000Y-57575000D01*
X77630000Y-63075000D02*
X77630000Y-61925000D01*
X84930000Y-63075000D02*
X77630000Y-63075000D01*
X64619332Y-77902780D02*
X64619332Y-79052780D01*
X57319332Y-77902780D02*
X64619332Y-77902780D01*
X57319332Y-83402780D02*
X64619332Y-83402780D01*
X44295771Y-77902780D02*
X44295771Y-79052780D01*
X36995771Y-83402780D02*
X44295771Y-83402780D01*
X36995771Y-77902780D02*
X44295771Y-77902780D01*
X84930000Y-77895000D02*
X84930000Y-79045000D01*
X77630000Y-83395000D02*
X84930000Y-83395000D01*
X77630000Y-77895000D02*
X84930000Y-77895000D01*
%TO.C,TS4148*%
X45981252Y-133250000D02*
X45458748Y-133250000D01*
X45981252Y-134720000D02*
X45458748Y-134720000D01*
X45981252Y-143410000D02*
X45458748Y-143410000D01*
X45981252Y-144880000D02*
X45458748Y-144880000D01*
%TO.C,RGB*%
X64030000Y-139265000D02*
X64030000Y-140415000D01*
X56730000Y-144765000D02*
X64030000Y-144765000D01*
X56730000Y-139265000D02*
X64030000Y-139265000D01*
X84350000Y-139265000D02*
X84350000Y-140415000D01*
X77050000Y-144765000D02*
X84350000Y-144765000D01*
X77050000Y-139265000D02*
X84350000Y-139265000D01*
%TD*%
M02*
