%TF.GenerationSoftware,KiCad,Pcbnew,(6.0.5)*%
%TF.CreationDate,2022-06-14T18:11:56+08:00*%
%TF.ProjectId,keyboard_V4___,6b657962-6f61-4726-945f-56345f087f2e,rev?*%
%TF.SameCoordinates,Original*%
%TF.FileFunction,Paste,Bot*%
%TF.FilePolarity,Positive*%
%FSLAX46Y46*%
G04 Gerber Fmt 4.6, Leading zero omitted, Abs format (unit mm)*
G04 Created by KiCad (PCBNEW (6.0.5)) date 2022-06-14 18:11:56*
%MOMM*%
%LPD*%
G01*
G04 APERTURE LIST*
G04 Aperture macros list*
%AMRoundRect*
0 Rectangle with rounded corners*
0 $1 Rounding radius*
0 $2 $3 $4 $5 $6 $7 $8 $9 X,Y pos of 4 corners*
0 Add a 4 corners polygon primitive as box body*
4,1,4,$2,$3,$4,$5,$6,$7,$8,$9,$2,$3,0*
0 Add four circle primitives for the rounded corners*
1,1,$1+$1,$2,$3*
1,1,$1+$1,$4,$5*
1,1,$1+$1,$6,$7*
1,1,$1+$1,$8,$9*
0 Add four rect primitives between the rounded corners*
20,1,$1+$1,$2,$3,$4,$5,0*
20,1,$1+$1,$4,$5,$6,$7,0*
20,1,$1+$1,$6,$7,$8,$9,0*
20,1,$1+$1,$8,$9,$2,$3,0*%
G04 Aperture macros list end*
%TA.AperFunction,Profile*%
%ADD10C,0.050000*%
%TD*%
%ADD11RoundRect,0.250000X0.250000X0.475000X-0.250000X0.475000X-0.250000X-0.475000X0.250000X-0.475000X0*%
%ADD12R,1.500000X1.000000*%
G04 APERTURE END LIST*
D10*
X110490000Y-125095000D02*
G75*
G03*
X109220000Y-123825000I-1270000J0D01*
G01*
X40005000Y-146050000D02*
G75*
G03*
X41275000Y-147320000I1270000J0D01*
G01*
X119380000Y-60960000D02*
X118110000Y-60960000D01*
X114300000Y-116840000D02*
X114300000Y-118110000D01*
X30480000Y-113030000D02*
X30480000Y-114300000D01*
X106680000Y-148590000D02*
X106680000Y-147320000D01*
X44450000Y-122555000D02*
X44450000Y-123825000D01*
X40005000Y-125095000D02*
X40005000Y-127000000D01*
X111760000Y-148590000D02*
X111760000Y-144780000D01*
X43241538Y-103567747D02*
X38059938Y-103567747D01*
X38059938Y-103567747D02*
X38059938Y-98356147D01*
X38059938Y-98356147D02*
X43241538Y-98356147D01*
X43241538Y-98356147D02*
X43241538Y-103567747D01*
X110490000Y-126365000D02*
X110490000Y-125095000D01*
X109220000Y-147320000D02*
G75*
G03*
X110490000Y-146050000I0J1270000D01*
G01*
X119380000Y-111760000D02*
X119380000Y-60960000D01*
X113030000Y-55880000D02*
X35560000Y-55880000D01*
X118110000Y-111760000D02*
X119380000Y-111760000D01*
X57789200Y-139414200D02*
X62970800Y-139414200D01*
X62970800Y-139414200D02*
X62970800Y-144666600D01*
X62970800Y-144666600D02*
X57789200Y-144666600D01*
X57789200Y-144666600D02*
X57789200Y-139414200D01*
X113030000Y-55880000D02*
X113030000Y-54610000D01*
X29210000Y-54610000D02*
X29210000Y-59690000D01*
X107950000Y-147320000D02*
X107950000Y-148590000D01*
X35560000Y-116840000D02*
X35560000Y-118110000D01*
X34290000Y-54610000D02*
X34290000Y-55880000D01*
X83870800Y-83235800D02*
X78689200Y-83235800D01*
X78689200Y-83235800D02*
X78689200Y-78054200D01*
X78689200Y-78054200D02*
X83870800Y-78054200D01*
X83870800Y-78054200D02*
X83870800Y-83235800D01*
X40005000Y-128270000D02*
X40005000Y-142240000D01*
X27940000Y-53340000D02*
X120650000Y-53340000D01*
X120650000Y-53340000D02*
X120650000Y-152400000D01*
X120650000Y-152400000D02*
X27940000Y-152400000D01*
X27940000Y-152400000D02*
X27940000Y-53340000D01*
X40005000Y-143510000D02*
X40005000Y-146050000D01*
X114300000Y-55880000D02*
X114300000Y-54610000D01*
X117332000Y-57658000D02*
G75*
G03*
X117332000Y-57658000I-1000000J0D01*
G01*
X110490000Y-144780000D02*
X110490000Y-146050000D01*
X38735000Y-142240000D02*
X38735000Y-128270000D01*
X110490000Y-143510000D02*
X111760000Y-143510000D01*
X111760000Y-143510000D02*
X111760000Y-127635000D01*
X34290000Y-54610000D02*
X29210000Y-54610000D01*
X30480000Y-60960000D02*
X29210000Y-60960000D01*
X83876806Y-103618547D02*
X78695206Y-103618547D01*
X78695206Y-103618547D02*
X78695206Y-98315347D01*
X78695206Y-98315347D02*
X83876806Y-98315347D01*
X83876806Y-98315347D02*
X83876806Y-103618547D01*
X35560000Y-54610000D02*
X35560000Y-55880000D01*
X43241538Y-83255800D02*
X38059938Y-83255800D01*
X38059938Y-83255800D02*
X38059938Y-78054200D01*
X38059938Y-78054200D02*
X43241538Y-78054200D01*
X43241538Y-78054200D02*
X43241538Y-83255800D01*
X111760000Y-144780000D02*
X110490000Y-144780000D01*
X38735000Y-143510000D02*
X40005000Y-143510000D01*
X91170000Y-146050000D02*
G75*
G03*
X91170000Y-146050000I-1000000J0D01*
G01*
X30480000Y-59690000D02*
X30480000Y-58420000D01*
X29210000Y-60960000D02*
X29210000Y-111760000D01*
X119380000Y-54610000D02*
X119380000Y-59690000D01*
X63559172Y-83255800D02*
X58377572Y-83255800D01*
X58377572Y-83255800D02*
X58377572Y-78054200D01*
X58377572Y-78054200D02*
X63559172Y-78054200D01*
X63559172Y-78054200D02*
X63559172Y-83255800D01*
X63550800Y-103575000D02*
X58369200Y-103575000D01*
X58369200Y-103575000D02*
X58369200Y-98322600D01*
X58369200Y-98322600D02*
X63550800Y-98322600D01*
X63550800Y-98322600D02*
X63550800Y-103575000D01*
X33020000Y-55880000D02*
X34290000Y-55880000D01*
X43815000Y-148590000D02*
X43815000Y-147320000D01*
X119380000Y-118110000D02*
X119380000Y-113030000D01*
X43180000Y-123825000D02*
X41275000Y-123825000D01*
X115570000Y-55880000D02*
X114300000Y-55880000D01*
X117332000Y-115062000D02*
G75*
G03*
X117332000Y-115062000I-1000000J0D01*
G01*
X41275000Y-123825000D02*
G75*
G03*
X40005000Y-125095000I0J-1270000D01*
G01*
X40005000Y-127000000D02*
X38735000Y-127000000D01*
X114300000Y-54610000D02*
X119380000Y-54610000D01*
X78109200Y-139398800D02*
X83290800Y-139398800D01*
X83290800Y-139398800D02*
X83290800Y-144651200D01*
X83290800Y-144651200D02*
X78109200Y-144651200D01*
X78109200Y-144651200D02*
X78109200Y-139398800D01*
X118110000Y-60960000D02*
X118110000Y-111760000D01*
X113030000Y-54610000D02*
X35560000Y-54610000D01*
X30480000Y-60960000D02*
X30480000Y-111760000D01*
X106680000Y-147320000D02*
X45085000Y-147320000D01*
X44450000Y-123825000D02*
X106680000Y-123825000D01*
X30480000Y-114300000D02*
G75*
G03*
X33020000Y-116840000I2540000J0D01*
G01*
X42275000Y-125095000D02*
G75*
G03*
X42275000Y-125095000I-1000000J0D01*
G01*
X45085000Y-147320000D02*
X45085000Y-148590000D01*
X110490000Y-127635000D02*
X110490000Y-143510000D01*
X111760000Y-122555000D02*
X111760000Y-126365000D01*
X30480000Y-113030000D02*
X29210000Y-113030000D01*
X107950000Y-148590000D02*
X111760000Y-148590000D01*
X43230800Y-62935800D02*
X38049200Y-62935800D01*
X38049200Y-62935800D02*
X38049200Y-57714200D01*
X38049200Y-57714200D02*
X43230800Y-57714200D01*
X43230800Y-57714200D02*
X43230800Y-62935800D01*
X34290000Y-118110000D02*
X34290000Y-116840000D01*
X38735000Y-122555000D02*
X43180000Y-122555000D01*
X29210000Y-111760000D02*
X30480000Y-111760000D01*
X40005000Y-142240000D02*
X38735000Y-142240000D01*
X111760000Y-127635000D02*
X110490000Y-127635000D01*
X113030000Y-118110000D02*
X113030000Y-116840000D01*
X119380000Y-59690000D02*
X118110000Y-59690000D01*
X106680000Y-122555000D02*
X44450000Y-122555000D01*
X43815000Y-147320000D02*
X41275000Y-147320000D01*
X45085000Y-148590000D02*
X106680000Y-148590000D01*
X115570000Y-116840000D02*
X114300000Y-116840000D01*
X118110000Y-58420000D02*
X118110000Y-59690000D01*
X114300000Y-118110000D02*
X119380000Y-118110000D01*
X109220000Y-123825000D02*
X107950000Y-123825000D01*
X35560000Y-116840000D02*
X113030000Y-116840000D01*
X29210000Y-113030000D02*
X29210000Y-118110000D01*
X107950000Y-123825000D02*
X107950000Y-122555000D01*
X34290000Y-116840000D02*
X33020000Y-116840000D01*
X83870800Y-62925800D02*
X78689200Y-62925800D01*
X78689200Y-62925800D02*
X78689200Y-57683400D01*
X78689200Y-57683400D02*
X83870800Y-57683400D01*
X83870800Y-57683400D02*
X83870800Y-62925800D01*
X38735000Y-127000000D02*
X38735000Y-122555000D01*
X107950000Y-122555000D02*
X111760000Y-122555000D01*
X35560000Y-118110000D02*
X113030000Y-118110000D01*
X33258000Y-57658000D02*
G75*
G03*
X33258000Y-57658000I-1000000J0D01*
G01*
X38735000Y-143510000D02*
X38735000Y-148590000D01*
X91170000Y-125095000D02*
G75*
G03*
X91170000Y-125095000I-1000000J0D01*
G01*
X29210000Y-118110000D02*
X34290000Y-118110000D01*
X33020000Y-55880000D02*
G75*
G03*
X30480000Y-58420000I0J-2540000D01*
G01*
X118110000Y-58420000D02*
G75*
G03*
X115570000Y-55880000I-2540000J0D01*
G01*
X63550800Y-62935800D02*
X58369200Y-62935800D01*
X58369200Y-62935800D02*
X58369200Y-57714200D01*
X58369200Y-57714200D02*
X63550800Y-57714200D01*
X63550800Y-57714200D02*
X63550800Y-62935800D01*
X98000000Y-94000000D02*
X113000000Y-94000000D01*
X113000000Y-94000000D02*
X113000000Y-114000000D01*
X113000000Y-114000000D02*
X98000000Y-114000000D01*
X98000000Y-114000000D02*
X98000000Y-94000000D01*
X29210000Y-59690000D02*
X30480000Y-59690000D01*
X43180000Y-122555000D02*
X43180000Y-123825000D01*
X106680000Y-123825000D02*
X106680000Y-122555000D01*
X42275000Y-146050000D02*
G75*
G03*
X42275000Y-146050000I-1000000J0D01*
G01*
X118110000Y-113030000D02*
X118110000Y-114300000D01*
X115570000Y-116840000D02*
G75*
G03*
X118110000Y-114300000I0J2540000D01*
G01*
X33258000Y-115062000D02*
G75*
G03*
X33258000Y-115062000I-1000000J0D01*
G01*
X38735000Y-148590000D02*
X43815000Y-148590000D01*
X109220000Y-147320000D02*
X107950000Y-147320000D01*
X119380000Y-113030000D02*
X118110000Y-113030000D01*
X111760000Y-126365000D02*
X110490000Y-126365000D01*
X38735000Y-128270000D02*
X40005000Y-128270000D01*
D11*
%TO.C,TS4148*%
X46670000Y-139065000D03*
X44770000Y-139065000D03*
%TD*%
D12*
%TO.C,RGB*%
X63410000Y-58725000D03*
X63410000Y-61925000D03*
X58510000Y-61925000D03*
X58510000Y-58725000D03*
%TD*%
%TO.C,RGB*%
X43090000Y-99365000D03*
X43090000Y-102565000D03*
X38190000Y-102565000D03*
X38190000Y-99365000D03*
%TD*%
%TO.C,RGB*%
X43090000Y-58725000D03*
X43090000Y-61925000D03*
X38190000Y-61925000D03*
X38190000Y-58725000D03*
%TD*%
%TO.C,RGB*%
X63410000Y-99365000D03*
X63410000Y-102565000D03*
X58510000Y-102565000D03*
X58510000Y-99365000D03*
%TD*%
%TO.C,RGB*%
X83730000Y-99365000D03*
X83730000Y-102565000D03*
X78830000Y-102565000D03*
X78830000Y-99365000D03*
%TD*%
%TO.C,RGB*%
X83730000Y-58725000D03*
X83730000Y-61925000D03*
X78830000Y-61925000D03*
X78830000Y-58725000D03*
%TD*%
%TO.C,RGB*%
X58519332Y-82252780D03*
X58519332Y-79052780D03*
X63419332Y-79052780D03*
X63419332Y-82252780D03*
%TD*%
%TO.C,RGB*%
X38195771Y-82252780D03*
X38195771Y-79052780D03*
X43095771Y-79052780D03*
X43095771Y-82252780D03*
%TD*%
%TO.C,RGB*%
X78830000Y-82245000D03*
X78830000Y-79045000D03*
X83730000Y-79045000D03*
X83730000Y-82245000D03*
%TD*%
D11*
%TO.C,TS4148*%
X46670000Y-133985000D03*
X44770000Y-133985000D03*
%TD*%
%TO.C,TS4148*%
X46670000Y-144145000D03*
X44770000Y-144145000D03*
%TD*%
D12*
%TO.C,RGB*%
X57930000Y-143615000D03*
X57930000Y-140415000D03*
X62830000Y-140415000D03*
X62830000Y-143615000D03*
%TD*%
%TO.C,RGB*%
X78250000Y-143615000D03*
X78250000Y-140415000D03*
X83150000Y-140415000D03*
X83150000Y-143615000D03*
%TD*%
M02*
