%FSLAX45Y45*%
G04 Gerber Fmt 4.5, Leading zero omitted, Abs format (unit mm)*
G04 Created by KiCad (PCBNEW (6.0.5)) date 2022-06-14 18:11:53*
%MOMM*%
%LPD*%
G01*
G04 APERTURE LIST*
%TA.AperFunction,Profile*%
%ADD10C,0.050000*%
%TD*%
%ADD11C,0.200000*%
%ADD12C,0.400000*%
G04 APERTURE END LIST*
D10*
X11049000Y-12509500D02*
G75*
G03*
X10922000Y-12382500I-127000J0D01*
G01*
X4000500Y-14605000D02*
G75*
G03*
X4127500Y-14732000I127000J0D01*
G01*
X11938000Y-6096000D02*
X11811000Y-6096000D01*
X11430000Y-11684000D02*
X11430000Y-11811000D01*
X3048000Y-11303000D02*
X3048000Y-11430000D01*
X10668000Y-14859000D02*
X10668000Y-14732000D01*
X4445000Y-12255500D02*
X4445000Y-12382500D01*
X4000500Y-12509500D02*
X4000500Y-12700000D01*
X11176000Y-14859000D02*
X11176000Y-14478000D01*
X4324154Y-10356775D02*
X3805994Y-10356775D01*
X3805994Y-10356775D02*
X3805994Y-9835615D01*
X3805994Y-9835615D02*
X4324154Y-9835615D01*
X4324154Y-9835615D02*
X4324154Y-10356775D01*
X11049000Y-12636500D02*
X11049000Y-12509500D01*
X10922000Y-14732000D02*
G75*
G03*
X11049000Y-14605000I0J127000D01*
G01*
X11938000Y-11176000D02*
X11938000Y-6096000D01*
X11303000Y-5588000D02*
X3556000Y-5588000D01*
X11811000Y-11176000D02*
X11938000Y-11176000D01*
X5778920Y-13941420D02*
X6297080Y-13941420D01*
X6297080Y-13941420D02*
X6297080Y-14466660D01*
X6297080Y-14466660D02*
X5778920Y-14466660D01*
X5778920Y-14466660D02*
X5778920Y-13941420D01*
X11303000Y-5588000D02*
X11303000Y-5461000D01*
X2921000Y-5461000D02*
X2921000Y-5969000D01*
X10795000Y-14732000D02*
X10795000Y-14859000D01*
X3556000Y-11684000D02*
X3556000Y-11811000D01*
X3429000Y-5461000D02*
X3429000Y-5588000D01*
X8387080Y-8323580D02*
X7868920Y-8323580D01*
X7868920Y-8323580D02*
X7868920Y-7805420D01*
X7868920Y-7805420D02*
X8387080Y-7805420D01*
X8387080Y-7805420D02*
X8387080Y-8323580D01*
X4000500Y-12827000D02*
X4000500Y-14224000D01*
X2794000Y-5334000D02*
X12065000Y-5334000D01*
X12065000Y-5334000D02*
X12065000Y-15240000D01*
X12065000Y-15240000D02*
X2794000Y-15240000D01*
X2794000Y-15240000D02*
X2794000Y-5334000D01*
X4000500Y-14351000D02*
X4000500Y-14605000D01*
X11430000Y-5588000D02*
X11430000Y-5461000D01*
X11733200Y-5765800D02*
G75*
G03*
X11733200Y-5765800I-100000J0D01*
G01*
X11049000Y-14478000D02*
X11049000Y-14605000D01*
X3873500Y-14224000D02*
X3873500Y-12827000D01*
X11049000Y-14351000D02*
X11176000Y-14351000D01*
X11176000Y-14351000D02*
X11176000Y-12763500D01*
X3429000Y-5461000D02*
X2921000Y-5461000D01*
X3048000Y-6096000D02*
X2921000Y-6096000D01*
X8387681Y-10361855D02*
X7869521Y-10361855D01*
X7869521Y-10361855D02*
X7869521Y-9831535D01*
X7869521Y-9831535D02*
X8387681Y-9831535D01*
X8387681Y-9831535D02*
X8387681Y-10361855D01*
X3556000Y-5461000D02*
X3556000Y-5588000D01*
X4324154Y-8325580D02*
X3805994Y-8325580D01*
X3805994Y-8325580D02*
X3805994Y-7805420D01*
X3805994Y-7805420D02*
X4324154Y-7805420D01*
X4324154Y-7805420D02*
X4324154Y-8325580D01*
X11176000Y-14478000D02*
X11049000Y-14478000D01*
X3873500Y-14351000D02*
X4000500Y-14351000D01*
X9117000Y-14605000D02*
G75*
G03*
X9117000Y-14605000I-100000J0D01*
G01*
X3048000Y-5969000D02*
X3048000Y-5842000D01*
X2921000Y-6096000D02*
X2921000Y-11176000D01*
X11938000Y-5461000D02*
X11938000Y-5969000D01*
X6355917Y-8325580D02*
X5837757Y-8325580D01*
X5837757Y-8325580D02*
X5837757Y-7805420D01*
X5837757Y-7805420D02*
X6355917Y-7805420D01*
X6355917Y-7805420D02*
X6355917Y-8325580D01*
X6355080Y-10357500D02*
X5836920Y-10357500D01*
X5836920Y-10357500D02*
X5836920Y-9832260D01*
X5836920Y-9832260D02*
X6355080Y-9832260D01*
X6355080Y-9832260D02*
X6355080Y-10357500D01*
X3302000Y-5588000D02*
X3429000Y-5588000D01*
X4381500Y-14859000D02*
X4381500Y-14732000D01*
X11938000Y-11811000D02*
X11938000Y-11303000D01*
X4318000Y-12382500D02*
X4127500Y-12382500D01*
X11557000Y-5588000D02*
X11430000Y-5588000D01*
X11733200Y-11506200D02*
G75*
G03*
X11733200Y-11506200I-100000J0D01*
G01*
X4127500Y-12382500D02*
G75*
G03*
X4000500Y-12509500I0J-127000D01*
G01*
X4000500Y-12700000D02*
X3873500Y-12700000D01*
X11430000Y-5461000D02*
X11938000Y-5461000D01*
X7810920Y-13939880D02*
X8329080Y-13939880D01*
X8329080Y-13939880D02*
X8329080Y-14465120D01*
X8329080Y-14465120D02*
X7810920Y-14465120D01*
X7810920Y-14465120D02*
X7810920Y-13939880D01*
X11811000Y-6096000D02*
X11811000Y-11176000D01*
X11303000Y-5461000D02*
X3556000Y-5461000D01*
X3048000Y-6096000D02*
X3048000Y-11176000D01*
X10668000Y-14732000D02*
X4508500Y-14732000D01*
X4445000Y-12382500D02*
X10668000Y-12382500D01*
X3048000Y-11430000D02*
G75*
G03*
X3302000Y-11684000I254000J0D01*
G01*
X4227500Y-12509500D02*
G75*
G03*
X4227500Y-12509500I-100000J0D01*
G01*
X4508500Y-14732000D02*
X4508500Y-14859000D01*
X11049000Y-12763500D02*
X11049000Y-14351000D01*
X11176000Y-12255500D02*
X11176000Y-12636500D01*
X3048000Y-11303000D02*
X2921000Y-11303000D01*
X10795000Y-14859000D02*
X11176000Y-14859000D01*
X4323080Y-6293580D02*
X3804920Y-6293580D01*
X3804920Y-6293580D02*
X3804920Y-5771420D01*
X3804920Y-5771420D02*
X4323080Y-5771420D01*
X4323080Y-5771420D02*
X4323080Y-6293580D01*
X3429000Y-11811000D02*
X3429000Y-11684000D01*
X3873500Y-12255500D02*
X4318000Y-12255500D01*
X2921000Y-11176000D02*
X3048000Y-11176000D01*
X4000500Y-14224000D02*
X3873500Y-14224000D01*
X11176000Y-12763500D02*
X11049000Y-12763500D01*
X11303000Y-11811000D02*
X11303000Y-11684000D01*
X11938000Y-5969000D02*
X11811000Y-5969000D01*
X10668000Y-12255500D02*
X4445000Y-12255500D01*
X4381500Y-14732000D02*
X4127500Y-14732000D01*
X4508500Y-14859000D02*
X10668000Y-14859000D01*
X11557000Y-11684000D02*
X11430000Y-11684000D01*
X11811000Y-5842000D02*
X11811000Y-5969000D01*
X11430000Y-11811000D02*
X11938000Y-11811000D01*
X10922000Y-12382500D02*
X10795000Y-12382500D01*
X3556000Y-11684000D02*
X11303000Y-11684000D01*
X2921000Y-11303000D02*
X2921000Y-11811000D01*
X10795000Y-12382500D02*
X10795000Y-12255500D01*
X3429000Y-11684000D02*
X3302000Y-11684000D01*
X8387080Y-6292580D02*
X7868920Y-6292580D01*
X7868920Y-6292580D02*
X7868920Y-5768340D01*
X7868920Y-5768340D02*
X8387080Y-5768340D01*
X8387080Y-5768340D02*
X8387080Y-6292580D01*
X3873500Y-12700000D02*
X3873500Y-12255500D01*
X10795000Y-12255500D02*
X11176000Y-12255500D01*
X3556000Y-11811000D02*
X11303000Y-11811000D01*
X3325800Y-5765800D02*
G75*
G03*
X3325800Y-5765800I-100000J0D01*
G01*
X3873500Y-14351000D02*
X3873500Y-14859000D01*
X9117000Y-12509500D02*
G75*
G03*
X9117000Y-12509500I-100000J0D01*
G01*
X2921000Y-11811000D02*
X3429000Y-11811000D01*
X3302000Y-5588000D02*
G75*
G03*
X3048000Y-5842000I0J-254000D01*
G01*
X11811000Y-5842000D02*
G75*
G03*
X11557000Y-5588000I-254000J0D01*
G01*
X6355080Y-6293580D02*
X5836920Y-6293580D01*
X5836920Y-6293580D02*
X5836920Y-5771420D01*
X5836920Y-5771420D02*
X6355080Y-5771420D01*
X6355080Y-5771420D02*
X6355080Y-6293580D01*
X9800000Y-9400000D02*
X11300000Y-9400000D01*
X11300000Y-9400000D02*
X11300000Y-11400000D01*
X11300000Y-11400000D02*
X9800000Y-11400000D01*
X9800000Y-11400000D02*
X9800000Y-9400000D01*
X2921000Y-5969000D02*
X3048000Y-5969000D01*
X4318000Y-12255500D02*
X4318000Y-12382500D01*
X10668000Y-12382500D02*
X10668000Y-12255500D01*
X4227500Y-14605000D02*
G75*
G03*
X4227500Y-14605000I-100000J0D01*
G01*
X11811000Y-11303000D02*
X11811000Y-11430000D01*
X11557000Y-11684000D02*
G75*
G03*
X11811000Y-11430000I0J254000D01*
G01*
X3325800Y-11506200D02*
G75*
G03*
X3325800Y-11506200I-100000J0D01*
G01*
X3873500Y-14859000D02*
X4381500Y-14859000D01*
X10922000Y-14732000D02*
X10795000Y-14732000D01*
X11938000Y-11303000D02*
X11811000Y-11303000D01*
X11176000Y-12636500D02*
X11049000Y-12636500D01*
X3873500Y-12827000D02*
X4000500Y-12827000D01*
D11*
D12*
X3864000Y-6404000D02*
X4264000Y-6804000D01*
X4264000Y-6404000D02*
X3864000Y-6804000D01*
X3864000Y-8436000D02*
X4264000Y-8836000D01*
X4264000Y-8436000D02*
X3864000Y-8836000D01*
X3864000Y-10468000D02*
X4264000Y-10868000D01*
X4264000Y-10468000D02*
X3864000Y-10868000D01*
X5838000Y-13430000D02*
X6238000Y-13830000D01*
X6238000Y-13430000D02*
X5838000Y-13830000D01*
X5896000Y-6404000D02*
X6296000Y-6804000D01*
X6296000Y-6404000D02*
X5896000Y-6804000D01*
X5896000Y-10468000D02*
X6296000Y-10868000D01*
X6296000Y-10468000D02*
X5896000Y-10868000D01*
X5897922Y-8436961D02*
X6297922Y-8836961D01*
X6297922Y-8436961D02*
X5897922Y-8836961D01*
X7870000Y-13430000D02*
X8270000Y-13830000D01*
X8270000Y-13430000D02*
X7870000Y-13830000D01*
X7928000Y-6404000D02*
X8328000Y-6804000D01*
X8328000Y-6404000D02*
X7928000Y-6804000D01*
X7928000Y-8436000D02*
X8328000Y-8836000D01*
X8328000Y-8436000D02*
X7928000Y-8836000D01*
X7928000Y-10468000D02*
X8328000Y-10868000D01*
X8328000Y-10468000D02*
X7928000Y-10868000D01*
D11*
X3049119Y-15552976D02*
X3049119Y-15352976D01*
X3096738Y-15352976D01*
X3125309Y-15362500D01*
X3144357Y-15381548D01*
X3153881Y-15400595D01*
X3163405Y-15438690D01*
X3163405Y-15467262D01*
X3153881Y-15505357D01*
X3144357Y-15524405D01*
X3125309Y-15543452D01*
X3096738Y-15552976D01*
X3049119Y-15552976D01*
X3249119Y-15552976D02*
X3249119Y-15419643D01*
X3249119Y-15457738D02*
X3258643Y-15438690D01*
X3268167Y-15429167D01*
X3287214Y-15419643D01*
X3306262Y-15419643D01*
X3372928Y-15552976D02*
X3372928Y-15419643D01*
X3372928Y-15352976D02*
X3363405Y-15362500D01*
X3372928Y-15372024D01*
X3382452Y-15362500D01*
X3372928Y-15352976D01*
X3372928Y-15372024D01*
X3496738Y-15552976D02*
X3477690Y-15543452D01*
X3468167Y-15524405D01*
X3468167Y-15352976D01*
X3601500Y-15552976D02*
X3582452Y-15543452D01*
X3572928Y-15524405D01*
X3572928Y-15352976D01*
X3830071Y-15552976D02*
X3830071Y-15352976D01*
X3896738Y-15495833D01*
X3963405Y-15352976D01*
X3963405Y-15552976D01*
X4144357Y-15552976D02*
X4144357Y-15448214D01*
X4134833Y-15429167D01*
X4115786Y-15419643D01*
X4077690Y-15419643D01*
X4058643Y-15429167D01*
X4144357Y-15543452D02*
X4125309Y-15552976D01*
X4077690Y-15552976D01*
X4058643Y-15543452D01*
X4049119Y-15524405D01*
X4049119Y-15505357D01*
X4058643Y-15486309D01*
X4077690Y-15476786D01*
X4125309Y-15476786D01*
X4144357Y-15467262D01*
X4239595Y-15419643D02*
X4239595Y-15619643D01*
X4239595Y-15429167D02*
X4258643Y-15419643D01*
X4296738Y-15419643D01*
X4315786Y-15429167D01*
X4325310Y-15438690D01*
X4334833Y-15457738D01*
X4334833Y-15514881D01*
X4325310Y-15533928D01*
X4315786Y-15543452D01*
X4296738Y-15552976D01*
X4258643Y-15552976D01*
X4239595Y-15543452D01*
X4420548Y-15533928D02*
X4430071Y-15543452D01*
X4420548Y-15552976D01*
X4411024Y-15543452D01*
X4420548Y-15533928D01*
X4420548Y-15552976D01*
X4420548Y-15429167D02*
X4430071Y-15438690D01*
X4420548Y-15448214D01*
X4411024Y-15438690D01*
X4420548Y-15429167D01*
X4420548Y-15448214D01*
X2591500Y-15782500D02*
X2791500Y-15982500D01*
X2791500Y-15782500D02*
X2591500Y-15982500D01*
X3134833Y-15839643D02*
X3134833Y-15972976D01*
X3087214Y-15763452D02*
X3039595Y-15906309D01*
X3163405Y-15906309D01*
X3239595Y-15953928D02*
X3249119Y-15963452D01*
X3239595Y-15972976D01*
X3230071Y-15963452D01*
X3239595Y-15953928D01*
X3239595Y-15972976D01*
X3372928Y-15772976D02*
X3391976Y-15772976D01*
X3411024Y-15782500D01*
X3420548Y-15792024D01*
X3430071Y-15811071D01*
X3439595Y-15849167D01*
X3439595Y-15896786D01*
X3430071Y-15934881D01*
X3420548Y-15953928D01*
X3411024Y-15963452D01*
X3391976Y-15972976D01*
X3372928Y-15972976D01*
X3353881Y-15963452D01*
X3344357Y-15953928D01*
X3334833Y-15934881D01*
X3325309Y-15896786D01*
X3325309Y-15849167D01*
X3334833Y-15811071D01*
X3344357Y-15792024D01*
X3353881Y-15782500D01*
X3372928Y-15772976D01*
X3563405Y-15772976D02*
X3582452Y-15772976D01*
X3601500Y-15782500D01*
X3611024Y-15792024D01*
X3620548Y-15811071D01*
X3630071Y-15849167D01*
X3630071Y-15896786D01*
X3620548Y-15934881D01*
X3611024Y-15953928D01*
X3601500Y-15963452D01*
X3582452Y-15972976D01*
X3563405Y-15972976D01*
X3544357Y-15963452D01*
X3534833Y-15953928D01*
X3525309Y-15934881D01*
X3515786Y-15896786D01*
X3515786Y-15849167D01*
X3525309Y-15811071D01*
X3534833Y-15792024D01*
X3544357Y-15782500D01*
X3563405Y-15772976D01*
X3753881Y-15772976D02*
X3772928Y-15772976D01*
X3791976Y-15782500D01*
X3801500Y-15792024D01*
X3811024Y-15811071D01*
X3820548Y-15849167D01*
X3820548Y-15896786D01*
X3811024Y-15934881D01*
X3801500Y-15953928D01*
X3791976Y-15963452D01*
X3772928Y-15972976D01*
X3753881Y-15972976D01*
X3734833Y-15963452D01*
X3725309Y-15953928D01*
X3715786Y-15934881D01*
X3706262Y-15896786D01*
X3706262Y-15849167D01*
X3715786Y-15811071D01*
X3725309Y-15792024D01*
X3734833Y-15782500D01*
X3753881Y-15772976D01*
X3906262Y-15972976D02*
X3906262Y-15839643D01*
X3906262Y-15858690D02*
X3915786Y-15849167D01*
X3934833Y-15839643D01*
X3963405Y-15839643D01*
X3982452Y-15849167D01*
X3991976Y-15868214D01*
X3991976Y-15972976D01*
X3991976Y-15868214D02*
X4001500Y-15849167D01*
X4020548Y-15839643D01*
X4049119Y-15839643D01*
X4068167Y-15849167D01*
X4077690Y-15868214D01*
X4077690Y-15972976D01*
X4172928Y-15972976D02*
X4172928Y-15839643D01*
X4172928Y-15858690D02*
X4182452Y-15849167D01*
X4201500Y-15839643D01*
X4230071Y-15839643D01*
X4249119Y-15849167D01*
X4258643Y-15868214D01*
X4258643Y-15972976D01*
X4258643Y-15868214D02*
X4268167Y-15849167D01*
X4287214Y-15839643D01*
X4315786Y-15839643D01*
X4334833Y-15849167D01*
X4344357Y-15868214D01*
X4344357Y-15972976D01*
X4734833Y-15763452D02*
X4563405Y-16020595D01*
X4991976Y-15772976D02*
X5011024Y-15772976D01*
X5030071Y-15782500D01*
X5039595Y-15792024D01*
X5049119Y-15811071D01*
X5058643Y-15849167D01*
X5058643Y-15896786D01*
X5049119Y-15934881D01*
X5039595Y-15953928D01*
X5030071Y-15963452D01*
X5011024Y-15972976D01*
X4991976Y-15972976D01*
X4972929Y-15963452D01*
X4963405Y-15953928D01*
X4953881Y-15934881D01*
X4944357Y-15896786D01*
X4944357Y-15849167D01*
X4953881Y-15811071D01*
X4963405Y-15792024D01*
X4972929Y-15782500D01*
X4991976Y-15772976D01*
X5144357Y-15953928D02*
X5153881Y-15963452D01*
X5144357Y-15972976D01*
X5134833Y-15963452D01*
X5144357Y-15953928D01*
X5144357Y-15972976D01*
X5344357Y-15972976D02*
X5230071Y-15972976D01*
X5287214Y-15972976D02*
X5287214Y-15772976D01*
X5268167Y-15801548D01*
X5249119Y-15820595D01*
X5230071Y-15830119D01*
X5525310Y-15772976D02*
X5430071Y-15772976D01*
X5420548Y-15868214D01*
X5430071Y-15858690D01*
X5449119Y-15849167D01*
X5496738Y-15849167D01*
X5515786Y-15858690D01*
X5525310Y-15868214D01*
X5534833Y-15887262D01*
X5534833Y-15934881D01*
X5525310Y-15953928D01*
X5515786Y-15963452D01*
X5496738Y-15972976D01*
X5449119Y-15972976D01*
X5430071Y-15963452D01*
X5420548Y-15953928D01*
X5601500Y-15772976D02*
X5734833Y-15772976D01*
X5649119Y-15972976D01*
X5906262Y-15772976D02*
X5811024Y-15772976D01*
X5801500Y-15868214D01*
X5811024Y-15858690D01*
X5830071Y-15849167D01*
X5877690Y-15849167D01*
X5896738Y-15858690D01*
X5906262Y-15868214D01*
X5915786Y-15887262D01*
X5915786Y-15934881D01*
X5906262Y-15953928D01*
X5896738Y-15963452D01*
X5877690Y-15972976D01*
X5830071Y-15972976D01*
X5811024Y-15963452D01*
X5801500Y-15953928D01*
X5991976Y-15772976D02*
X5991976Y-15811071D01*
X6068167Y-15772976D02*
X6068167Y-15811071D01*
X6363405Y-16049167D02*
X6353881Y-16039643D01*
X6334833Y-16011071D01*
X6325309Y-15992024D01*
X6315786Y-15963452D01*
X6306262Y-15915833D01*
X6306262Y-15877738D01*
X6315786Y-15830119D01*
X6325309Y-15801548D01*
X6334833Y-15782500D01*
X6353881Y-15753928D01*
X6363405Y-15744405D01*
X6544357Y-15972976D02*
X6430071Y-15972976D01*
X6487214Y-15972976D02*
X6487214Y-15772976D01*
X6468167Y-15801548D01*
X6449119Y-15820595D01*
X6430071Y-15830119D01*
X6734833Y-15972976D02*
X6620548Y-15972976D01*
X6677690Y-15972976D02*
X6677690Y-15772976D01*
X6658643Y-15801548D01*
X6639595Y-15820595D01*
X6620548Y-15830119D01*
X6972928Y-15972976D02*
X6972928Y-15772976D01*
X7058643Y-15972976D02*
X7058643Y-15868214D01*
X7049119Y-15849167D01*
X7030071Y-15839643D01*
X7001500Y-15839643D01*
X6982452Y-15849167D01*
X6972928Y-15858690D01*
X7182452Y-15972976D02*
X7163405Y-15963452D01*
X7153881Y-15953928D01*
X7144357Y-15934881D01*
X7144357Y-15877738D01*
X7153881Y-15858690D01*
X7163405Y-15849167D01*
X7182452Y-15839643D01*
X7211024Y-15839643D01*
X7230071Y-15849167D01*
X7239595Y-15858690D01*
X7249119Y-15877738D01*
X7249119Y-15934881D01*
X7239595Y-15953928D01*
X7230071Y-15963452D01*
X7211024Y-15972976D01*
X7182452Y-15972976D01*
X7363405Y-15972976D02*
X7344357Y-15963452D01*
X7334833Y-15944405D01*
X7334833Y-15772976D01*
X7515786Y-15963452D02*
X7496738Y-15972976D01*
X7458643Y-15972976D01*
X7439595Y-15963452D01*
X7430071Y-15944405D01*
X7430071Y-15868214D01*
X7439595Y-15849167D01*
X7458643Y-15839643D01*
X7496738Y-15839643D01*
X7515786Y-15849167D01*
X7525309Y-15868214D01*
X7525309Y-15887262D01*
X7430071Y-15906309D01*
X7601500Y-15963452D02*
X7620548Y-15972976D01*
X7658643Y-15972976D01*
X7677690Y-15963452D01*
X7687214Y-15944405D01*
X7687214Y-15934881D01*
X7677690Y-15915833D01*
X7658643Y-15906309D01*
X7630071Y-15906309D01*
X7611024Y-15896786D01*
X7601500Y-15877738D01*
X7601500Y-15868214D01*
X7611024Y-15849167D01*
X7630071Y-15839643D01*
X7658643Y-15839643D01*
X7677690Y-15849167D01*
X7753881Y-16049167D02*
X7763405Y-16039643D01*
X7782452Y-16011071D01*
X7791976Y-15992024D01*
X7801500Y-15963452D01*
X7811024Y-15915833D01*
X7811024Y-15877738D01*
X7801500Y-15830119D01*
X7791976Y-15801548D01*
X7782452Y-15782500D01*
X7763405Y-15753928D01*
X7753881Y-15744405D01*
X8115786Y-16049167D02*
X8106262Y-16039643D01*
X8087214Y-16011071D01*
X8077690Y-15992024D01*
X8068167Y-15963452D01*
X8058643Y-15915833D01*
X8058643Y-15877738D01*
X8068167Y-15830119D01*
X8077690Y-15801548D01*
X8087214Y-15782500D01*
X8106262Y-15753928D01*
X8115786Y-15744405D01*
X8191976Y-15839643D02*
X8191976Y-15972976D01*
X8191976Y-15858690D02*
X8201500Y-15849167D01*
X8220548Y-15839643D01*
X8249119Y-15839643D01*
X8268167Y-15849167D01*
X8277690Y-15868214D01*
X8277690Y-15972976D01*
X8401500Y-15972976D02*
X8382452Y-15963452D01*
X8372928Y-15953928D01*
X8363405Y-15934881D01*
X8363405Y-15877738D01*
X8372928Y-15858690D01*
X8382452Y-15849167D01*
X8401500Y-15839643D01*
X8430071Y-15839643D01*
X8449119Y-15849167D01*
X8458643Y-15858690D01*
X8468167Y-15877738D01*
X8468167Y-15934881D01*
X8458643Y-15953928D01*
X8449119Y-15963452D01*
X8430071Y-15972976D01*
X8401500Y-15972976D01*
X8525310Y-15839643D02*
X8601500Y-15839643D01*
X8553881Y-15772976D02*
X8553881Y-15944405D01*
X8563405Y-15963452D01*
X8582452Y-15972976D01*
X8601500Y-15972976D01*
X8820548Y-15839643D02*
X8820548Y-16039643D01*
X8820548Y-15849167D02*
X8839595Y-15839643D01*
X8877690Y-15839643D01*
X8896738Y-15849167D01*
X8906262Y-15858690D01*
X8915786Y-15877738D01*
X8915786Y-15934881D01*
X8906262Y-15953928D01*
X8896738Y-15963452D01*
X8877690Y-15972976D01*
X8839595Y-15972976D01*
X8820548Y-15963452D01*
X9030071Y-15972976D02*
X9011024Y-15963452D01*
X9001500Y-15944405D01*
X9001500Y-15772976D01*
X9191976Y-15972976D02*
X9191976Y-15868214D01*
X9182452Y-15849167D01*
X9163405Y-15839643D01*
X9125310Y-15839643D01*
X9106262Y-15849167D01*
X9191976Y-15963452D02*
X9172929Y-15972976D01*
X9125310Y-15972976D01*
X9106262Y-15963452D01*
X9096738Y-15944405D01*
X9096738Y-15925357D01*
X9106262Y-15906309D01*
X9125310Y-15896786D01*
X9172929Y-15896786D01*
X9191976Y-15887262D01*
X9258643Y-15839643D02*
X9334833Y-15839643D01*
X9287214Y-15772976D02*
X9287214Y-15944405D01*
X9296738Y-15963452D01*
X9315786Y-15972976D01*
X9334833Y-15972976D01*
X9477690Y-15963452D02*
X9458643Y-15972976D01*
X9420548Y-15972976D01*
X9401500Y-15963452D01*
X9391976Y-15944405D01*
X9391976Y-15868214D01*
X9401500Y-15849167D01*
X9420548Y-15839643D01*
X9458643Y-15839643D01*
X9477690Y-15849167D01*
X9487214Y-15868214D01*
X9487214Y-15887262D01*
X9391976Y-15906309D01*
X9658643Y-15972976D02*
X9658643Y-15772976D01*
X9658643Y-15963452D02*
X9639595Y-15972976D01*
X9601500Y-15972976D01*
X9582452Y-15963452D01*
X9572929Y-15953928D01*
X9563405Y-15934881D01*
X9563405Y-15877738D01*
X9572929Y-15858690D01*
X9582452Y-15849167D01*
X9601500Y-15839643D01*
X9639595Y-15839643D01*
X9658643Y-15849167D01*
X9734833Y-16049167D02*
X9744357Y-16039643D01*
X9763405Y-16011071D01*
X9772929Y-15992024D01*
X9782452Y-15963452D01*
X9791976Y-15915833D01*
X9791976Y-15877738D01*
X9782452Y-15830119D01*
X9772929Y-15801548D01*
X9763405Y-15782500D01*
X9744357Y-15753928D01*
X9734833Y-15744405D01*
M02*
