%TF.GenerationSoftware,KiCad,Pcbnew,(6.0.5)*%
%TF.CreationDate,2022-06-14T18:11:56+08:00*%
%TF.ProjectId,keyboard_V4___,6b657962-6f61-4726-945f-56345f087f2e,rev?*%
%TF.SameCoordinates,Original*%
%TF.FileFunction,Soldermask,Top*%
%TF.FilePolarity,Negative*%
%FSLAX46Y46*%
G04 Gerber Fmt 4.6, Leading zero omitted, Abs format (unit mm)*
G04 Created by KiCad (PCBNEW (6.0.5)) date 2022-06-14 18:11:56*
%MOMM*%
%LPD*%
G01*
G04 APERTURE LIST*
G04 Aperture macros list*
%AMRoundRect*
0 Rectangle with rounded corners*
0 $1 Rounding radius*
0 $2 $3 $4 $5 $6 $7 $8 $9 X,Y pos of 4 corners*
0 Add a 4 corners polygon primitive as box body*
4,1,4,$2,$3,$4,$5,$6,$7,$8,$9,$2,$3,0*
0 Add four circle primitives for the rounded corners*
1,1,$1+$1,$2,$3*
1,1,$1+$1,$4,$5*
1,1,$1+$1,$6,$7*
1,1,$1+$1,$8,$9*
0 Add four rect primitives between the rounded corners*
20,1,$1+$1,$2,$3,$4,$5,0*
20,1,$1+$1,$4,$5,$6,$7,0*
20,1,$1+$1,$6,$7,$8,$9,0*
20,1,$1+$1,$8,$9,$2,$3,0*%
G04 Aperture macros list end*
%ADD10C,0.304000*%
%TA.AperFunction,Profile*%
%ADD11C,0.050000*%
%TD*%
%ADD12RoundRect,0.288750X-0.218750X-0.256250X0.218750X-0.256250X0.218750X0.256250X-0.218750X0.256250X0*%
%ADD13RoundRect,0.320000X-0.475000X0.250000X-0.475000X-0.250000X0.475000X-0.250000X0.475000X0.250000X0*%
%ADD14C,4.140000*%
%ADD15C,2.340000*%
%ADD16RoundRect,0.070000X0.850000X-0.850000X0.850000X0.850000X-0.850000X0.850000X-0.850000X-0.850000X0*%
%ADD17O,1.840000X1.840000*%
%ADD18RoundRect,0.070000X0.850000X0.850000X-0.850000X0.850000X-0.850000X-0.850000X0.850000X-0.850000X0*%
%ADD19RoundRect,0.320000X0.475000X-0.250000X0.475000X0.250000X-0.475000X0.250000X-0.475000X-0.250000X0*%
G04 APERTURE END LIST*
D10*
X48920000Y-144145000D02*
G75*
G03*
X48920000Y-144145000I-152000J0D01*
G01*
X56032000Y-95885000D02*
G75*
G03*
X56032000Y-95885000I-152000J0D01*
G01*
X42824000Y-132207000D02*
G75*
G03*
X42824000Y-132207000I-152000J0D01*
G01*
X96152000Y-99060000D02*
G75*
G03*
X96152000Y-99060000I-152000J0D01*
G01*
X95148000Y-140589000D02*
G75*
G03*
X95148000Y-140589000I-152000J0D01*
G01*
X70129000Y-145542000D02*
G75*
G03*
X70129000Y-145542000I-152000J0D01*
G01*
X94152000Y-96520000D02*
G75*
G03*
X94152000Y-96520000I-152000J0D01*
G01*
X42824000Y-142367000D02*
G75*
G03*
X42824000Y-142367000I-152000J0D01*
G01*
X105152000Y-87000000D02*
G75*
G03*
X105152000Y-87000000I-152000J0D01*
G01*
X42824000Y-137287000D02*
G75*
G03*
X42824000Y-137287000I-152000J0D01*
G01*
X56032000Y-75565000D02*
G75*
G03*
X56032000Y-75565000I-152000J0D01*
G01*
X76987000Y-74676000D02*
G75*
G03*
X76987000Y-74676000I-152000J0D01*
G01*
X48412000Y-107950000D02*
G75*
G03*
X48412000Y-107950000I-152000J0D01*
G01*
X89433000Y-138811000D02*
G75*
G03*
X89433000Y-138811000I-152000J0D01*
G01*
X94152000Y-99000000D02*
G75*
G03*
X94152000Y-99000000I-152000J0D01*
G01*
X86512000Y-97790000D02*
G75*
G03*
X86512000Y-97790000I-152000J0D01*
G01*
X49174000Y-138811000D02*
G75*
G03*
X49174000Y-138811000I-152000J0D01*
G01*
X96152000Y-96520000D02*
G75*
G03*
X96152000Y-96520000I-152000J0D01*
G01*
X106152000Y-88000000D02*
G75*
G03*
X106152000Y-88000000I-152000J0D01*
G01*
D11*
X110490000Y-125095000D02*
G75*
G03*
X109220000Y-123825000I-1270000J0D01*
G01*
X40005000Y-146050000D02*
G75*
G03*
X41275000Y-147320000I1270000J0D01*
G01*
X119380000Y-60960000D02*
X118110000Y-60960000D01*
X114300000Y-116840000D02*
X114300000Y-118110000D01*
X30480000Y-113030000D02*
X30480000Y-114300000D01*
X106680000Y-148590000D02*
X106680000Y-147320000D01*
X44450000Y-122555000D02*
X44450000Y-123825000D01*
X40005000Y-125095000D02*
X40005000Y-127000000D01*
X111760000Y-148590000D02*
X111760000Y-144780000D01*
X43241538Y-103567747D02*
X38059938Y-103567747D01*
X38059938Y-103567747D02*
X38059938Y-98356147D01*
X38059938Y-98356147D02*
X43241538Y-98356147D01*
X43241538Y-98356147D02*
X43241538Y-103567747D01*
X110490000Y-126365000D02*
X110490000Y-125095000D01*
X109220000Y-147320000D02*
G75*
G03*
X110490000Y-146050000I0J1270000D01*
G01*
X119380000Y-111760000D02*
X119380000Y-60960000D01*
X113030000Y-55880000D02*
X35560000Y-55880000D01*
X118110000Y-111760000D02*
X119380000Y-111760000D01*
X57789200Y-139414200D02*
X62970800Y-139414200D01*
X62970800Y-139414200D02*
X62970800Y-144666600D01*
X62970800Y-144666600D02*
X57789200Y-144666600D01*
X57789200Y-144666600D02*
X57789200Y-139414200D01*
X113030000Y-55880000D02*
X113030000Y-54610000D01*
X29210000Y-54610000D02*
X29210000Y-59690000D01*
X107950000Y-147320000D02*
X107950000Y-148590000D01*
X35560000Y-116840000D02*
X35560000Y-118110000D01*
X34290000Y-54610000D02*
X34290000Y-55880000D01*
X83870800Y-83235800D02*
X78689200Y-83235800D01*
X78689200Y-83235800D02*
X78689200Y-78054200D01*
X78689200Y-78054200D02*
X83870800Y-78054200D01*
X83870800Y-78054200D02*
X83870800Y-83235800D01*
X40005000Y-128270000D02*
X40005000Y-142240000D01*
X27940000Y-53340000D02*
X120650000Y-53340000D01*
X120650000Y-53340000D02*
X120650000Y-152400000D01*
X120650000Y-152400000D02*
X27940000Y-152400000D01*
X27940000Y-152400000D02*
X27940000Y-53340000D01*
X40005000Y-143510000D02*
X40005000Y-146050000D01*
X114300000Y-55880000D02*
X114300000Y-54610000D01*
X117332000Y-57658000D02*
G75*
G03*
X117332000Y-57658000I-1000000J0D01*
G01*
X110490000Y-144780000D02*
X110490000Y-146050000D01*
X38735000Y-142240000D02*
X38735000Y-128270000D01*
X110490000Y-143510000D02*
X111760000Y-143510000D01*
X111760000Y-143510000D02*
X111760000Y-127635000D01*
X34290000Y-54610000D02*
X29210000Y-54610000D01*
X30480000Y-60960000D02*
X29210000Y-60960000D01*
X83876806Y-103618547D02*
X78695206Y-103618547D01*
X78695206Y-103618547D02*
X78695206Y-98315347D01*
X78695206Y-98315347D02*
X83876806Y-98315347D01*
X83876806Y-98315347D02*
X83876806Y-103618547D01*
X35560000Y-54610000D02*
X35560000Y-55880000D01*
X43241538Y-83255800D02*
X38059938Y-83255800D01*
X38059938Y-83255800D02*
X38059938Y-78054200D01*
X38059938Y-78054200D02*
X43241538Y-78054200D01*
X43241538Y-78054200D02*
X43241538Y-83255800D01*
X111760000Y-144780000D02*
X110490000Y-144780000D01*
X38735000Y-143510000D02*
X40005000Y-143510000D01*
X91170000Y-146050000D02*
G75*
G03*
X91170000Y-146050000I-1000000J0D01*
G01*
X30480000Y-59690000D02*
X30480000Y-58420000D01*
X29210000Y-60960000D02*
X29210000Y-111760000D01*
X119380000Y-54610000D02*
X119380000Y-59690000D01*
X63559172Y-83255800D02*
X58377572Y-83255800D01*
X58377572Y-83255800D02*
X58377572Y-78054200D01*
X58377572Y-78054200D02*
X63559172Y-78054200D01*
X63559172Y-78054200D02*
X63559172Y-83255800D01*
X63550800Y-103575000D02*
X58369200Y-103575000D01*
X58369200Y-103575000D02*
X58369200Y-98322600D01*
X58369200Y-98322600D02*
X63550800Y-98322600D01*
X63550800Y-98322600D02*
X63550800Y-103575000D01*
X33020000Y-55880000D02*
X34290000Y-55880000D01*
X43815000Y-148590000D02*
X43815000Y-147320000D01*
X119380000Y-118110000D02*
X119380000Y-113030000D01*
X43180000Y-123825000D02*
X41275000Y-123825000D01*
X115570000Y-55880000D02*
X114300000Y-55880000D01*
X117332000Y-115062000D02*
G75*
G03*
X117332000Y-115062000I-1000000J0D01*
G01*
X41275000Y-123825000D02*
G75*
G03*
X40005000Y-125095000I0J-1270000D01*
G01*
X40005000Y-127000000D02*
X38735000Y-127000000D01*
X114300000Y-54610000D02*
X119380000Y-54610000D01*
X78109200Y-139398800D02*
X83290800Y-139398800D01*
X83290800Y-139398800D02*
X83290800Y-144651200D01*
X83290800Y-144651200D02*
X78109200Y-144651200D01*
X78109200Y-144651200D02*
X78109200Y-139398800D01*
X118110000Y-60960000D02*
X118110000Y-111760000D01*
X113030000Y-54610000D02*
X35560000Y-54610000D01*
X30480000Y-60960000D02*
X30480000Y-111760000D01*
X106680000Y-147320000D02*
X45085000Y-147320000D01*
X44450000Y-123825000D02*
X106680000Y-123825000D01*
X30480000Y-114300000D02*
G75*
G03*
X33020000Y-116840000I2540000J0D01*
G01*
X42275000Y-125095000D02*
G75*
G03*
X42275000Y-125095000I-1000000J0D01*
G01*
X45085000Y-147320000D02*
X45085000Y-148590000D01*
X110490000Y-127635000D02*
X110490000Y-143510000D01*
X111760000Y-122555000D02*
X111760000Y-126365000D01*
X30480000Y-113030000D02*
X29210000Y-113030000D01*
X107950000Y-148590000D02*
X111760000Y-148590000D01*
X43230800Y-62935800D02*
X38049200Y-62935800D01*
X38049200Y-62935800D02*
X38049200Y-57714200D01*
X38049200Y-57714200D02*
X43230800Y-57714200D01*
X43230800Y-57714200D02*
X43230800Y-62935800D01*
X34290000Y-118110000D02*
X34290000Y-116840000D01*
X38735000Y-122555000D02*
X43180000Y-122555000D01*
X29210000Y-111760000D02*
X30480000Y-111760000D01*
X40005000Y-142240000D02*
X38735000Y-142240000D01*
X111760000Y-127635000D02*
X110490000Y-127635000D01*
X113030000Y-118110000D02*
X113030000Y-116840000D01*
X119380000Y-59690000D02*
X118110000Y-59690000D01*
X106680000Y-122555000D02*
X44450000Y-122555000D01*
X43815000Y-147320000D02*
X41275000Y-147320000D01*
X45085000Y-148590000D02*
X106680000Y-148590000D01*
X115570000Y-116840000D02*
X114300000Y-116840000D01*
X118110000Y-58420000D02*
X118110000Y-59690000D01*
X114300000Y-118110000D02*
X119380000Y-118110000D01*
X109220000Y-123825000D02*
X107950000Y-123825000D01*
X35560000Y-116840000D02*
X113030000Y-116840000D01*
X29210000Y-113030000D02*
X29210000Y-118110000D01*
X107950000Y-123825000D02*
X107950000Y-122555000D01*
X34290000Y-116840000D02*
X33020000Y-116840000D01*
X83870800Y-62925800D02*
X78689200Y-62925800D01*
X78689200Y-62925800D02*
X78689200Y-57683400D01*
X78689200Y-57683400D02*
X83870800Y-57683400D01*
X83870800Y-57683400D02*
X83870800Y-62925800D01*
X38735000Y-127000000D02*
X38735000Y-122555000D01*
X107950000Y-122555000D02*
X111760000Y-122555000D01*
X35560000Y-118110000D02*
X113030000Y-118110000D01*
X33258000Y-57658000D02*
G75*
G03*
X33258000Y-57658000I-1000000J0D01*
G01*
X38735000Y-143510000D02*
X38735000Y-148590000D01*
X91170000Y-125095000D02*
G75*
G03*
X91170000Y-125095000I-1000000J0D01*
G01*
X29210000Y-118110000D02*
X34290000Y-118110000D01*
X33020000Y-55880000D02*
G75*
G03*
X30480000Y-58420000I0J-2540000D01*
G01*
X118110000Y-58420000D02*
G75*
G03*
X115570000Y-55880000I-2540000J0D01*
G01*
X63550800Y-62935800D02*
X58369200Y-62935800D01*
X58369200Y-62935800D02*
X58369200Y-57714200D01*
X58369200Y-57714200D02*
X63550800Y-57714200D01*
X63550800Y-57714200D02*
X63550800Y-62935800D01*
X98000000Y-94000000D02*
X113000000Y-94000000D01*
X113000000Y-94000000D02*
X113000000Y-114000000D01*
X113000000Y-114000000D02*
X98000000Y-114000000D01*
X98000000Y-114000000D02*
X98000000Y-94000000D01*
X29210000Y-59690000D02*
X30480000Y-59690000D01*
X43180000Y-122555000D02*
X43180000Y-123825000D01*
X106680000Y-123825000D02*
X106680000Y-122555000D01*
X42275000Y-146050000D02*
G75*
G03*
X42275000Y-146050000I-1000000J0D01*
G01*
X118110000Y-113030000D02*
X118110000Y-114300000D01*
X115570000Y-116840000D02*
G75*
G03*
X118110000Y-114300000I0J2540000D01*
G01*
X33258000Y-115062000D02*
G75*
G03*
X33258000Y-115062000I-1000000J0D01*
G01*
X38735000Y-148590000D02*
X43815000Y-148590000D01*
X109220000Y-147320000D02*
X107950000Y-147320000D01*
X119380000Y-113030000D02*
X118110000Y-113030000D01*
X111760000Y-126365000D02*
X110490000Y-126365000D01*
X38735000Y-128270000D02*
X40005000Y-128270000D01*
D12*
%TO.C,MODE\uFF13*%
X44932500Y-141605000D03*
X46507500Y-141605000D03*
%TD*%
%TO.C,MODE\uFF12*%
X44932500Y-136525000D03*
X46507500Y-136525000D03*
%TD*%
%TO.C,MODE\uFF11*%
X44932500Y-131445000D03*
X46507500Y-131445000D03*
%TD*%
D13*
%TO.C,TS4148*%
X71046677Y-90451243D03*
X71046677Y-92351243D03*
%TD*%
D14*
%TO.C,SW7*%
X40640000Y-66040000D03*
D15*
X38100000Y-71120000D03*
X44450000Y-68580000D03*
%TD*%
D14*
%TO.C,SW8*%
X60960000Y-66040000D03*
D15*
X58420000Y-71120000D03*
X64770000Y-68580000D03*
%TD*%
D13*
%TO.C,TS4148*%
X50800000Y-70170000D03*
X50800000Y-72070000D03*
%TD*%
%TO.C,TS4148*%
X71120000Y-105730000D03*
X71120000Y-107630000D03*
%TD*%
D16*
%TO.C,REF\u002A\u002A*%
X95250000Y-145415000D03*
D17*
X97790000Y-145415000D03*
X100330000Y-145415000D03*
X102870000Y-145415000D03*
X105410000Y-145415000D03*
%TD*%
D18*
%TO.C,REF\u002A\u002A*%
X97790000Y-77470000D03*
D17*
X97790000Y-74930000D03*
X97790000Y-72390000D03*
X97790000Y-69850000D03*
X97790000Y-67310000D03*
X97790000Y-64770000D03*
X97790000Y-62230000D03*
X97790000Y-59690000D03*
X97790000Y-57150000D03*
%TD*%
D13*
%TO.C,TS4148*%
X90170000Y-70170000D03*
X90170000Y-72070000D03*
%TD*%
%TO.C,TS4148*%
X50800000Y-90490000D03*
X50800000Y-92390000D03*
%TD*%
D14*
%TO.C,SW3*%
X81280000Y-106680000D03*
D15*
X78740000Y-111760000D03*
X85090000Y-109220000D03*
%TD*%
D14*
%TO.C,SW7*%
X60380000Y-136300000D03*
D15*
X62920000Y-131220000D03*
X56570000Y-133760000D03*
%TD*%
D14*
%TO.C,SW7*%
X80700000Y-136300000D03*
D15*
X83240000Y-131220000D03*
X76890000Y-133760000D03*
%TD*%
D14*
%TO.C,SW2*%
X60960000Y-106680000D03*
D15*
X58420000Y-111760000D03*
X64770000Y-109220000D03*
%TD*%
D14*
%TO.C,SW4*%
X40640000Y-86360000D03*
D15*
X38100000Y-91440000D03*
X44450000Y-88900000D03*
%TD*%
D18*
%TO.C,REF\u002A\u002A*%
X113030000Y-77470000D03*
D17*
X113030000Y-74930000D03*
X113030000Y-72390000D03*
X113030000Y-69850000D03*
X113030000Y-67310000D03*
X113030000Y-64770000D03*
X113030000Y-62230000D03*
X113030000Y-59690000D03*
X113030000Y-57150000D03*
%TD*%
D19*
%TO.C,TS4148*%
X71810000Y-133665000D03*
X71810000Y-131765000D03*
%TD*%
D14*
%TO.C,SW5*%
X60979218Y-86369609D03*
D15*
X58439218Y-91449609D03*
X64789218Y-88909609D03*
%TD*%
D14*
%TO.C,SW9*%
X81280000Y-66040000D03*
D15*
X78740000Y-71120000D03*
X85090000Y-68580000D03*
%TD*%
D13*
%TO.C,TS4148*%
X90170000Y-105730000D03*
X90170000Y-107630000D03*
%TD*%
D18*
%TO.C,REF\u002A\u002A*%
X92710000Y-145415000D03*
D17*
X92710000Y-142875000D03*
X92710000Y-140335000D03*
X92710000Y-137795000D03*
X92710000Y-135255000D03*
X92710000Y-132715000D03*
X92710000Y-130175000D03*
X92710000Y-127635000D03*
X92710000Y-125095000D03*
%TD*%
D14*
%TO.C,SW6*%
X81280000Y-86360000D03*
D15*
X78740000Y-91440000D03*
X85090000Y-88900000D03*
%TD*%
D18*
%TO.C,REF\u002A\u002A*%
X107950000Y-145415000D03*
D17*
X107950000Y-142875000D03*
X107950000Y-140335000D03*
X107950000Y-137795000D03*
X107950000Y-135255000D03*
X107950000Y-132715000D03*
X107950000Y-130175000D03*
X107950000Y-127635000D03*
X107950000Y-125095000D03*
%TD*%
D14*
%TO.C,SW1*%
X40640000Y-106680000D03*
D15*
X38100000Y-111760000D03*
X44450000Y-109220000D03*
%TD*%
D16*
%TO.C,REF\u002A\u002A*%
X100330000Y-77470000D03*
D17*
X102870000Y-77470000D03*
X105410000Y-77470000D03*
X107950000Y-77470000D03*
X110490000Y-77470000D03*
%TD*%
D16*
%TO.C,OLED*%
X101610000Y-84963000D03*
D17*
X104150000Y-84963000D03*
X106690000Y-84963000D03*
X109230000Y-84963000D03*
%TD*%
D13*
%TO.C,TS4148*%
X90170000Y-90490000D03*
X90170000Y-92390000D03*
%TD*%
D16*
%TO.C,EC11*%
X100203000Y-91440000D03*
D17*
X102743000Y-91440000D03*
X105283000Y-91440000D03*
X107823000Y-91440000D03*
X110363000Y-91440000D03*
%TD*%
D13*
%TO.C,TS4148*%
X50800000Y-105730000D03*
X50800000Y-107630000D03*
%TD*%
%TO.C,TS4148*%
X71120000Y-70170000D03*
X71120000Y-72070000D03*
%TD*%
D19*
%TO.C,TS4148*%
X69270000Y-133665000D03*
X69270000Y-131765000D03*
%TD*%
M02*
