M48
; DRILL file {KiCad (6.0.5)} date Tue Jun 14 18:11:54 2022
; FORMAT={-:-/ absolute / inch / decimal}
; #@! TF.CreationDate,2022-06-14T18:11:54+08:00
; #@! TF.GenerationSoftware,Kicad,Pcbnew,(6.0.5)
; #@! TF.FileFunction,Plated,1,2,PTH
FMAT,2
INCH
; #@! TA.AperFunction,Plated,PTH,ViaDrill
T1C0.0157
; #@! TA.AperFunction,Plated,PTH,ComponentDrill
T2C0.0394
; #@! TA.AperFunction,Plated,PTH,ComponentDrill
T3C0.0591
%
G90
G05
T1
X1.68Y-5.205
X1.68Y-5.405
X1.68Y-5.605
X1.9Y-4.25
X1.92Y-5.675
X1.93Y-5.465
X2.2Y-2.975
X2.2Y-3.775
X2.755Y-5.73
X3.025Y-2.94
X3.4Y-3.85
X3.515Y-5.465
X3.7Y-3.8976
X3.7008Y-3.8
X3.74Y-5.535
X3.7795Y-3.8
X3.7795Y-3.9
X4.1339Y-3.4252
X4.1732Y-3.4646
T2
X3.65Y-4.925
X3.65Y-5.025
X3.65Y-5.125
X3.65Y-5.225
X3.65Y-5.325
X3.65Y-5.425
X3.65Y-5.525
X3.65Y-5.625
X3.65Y-5.725
X3.75Y-5.725
X3.85Y-2.25
X3.85Y-2.35
X3.85Y-2.45
X3.85Y-2.55
X3.85Y-2.65
X3.85Y-2.75
X3.85Y-2.85
X3.85Y-2.95
X3.85Y-3.05
X3.85Y-5.725
X3.945Y-3.6
X3.95Y-3.05
X3.95Y-5.725
X4.0004Y-3.345
X4.045Y-3.6
X4.05Y-3.05
X4.05Y-5.725
X4.1004Y-3.345
X4.145Y-3.6
X4.15Y-3.05
X4.15Y-5.725
X4.2004Y-3.345
X4.245Y-3.6
X4.25Y-3.05
X4.25Y-4.925
X4.25Y-5.025
X4.25Y-5.125
X4.25Y-5.225
X4.25Y-5.325
X4.25Y-5.425
X4.25Y-5.525
X4.25Y-5.625
X4.25Y-5.725
X4.3004Y-3.345
X4.345Y-3.6
X4.35Y-3.05
X4.45Y-2.25
X4.45Y-2.35
X4.45Y-2.45
X4.45Y-2.55
X4.45Y-2.65
X4.45Y-2.75
X4.45Y-2.85
X4.45Y-2.95
X4.45Y-3.05
T3
X1.5Y-2.8
X1.5Y-3.6
X1.5Y-4.4
X1.75Y-2.7
X1.75Y-3.5
X1.75Y-4.3
X2.2272Y-5.2661
X2.3Y-2.8
X2.3Y-4.4
X2.3008Y-3.6004
X2.4772Y-5.1661
X2.55Y-2.7
X2.55Y-4.3
X2.5508Y-3.5004
X3.0272Y-5.2661
X3.1Y-2.8
X3.1Y-3.6
X3.1Y-4.4
X3.2772Y-5.1661
X3.35Y-2.7
X3.35Y-3.5
X3.35Y-4.3
T0
M30
