%FSLAX45Y45*%
G04 Gerber Fmt 4.5, Leading zero omitted, Abs format (unit mm)*
G04 Created by KiCad (PCBNEW (6.0.5)) date 2022-06-17 09:42:27*
%MOMM*%
%LPD*%
G01*
G04 APERTURE LIST*
%TA.AperFunction,Profile*%
%ADD10C,0.050000*%
%TD*%
%ADD11C,0.200000*%
%ADD12C,0.400000*%
G04 APERTURE END LIST*
D10*
X4324154Y-10356775D02*
X3805994Y-10356775D01*
X3805994Y-10356775D02*
X3805994Y-9835615D01*
X3805994Y-9835615D02*
X4324154Y-9835615D01*
X4324154Y-9835615D02*
X4324154Y-10356775D01*
X11557000Y-5588000D02*
X3302000Y-5588000D01*
X8387080Y-8323580D02*
X7868920Y-8323580D01*
X7868920Y-8323580D02*
X7868920Y-7805420D01*
X7868920Y-7805420D02*
X8387080Y-7805420D01*
X8387080Y-7805420D02*
X8387080Y-8323580D01*
X11733200Y-5765800D02*
G75*
G03*
X11733200Y-5765800I-100000J0D01*
G01*
X8387681Y-10356775D02*
X7869521Y-10356775D01*
X7869521Y-10356775D02*
X7869521Y-9836615D01*
X7869521Y-9836615D02*
X8387681Y-9836615D01*
X8387681Y-9836615D02*
X8387681Y-10356775D01*
X4324154Y-8325580D02*
X3805994Y-8325580D01*
X3805994Y-8325580D02*
X3805994Y-7805420D01*
X3805994Y-7805420D02*
X4324154Y-7805420D01*
X4324154Y-7805420D02*
X4324154Y-8325580D01*
X6355917Y-8325580D02*
X5837757Y-8325580D01*
X5837757Y-8325580D02*
X5837757Y-7805420D01*
X5837757Y-7805420D02*
X6355917Y-7805420D01*
X6355917Y-7805420D02*
X6355917Y-8325580D01*
X6355080Y-10357500D02*
X5836920Y-10357500D01*
X5836920Y-10357500D02*
X5836920Y-9837340D01*
X5836920Y-9837340D02*
X6355080Y-9837340D01*
X6355080Y-9837340D02*
X6355080Y-10357500D01*
X11733200Y-11506200D02*
G75*
G03*
X11733200Y-11506200I-100000J0D01*
G01*
X11811000Y-5842000D02*
X11811000Y-11430000D01*
X3048000Y-5842000D02*
X3048000Y-11430000D01*
X3048000Y-11430000D02*
G75*
G03*
X3302000Y-11684000I254000J0D01*
G01*
X4323080Y-6293580D02*
X3804920Y-6293580D01*
X3804920Y-6293580D02*
X3804920Y-5771420D01*
X3804920Y-5771420D02*
X4323080Y-5771420D01*
X4323080Y-5771420D02*
X4323080Y-6293580D01*
X3302000Y-11684000D02*
X11557000Y-11684000D01*
X8387080Y-6292580D02*
X7868920Y-6292580D01*
X7868920Y-6292580D02*
X7868920Y-5773420D01*
X7868920Y-5773420D02*
X8387080Y-5773420D01*
X8387080Y-5773420D02*
X8387080Y-6292580D01*
X3325800Y-5765800D02*
G75*
G03*
X3325800Y-5765800I-100000J0D01*
G01*
X3302000Y-5588000D02*
G75*
G03*
X3048000Y-5842000I0J-254000D01*
G01*
X11811000Y-5842000D02*
G75*
G03*
X11557000Y-5588000I-254000J0D01*
G01*
X6355080Y-6293580D02*
X5836920Y-6293580D01*
X5836920Y-6293580D02*
X5836920Y-5771420D01*
X5836920Y-5771420D02*
X6355080Y-5771420D01*
X6355080Y-5771420D02*
X6355080Y-6293580D01*
X9800000Y-9400000D02*
X11300000Y-9400000D01*
X11300000Y-9400000D02*
X11300000Y-11400000D01*
X11300000Y-11400000D02*
X9800000Y-11400000D01*
X9800000Y-11400000D02*
X9800000Y-9400000D01*
X11557000Y-11684000D02*
G75*
G03*
X11811000Y-11430000I0J254000D01*
G01*
X3325800Y-11506200D02*
G75*
G03*
X3325800Y-11506200I-100000J0D01*
G01*
D11*
D12*
X3864000Y-6404000D02*
X4264000Y-6804000D01*
X4264000Y-6404000D02*
X3864000Y-6804000D01*
X3864000Y-8436000D02*
X4264000Y-8836000D01*
X4264000Y-8436000D02*
X3864000Y-8836000D01*
X3864000Y-10468000D02*
X4264000Y-10868000D01*
X4264000Y-10468000D02*
X3864000Y-10868000D01*
X5896000Y-6404000D02*
X6296000Y-6804000D01*
X6296000Y-6404000D02*
X5896000Y-6804000D01*
X5896000Y-10468000D02*
X6296000Y-10868000D01*
X6296000Y-10468000D02*
X5896000Y-10868000D01*
X5897922Y-8436961D02*
X6297922Y-8836961D01*
X6297922Y-8436961D02*
X5897922Y-8836961D01*
X7928000Y-6404000D02*
X8328000Y-6804000D01*
X8328000Y-6404000D02*
X7928000Y-6804000D01*
X7928000Y-8436000D02*
X8328000Y-8836000D01*
X8328000Y-8436000D02*
X7928000Y-8836000D01*
X7928000Y-10468000D02*
X8328000Y-10868000D01*
X8328000Y-10468000D02*
X7928000Y-10868000D01*
D11*
X3303119Y-11996976D02*
X3303119Y-11796976D01*
X3350738Y-11796976D01*
X3379309Y-11806500D01*
X3398357Y-11825548D01*
X3407881Y-11844595D01*
X3417405Y-11882690D01*
X3417405Y-11911262D01*
X3407881Y-11949357D01*
X3398357Y-11968405D01*
X3379309Y-11987452D01*
X3350738Y-11996976D01*
X3303119Y-11996976D01*
X3503119Y-11996976D02*
X3503119Y-11863643D01*
X3503119Y-11901738D02*
X3512643Y-11882690D01*
X3522167Y-11873167D01*
X3541214Y-11863643D01*
X3560262Y-11863643D01*
X3626928Y-11996976D02*
X3626928Y-11863643D01*
X3626928Y-11796976D02*
X3617405Y-11806500D01*
X3626928Y-11816024D01*
X3636452Y-11806500D01*
X3626928Y-11796976D01*
X3626928Y-11816024D01*
X3750738Y-11996976D02*
X3731690Y-11987452D01*
X3722167Y-11968405D01*
X3722167Y-11796976D01*
X3855500Y-11996976D02*
X3836452Y-11987452D01*
X3826928Y-11968405D01*
X3826928Y-11796976D01*
X4084071Y-11996976D02*
X4084071Y-11796976D01*
X4150738Y-11939833D01*
X4217405Y-11796976D01*
X4217405Y-11996976D01*
X4398357Y-11996976D02*
X4398357Y-11892214D01*
X4388833Y-11873167D01*
X4369786Y-11863643D01*
X4331690Y-11863643D01*
X4312643Y-11873167D01*
X4398357Y-11987452D02*
X4379310Y-11996976D01*
X4331690Y-11996976D01*
X4312643Y-11987452D01*
X4303119Y-11968405D01*
X4303119Y-11949357D01*
X4312643Y-11930309D01*
X4331690Y-11920786D01*
X4379310Y-11920786D01*
X4398357Y-11911262D01*
X4493595Y-11863643D02*
X4493595Y-12063643D01*
X4493595Y-11873167D02*
X4512643Y-11863643D01*
X4550738Y-11863643D01*
X4569786Y-11873167D01*
X4579310Y-11882690D01*
X4588833Y-11901738D01*
X4588833Y-11958881D01*
X4579310Y-11977928D01*
X4569786Y-11987452D01*
X4550738Y-11996976D01*
X4512643Y-11996976D01*
X4493595Y-11987452D01*
X4674548Y-11977928D02*
X4684071Y-11987452D01*
X4674548Y-11996976D01*
X4665024Y-11987452D01*
X4674548Y-11977928D01*
X4674548Y-11996976D01*
X4674548Y-11873167D02*
X4684071Y-11882690D01*
X4674548Y-11892214D01*
X4665024Y-11882690D01*
X4674548Y-11873167D01*
X4674548Y-11892214D01*
X2845500Y-12226500D02*
X3045500Y-12426500D01*
X3045500Y-12226500D02*
X2845500Y-12426500D01*
X3388833Y-12283643D02*
X3388833Y-12416976D01*
X3341214Y-12207452D02*
X3293595Y-12350309D01*
X3417405Y-12350309D01*
X3493595Y-12397928D02*
X3503119Y-12407452D01*
X3493595Y-12416976D01*
X3484071Y-12407452D01*
X3493595Y-12397928D01*
X3493595Y-12416976D01*
X3626928Y-12216976D02*
X3645976Y-12216976D01*
X3665024Y-12226500D01*
X3674548Y-12236024D01*
X3684071Y-12255071D01*
X3693595Y-12293167D01*
X3693595Y-12340786D01*
X3684071Y-12378881D01*
X3674548Y-12397928D01*
X3665024Y-12407452D01*
X3645976Y-12416976D01*
X3626928Y-12416976D01*
X3607881Y-12407452D01*
X3598357Y-12397928D01*
X3588833Y-12378881D01*
X3579309Y-12340786D01*
X3579309Y-12293167D01*
X3588833Y-12255071D01*
X3598357Y-12236024D01*
X3607881Y-12226500D01*
X3626928Y-12216976D01*
X3817405Y-12216976D02*
X3836452Y-12216976D01*
X3855500Y-12226500D01*
X3865024Y-12236024D01*
X3874548Y-12255071D01*
X3884071Y-12293167D01*
X3884071Y-12340786D01*
X3874548Y-12378881D01*
X3865024Y-12397928D01*
X3855500Y-12407452D01*
X3836452Y-12416976D01*
X3817405Y-12416976D01*
X3798357Y-12407452D01*
X3788833Y-12397928D01*
X3779309Y-12378881D01*
X3769786Y-12340786D01*
X3769786Y-12293167D01*
X3779309Y-12255071D01*
X3788833Y-12236024D01*
X3798357Y-12226500D01*
X3817405Y-12216976D01*
X4007881Y-12216976D02*
X4026928Y-12216976D01*
X4045976Y-12226500D01*
X4055500Y-12236024D01*
X4065024Y-12255071D01*
X4074548Y-12293167D01*
X4074548Y-12340786D01*
X4065024Y-12378881D01*
X4055500Y-12397928D01*
X4045976Y-12407452D01*
X4026928Y-12416976D01*
X4007881Y-12416976D01*
X3988833Y-12407452D01*
X3979309Y-12397928D01*
X3969786Y-12378881D01*
X3960262Y-12340786D01*
X3960262Y-12293167D01*
X3969786Y-12255071D01*
X3979309Y-12236024D01*
X3988833Y-12226500D01*
X4007881Y-12216976D01*
X4160262Y-12416976D02*
X4160262Y-12283643D01*
X4160262Y-12302690D02*
X4169786Y-12293167D01*
X4188833Y-12283643D01*
X4217405Y-12283643D01*
X4236452Y-12293167D01*
X4245976Y-12312214D01*
X4245976Y-12416976D01*
X4245976Y-12312214D02*
X4255500Y-12293167D01*
X4274548Y-12283643D01*
X4303119Y-12283643D01*
X4322167Y-12293167D01*
X4331690Y-12312214D01*
X4331690Y-12416976D01*
X4426929Y-12416976D02*
X4426929Y-12283643D01*
X4426929Y-12302690D02*
X4436452Y-12293167D01*
X4455500Y-12283643D01*
X4484071Y-12283643D01*
X4503119Y-12293167D01*
X4512643Y-12312214D01*
X4512643Y-12416976D01*
X4512643Y-12312214D02*
X4522167Y-12293167D01*
X4541214Y-12283643D01*
X4569786Y-12283643D01*
X4588833Y-12293167D01*
X4598357Y-12312214D01*
X4598357Y-12416976D01*
X4988833Y-12207452D02*
X4817405Y-12464595D01*
X5245976Y-12216976D02*
X5265024Y-12216976D01*
X5284071Y-12226500D01*
X5293595Y-12236024D01*
X5303119Y-12255071D01*
X5312643Y-12293167D01*
X5312643Y-12340786D01*
X5303119Y-12378881D01*
X5293595Y-12397928D01*
X5284071Y-12407452D01*
X5265024Y-12416976D01*
X5245976Y-12416976D01*
X5226929Y-12407452D01*
X5217405Y-12397928D01*
X5207881Y-12378881D01*
X5198357Y-12340786D01*
X5198357Y-12293167D01*
X5207881Y-12255071D01*
X5217405Y-12236024D01*
X5226929Y-12226500D01*
X5245976Y-12216976D01*
X5398357Y-12397928D02*
X5407881Y-12407452D01*
X5398357Y-12416976D01*
X5388833Y-12407452D01*
X5398357Y-12397928D01*
X5398357Y-12416976D01*
X5598357Y-12416976D02*
X5484071Y-12416976D01*
X5541214Y-12416976D02*
X5541214Y-12216976D01*
X5522167Y-12245548D01*
X5503119Y-12264595D01*
X5484071Y-12274119D01*
X5779309Y-12216976D02*
X5684071Y-12216976D01*
X5674548Y-12312214D01*
X5684071Y-12302690D01*
X5703119Y-12293167D01*
X5750738Y-12293167D01*
X5769786Y-12302690D01*
X5779309Y-12312214D01*
X5788833Y-12331262D01*
X5788833Y-12378881D01*
X5779309Y-12397928D01*
X5769786Y-12407452D01*
X5750738Y-12416976D01*
X5703119Y-12416976D01*
X5684071Y-12407452D01*
X5674548Y-12397928D01*
X5855500Y-12216976D02*
X5988833Y-12216976D01*
X5903119Y-12416976D01*
X6160262Y-12216976D02*
X6065024Y-12216976D01*
X6055500Y-12312214D01*
X6065024Y-12302690D01*
X6084071Y-12293167D01*
X6131690Y-12293167D01*
X6150738Y-12302690D01*
X6160262Y-12312214D01*
X6169786Y-12331262D01*
X6169786Y-12378881D01*
X6160262Y-12397928D01*
X6150738Y-12407452D01*
X6131690Y-12416976D01*
X6084071Y-12416976D01*
X6065024Y-12407452D01*
X6055500Y-12397928D01*
X6245976Y-12216976D02*
X6245976Y-12255071D01*
X6322167Y-12216976D02*
X6322167Y-12255071D01*
X6617405Y-12493167D02*
X6607881Y-12483643D01*
X6588833Y-12455071D01*
X6579309Y-12436024D01*
X6569786Y-12407452D01*
X6560262Y-12359833D01*
X6560262Y-12321738D01*
X6569786Y-12274119D01*
X6579309Y-12245548D01*
X6588833Y-12226500D01*
X6607881Y-12197928D01*
X6617405Y-12188405D01*
X6703119Y-12416976D02*
X6741214Y-12416976D01*
X6760262Y-12407452D01*
X6769786Y-12397928D01*
X6788833Y-12369357D01*
X6798357Y-12331262D01*
X6798357Y-12255071D01*
X6788833Y-12236024D01*
X6779309Y-12226500D01*
X6760262Y-12216976D01*
X6722167Y-12216976D01*
X6703119Y-12226500D01*
X6693595Y-12236024D01*
X6684071Y-12255071D01*
X6684071Y-12302690D01*
X6693595Y-12321738D01*
X6703119Y-12331262D01*
X6722167Y-12340786D01*
X6760262Y-12340786D01*
X6779309Y-12331262D01*
X6788833Y-12321738D01*
X6798357Y-12302690D01*
X7036452Y-12416976D02*
X7036452Y-12216976D01*
X7122167Y-12416976D02*
X7122167Y-12312214D01*
X7112643Y-12293167D01*
X7093595Y-12283643D01*
X7065024Y-12283643D01*
X7045976Y-12293167D01*
X7036452Y-12302690D01*
X7245976Y-12416976D02*
X7226928Y-12407452D01*
X7217405Y-12397928D01*
X7207881Y-12378881D01*
X7207881Y-12321738D01*
X7217405Y-12302690D01*
X7226928Y-12293167D01*
X7245976Y-12283643D01*
X7274548Y-12283643D01*
X7293595Y-12293167D01*
X7303119Y-12302690D01*
X7312643Y-12321738D01*
X7312643Y-12378881D01*
X7303119Y-12397928D01*
X7293595Y-12407452D01*
X7274548Y-12416976D01*
X7245976Y-12416976D01*
X7426928Y-12416976D02*
X7407881Y-12407452D01*
X7398357Y-12388405D01*
X7398357Y-12216976D01*
X7579309Y-12407452D02*
X7560262Y-12416976D01*
X7522167Y-12416976D01*
X7503119Y-12407452D01*
X7493595Y-12388405D01*
X7493595Y-12312214D01*
X7503119Y-12293167D01*
X7522167Y-12283643D01*
X7560262Y-12283643D01*
X7579309Y-12293167D01*
X7588833Y-12312214D01*
X7588833Y-12331262D01*
X7493595Y-12350309D01*
X7665024Y-12407452D02*
X7684071Y-12416976D01*
X7722167Y-12416976D01*
X7741214Y-12407452D01*
X7750738Y-12388405D01*
X7750738Y-12378881D01*
X7741214Y-12359833D01*
X7722167Y-12350309D01*
X7693595Y-12350309D01*
X7674548Y-12340786D01*
X7665024Y-12321738D01*
X7665024Y-12312214D01*
X7674548Y-12293167D01*
X7693595Y-12283643D01*
X7722167Y-12283643D01*
X7741214Y-12293167D01*
X7817405Y-12493167D02*
X7826928Y-12483643D01*
X7845976Y-12455071D01*
X7855500Y-12436024D01*
X7865024Y-12407452D01*
X7874548Y-12359833D01*
X7874548Y-12321738D01*
X7865024Y-12274119D01*
X7855500Y-12245548D01*
X7845976Y-12226500D01*
X7826928Y-12197928D01*
X7817405Y-12188405D01*
X8179309Y-12493167D02*
X8169786Y-12483643D01*
X8150738Y-12455071D01*
X8141214Y-12436024D01*
X8131690Y-12407452D01*
X8122167Y-12359833D01*
X8122167Y-12321738D01*
X8131690Y-12274119D01*
X8141214Y-12245548D01*
X8150738Y-12226500D01*
X8169786Y-12197928D01*
X8179309Y-12188405D01*
X8255500Y-12283643D02*
X8255500Y-12416976D01*
X8255500Y-12302690D02*
X8265024Y-12293167D01*
X8284071Y-12283643D01*
X8312643Y-12283643D01*
X8331690Y-12293167D01*
X8341214Y-12312214D01*
X8341214Y-12416976D01*
X8465024Y-12416976D02*
X8445976Y-12407452D01*
X8436452Y-12397928D01*
X8426929Y-12378881D01*
X8426929Y-12321738D01*
X8436452Y-12302690D01*
X8445976Y-12293167D01*
X8465024Y-12283643D01*
X8493595Y-12283643D01*
X8512643Y-12293167D01*
X8522167Y-12302690D01*
X8531690Y-12321738D01*
X8531690Y-12378881D01*
X8522167Y-12397928D01*
X8512643Y-12407452D01*
X8493595Y-12416976D01*
X8465024Y-12416976D01*
X8588833Y-12283643D02*
X8665024Y-12283643D01*
X8617405Y-12216976D02*
X8617405Y-12388405D01*
X8626929Y-12407452D01*
X8645976Y-12416976D01*
X8665024Y-12416976D01*
X8884071Y-12283643D02*
X8884071Y-12483643D01*
X8884071Y-12293167D02*
X8903119Y-12283643D01*
X8941214Y-12283643D01*
X8960262Y-12293167D01*
X8969786Y-12302690D01*
X8979310Y-12321738D01*
X8979310Y-12378881D01*
X8969786Y-12397928D01*
X8960262Y-12407452D01*
X8941214Y-12416976D01*
X8903119Y-12416976D01*
X8884071Y-12407452D01*
X9093595Y-12416976D02*
X9074548Y-12407452D01*
X9065024Y-12388405D01*
X9065024Y-12216976D01*
X9255500Y-12416976D02*
X9255500Y-12312214D01*
X9245976Y-12293167D01*
X9226929Y-12283643D01*
X9188833Y-12283643D01*
X9169786Y-12293167D01*
X9255500Y-12407452D02*
X9236452Y-12416976D01*
X9188833Y-12416976D01*
X9169786Y-12407452D01*
X9160262Y-12388405D01*
X9160262Y-12369357D01*
X9169786Y-12350309D01*
X9188833Y-12340786D01*
X9236452Y-12340786D01*
X9255500Y-12331262D01*
X9322167Y-12283643D02*
X9398357Y-12283643D01*
X9350738Y-12216976D02*
X9350738Y-12388405D01*
X9360262Y-12407452D01*
X9379310Y-12416976D01*
X9398357Y-12416976D01*
X9541214Y-12407452D02*
X9522167Y-12416976D01*
X9484071Y-12416976D01*
X9465024Y-12407452D01*
X9455500Y-12388405D01*
X9455500Y-12312214D01*
X9465024Y-12293167D01*
X9484071Y-12283643D01*
X9522167Y-12283643D01*
X9541214Y-12293167D01*
X9550738Y-12312214D01*
X9550738Y-12331262D01*
X9455500Y-12350309D01*
X9722167Y-12416976D02*
X9722167Y-12216976D01*
X9722167Y-12407452D02*
X9703119Y-12416976D01*
X9665024Y-12416976D01*
X9645976Y-12407452D01*
X9636452Y-12397928D01*
X9626929Y-12378881D01*
X9626929Y-12321738D01*
X9636452Y-12302690D01*
X9645976Y-12293167D01*
X9665024Y-12283643D01*
X9703119Y-12283643D01*
X9722167Y-12293167D01*
X9798357Y-12493167D02*
X9807881Y-12483643D01*
X9826929Y-12455071D01*
X9836452Y-12436024D01*
X9845976Y-12407452D01*
X9855500Y-12359833D01*
X9855500Y-12321738D01*
X9845976Y-12274119D01*
X9836452Y-12245548D01*
X9826929Y-12226500D01*
X9807881Y-12197928D01*
X9798357Y-12188405D01*
M02*
