%TF.GenerationSoftware,KiCad,Pcbnew,(6.0.5)*%
%TF.CreationDate,2022-05-30T13:32:29+08:00*%
%TF.ProjectId,keyboard_V2,6b657962-6f61-4726-945f-56322e6b6963,rev?*%
%TF.SameCoordinates,Original*%
%TF.FileFunction,Soldermask,Top*%
%TF.FilePolarity,Negative*%
%FSLAX46Y46*%
G04 Gerber Fmt 4.6, Leading zero omitted, Abs format (unit mm)*
G04 Created by KiCad (PCBNEW (6.0.5)) date 2022-05-30 13:32:29*
%MOMM*%
%LPD*%
G01*
G04 APERTURE LIST*
%ADD10C,3.000000*%
%ADD11R,1.700000X1.700000*%
%ADD12O,1.700000X1.700000*%
G04 APERTURE END LIST*
D10*
%TO.C,*%
X120650000Y-59690000D03*
%TD*%
%TO.C,*%
X80010000Y-80010000D03*
%TD*%
%TO.C,*%
X66040000Y-77470000D03*
%TD*%
%TO.C,*%
X127000000Y-77470000D03*
%TD*%
%TO.C,*%
X59690000Y-59690000D03*
%TD*%
%TO.C,*%
X120650000Y-100330000D03*
%TD*%
%TO.C,*%
X86360000Y-97790000D03*
%TD*%
%TO.C,*%
X80010000Y-59690000D03*
%TD*%
%TO.C,*%
X100316608Y-100318499D03*
%TD*%
%TO.C,*%
X86340782Y-77460391D03*
%TD*%
%TO.C,*%
X80010000Y-100330000D03*
%TD*%
%TO.C,*%
X106680000Y-97790000D03*
%TD*%
%TO.C,*%
X59690000Y-80010000D03*
%TD*%
%TO.C,*%
X106680000Y-77470000D03*
%TD*%
%TO.C,*%
X106680000Y-57150000D03*
%TD*%
%TO.C,*%
X100316608Y-59659281D03*
%TD*%
%TO.C,*%
X127000000Y-97790000D03*
%TD*%
%TO.C,*%
X66040000Y-97790000D03*
%TD*%
%TO.C,*%
X100316608Y-79988890D03*
%TD*%
%TO.C,*%
X86360000Y-57150000D03*
%TD*%
%TO.C,*%
X127000000Y-57150000D03*
%TD*%
%TO.C,*%
X66040000Y-57150000D03*
%TD*%
%TO.C,*%
X59690000Y-100330000D03*
%TD*%
%TO.C,*%
X120646217Y-79988890D03*
%TD*%
D11*
%TO.C,REF\u002A\u002A*%
X48260000Y-82550000D03*
D12*
X45720000Y-82550000D03*
X43180000Y-82550000D03*
X40640000Y-82550000D03*
%TD*%
D11*
%TO.C,REF\u002A\u002A*%
X49500000Y-87655000D03*
D12*
X46960000Y-87655000D03*
X44420000Y-87655000D03*
X41880000Y-87655000D03*
X39340000Y-87655000D03*
%TD*%
D11*
%TO.C,REF\u002A\u002A*%
X36830000Y-87630000D03*
D12*
X36830000Y-90170000D03*
X36830000Y-92710000D03*
X36830000Y-95250000D03*
X36830000Y-97790000D03*
X36830000Y-100330000D03*
X36830000Y-102870000D03*
X36830000Y-105410000D03*
X36830000Y-107950000D03*
%TD*%
D11*
%TO.C,REF\u002A\u002A*%
X52095000Y-87640000D03*
D12*
X52095000Y-90180000D03*
X52095000Y-92720000D03*
X52095000Y-95260000D03*
X52095000Y-97800000D03*
X52095000Y-100340000D03*
X52095000Y-102880000D03*
X52095000Y-105420000D03*
X52095000Y-107960000D03*
%TD*%
D11*
%TO.C,REF\u002A\u002A*%
X49500000Y-77495000D03*
D12*
X46960000Y-77495000D03*
X44420000Y-77495000D03*
X41880000Y-77495000D03*
X39340000Y-77495000D03*
%TD*%
M02*
