%FSLAX45Y45*%
G04 Gerber Fmt 4.5, Leading zero omitted, Abs format (unit mm)*
G04 Created by KiCad (PCBNEW (6.0.5)) date 2022-05-30 13:32:22*
%MOMM*%
%LPD*%
G01*
G04 APERTURE LIST*
%TA.AperFunction,Profile*%
%ADD10C,0.050000*%
%TD*%
%TA.AperFunction,Profile*%
%ADD11C,0.100000*%
%TD*%
%ADD12C,0.200000*%
%ADD13C,0.040000*%
%ADD14C,0.100000*%
%ADD15C,0.150000*%
%ADD16C,0.300000*%
%ADD17C,0.400000*%
G04 APERTURE END LIST*
D10*
X3302000Y-5080000D02*
G75*
G03*
X3048000Y-5334000I0J-254000D01*
G01*
D11*
X13462000Y-10668000D02*
X13462000Y-5334000D01*
X13462000Y-5334000D02*
G75*
G03*
X13208000Y-5080000I-254000J0D01*
G01*
X3048000Y-10668000D02*
X3048000Y-5334000D01*
X13208000Y-10922000D02*
G75*
G03*
X13462000Y-10668000I0J254000D01*
G01*
X3302000Y-10922000D02*
X13208000Y-10922000D01*
X13208000Y-5080000D02*
X3302000Y-5080000D01*
D12*
D13*
X5695000Y-8362000D02*
X5735000Y-8402000D01*
X5735000Y-8362000D02*
X5695000Y-8402000D01*
X6838000Y-8235000D02*
X6878000Y-8275000D01*
X6878000Y-8235000D02*
X6838000Y-8275000D01*
X8870000Y-8235000D02*
X8910000Y-8275000D01*
X8910000Y-8235000D02*
X8870000Y-8275000D01*
X10902000Y-8235000D02*
X10942000Y-8275000D01*
X10942000Y-8235000D02*
X10902000Y-8275000D01*
X12934000Y-8235000D02*
X12974000Y-8275000D01*
X12974000Y-8235000D02*
X12934000Y-8275000D01*
D14*
X3733000Y-8763000D02*
G75*
G03*
X3733000Y-8763000I-50000J0D01*
G01*
X3733000Y-9017000D02*
G75*
G03*
X3733000Y-9017000I-50000J0D01*
G01*
X3733000Y-9271000D02*
G75*
G03*
X3733000Y-9271000I-50000J0D01*
G01*
X3733000Y-9525000D02*
G75*
G03*
X3733000Y-9525000I-50000J0D01*
G01*
X3733000Y-9779000D02*
G75*
G03*
X3733000Y-9779000I-50000J0D01*
G01*
X3733000Y-10033000D02*
G75*
G03*
X3733000Y-10033000I-50000J0D01*
G01*
X3733000Y-10287000D02*
G75*
G03*
X3733000Y-10287000I-50000J0D01*
G01*
X3733000Y-10541000D02*
G75*
G03*
X3733000Y-10541000I-50000J0D01*
G01*
X3733000Y-10795000D02*
G75*
G03*
X3733000Y-10795000I-50000J0D01*
G01*
X3984000Y-7749500D02*
G75*
G03*
X3984000Y-7749500I-50000J0D01*
G01*
X3984000Y-8765500D02*
G75*
G03*
X3984000Y-8765500I-50000J0D01*
G01*
X4114000Y-8255000D02*
G75*
G03*
X4114000Y-8255000I-50000J0D01*
G01*
X4238000Y-7749500D02*
G75*
G03*
X4238000Y-7749500I-50000J0D01*
G01*
X4238000Y-8765500D02*
G75*
G03*
X4238000Y-8765500I-50000J0D01*
G01*
X4368000Y-8255000D02*
G75*
G03*
X4368000Y-8255000I-50000J0D01*
G01*
X4492000Y-7749500D02*
G75*
G03*
X4492000Y-7749500I-50000J0D01*
G01*
X4492000Y-8765500D02*
G75*
G03*
X4492000Y-8765500I-50000J0D01*
G01*
X4622000Y-8255000D02*
G75*
G03*
X4622000Y-8255000I-50000J0D01*
G01*
X4746000Y-7749500D02*
G75*
G03*
X4746000Y-7749500I-50000J0D01*
G01*
X4746000Y-8765500D02*
G75*
G03*
X4746000Y-8765500I-50000J0D01*
G01*
X4876000Y-8255000D02*
G75*
G03*
X4876000Y-8255000I-50000J0D01*
G01*
X5000000Y-7749500D02*
G75*
G03*
X5000000Y-7749500I-50000J0D01*
G01*
X5000000Y-8765500D02*
G75*
G03*
X5000000Y-8765500I-50000J0D01*
G01*
X5259500Y-8764000D02*
G75*
G03*
X5259500Y-8764000I-50000J0D01*
G01*
X5259500Y-9018000D02*
G75*
G03*
X5259500Y-9018000I-50000J0D01*
G01*
X5259500Y-9272000D02*
G75*
G03*
X5259500Y-9272000I-50000J0D01*
G01*
X5259500Y-9526000D02*
G75*
G03*
X5259500Y-9526000I-50000J0D01*
G01*
X5259500Y-9780000D02*
G75*
G03*
X5259500Y-9780000I-50000J0D01*
G01*
X5259500Y-10034000D02*
G75*
G03*
X5259500Y-10034000I-50000J0D01*
G01*
X5259500Y-10288000D02*
G75*
G03*
X5259500Y-10288000I-50000J0D01*
G01*
X5259500Y-10542000D02*
G75*
G03*
X5259500Y-10542000I-50000J0D01*
G01*
X5259500Y-10796000D02*
G75*
G03*
X5259500Y-10796000I-50000J0D01*
G01*
D15*
X5969000Y-5894000D02*
X5969000Y-6044000D01*
X5894000Y-5969000D02*
X6044000Y-5969000D01*
X5969000Y-7926000D02*
X5969000Y-8076000D01*
X5894000Y-8001000D02*
X6044000Y-8001000D01*
X5969000Y-9958000D02*
X5969000Y-10108000D01*
X5894000Y-10033000D02*
X6044000Y-10033000D01*
X6604000Y-5640000D02*
X6604000Y-5790000D01*
X6529000Y-5715000D02*
X6679000Y-5715000D01*
X6604000Y-7672000D02*
X6604000Y-7822000D01*
X6529000Y-7747000D02*
X6679000Y-7747000D01*
X6604000Y-9704000D02*
X6604000Y-9854000D01*
X6529000Y-9779000D02*
X6679000Y-9779000D01*
X8001000Y-5894000D02*
X8001000Y-6044000D01*
X7926000Y-5969000D02*
X8076000Y-5969000D01*
X8001000Y-7926000D02*
X8001000Y-8076000D01*
X7926000Y-8001000D02*
X8076000Y-8001000D01*
X8001000Y-9958000D02*
X8001000Y-10108000D01*
X7926000Y-10033000D02*
X8076000Y-10033000D01*
X8634078Y-7671039D02*
X8634078Y-7821039D01*
X8559078Y-7746039D02*
X8709078Y-7746039D01*
X8636000Y-5640000D02*
X8636000Y-5790000D01*
X8561000Y-5715000D02*
X8711000Y-5715000D01*
X8636000Y-9704000D02*
X8636000Y-9854000D01*
X8561000Y-9779000D02*
X8711000Y-9779000D01*
X10031661Y-5890928D02*
X10031661Y-6040928D01*
X9956661Y-5965928D02*
X10106661Y-5965928D01*
X10031661Y-7923889D02*
X10031661Y-8073889D01*
X9956661Y-7998889D02*
X10106661Y-7998889D01*
X10031661Y-9956850D02*
X10031661Y-10106850D01*
X9956661Y-10031850D02*
X10106661Y-10031850D01*
X10668000Y-5640000D02*
X10668000Y-5790000D01*
X10593000Y-5715000D02*
X10743000Y-5715000D01*
X10668000Y-7672000D02*
X10668000Y-7822000D01*
X10593000Y-7747000D02*
X10743000Y-7747000D01*
X10668000Y-9704000D02*
X10668000Y-9854000D01*
X10593000Y-9779000D02*
X10743000Y-9779000D01*
X12064622Y-7923889D02*
X12064622Y-8073889D01*
X11989622Y-7998889D02*
X12139622Y-7998889D01*
X12065000Y-5894000D02*
X12065000Y-6044000D01*
X11990000Y-5969000D02*
X12140000Y-5969000D01*
X12065000Y-9958000D02*
X12065000Y-10108000D01*
X11990000Y-10033000D02*
X12140000Y-10033000D01*
X12700000Y-5640000D02*
X12700000Y-5790000D01*
X12625000Y-5715000D02*
X12775000Y-5715000D01*
X12700000Y-7672000D02*
X12700000Y-7822000D01*
X12625000Y-7747000D02*
X12775000Y-7747000D01*
X12700000Y-9704000D02*
X12700000Y-9854000D01*
X12625000Y-9779000D02*
X12775000Y-9779000D01*
D16*
X3408067Y-5440067D02*
X3408067Y-5227933D01*
X3195933Y-5227933D01*
X3195933Y-5440067D01*
X3408067Y-5440067D01*
X3408067Y-10774067D02*
X3408067Y-10561933D01*
X3195933Y-10561933D01*
X3195933Y-10774067D01*
X3408067Y-10774067D01*
X13314067Y-5440067D02*
X13314067Y-5227933D01*
X13101933Y-5227933D01*
X13101933Y-5440067D01*
X13314067Y-5440067D01*
X13314067Y-10774067D02*
X13314067Y-10561933D01*
X13101933Y-10561933D01*
X13101933Y-10774067D01*
X13314067Y-10774067D01*
D17*
X6350000Y-6423000D02*
X6550000Y-6223000D01*
X6350000Y-6023000D01*
X6150000Y-6223000D01*
X6350000Y-6423000D01*
X6350000Y-8455000D02*
X6550000Y-8255000D01*
X6350000Y-8055000D01*
X6150000Y-8255000D01*
X6350000Y-8455000D01*
X6350000Y-10487000D02*
X6550000Y-10287000D01*
X6350000Y-10087000D01*
X6150000Y-10287000D01*
X6350000Y-10487000D01*
X8382000Y-6423000D02*
X8582000Y-6223000D01*
X8382000Y-6023000D01*
X8182000Y-6223000D01*
X8382000Y-6423000D01*
X8382000Y-8455000D02*
X8582000Y-8255000D01*
X8382000Y-8055000D01*
X8182000Y-8255000D01*
X8382000Y-8455000D01*
X8382000Y-10487000D02*
X8582000Y-10287000D01*
X8382000Y-10087000D01*
X8182000Y-10287000D01*
X8382000Y-10487000D01*
X10414000Y-6423000D02*
X10614000Y-6223000D01*
X10414000Y-6023000D01*
X10214000Y-6223000D01*
X10414000Y-6423000D01*
X10414000Y-8455000D02*
X10614000Y-8255000D01*
X10414000Y-8055000D01*
X10214000Y-8255000D01*
X10414000Y-8455000D01*
X10414000Y-10487000D02*
X10614000Y-10287000D01*
X10414000Y-10087000D01*
X10214000Y-10287000D01*
X10414000Y-10487000D01*
X12446000Y-6423000D02*
X12646000Y-6223000D01*
X12446000Y-6023000D01*
X12246000Y-6223000D01*
X12446000Y-6423000D01*
X12446000Y-8455000D02*
X12646000Y-8255000D01*
X12446000Y-8055000D01*
X12246000Y-8255000D01*
X12446000Y-8455000D01*
X12446000Y-10487000D02*
X12646000Y-10287000D01*
X12446000Y-10087000D01*
X12246000Y-10287000D01*
X12446000Y-10487000D01*
D12*
X3300619Y-11237476D02*
X3300619Y-11037476D01*
X3348238Y-11037476D01*
X3376809Y-11047000D01*
X3395857Y-11066048D01*
X3405381Y-11085095D01*
X3414905Y-11123190D01*
X3414905Y-11151762D01*
X3405381Y-11189857D01*
X3395857Y-11208905D01*
X3376809Y-11227952D01*
X3348238Y-11237476D01*
X3300619Y-11237476D01*
X3500619Y-11237476D02*
X3500619Y-11104143D01*
X3500619Y-11142238D02*
X3510143Y-11123190D01*
X3519667Y-11113667D01*
X3538714Y-11104143D01*
X3557762Y-11104143D01*
X3624428Y-11237476D02*
X3624428Y-11104143D01*
X3624428Y-11037476D02*
X3614905Y-11047000D01*
X3624428Y-11056524D01*
X3633952Y-11047000D01*
X3624428Y-11037476D01*
X3624428Y-11056524D01*
X3748238Y-11237476D02*
X3729190Y-11227952D01*
X3719667Y-11208905D01*
X3719667Y-11037476D01*
X3853000Y-11237476D02*
X3833952Y-11227952D01*
X3824428Y-11208905D01*
X3824428Y-11037476D01*
X4081571Y-11237476D02*
X4081571Y-11037476D01*
X4148238Y-11180333D01*
X4214905Y-11037476D01*
X4214905Y-11237476D01*
X4395857Y-11237476D02*
X4395857Y-11132714D01*
X4386333Y-11113667D01*
X4367286Y-11104143D01*
X4329190Y-11104143D01*
X4310143Y-11113667D01*
X4395857Y-11227952D02*
X4376810Y-11237476D01*
X4329190Y-11237476D01*
X4310143Y-11227952D01*
X4300619Y-11208905D01*
X4300619Y-11189857D01*
X4310143Y-11170810D01*
X4329190Y-11161286D01*
X4376810Y-11161286D01*
X4395857Y-11151762D01*
X4491095Y-11104143D02*
X4491095Y-11304143D01*
X4491095Y-11113667D02*
X4510143Y-11104143D01*
X4548238Y-11104143D01*
X4567286Y-11113667D01*
X4576810Y-11123190D01*
X4586333Y-11142238D01*
X4586333Y-11199381D01*
X4576810Y-11218428D01*
X4567286Y-11227952D01*
X4548238Y-11237476D01*
X4510143Y-11237476D01*
X4491095Y-11227952D01*
X4672048Y-11218428D02*
X4681571Y-11227952D01*
X4672048Y-11237476D01*
X4662524Y-11227952D01*
X4672048Y-11218428D01*
X4672048Y-11237476D01*
X4672048Y-11113667D02*
X4681571Y-11123190D01*
X4672048Y-11132714D01*
X4662524Y-11123190D01*
X4672048Y-11113667D01*
X4672048Y-11132714D01*
D13*
X3003000Y-11547000D02*
X3043000Y-11587000D01*
X3043000Y-11547000D02*
X3003000Y-11587000D01*
D12*
X3338714Y-11457476D02*
X3357762Y-11457476D01*
X3376809Y-11467000D01*
X3386333Y-11476524D01*
X3395857Y-11495571D01*
X3405381Y-11533667D01*
X3405381Y-11581286D01*
X3395857Y-11619381D01*
X3386333Y-11638428D01*
X3376809Y-11647952D01*
X3357762Y-11657476D01*
X3338714Y-11657476D01*
X3319667Y-11647952D01*
X3310143Y-11638428D01*
X3300619Y-11619381D01*
X3291095Y-11581286D01*
X3291095Y-11533667D01*
X3300619Y-11495571D01*
X3310143Y-11476524D01*
X3319667Y-11467000D01*
X3338714Y-11457476D01*
X3491095Y-11638428D02*
X3500619Y-11647952D01*
X3491095Y-11657476D01*
X3481571Y-11647952D01*
X3491095Y-11638428D01*
X3491095Y-11657476D01*
X3672048Y-11524143D02*
X3672048Y-11657476D01*
X3624428Y-11447952D02*
X3576809Y-11590809D01*
X3700619Y-11590809D01*
X3814905Y-11457476D02*
X3833952Y-11457476D01*
X3853000Y-11467000D01*
X3862524Y-11476524D01*
X3872048Y-11495571D01*
X3881571Y-11533667D01*
X3881571Y-11581286D01*
X3872048Y-11619381D01*
X3862524Y-11638428D01*
X3853000Y-11647952D01*
X3833952Y-11657476D01*
X3814905Y-11657476D01*
X3795857Y-11647952D01*
X3786333Y-11638428D01*
X3776809Y-11619381D01*
X3767286Y-11581286D01*
X3767286Y-11533667D01*
X3776809Y-11495571D01*
X3786333Y-11476524D01*
X3795857Y-11467000D01*
X3814905Y-11457476D01*
X4005381Y-11457476D02*
X4024428Y-11457476D01*
X4043476Y-11467000D01*
X4053000Y-11476524D01*
X4062524Y-11495571D01*
X4072048Y-11533667D01*
X4072048Y-11581286D01*
X4062524Y-11619381D01*
X4053000Y-11638428D01*
X4043476Y-11647952D01*
X4024428Y-11657476D01*
X4005381Y-11657476D01*
X3986333Y-11647952D01*
X3976809Y-11638428D01*
X3967286Y-11619381D01*
X3957762Y-11581286D01*
X3957762Y-11533667D01*
X3967286Y-11495571D01*
X3976809Y-11476524D01*
X3986333Y-11467000D01*
X4005381Y-11457476D01*
X4157762Y-11657476D02*
X4157762Y-11524143D01*
X4157762Y-11543190D02*
X4167286Y-11533667D01*
X4186333Y-11524143D01*
X4214905Y-11524143D01*
X4233952Y-11533667D01*
X4243476Y-11552714D01*
X4243476Y-11657476D01*
X4243476Y-11552714D02*
X4253000Y-11533667D01*
X4272048Y-11524143D01*
X4300619Y-11524143D01*
X4319667Y-11533667D01*
X4329190Y-11552714D01*
X4329190Y-11657476D01*
X4424429Y-11657476D02*
X4424429Y-11524143D01*
X4424429Y-11543190D02*
X4433952Y-11533667D01*
X4453000Y-11524143D01*
X4481571Y-11524143D01*
X4500619Y-11533667D01*
X4510143Y-11552714D01*
X4510143Y-11657476D01*
X4510143Y-11552714D02*
X4519667Y-11533667D01*
X4538714Y-11524143D01*
X4567286Y-11524143D01*
X4586333Y-11533667D01*
X4595857Y-11552714D01*
X4595857Y-11657476D01*
X4986333Y-11447952D02*
X4814905Y-11705095D01*
X5243476Y-11457476D02*
X5262524Y-11457476D01*
X5281571Y-11467000D01*
X5291095Y-11476524D01*
X5300619Y-11495571D01*
X5310143Y-11533667D01*
X5310143Y-11581286D01*
X5300619Y-11619381D01*
X5291095Y-11638428D01*
X5281571Y-11647952D01*
X5262524Y-11657476D01*
X5243476Y-11657476D01*
X5224429Y-11647952D01*
X5214905Y-11638428D01*
X5205381Y-11619381D01*
X5195857Y-11581286D01*
X5195857Y-11533667D01*
X5205381Y-11495571D01*
X5214905Y-11476524D01*
X5224429Y-11467000D01*
X5243476Y-11457476D01*
X5395857Y-11638428D02*
X5405381Y-11647952D01*
X5395857Y-11657476D01*
X5386333Y-11647952D01*
X5395857Y-11638428D01*
X5395857Y-11657476D01*
X5529190Y-11457476D02*
X5548238Y-11457476D01*
X5567286Y-11467000D01*
X5576810Y-11476524D01*
X5586333Y-11495571D01*
X5595857Y-11533667D01*
X5595857Y-11581286D01*
X5586333Y-11619381D01*
X5576810Y-11638428D01*
X5567286Y-11647952D01*
X5548238Y-11657476D01*
X5529190Y-11657476D01*
X5510143Y-11647952D01*
X5500619Y-11638428D01*
X5491095Y-11619381D01*
X5481571Y-11581286D01*
X5481571Y-11533667D01*
X5491095Y-11495571D01*
X5500619Y-11476524D01*
X5510143Y-11467000D01*
X5529190Y-11457476D01*
X5786333Y-11657476D02*
X5672048Y-11657476D01*
X5729190Y-11657476D02*
X5729190Y-11457476D01*
X5710143Y-11486048D01*
X5691095Y-11505095D01*
X5672048Y-11514619D01*
X5967286Y-11457476D02*
X5872048Y-11457476D01*
X5862524Y-11552714D01*
X5872048Y-11543190D01*
X5891095Y-11533667D01*
X5938714Y-11533667D01*
X5957762Y-11543190D01*
X5967286Y-11552714D01*
X5976809Y-11571762D01*
X5976809Y-11619381D01*
X5967286Y-11638428D01*
X5957762Y-11647952D01*
X5938714Y-11657476D01*
X5891095Y-11657476D01*
X5872048Y-11647952D01*
X5862524Y-11638428D01*
X6043476Y-11457476D02*
X6176809Y-11457476D01*
X6091095Y-11657476D01*
X6243476Y-11457476D02*
X6243476Y-11495571D01*
X6319667Y-11457476D02*
X6319667Y-11495571D01*
X6614905Y-11733667D02*
X6605381Y-11724143D01*
X6586333Y-11695571D01*
X6576809Y-11676524D01*
X6567286Y-11647952D01*
X6557762Y-11600333D01*
X6557762Y-11562238D01*
X6567286Y-11514619D01*
X6576809Y-11486048D01*
X6586333Y-11467000D01*
X6605381Y-11438428D01*
X6614905Y-11428905D01*
X6786333Y-11457476D02*
X6691095Y-11457476D01*
X6681571Y-11552714D01*
X6691095Y-11543190D01*
X6710143Y-11533667D01*
X6757762Y-11533667D01*
X6776809Y-11543190D01*
X6786333Y-11552714D01*
X6795857Y-11571762D01*
X6795857Y-11619381D01*
X6786333Y-11638428D01*
X6776809Y-11647952D01*
X6757762Y-11657476D01*
X6710143Y-11657476D01*
X6691095Y-11647952D01*
X6681571Y-11638428D01*
X7033952Y-11657476D02*
X7033952Y-11457476D01*
X7119667Y-11657476D02*
X7119667Y-11552714D01*
X7110143Y-11533667D01*
X7091095Y-11524143D01*
X7062524Y-11524143D01*
X7043476Y-11533667D01*
X7033952Y-11543190D01*
X7243476Y-11657476D02*
X7224428Y-11647952D01*
X7214905Y-11638428D01*
X7205381Y-11619381D01*
X7205381Y-11562238D01*
X7214905Y-11543190D01*
X7224428Y-11533667D01*
X7243476Y-11524143D01*
X7272048Y-11524143D01*
X7291095Y-11533667D01*
X7300619Y-11543190D01*
X7310143Y-11562238D01*
X7310143Y-11619381D01*
X7300619Y-11638428D01*
X7291095Y-11647952D01*
X7272048Y-11657476D01*
X7243476Y-11657476D01*
X7424428Y-11657476D02*
X7405381Y-11647952D01*
X7395857Y-11628905D01*
X7395857Y-11457476D01*
X7576809Y-11647952D02*
X7557762Y-11657476D01*
X7519667Y-11657476D01*
X7500619Y-11647952D01*
X7491095Y-11628905D01*
X7491095Y-11552714D01*
X7500619Y-11533667D01*
X7519667Y-11524143D01*
X7557762Y-11524143D01*
X7576809Y-11533667D01*
X7586333Y-11552714D01*
X7586333Y-11571762D01*
X7491095Y-11590809D01*
X7662524Y-11647952D02*
X7681571Y-11657476D01*
X7719667Y-11657476D01*
X7738714Y-11647952D01*
X7748238Y-11628905D01*
X7748238Y-11619381D01*
X7738714Y-11600333D01*
X7719667Y-11590809D01*
X7691095Y-11590809D01*
X7672048Y-11581286D01*
X7662524Y-11562238D01*
X7662524Y-11552714D01*
X7672048Y-11533667D01*
X7691095Y-11524143D01*
X7719667Y-11524143D01*
X7738714Y-11533667D01*
X7814905Y-11733667D02*
X7824428Y-11724143D01*
X7843476Y-11695571D01*
X7853000Y-11676524D01*
X7862524Y-11647952D01*
X7872048Y-11600333D01*
X7872048Y-11562238D01*
X7862524Y-11514619D01*
X7853000Y-11486048D01*
X7843476Y-11467000D01*
X7824428Y-11438428D01*
X7814905Y-11428905D01*
D14*
X3043000Y-11831000D02*
G75*
G03*
X3043000Y-11831000I-50000J0D01*
G01*
D12*
X3405381Y-11921476D02*
X3291095Y-11921476D01*
X3348238Y-11921476D02*
X3348238Y-11721476D01*
X3329190Y-11750048D01*
X3310143Y-11769095D01*
X3291095Y-11778619D01*
X3491095Y-11902428D02*
X3500619Y-11911952D01*
X3491095Y-11921476D01*
X3481571Y-11911952D01*
X3491095Y-11902428D01*
X3491095Y-11921476D01*
X3624428Y-11721476D02*
X3643476Y-11721476D01*
X3662524Y-11731000D01*
X3672048Y-11740524D01*
X3681571Y-11759571D01*
X3691095Y-11797667D01*
X3691095Y-11845286D01*
X3681571Y-11883381D01*
X3672048Y-11902428D01*
X3662524Y-11911952D01*
X3643476Y-11921476D01*
X3624428Y-11921476D01*
X3605381Y-11911952D01*
X3595857Y-11902428D01*
X3586333Y-11883381D01*
X3576809Y-11845286D01*
X3576809Y-11797667D01*
X3586333Y-11759571D01*
X3595857Y-11740524D01*
X3605381Y-11731000D01*
X3624428Y-11721476D01*
X3814905Y-11721476D02*
X3833952Y-11721476D01*
X3853000Y-11731000D01*
X3862524Y-11740524D01*
X3872048Y-11759571D01*
X3881571Y-11797667D01*
X3881571Y-11845286D01*
X3872048Y-11883381D01*
X3862524Y-11902428D01*
X3853000Y-11911952D01*
X3833952Y-11921476D01*
X3814905Y-11921476D01*
X3795857Y-11911952D01*
X3786333Y-11902428D01*
X3776809Y-11883381D01*
X3767286Y-11845286D01*
X3767286Y-11797667D01*
X3776809Y-11759571D01*
X3786333Y-11740524D01*
X3795857Y-11731000D01*
X3814905Y-11721476D01*
X4005381Y-11721476D02*
X4024428Y-11721476D01*
X4043476Y-11731000D01*
X4053000Y-11740524D01*
X4062524Y-11759571D01*
X4072048Y-11797667D01*
X4072048Y-11845286D01*
X4062524Y-11883381D01*
X4053000Y-11902428D01*
X4043476Y-11911952D01*
X4024428Y-11921476D01*
X4005381Y-11921476D01*
X3986333Y-11911952D01*
X3976809Y-11902428D01*
X3967286Y-11883381D01*
X3957762Y-11845286D01*
X3957762Y-11797667D01*
X3967286Y-11759571D01*
X3976809Y-11740524D01*
X3986333Y-11731000D01*
X4005381Y-11721476D01*
X4157762Y-11921476D02*
X4157762Y-11788143D01*
X4157762Y-11807190D02*
X4167286Y-11797667D01*
X4186333Y-11788143D01*
X4214905Y-11788143D01*
X4233952Y-11797667D01*
X4243476Y-11816714D01*
X4243476Y-11921476D01*
X4243476Y-11816714D02*
X4253000Y-11797667D01*
X4272048Y-11788143D01*
X4300619Y-11788143D01*
X4319667Y-11797667D01*
X4329190Y-11816714D01*
X4329190Y-11921476D01*
X4424429Y-11921476D02*
X4424429Y-11788143D01*
X4424429Y-11807190D02*
X4433952Y-11797667D01*
X4453000Y-11788143D01*
X4481571Y-11788143D01*
X4500619Y-11797667D01*
X4510143Y-11816714D01*
X4510143Y-11921476D01*
X4510143Y-11816714D02*
X4519667Y-11797667D01*
X4538714Y-11788143D01*
X4567286Y-11788143D01*
X4586333Y-11797667D01*
X4595857Y-11816714D01*
X4595857Y-11921476D01*
X4986333Y-11711952D02*
X4814905Y-11969095D01*
X5243476Y-11721476D02*
X5262524Y-11721476D01*
X5281571Y-11731000D01*
X5291095Y-11740524D01*
X5300619Y-11759571D01*
X5310143Y-11797667D01*
X5310143Y-11845286D01*
X5300619Y-11883381D01*
X5291095Y-11902428D01*
X5281571Y-11911952D01*
X5262524Y-11921476D01*
X5243476Y-11921476D01*
X5224429Y-11911952D01*
X5214905Y-11902428D01*
X5205381Y-11883381D01*
X5195857Y-11845286D01*
X5195857Y-11797667D01*
X5205381Y-11759571D01*
X5214905Y-11740524D01*
X5224429Y-11731000D01*
X5243476Y-11721476D01*
X5395857Y-11902428D02*
X5405381Y-11911952D01*
X5395857Y-11921476D01*
X5386333Y-11911952D01*
X5395857Y-11902428D01*
X5395857Y-11921476D01*
X5529190Y-11721476D02*
X5548238Y-11721476D01*
X5567286Y-11731000D01*
X5576810Y-11740524D01*
X5586333Y-11759571D01*
X5595857Y-11797667D01*
X5595857Y-11845286D01*
X5586333Y-11883381D01*
X5576810Y-11902428D01*
X5567286Y-11911952D01*
X5548238Y-11921476D01*
X5529190Y-11921476D01*
X5510143Y-11911952D01*
X5500619Y-11902428D01*
X5491095Y-11883381D01*
X5481571Y-11845286D01*
X5481571Y-11797667D01*
X5491095Y-11759571D01*
X5500619Y-11740524D01*
X5510143Y-11731000D01*
X5529190Y-11721476D01*
X5662524Y-11721476D02*
X5786333Y-11721476D01*
X5719667Y-11797667D01*
X5748238Y-11797667D01*
X5767286Y-11807190D01*
X5776809Y-11816714D01*
X5786333Y-11835762D01*
X5786333Y-11883381D01*
X5776809Y-11902428D01*
X5767286Y-11911952D01*
X5748238Y-11921476D01*
X5691095Y-11921476D01*
X5672048Y-11911952D01*
X5662524Y-11902428D01*
X5881571Y-11921476D02*
X5919667Y-11921476D01*
X5938714Y-11911952D01*
X5948238Y-11902428D01*
X5967286Y-11873857D01*
X5976809Y-11835762D01*
X5976809Y-11759571D01*
X5967286Y-11740524D01*
X5957762Y-11731000D01*
X5938714Y-11721476D01*
X5900619Y-11721476D01*
X5881571Y-11731000D01*
X5872048Y-11740524D01*
X5862524Y-11759571D01*
X5862524Y-11807190D01*
X5872048Y-11826238D01*
X5881571Y-11835762D01*
X5900619Y-11845286D01*
X5938714Y-11845286D01*
X5957762Y-11835762D01*
X5967286Y-11826238D01*
X5976809Y-11807190D01*
X6148238Y-11788143D02*
X6148238Y-11921476D01*
X6100619Y-11711952D02*
X6053000Y-11854809D01*
X6176809Y-11854809D01*
X6243476Y-11721476D02*
X6243476Y-11759571D01*
X6319667Y-11721476D02*
X6319667Y-11759571D01*
X6614905Y-11997667D02*
X6605381Y-11988143D01*
X6586333Y-11959571D01*
X6576809Y-11940524D01*
X6567286Y-11911952D01*
X6557762Y-11864333D01*
X6557762Y-11826238D01*
X6567286Y-11778619D01*
X6576809Y-11750048D01*
X6586333Y-11731000D01*
X6605381Y-11702428D01*
X6614905Y-11692905D01*
X6672048Y-11721476D02*
X6795857Y-11721476D01*
X6729190Y-11797667D01*
X6757762Y-11797667D01*
X6776809Y-11807190D01*
X6786333Y-11816714D01*
X6795857Y-11835762D01*
X6795857Y-11883381D01*
X6786333Y-11902428D01*
X6776809Y-11911952D01*
X6757762Y-11921476D01*
X6700619Y-11921476D01*
X6681571Y-11911952D01*
X6672048Y-11902428D01*
X6872048Y-11740524D02*
X6881571Y-11731000D01*
X6900619Y-11721476D01*
X6948238Y-11721476D01*
X6967286Y-11731000D01*
X6976809Y-11740524D01*
X6986333Y-11759571D01*
X6986333Y-11778619D01*
X6976809Y-11807190D01*
X6862524Y-11921476D01*
X6986333Y-11921476D01*
X7224428Y-11921476D02*
X7224428Y-11721476D01*
X7310143Y-11921476D02*
X7310143Y-11816714D01*
X7300619Y-11797667D01*
X7281571Y-11788143D01*
X7253000Y-11788143D01*
X7233952Y-11797667D01*
X7224428Y-11807190D01*
X7433952Y-11921476D02*
X7414905Y-11911952D01*
X7405381Y-11902428D01*
X7395857Y-11883381D01*
X7395857Y-11826238D01*
X7405381Y-11807190D01*
X7414905Y-11797667D01*
X7433952Y-11788143D01*
X7462524Y-11788143D01*
X7481571Y-11797667D01*
X7491095Y-11807190D01*
X7500619Y-11826238D01*
X7500619Y-11883381D01*
X7491095Y-11902428D01*
X7481571Y-11911952D01*
X7462524Y-11921476D01*
X7433952Y-11921476D01*
X7614905Y-11921476D02*
X7595857Y-11911952D01*
X7586333Y-11892905D01*
X7586333Y-11721476D01*
X7767286Y-11911952D02*
X7748238Y-11921476D01*
X7710143Y-11921476D01*
X7691095Y-11911952D01*
X7681571Y-11892905D01*
X7681571Y-11816714D01*
X7691095Y-11797667D01*
X7710143Y-11788143D01*
X7748238Y-11788143D01*
X7767286Y-11797667D01*
X7776809Y-11816714D01*
X7776809Y-11835762D01*
X7681571Y-11854809D01*
X7853000Y-11911952D02*
X7872048Y-11921476D01*
X7910143Y-11921476D01*
X7929190Y-11911952D01*
X7938714Y-11892905D01*
X7938714Y-11883381D01*
X7929190Y-11864333D01*
X7910143Y-11854809D01*
X7881571Y-11854809D01*
X7862524Y-11845286D01*
X7853000Y-11826238D01*
X7853000Y-11816714D01*
X7862524Y-11797667D01*
X7881571Y-11788143D01*
X7910143Y-11788143D01*
X7929190Y-11797667D01*
X8005381Y-11997667D02*
X8014905Y-11988143D01*
X8033952Y-11959571D01*
X8043476Y-11940524D01*
X8053000Y-11911952D01*
X8062524Y-11864333D01*
X8062524Y-11826238D01*
X8053000Y-11778619D01*
X8043476Y-11750048D01*
X8033952Y-11731000D01*
X8014905Y-11702428D01*
X8005381Y-11692905D01*
D15*
X2968000Y-12020000D02*
X2968000Y-12170000D01*
X2893000Y-12095000D02*
X3043000Y-12095000D01*
D12*
X3405381Y-12185476D02*
X3291095Y-12185476D01*
X3348238Y-12185476D02*
X3348238Y-11985476D01*
X3329190Y-12014048D01*
X3310143Y-12033095D01*
X3291095Y-12042619D01*
X3491095Y-12166428D02*
X3500619Y-12175952D01*
X3491095Y-12185476D01*
X3481571Y-12175952D01*
X3491095Y-12166428D01*
X3491095Y-12185476D01*
X3681571Y-11985476D02*
X3586333Y-11985476D01*
X3576809Y-12080714D01*
X3586333Y-12071190D01*
X3605381Y-12061667D01*
X3653000Y-12061667D01*
X3672048Y-12071190D01*
X3681571Y-12080714D01*
X3691095Y-12099762D01*
X3691095Y-12147381D01*
X3681571Y-12166428D01*
X3672048Y-12175952D01*
X3653000Y-12185476D01*
X3605381Y-12185476D01*
X3586333Y-12175952D01*
X3576809Y-12166428D01*
X3814905Y-11985476D02*
X3833952Y-11985476D01*
X3853000Y-11995000D01*
X3862524Y-12004524D01*
X3872048Y-12023571D01*
X3881571Y-12061667D01*
X3881571Y-12109286D01*
X3872048Y-12147381D01*
X3862524Y-12166428D01*
X3853000Y-12175952D01*
X3833952Y-12185476D01*
X3814905Y-12185476D01*
X3795857Y-12175952D01*
X3786333Y-12166428D01*
X3776809Y-12147381D01*
X3767286Y-12109286D01*
X3767286Y-12061667D01*
X3776809Y-12023571D01*
X3786333Y-12004524D01*
X3795857Y-11995000D01*
X3814905Y-11985476D01*
X4005381Y-11985476D02*
X4024428Y-11985476D01*
X4043476Y-11995000D01*
X4053000Y-12004524D01*
X4062524Y-12023571D01*
X4072048Y-12061667D01*
X4072048Y-12109286D01*
X4062524Y-12147381D01*
X4053000Y-12166428D01*
X4043476Y-12175952D01*
X4024428Y-12185476D01*
X4005381Y-12185476D01*
X3986333Y-12175952D01*
X3976809Y-12166428D01*
X3967286Y-12147381D01*
X3957762Y-12109286D01*
X3957762Y-12061667D01*
X3967286Y-12023571D01*
X3976809Y-12004524D01*
X3986333Y-11995000D01*
X4005381Y-11985476D01*
X4157762Y-12185476D02*
X4157762Y-12052143D01*
X4157762Y-12071190D02*
X4167286Y-12061667D01*
X4186333Y-12052143D01*
X4214905Y-12052143D01*
X4233952Y-12061667D01*
X4243476Y-12080714D01*
X4243476Y-12185476D01*
X4243476Y-12080714D02*
X4253000Y-12061667D01*
X4272048Y-12052143D01*
X4300619Y-12052143D01*
X4319667Y-12061667D01*
X4329190Y-12080714D01*
X4329190Y-12185476D01*
X4424429Y-12185476D02*
X4424429Y-12052143D01*
X4424429Y-12071190D02*
X4433952Y-12061667D01*
X4453000Y-12052143D01*
X4481571Y-12052143D01*
X4500619Y-12061667D01*
X4510143Y-12080714D01*
X4510143Y-12185476D01*
X4510143Y-12080714D02*
X4519667Y-12061667D01*
X4538714Y-12052143D01*
X4567286Y-12052143D01*
X4586333Y-12061667D01*
X4595857Y-12080714D01*
X4595857Y-12185476D01*
X4986333Y-11975952D02*
X4814905Y-12233095D01*
X5243476Y-11985476D02*
X5262524Y-11985476D01*
X5281571Y-11995000D01*
X5291095Y-12004524D01*
X5300619Y-12023571D01*
X5310143Y-12061667D01*
X5310143Y-12109286D01*
X5300619Y-12147381D01*
X5291095Y-12166428D01*
X5281571Y-12175952D01*
X5262524Y-12185476D01*
X5243476Y-12185476D01*
X5224429Y-12175952D01*
X5214905Y-12166428D01*
X5205381Y-12147381D01*
X5195857Y-12109286D01*
X5195857Y-12061667D01*
X5205381Y-12023571D01*
X5214905Y-12004524D01*
X5224429Y-11995000D01*
X5243476Y-11985476D01*
X5395857Y-12166428D02*
X5405381Y-12175952D01*
X5395857Y-12185476D01*
X5386333Y-12175952D01*
X5395857Y-12166428D01*
X5395857Y-12185476D01*
X5529190Y-11985476D02*
X5548238Y-11985476D01*
X5567286Y-11995000D01*
X5576810Y-12004524D01*
X5586333Y-12023571D01*
X5595857Y-12061667D01*
X5595857Y-12109286D01*
X5586333Y-12147381D01*
X5576810Y-12166428D01*
X5567286Y-12175952D01*
X5548238Y-12185476D01*
X5529190Y-12185476D01*
X5510143Y-12175952D01*
X5500619Y-12166428D01*
X5491095Y-12147381D01*
X5481571Y-12109286D01*
X5481571Y-12061667D01*
X5491095Y-12023571D01*
X5500619Y-12004524D01*
X5510143Y-11995000D01*
X5529190Y-11985476D01*
X5776809Y-11985476D02*
X5681571Y-11985476D01*
X5672048Y-12080714D01*
X5681571Y-12071190D01*
X5700619Y-12061667D01*
X5748238Y-12061667D01*
X5767286Y-12071190D01*
X5776809Y-12080714D01*
X5786333Y-12099762D01*
X5786333Y-12147381D01*
X5776809Y-12166428D01*
X5767286Y-12175952D01*
X5748238Y-12185476D01*
X5700619Y-12185476D01*
X5681571Y-12175952D01*
X5672048Y-12166428D01*
X5881571Y-12185476D02*
X5919667Y-12185476D01*
X5938714Y-12175952D01*
X5948238Y-12166428D01*
X5967286Y-12137857D01*
X5976809Y-12099762D01*
X5976809Y-12023571D01*
X5967286Y-12004524D01*
X5957762Y-11995000D01*
X5938714Y-11985476D01*
X5900619Y-11985476D01*
X5881571Y-11995000D01*
X5872048Y-12004524D01*
X5862524Y-12023571D01*
X5862524Y-12071190D01*
X5872048Y-12090238D01*
X5881571Y-12099762D01*
X5900619Y-12109286D01*
X5938714Y-12109286D01*
X5957762Y-12099762D01*
X5967286Y-12090238D01*
X5976809Y-12071190D01*
X6167286Y-12185476D02*
X6053000Y-12185476D01*
X6110143Y-12185476D02*
X6110143Y-11985476D01*
X6091095Y-12014048D01*
X6072048Y-12033095D01*
X6053000Y-12042619D01*
X6243476Y-11985476D02*
X6243476Y-12023571D01*
X6319667Y-11985476D02*
X6319667Y-12023571D01*
X6614905Y-12261667D02*
X6605381Y-12252143D01*
X6586333Y-12223571D01*
X6576809Y-12204524D01*
X6567286Y-12175952D01*
X6557762Y-12128333D01*
X6557762Y-12090238D01*
X6567286Y-12042619D01*
X6576809Y-12014048D01*
X6586333Y-11995000D01*
X6605381Y-11966428D01*
X6614905Y-11956905D01*
X6681571Y-12004524D02*
X6691095Y-11995000D01*
X6710143Y-11985476D01*
X6757762Y-11985476D01*
X6776809Y-11995000D01*
X6786333Y-12004524D01*
X6795857Y-12023571D01*
X6795857Y-12042619D01*
X6786333Y-12071190D01*
X6672048Y-12185476D01*
X6795857Y-12185476D01*
X6967286Y-12052143D02*
X6967286Y-12185476D01*
X6919667Y-11975952D02*
X6872048Y-12118809D01*
X6995857Y-12118809D01*
X7224428Y-12185476D02*
X7224428Y-11985476D01*
X7310143Y-12185476D02*
X7310143Y-12080714D01*
X7300619Y-12061667D01*
X7281571Y-12052143D01*
X7253000Y-12052143D01*
X7233952Y-12061667D01*
X7224428Y-12071190D01*
X7433952Y-12185476D02*
X7414905Y-12175952D01*
X7405381Y-12166428D01*
X7395857Y-12147381D01*
X7395857Y-12090238D01*
X7405381Y-12071190D01*
X7414905Y-12061667D01*
X7433952Y-12052143D01*
X7462524Y-12052143D01*
X7481571Y-12061667D01*
X7491095Y-12071190D01*
X7500619Y-12090238D01*
X7500619Y-12147381D01*
X7491095Y-12166428D01*
X7481571Y-12175952D01*
X7462524Y-12185476D01*
X7433952Y-12185476D01*
X7614905Y-12185476D02*
X7595857Y-12175952D01*
X7586333Y-12156905D01*
X7586333Y-11985476D01*
X7767286Y-12175952D02*
X7748238Y-12185476D01*
X7710143Y-12185476D01*
X7691095Y-12175952D01*
X7681571Y-12156905D01*
X7681571Y-12080714D01*
X7691095Y-12061667D01*
X7710143Y-12052143D01*
X7748238Y-12052143D01*
X7767286Y-12061667D01*
X7776809Y-12080714D01*
X7776809Y-12099762D01*
X7681571Y-12118809D01*
X7853000Y-12175952D02*
X7872048Y-12185476D01*
X7910143Y-12185476D01*
X7929190Y-12175952D01*
X7938714Y-12156905D01*
X7938714Y-12147381D01*
X7929190Y-12128333D01*
X7910143Y-12118809D01*
X7881571Y-12118809D01*
X7862524Y-12109286D01*
X7853000Y-12090238D01*
X7853000Y-12080714D01*
X7862524Y-12061667D01*
X7881571Y-12052143D01*
X7910143Y-12052143D01*
X7929190Y-12061667D01*
X8005381Y-12261667D02*
X8014905Y-12252143D01*
X8033952Y-12223571D01*
X8043476Y-12204524D01*
X8053000Y-12175952D01*
X8062524Y-12128333D01*
X8062524Y-12090238D01*
X8053000Y-12042619D01*
X8043476Y-12014048D01*
X8033952Y-11995000D01*
X8014905Y-11966428D01*
X8005381Y-11956905D01*
X3013711Y-12435711D02*
X3013711Y-12294289D01*
X2872289Y-12294289D01*
X2872289Y-12435711D01*
X3013711Y-12435711D01*
X3281571Y-12255476D02*
X3405381Y-12255476D01*
X3338714Y-12331667D01*
X3367286Y-12331667D01*
X3386333Y-12341190D01*
X3395857Y-12350714D01*
X3405381Y-12369762D01*
X3405381Y-12417381D01*
X3395857Y-12436428D01*
X3386333Y-12445952D01*
X3367286Y-12455476D01*
X3310143Y-12455476D01*
X3291095Y-12445952D01*
X3281571Y-12436428D01*
X3491095Y-12436428D02*
X3500619Y-12445952D01*
X3491095Y-12455476D01*
X3481571Y-12445952D01*
X3491095Y-12436428D01*
X3491095Y-12455476D01*
X3624428Y-12255476D02*
X3643476Y-12255476D01*
X3662524Y-12265000D01*
X3672048Y-12274524D01*
X3681571Y-12293571D01*
X3691095Y-12331667D01*
X3691095Y-12379286D01*
X3681571Y-12417381D01*
X3672048Y-12436428D01*
X3662524Y-12445952D01*
X3643476Y-12455476D01*
X3624428Y-12455476D01*
X3605381Y-12445952D01*
X3595857Y-12436428D01*
X3586333Y-12417381D01*
X3576809Y-12379286D01*
X3576809Y-12331667D01*
X3586333Y-12293571D01*
X3595857Y-12274524D01*
X3605381Y-12265000D01*
X3624428Y-12255476D01*
X3814905Y-12255476D02*
X3833952Y-12255476D01*
X3853000Y-12265000D01*
X3862524Y-12274524D01*
X3872048Y-12293571D01*
X3881571Y-12331667D01*
X3881571Y-12379286D01*
X3872048Y-12417381D01*
X3862524Y-12436428D01*
X3853000Y-12445952D01*
X3833952Y-12455476D01*
X3814905Y-12455476D01*
X3795857Y-12445952D01*
X3786333Y-12436428D01*
X3776809Y-12417381D01*
X3767286Y-12379286D01*
X3767286Y-12331667D01*
X3776809Y-12293571D01*
X3786333Y-12274524D01*
X3795857Y-12265000D01*
X3814905Y-12255476D01*
X4005381Y-12255476D02*
X4024428Y-12255476D01*
X4043476Y-12265000D01*
X4053000Y-12274524D01*
X4062524Y-12293571D01*
X4072048Y-12331667D01*
X4072048Y-12379286D01*
X4062524Y-12417381D01*
X4053000Y-12436428D01*
X4043476Y-12445952D01*
X4024428Y-12455476D01*
X4005381Y-12455476D01*
X3986333Y-12445952D01*
X3976809Y-12436428D01*
X3967286Y-12417381D01*
X3957762Y-12379286D01*
X3957762Y-12331667D01*
X3967286Y-12293571D01*
X3976809Y-12274524D01*
X3986333Y-12265000D01*
X4005381Y-12255476D01*
X4157762Y-12455476D02*
X4157762Y-12322143D01*
X4157762Y-12341190D02*
X4167286Y-12331667D01*
X4186333Y-12322143D01*
X4214905Y-12322143D01*
X4233952Y-12331667D01*
X4243476Y-12350714D01*
X4243476Y-12455476D01*
X4243476Y-12350714D02*
X4253000Y-12331667D01*
X4272048Y-12322143D01*
X4300619Y-12322143D01*
X4319667Y-12331667D01*
X4329190Y-12350714D01*
X4329190Y-12455476D01*
X4424429Y-12455476D02*
X4424429Y-12322143D01*
X4424429Y-12341190D02*
X4433952Y-12331667D01*
X4453000Y-12322143D01*
X4481571Y-12322143D01*
X4500619Y-12331667D01*
X4510143Y-12350714D01*
X4510143Y-12455476D01*
X4510143Y-12350714D02*
X4519667Y-12331667D01*
X4538714Y-12322143D01*
X4567286Y-12322143D01*
X4586333Y-12331667D01*
X4595857Y-12350714D01*
X4595857Y-12455476D01*
X4986333Y-12245952D02*
X4814905Y-12503095D01*
X5243476Y-12255476D02*
X5262524Y-12255476D01*
X5281571Y-12265000D01*
X5291095Y-12274524D01*
X5300619Y-12293571D01*
X5310143Y-12331667D01*
X5310143Y-12379286D01*
X5300619Y-12417381D01*
X5291095Y-12436428D01*
X5281571Y-12445952D01*
X5262524Y-12455476D01*
X5243476Y-12455476D01*
X5224429Y-12445952D01*
X5214905Y-12436428D01*
X5205381Y-12417381D01*
X5195857Y-12379286D01*
X5195857Y-12331667D01*
X5205381Y-12293571D01*
X5214905Y-12274524D01*
X5224429Y-12265000D01*
X5243476Y-12255476D01*
X5395857Y-12436428D02*
X5405381Y-12445952D01*
X5395857Y-12455476D01*
X5386333Y-12445952D01*
X5395857Y-12436428D01*
X5395857Y-12455476D01*
X5595857Y-12455476D02*
X5481571Y-12455476D01*
X5538714Y-12455476D02*
X5538714Y-12255476D01*
X5519667Y-12284048D01*
X5500619Y-12303095D01*
X5481571Y-12312619D01*
X5786333Y-12455476D02*
X5672048Y-12455476D01*
X5729190Y-12455476D02*
X5729190Y-12255476D01*
X5710143Y-12284048D01*
X5691095Y-12303095D01*
X5672048Y-12312619D01*
X5900619Y-12341190D02*
X5881571Y-12331667D01*
X5872048Y-12322143D01*
X5862524Y-12303095D01*
X5862524Y-12293571D01*
X5872048Y-12274524D01*
X5881571Y-12265000D01*
X5900619Y-12255476D01*
X5938714Y-12255476D01*
X5957762Y-12265000D01*
X5967286Y-12274524D01*
X5976809Y-12293571D01*
X5976809Y-12303095D01*
X5967286Y-12322143D01*
X5957762Y-12331667D01*
X5938714Y-12341190D01*
X5900619Y-12341190D01*
X5881571Y-12350714D01*
X5872048Y-12360238D01*
X5862524Y-12379286D01*
X5862524Y-12417381D01*
X5872048Y-12436428D01*
X5881571Y-12445952D01*
X5900619Y-12455476D01*
X5938714Y-12455476D01*
X5957762Y-12445952D01*
X5967286Y-12436428D01*
X5976809Y-12417381D01*
X5976809Y-12379286D01*
X5967286Y-12360238D01*
X5957762Y-12350714D01*
X5938714Y-12341190D01*
X6167286Y-12455476D02*
X6053000Y-12455476D01*
X6110143Y-12455476D02*
X6110143Y-12255476D01*
X6091095Y-12284048D01*
X6072048Y-12303095D01*
X6053000Y-12312619D01*
X6243476Y-12255476D02*
X6243476Y-12293571D01*
X6319667Y-12255476D02*
X6319667Y-12293571D01*
X6614905Y-12531667D02*
X6605381Y-12522143D01*
X6586333Y-12493571D01*
X6576809Y-12474524D01*
X6567286Y-12445952D01*
X6557762Y-12398333D01*
X6557762Y-12360238D01*
X6567286Y-12312619D01*
X6576809Y-12284048D01*
X6586333Y-12265000D01*
X6605381Y-12236428D01*
X6614905Y-12226905D01*
X6776809Y-12322143D02*
X6776809Y-12455476D01*
X6729190Y-12245952D02*
X6681571Y-12388809D01*
X6805381Y-12388809D01*
X7033952Y-12455476D02*
X7033952Y-12255476D01*
X7119667Y-12455476D02*
X7119667Y-12350714D01*
X7110143Y-12331667D01*
X7091095Y-12322143D01*
X7062524Y-12322143D01*
X7043476Y-12331667D01*
X7033952Y-12341190D01*
X7243476Y-12455476D02*
X7224428Y-12445952D01*
X7214905Y-12436428D01*
X7205381Y-12417381D01*
X7205381Y-12360238D01*
X7214905Y-12341190D01*
X7224428Y-12331667D01*
X7243476Y-12322143D01*
X7272048Y-12322143D01*
X7291095Y-12331667D01*
X7300619Y-12341190D01*
X7310143Y-12360238D01*
X7310143Y-12417381D01*
X7300619Y-12436428D01*
X7291095Y-12445952D01*
X7272048Y-12455476D01*
X7243476Y-12455476D01*
X7424428Y-12455476D02*
X7405381Y-12445952D01*
X7395857Y-12426905D01*
X7395857Y-12255476D01*
X7576809Y-12445952D02*
X7557762Y-12455476D01*
X7519667Y-12455476D01*
X7500619Y-12445952D01*
X7491095Y-12426905D01*
X7491095Y-12350714D01*
X7500619Y-12331667D01*
X7519667Y-12322143D01*
X7557762Y-12322143D01*
X7576809Y-12331667D01*
X7586333Y-12350714D01*
X7586333Y-12369762D01*
X7491095Y-12388809D01*
X7662524Y-12445952D02*
X7681571Y-12455476D01*
X7719667Y-12455476D01*
X7738714Y-12445952D01*
X7748238Y-12426905D01*
X7748238Y-12417381D01*
X7738714Y-12398333D01*
X7719667Y-12388809D01*
X7691095Y-12388809D01*
X7672048Y-12379286D01*
X7662524Y-12360238D01*
X7662524Y-12350714D01*
X7672048Y-12331667D01*
X7691095Y-12322143D01*
X7719667Y-12322143D01*
X7738714Y-12331667D01*
X7814905Y-12531667D02*
X7824428Y-12522143D01*
X7843476Y-12493571D01*
X7853000Y-12474524D01*
X7862524Y-12445952D01*
X7872048Y-12398333D01*
X7872048Y-12360238D01*
X7862524Y-12312619D01*
X7853000Y-12284048D01*
X7843476Y-12265000D01*
X7824428Y-12236428D01*
X7814905Y-12226905D01*
X2943000Y-12785000D02*
X3043000Y-12685000D01*
X2943000Y-12585000D01*
X2843000Y-12685000D01*
X2943000Y-12785000D01*
X3386333Y-12642143D02*
X3386333Y-12775476D01*
X3338714Y-12565952D02*
X3291095Y-12708809D01*
X3414905Y-12708809D01*
X3491095Y-12756428D02*
X3500619Y-12765952D01*
X3491095Y-12775476D01*
X3481571Y-12765952D01*
X3491095Y-12756428D01*
X3491095Y-12775476D01*
X3624428Y-12575476D02*
X3643476Y-12575476D01*
X3662524Y-12585000D01*
X3672048Y-12594524D01*
X3681571Y-12613571D01*
X3691095Y-12651667D01*
X3691095Y-12699286D01*
X3681571Y-12737381D01*
X3672048Y-12756428D01*
X3662524Y-12765952D01*
X3643476Y-12775476D01*
X3624428Y-12775476D01*
X3605381Y-12765952D01*
X3595857Y-12756428D01*
X3586333Y-12737381D01*
X3576809Y-12699286D01*
X3576809Y-12651667D01*
X3586333Y-12613571D01*
X3595857Y-12594524D01*
X3605381Y-12585000D01*
X3624428Y-12575476D01*
X3814905Y-12575476D02*
X3833952Y-12575476D01*
X3853000Y-12585000D01*
X3862524Y-12594524D01*
X3872048Y-12613571D01*
X3881571Y-12651667D01*
X3881571Y-12699286D01*
X3872048Y-12737381D01*
X3862524Y-12756428D01*
X3853000Y-12765952D01*
X3833952Y-12775476D01*
X3814905Y-12775476D01*
X3795857Y-12765952D01*
X3786333Y-12756428D01*
X3776809Y-12737381D01*
X3767286Y-12699286D01*
X3767286Y-12651667D01*
X3776809Y-12613571D01*
X3786333Y-12594524D01*
X3795857Y-12585000D01*
X3814905Y-12575476D01*
X4005381Y-12575476D02*
X4024428Y-12575476D01*
X4043476Y-12585000D01*
X4053000Y-12594524D01*
X4062524Y-12613571D01*
X4072048Y-12651667D01*
X4072048Y-12699286D01*
X4062524Y-12737381D01*
X4053000Y-12756428D01*
X4043476Y-12765952D01*
X4024428Y-12775476D01*
X4005381Y-12775476D01*
X3986333Y-12765952D01*
X3976809Y-12756428D01*
X3967286Y-12737381D01*
X3957762Y-12699286D01*
X3957762Y-12651667D01*
X3967286Y-12613571D01*
X3976809Y-12594524D01*
X3986333Y-12585000D01*
X4005381Y-12575476D01*
X4157762Y-12775476D02*
X4157762Y-12642143D01*
X4157762Y-12661190D02*
X4167286Y-12651667D01*
X4186333Y-12642143D01*
X4214905Y-12642143D01*
X4233952Y-12651667D01*
X4243476Y-12670714D01*
X4243476Y-12775476D01*
X4243476Y-12670714D02*
X4253000Y-12651667D01*
X4272048Y-12642143D01*
X4300619Y-12642143D01*
X4319667Y-12651667D01*
X4329190Y-12670714D01*
X4329190Y-12775476D01*
X4424429Y-12775476D02*
X4424429Y-12642143D01*
X4424429Y-12661190D02*
X4433952Y-12651667D01*
X4453000Y-12642143D01*
X4481571Y-12642143D01*
X4500619Y-12651667D01*
X4510143Y-12670714D01*
X4510143Y-12775476D01*
X4510143Y-12670714D02*
X4519667Y-12651667D01*
X4538714Y-12642143D01*
X4567286Y-12642143D01*
X4586333Y-12651667D01*
X4595857Y-12670714D01*
X4595857Y-12775476D01*
X4986333Y-12565952D02*
X4814905Y-12823095D01*
X5243476Y-12575476D02*
X5262524Y-12575476D01*
X5281571Y-12585000D01*
X5291095Y-12594524D01*
X5300619Y-12613571D01*
X5310143Y-12651667D01*
X5310143Y-12699286D01*
X5300619Y-12737381D01*
X5291095Y-12756428D01*
X5281571Y-12765952D01*
X5262524Y-12775476D01*
X5243476Y-12775476D01*
X5224429Y-12765952D01*
X5214905Y-12756428D01*
X5205381Y-12737381D01*
X5195857Y-12699286D01*
X5195857Y-12651667D01*
X5205381Y-12613571D01*
X5214905Y-12594524D01*
X5224429Y-12585000D01*
X5243476Y-12575476D01*
X5395857Y-12756428D02*
X5405381Y-12765952D01*
X5395857Y-12775476D01*
X5386333Y-12765952D01*
X5395857Y-12756428D01*
X5395857Y-12775476D01*
X5595857Y-12775476D02*
X5481571Y-12775476D01*
X5538714Y-12775476D02*
X5538714Y-12575476D01*
X5519667Y-12604048D01*
X5500619Y-12623095D01*
X5481571Y-12632619D01*
X5776809Y-12575476D02*
X5681571Y-12575476D01*
X5672048Y-12670714D01*
X5681571Y-12661190D01*
X5700619Y-12651667D01*
X5748238Y-12651667D01*
X5767286Y-12661190D01*
X5776809Y-12670714D01*
X5786333Y-12689762D01*
X5786333Y-12737381D01*
X5776809Y-12756428D01*
X5767286Y-12765952D01*
X5748238Y-12775476D01*
X5700619Y-12775476D01*
X5681571Y-12765952D01*
X5672048Y-12756428D01*
X5853000Y-12575476D02*
X5986333Y-12575476D01*
X5900619Y-12775476D01*
X6157762Y-12575476D02*
X6062524Y-12575476D01*
X6053000Y-12670714D01*
X6062524Y-12661190D01*
X6081571Y-12651667D01*
X6129190Y-12651667D01*
X6148238Y-12661190D01*
X6157762Y-12670714D01*
X6167286Y-12689762D01*
X6167286Y-12737381D01*
X6157762Y-12756428D01*
X6148238Y-12765952D01*
X6129190Y-12775476D01*
X6081571Y-12775476D01*
X6062524Y-12765952D01*
X6053000Y-12756428D01*
X6243476Y-12575476D02*
X6243476Y-12613571D01*
X6319667Y-12575476D02*
X6319667Y-12613571D01*
X6614905Y-12851667D02*
X6605381Y-12842143D01*
X6586333Y-12813571D01*
X6576809Y-12794524D01*
X6567286Y-12765952D01*
X6557762Y-12718333D01*
X6557762Y-12680238D01*
X6567286Y-12632619D01*
X6576809Y-12604048D01*
X6586333Y-12585000D01*
X6605381Y-12556428D01*
X6614905Y-12546905D01*
X6795857Y-12775476D02*
X6681571Y-12775476D01*
X6738714Y-12775476D02*
X6738714Y-12575476D01*
X6719667Y-12604048D01*
X6700619Y-12623095D01*
X6681571Y-12632619D01*
X6872048Y-12594524D02*
X6881571Y-12585000D01*
X6900619Y-12575476D01*
X6948238Y-12575476D01*
X6967286Y-12585000D01*
X6976809Y-12594524D01*
X6986333Y-12613571D01*
X6986333Y-12632619D01*
X6976809Y-12661190D01*
X6862524Y-12775476D01*
X6986333Y-12775476D01*
X7224428Y-12775476D02*
X7224428Y-12575476D01*
X7310143Y-12775476D02*
X7310143Y-12670714D01*
X7300619Y-12651667D01*
X7281571Y-12642143D01*
X7253000Y-12642143D01*
X7233952Y-12651667D01*
X7224428Y-12661190D01*
X7433952Y-12775476D02*
X7414905Y-12765952D01*
X7405381Y-12756428D01*
X7395857Y-12737381D01*
X7395857Y-12680238D01*
X7405381Y-12661190D01*
X7414905Y-12651667D01*
X7433952Y-12642143D01*
X7462524Y-12642143D01*
X7481571Y-12651667D01*
X7491095Y-12661190D01*
X7500619Y-12680238D01*
X7500619Y-12737381D01*
X7491095Y-12756428D01*
X7481571Y-12765952D01*
X7462524Y-12775476D01*
X7433952Y-12775476D01*
X7614905Y-12775476D02*
X7595857Y-12765952D01*
X7586333Y-12746905D01*
X7586333Y-12575476D01*
X7767286Y-12765952D02*
X7748238Y-12775476D01*
X7710143Y-12775476D01*
X7691095Y-12765952D01*
X7681571Y-12746905D01*
X7681571Y-12670714D01*
X7691095Y-12651667D01*
X7710143Y-12642143D01*
X7748238Y-12642143D01*
X7767286Y-12651667D01*
X7776809Y-12670714D01*
X7776809Y-12689762D01*
X7681571Y-12708809D01*
X7853000Y-12765952D02*
X7872048Y-12775476D01*
X7910143Y-12775476D01*
X7929190Y-12765952D01*
X7938714Y-12746905D01*
X7938714Y-12737381D01*
X7929190Y-12718333D01*
X7910143Y-12708809D01*
X7881571Y-12708809D01*
X7862524Y-12699286D01*
X7853000Y-12680238D01*
X7853000Y-12670714D01*
X7862524Y-12651667D01*
X7881571Y-12642143D01*
X7910143Y-12642143D01*
X7929190Y-12651667D01*
X8005381Y-12851667D02*
X8014905Y-12842143D01*
X8033952Y-12813571D01*
X8043476Y-12794524D01*
X8053000Y-12765952D01*
X8062524Y-12718333D01*
X8062524Y-12680238D01*
X8053000Y-12632619D01*
X8043476Y-12604048D01*
X8033952Y-12585000D01*
X8014905Y-12556428D01*
X8005381Y-12546905D01*
M02*
