%FSLAX45Y45*%
G04 Gerber Fmt 4.5, Leading zero omitted, Abs format (unit mm)*
G04 Created by KiCad (PCBNEW (6.0.5)) date 2022-05-30 13:32:22*
%MOMM*%
%LPD*%
G01*
G04 APERTURE LIST*
%TA.AperFunction,Profile*%
%ADD10C,0.050000*%
%TD*%
%TA.AperFunction,Profile*%
%ADD11C,0.100000*%
%TD*%
%ADD12C,0.200000*%
G04 APERTURE END LIST*
D10*
X3302000Y-5080000D02*
G75*
G03*
X3048000Y-5334000I0J-254000D01*
G01*
D11*
X13462000Y-10668000D02*
X13462000Y-5334000D01*
X13462000Y-5334000D02*
G75*
G03*
X13208000Y-5080000I-254000J0D01*
G01*
X3048000Y-10668000D02*
X3048000Y-5334000D01*
X13208000Y-10922000D02*
G75*
G03*
X13462000Y-10668000I0J254000D01*
G01*
X3302000Y-10922000D02*
X13208000Y-10922000D01*
X13208000Y-5080000D02*
X3302000Y-5080000D01*
D12*
X3300619Y-11237476D02*
X3300619Y-11037476D01*
X3348238Y-11037476D01*
X3376809Y-11047000D01*
X3395857Y-11066048D01*
X3405381Y-11085095D01*
X3414905Y-11123190D01*
X3414905Y-11151762D01*
X3405381Y-11189857D01*
X3395857Y-11208905D01*
X3376809Y-11227952D01*
X3348238Y-11237476D01*
X3300619Y-11237476D01*
X3500619Y-11237476D02*
X3500619Y-11104143D01*
X3500619Y-11142238D02*
X3510143Y-11123190D01*
X3519667Y-11113667D01*
X3538714Y-11104143D01*
X3557762Y-11104143D01*
X3624428Y-11237476D02*
X3624428Y-11104143D01*
X3624428Y-11037476D02*
X3614905Y-11047000D01*
X3624428Y-11056524D01*
X3633952Y-11047000D01*
X3624428Y-11037476D01*
X3624428Y-11056524D01*
X3748238Y-11237476D02*
X3729190Y-11227952D01*
X3719667Y-11208905D01*
X3719667Y-11037476D01*
X3853000Y-11237476D02*
X3833952Y-11227952D01*
X3824428Y-11208905D01*
X3824428Y-11037476D01*
X4081571Y-11237476D02*
X4081571Y-11037476D01*
X4148238Y-11180333D01*
X4214905Y-11037476D01*
X4214905Y-11237476D01*
X4395857Y-11237476D02*
X4395857Y-11132714D01*
X4386333Y-11113667D01*
X4367286Y-11104143D01*
X4329190Y-11104143D01*
X4310143Y-11113667D01*
X4395857Y-11227952D02*
X4376810Y-11237476D01*
X4329190Y-11237476D01*
X4310143Y-11227952D01*
X4300619Y-11208905D01*
X4300619Y-11189857D01*
X4310143Y-11170810D01*
X4329190Y-11161286D01*
X4376810Y-11161286D01*
X4395857Y-11151762D01*
X4491095Y-11104143D02*
X4491095Y-11304143D01*
X4491095Y-11113667D02*
X4510143Y-11104143D01*
X4548238Y-11104143D01*
X4567286Y-11113667D01*
X4576810Y-11123190D01*
X4586333Y-11142238D01*
X4586333Y-11199381D01*
X4576810Y-11218428D01*
X4567286Y-11227952D01*
X4548238Y-11237476D01*
X4510143Y-11237476D01*
X4491095Y-11227952D01*
X4672048Y-11218428D02*
X4681571Y-11227952D01*
X4672048Y-11237476D01*
X4662524Y-11227952D01*
X4672048Y-11218428D01*
X4672048Y-11237476D01*
X4672048Y-11113667D02*
X4681571Y-11123190D01*
X4672048Y-11132714D01*
X4662524Y-11123190D01*
X4672048Y-11113667D01*
X4672048Y-11132714D01*
M02*
