M48
; DRILL file {KiCad (6.0.5)} date Mon May 30 13:32:20 2022
; FORMAT={-:-/ absolute / inch / decimal}
; #@! TF.CreationDate,2022-05-30T13:32:20+08:00
; #@! TF.GenerationSoftware,Kicad,Pcbnew,(6.0.5)
; #@! TF.FileFunction,Plated,1,2,PTH
FMAT,2
INCH
; #@! TA.AperFunction,Plated,PTH,ViaDrill
T1C0.0157
; #@! TA.AperFunction,Plated,PTH,ComponentDrill
T2C0.0394
; #@! TA.AperFunction,Plated,PTH,ComponentDrill
T3C0.0591
; #@! TA.AperFunction,Plated,PTH,ViaDrill
T4C0.1181
; #@! TA.AperFunction,Plated,PTH,ViaDrill
T5C0.1575
%
G90
G05
T1
X2.25Y-3.3
X2.7Y-3.25
X3.5Y-3.25
X4.3Y-3.25
X5.1Y-3.25
T2
X1.45Y-3.45
X1.45Y-3.55
X1.45Y-3.65
X1.45Y-3.75
X1.45Y-3.85
X1.45Y-3.95
X1.45Y-4.05
X1.45Y-4.15
X1.45Y-4.25
X1.5488Y-3.051
X1.5488Y-3.451
X1.6Y-3.25
X1.6488Y-3.051
X1.6488Y-3.451
X1.7Y-3.25
X1.7488Y-3.051
X1.7488Y-3.451
X1.8Y-3.25
X1.8488Y-3.051
X1.8488Y-3.451
X1.9Y-3.25
X1.9488Y-3.051
X1.9488Y-3.451
X2.051Y-3.4504
X2.051Y-3.5504
X2.051Y-3.6504
X2.051Y-3.7504
X2.051Y-3.8504
X2.051Y-3.9504
X2.051Y-4.0504
X2.051Y-4.1504
X2.051Y-4.2504
T3
X2.35Y-2.35
X2.35Y-3.15
X2.35Y-3.95
X2.6Y-2.25
X2.6Y-3.05
X2.6Y-3.85
X3.15Y-2.35
X3.15Y-3.15
X3.15Y-3.95
X3.3992Y-3.0496
X3.4Y-2.25
X3.4Y-3.85
X3.9495Y-2.3488
X3.9495Y-3.1492
X3.9495Y-3.9495
X4.2Y-2.25
X4.2Y-3.05
X4.2Y-3.85
X4.7499Y-3.1492
X4.75Y-2.35
X4.75Y-3.95
X5.0Y-2.25
X5.0Y-3.05
X5.0Y-3.85
T4
X1.3Y-2.1
X1.3Y-4.2
X5.2Y-2.1
X5.2Y-4.2
T5
X2.5Y-2.45
X2.5Y-3.25
X2.5Y-4.05
X3.3Y-2.45
X3.3Y-3.25
X3.3Y-4.05
X4.1Y-2.45
X4.1Y-3.25
X4.1Y-4.05
X4.9Y-2.45
X4.9Y-3.25
X4.9Y-4.05
T0
M30
