%FSLAX45Y45*%
G04 Gerber Fmt 4.5, Leading zero omitted, Abs format (unit mm)*
G04 Created by KiCad (PCBNEW (6.0.5)) date 2022-06-04 16:39:08*
%MOMM*%
%LPD*%
G01*
G04 APERTURE LIST*
%TA.AperFunction,Profile*%
%ADD10C,0.100000*%
%TD*%
%TA.AperFunction,Profile*%
%ADD11C,0.050000*%
%TD*%
%ADD12C,0.200000*%
%ADD13C,0.400000*%
G04 APERTURE END LIST*
D10*
X10795000Y-11303000D02*
G75*
G03*
X11049000Y-11049000I0J254000D01*
G01*
D11*
X10153846Y-6534225D02*
X10672006Y-6534225D01*
X10672006Y-6534225D02*
X10672006Y-7055385D01*
X10672006Y-7055385D02*
X10153846Y-7055385D01*
X10153846Y-7055385D02*
X10153846Y-6534225D01*
D10*
X2921000Y-11303000D02*
X10795000Y-11303000D01*
D11*
X6090920Y-8567420D02*
X6609080Y-8567420D01*
X6609080Y-8567420D02*
X6609080Y-9085580D01*
X6609080Y-9085580D02*
X6090920Y-9085580D01*
X6090920Y-9085580D02*
X6090920Y-8567420D01*
X6090319Y-6534225D02*
X6608479Y-6534225D01*
X6608479Y-6534225D02*
X6608479Y-7054385D01*
X6608479Y-7054385D02*
X6090319Y-7054385D01*
X6090319Y-7054385D02*
X6090319Y-6534225D01*
X10153846Y-8565420D02*
X10672006Y-8565420D01*
X10672006Y-8565420D02*
X10672006Y-9085580D01*
X10672006Y-9085580D02*
X10153846Y-9085580D01*
X10153846Y-9085580D02*
X10153846Y-8565420D01*
X8122083Y-8565420D02*
X8640243Y-8565420D01*
X8640243Y-8565420D02*
X8640243Y-9085580D01*
X8640243Y-9085580D02*
X8122083Y-9085580D01*
X8122083Y-9085580D02*
X8122083Y-8565420D01*
X8122920Y-6533500D02*
X8641080Y-6533500D01*
X8641080Y-6533500D02*
X8641080Y-7053660D01*
X8641080Y-7053660D02*
X8122920Y-7053660D01*
X8122920Y-7053660D02*
X8122920Y-6533500D01*
D10*
X2667000Y-11049000D02*
X2667000Y-5715000D01*
X11049000Y-11049000D02*
X11049000Y-5715000D01*
X11049000Y-5715000D02*
G75*
G03*
X10795000Y-5461000I-254000J0D01*
G01*
D11*
X10154920Y-10597420D02*
X10673080Y-10597420D01*
X10673080Y-10597420D02*
X10673080Y-11119580D01*
X10673080Y-11119580D02*
X10154920Y-11119580D01*
X10154920Y-11119580D02*
X10154920Y-10597420D01*
D10*
X10795000Y-5461000D02*
X2921000Y-5461000D01*
D11*
X6090920Y-10598420D02*
X6609080Y-10598420D01*
X6609080Y-10598420D02*
X6609080Y-11117580D01*
X6609080Y-11117580D02*
X6090920Y-11117580D01*
X6090920Y-11117580D02*
X6090920Y-10598420D01*
X2667000Y-11049000D02*
G75*
G03*
X2921000Y-11303000I254000J0D01*
G01*
X8122920Y-10597420D02*
X8641080Y-10597420D01*
X8641080Y-10597420D02*
X8641080Y-11119580D01*
X8641080Y-11119580D02*
X8122920Y-11119580D01*
X8122920Y-11119580D02*
X8122920Y-10597420D01*
X2921000Y-5461000D02*
G75*
G03*
X2667000Y-5715000I0J-254000D01*
G01*
D12*
D13*
X6150000Y-6023000D02*
X6550000Y-6423000D01*
X6550000Y-6023000D02*
X6150000Y-6423000D01*
X6150000Y-8055000D02*
X6550000Y-8455000D01*
X6550000Y-8055000D02*
X6150000Y-8455000D01*
X6150000Y-10087000D02*
X6550000Y-10487000D01*
X6550000Y-10087000D02*
X6150000Y-10487000D01*
X8180078Y-8054039D02*
X8580078Y-8454039D01*
X8580078Y-8054039D02*
X8180078Y-8454039D01*
X8182000Y-6023000D02*
X8582000Y-6423000D01*
X8582000Y-6023000D02*
X8182000Y-6423000D01*
X8182000Y-10087000D02*
X8582000Y-10487000D01*
X8582000Y-10087000D02*
X8182000Y-10487000D01*
X10214000Y-6023000D02*
X10614000Y-6423000D01*
X10614000Y-6023000D02*
X10214000Y-6423000D01*
X10214000Y-8055000D02*
X10614000Y-8455000D01*
X10614000Y-8055000D02*
X10214000Y-8455000D01*
X10214000Y-10087000D02*
X10614000Y-10487000D01*
X10614000Y-10087000D02*
X10214000Y-10487000D01*
D12*
X2919619Y-11618476D02*
X2919619Y-11418476D01*
X2967238Y-11418476D01*
X2995809Y-11428000D01*
X3014857Y-11447048D01*
X3024381Y-11466095D01*
X3033905Y-11504190D01*
X3033905Y-11532762D01*
X3024381Y-11570857D01*
X3014857Y-11589905D01*
X2995809Y-11608952D01*
X2967238Y-11618476D01*
X2919619Y-11618476D01*
X3119619Y-11618476D02*
X3119619Y-11485143D01*
X3119619Y-11523238D02*
X3129143Y-11504190D01*
X3138667Y-11494667D01*
X3157714Y-11485143D01*
X3176762Y-11485143D01*
X3243428Y-11618476D02*
X3243428Y-11485143D01*
X3243428Y-11418476D02*
X3233905Y-11428000D01*
X3243428Y-11437524D01*
X3252952Y-11428000D01*
X3243428Y-11418476D01*
X3243428Y-11437524D01*
X3367238Y-11618476D02*
X3348190Y-11608952D01*
X3338667Y-11589905D01*
X3338667Y-11418476D01*
X3472000Y-11618476D02*
X3452952Y-11608952D01*
X3443428Y-11589905D01*
X3443428Y-11418476D01*
X3700571Y-11618476D02*
X3700571Y-11418476D01*
X3767238Y-11561333D01*
X3833905Y-11418476D01*
X3833905Y-11618476D01*
X4014857Y-11618476D02*
X4014857Y-11513714D01*
X4005333Y-11494667D01*
X3986286Y-11485143D01*
X3948190Y-11485143D01*
X3929143Y-11494667D01*
X4014857Y-11608952D02*
X3995809Y-11618476D01*
X3948190Y-11618476D01*
X3929143Y-11608952D01*
X3919619Y-11589905D01*
X3919619Y-11570857D01*
X3929143Y-11551809D01*
X3948190Y-11542286D01*
X3995809Y-11542286D01*
X4014857Y-11532762D01*
X4110095Y-11485143D02*
X4110095Y-11685143D01*
X4110095Y-11494667D02*
X4129143Y-11485143D01*
X4167238Y-11485143D01*
X4186286Y-11494667D01*
X4195810Y-11504190D01*
X4205333Y-11523238D01*
X4205333Y-11580381D01*
X4195810Y-11599428D01*
X4186286Y-11608952D01*
X4167238Y-11618476D01*
X4129143Y-11618476D01*
X4110095Y-11608952D01*
X4291048Y-11599428D02*
X4300571Y-11608952D01*
X4291048Y-11618476D01*
X4281524Y-11608952D01*
X4291048Y-11599428D01*
X4291048Y-11618476D01*
X4291048Y-11494667D02*
X4300571Y-11504190D01*
X4291048Y-11513714D01*
X4281524Y-11504190D01*
X4291048Y-11494667D01*
X4291048Y-11513714D01*
X2462000Y-11848000D02*
X2662000Y-12048000D01*
X2662000Y-11848000D02*
X2462000Y-12048000D01*
X3005333Y-11905143D02*
X3005333Y-12038476D01*
X2957714Y-11828952D02*
X2910095Y-11971809D01*
X3033905Y-11971809D01*
X3110095Y-12019428D02*
X3119619Y-12028952D01*
X3110095Y-12038476D01*
X3100571Y-12028952D01*
X3110095Y-12019428D01*
X3110095Y-12038476D01*
X3243428Y-11838476D02*
X3262476Y-11838476D01*
X3281524Y-11848000D01*
X3291048Y-11857524D01*
X3300571Y-11876571D01*
X3310095Y-11914667D01*
X3310095Y-11962286D01*
X3300571Y-12000381D01*
X3291048Y-12019428D01*
X3281524Y-12028952D01*
X3262476Y-12038476D01*
X3243428Y-12038476D01*
X3224381Y-12028952D01*
X3214857Y-12019428D01*
X3205333Y-12000381D01*
X3195809Y-11962286D01*
X3195809Y-11914667D01*
X3205333Y-11876571D01*
X3214857Y-11857524D01*
X3224381Y-11848000D01*
X3243428Y-11838476D01*
X3433905Y-11838476D02*
X3452952Y-11838476D01*
X3472000Y-11848000D01*
X3481524Y-11857524D01*
X3491048Y-11876571D01*
X3500571Y-11914667D01*
X3500571Y-11962286D01*
X3491048Y-12000381D01*
X3481524Y-12019428D01*
X3472000Y-12028952D01*
X3452952Y-12038476D01*
X3433905Y-12038476D01*
X3414857Y-12028952D01*
X3405333Y-12019428D01*
X3395809Y-12000381D01*
X3386286Y-11962286D01*
X3386286Y-11914667D01*
X3395809Y-11876571D01*
X3405333Y-11857524D01*
X3414857Y-11848000D01*
X3433905Y-11838476D01*
X3624381Y-11838476D02*
X3643428Y-11838476D01*
X3662476Y-11848000D01*
X3672000Y-11857524D01*
X3681524Y-11876571D01*
X3691048Y-11914667D01*
X3691048Y-11962286D01*
X3681524Y-12000381D01*
X3672000Y-12019428D01*
X3662476Y-12028952D01*
X3643428Y-12038476D01*
X3624381Y-12038476D01*
X3605333Y-12028952D01*
X3595809Y-12019428D01*
X3586286Y-12000381D01*
X3576762Y-11962286D01*
X3576762Y-11914667D01*
X3586286Y-11876571D01*
X3595809Y-11857524D01*
X3605333Y-11848000D01*
X3624381Y-11838476D01*
X3776762Y-12038476D02*
X3776762Y-11905143D01*
X3776762Y-11924190D02*
X3786286Y-11914667D01*
X3805333Y-11905143D01*
X3833905Y-11905143D01*
X3852952Y-11914667D01*
X3862476Y-11933714D01*
X3862476Y-12038476D01*
X3862476Y-11933714D02*
X3872000Y-11914667D01*
X3891048Y-11905143D01*
X3919619Y-11905143D01*
X3938667Y-11914667D01*
X3948190Y-11933714D01*
X3948190Y-12038476D01*
X4043428Y-12038476D02*
X4043428Y-11905143D01*
X4043428Y-11924190D02*
X4052952Y-11914667D01*
X4072000Y-11905143D01*
X4100571Y-11905143D01*
X4119619Y-11914667D01*
X4129143Y-11933714D01*
X4129143Y-12038476D01*
X4129143Y-11933714D02*
X4138667Y-11914667D01*
X4157714Y-11905143D01*
X4186286Y-11905143D01*
X4205333Y-11914667D01*
X4214857Y-11933714D01*
X4214857Y-12038476D01*
X4605333Y-11828952D02*
X4433905Y-12086095D01*
X4862476Y-11838476D02*
X4881524Y-11838476D01*
X4900571Y-11848000D01*
X4910095Y-11857524D01*
X4919619Y-11876571D01*
X4929143Y-11914667D01*
X4929143Y-11962286D01*
X4919619Y-12000381D01*
X4910095Y-12019428D01*
X4900571Y-12028952D01*
X4881524Y-12038476D01*
X4862476Y-12038476D01*
X4843429Y-12028952D01*
X4833905Y-12019428D01*
X4824381Y-12000381D01*
X4814857Y-11962286D01*
X4814857Y-11914667D01*
X4824381Y-11876571D01*
X4833905Y-11857524D01*
X4843429Y-11848000D01*
X4862476Y-11838476D01*
X5014857Y-12019428D02*
X5024381Y-12028952D01*
X5014857Y-12038476D01*
X5005333Y-12028952D01*
X5014857Y-12019428D01*
X5014857Y-12038476D01*
X5214857Y-12038476D02*
X5100571Y-12038476D01*
X5157714Y-12038476D02*
X5157714Y-11838476D01*
X5138667Y-11867048D01*
X5119619Y-11886095D01*
X5100571Y-11895619D01*
X5395810Y-11838476D02*
X5300571Y-11838476D01*
X5291048Y-11933714D01*
X5300571Y-11924190D01*
X5319619Y-11914667D01*
X5367238Y-11914667D01*
X5386286Y-11924190D01*
X5395810Y-11933714D01*
X5405333Y-11952762D01*
X5405333Y-12000381D01*
X5395810Y-12019428D01*
X5386286Y-12028952D01*
X5367238Y-12038476D01*
X5319619Y-12038476D01*
X5300571Y-12028952D01*
X5291048Y-12019428D01*
X5472000Y-11838476D02*
X5605333Y-11838476D01*
X5519619Y-12038476D01*
X5776762Y-11838476D02*
X5681524Y-11838476D01*
X5672000Y-11933714D01*
X5681524Y-11924190D01*
X5700571Y-11914667D01*
X5748190Y-11914667D01*
X5767238Y-11924190D01*
X5776762Y-11933714D01*
X5786286Y-11952762D01*
X5786286Y-12000381D01*
X5776762Y-12019428D01*
X5767238Y-12028952D01*
X5748190Y-12038476D01*
X5700571Y-12038476D01*
X5681524Y-12028952D01*
X5672000Y-12019428D01*
X5862476Y-11838476D02*
X5862476Y-11876571D01*
X5938667Y-11838476D02*
X5938667Y-11876571D01*
X6233905Y-12114667D02*
X6224381Y-12105143D01*
X6205333Y-12076571D01*
X6195809Y-12057524D01*
X6186286Y-12028952D01*
X6176762Y-11981333D01*
X6176762Y-11943238D01*
X6186286Y-11895619D01*
X6195809Y-11867048D01*
X6205333Y-11848000D01*
X6224381Y-11819428D01*
X6233905Y-11809905D01*
X6319619Y-12038476D02*
X6357714Y-12038476D01*
X6376762Y-12028952D01*
X6386286Y-12019428D01*
X6405333Y-11990857D01*
X6414857Y-11952762D01*
X6414857Y-11876571D01*
X6405333Y-11857524D01*
X6395809Y-11848000D01*
X6376762Y-11838476D01*
X6338667Y-11838476D01*
X6319619Y-11848000D01*
X6310095Y-11857524D01*
X6300571Y-11876571D01*
X6300571Y-11924190D01*
X6310095Y-11943238D01*
X6319619Y-11952762D01*
X6338667Y-11962286D01*
X6376762Y-11962286D01*
X6395809Y-11952762D01*
X6405333Y-11943238D01*
X6414857Y-11924190D01*
X6652952Y-12038476D02*
X6652952Y-11838476D01*
X6738667Y-12038476D02*
X6738667Y-11933714D01*
X6729143Y-11914667D01*
X6710095Y-11905143D01*
X6681524Y-11905143D01*
X6662476Y-11914667D01*
X6652952Y-11924190D01*
X6862476Y-12038476D02*
X6843428Y-12028952D01*
X6833905Y-12019428D01*
X6824381Y-12000381D01*
X6824381Y-11943238D01*
X6833905Y-11924190D01*
X6843428Y-11914667D01*
X6862476Y-11905143D01*
X6891048Y-11905143D01*
X6910095Y-11914667D01*
X6919619Y-11924190D01*
X6929143Y-11943238D01*
X6929143Y-12000381D01*
X6919619Y-12019428D01*
X6910095Y-12028952D01*
X6891048Y-12038476D01*
X6862476Y-12038476D01*
X7043428Y-12038476D02*
X7024381Y-12028952D01*
X7014857Y-12009905D01*
X7014857Y-11838476D01*
X7195809Y-12028952D02*
X7176762Y-12038476D01*
X7138667Y-12038476D01*
X7119619Y-12028952D01*
X7110095Y-12009905D01*
X7110095Y-11933714D01*
X7119619Y-11914667D01*
X7138667Y-11905143D01*
X7176762Y-11905143D01*
X7195809Y-11914667D01*
X7205333Y-11933714D01*
X7205333Y-11952762D01*
X7110095Y-11971809D01*
X7281524Y-12028952D02*
X7300571Y-12038476D01*
X7338667Y-12038476D01*
X7357714Y-12028952D01*
X7367238Y-12009905D01*
X7367238Y-12000381D01*
X7357714Y-11981333D01*
X7338667Y-11971809D01*
X7310095Y-11971809D01*
X7291048Y-11962286D01*
X7281524Y-11943238D01*
X7281524Y-11933714D01*
X7291048Y-11914667D01*
X7310095Y-11905143D01*
X7338667Y-11905143D01*
X7357714Y-11914667D01*
X7433905Y-12114667D02*
X7443428Y-12105143D01*
X7462476Y-12076571D01*
X7472000Y-12057524D01*
X7481524Y-12028952D01*
X7491048Y-11981333D01*
X7491048Y-11943238D01*
X7481524Y-11895619D01*
X7472000Y-11867048D01*
X7462476Y-11848000D01*
X7443428Y-11819428D01*
X7433905Y-11809905D01*
X7795809Y-12114667D02*
X7786286Y-12105143D01*
X7767238Y-12076571D01*
X7757714Y-12057524D01*
X7748190Y-12028952D01*
X7738667Y-11981333D01*
X7738667Y-11943238D01*
X7748190Y-11895619D01*
X7757714Y-11867048D01*
X7767238Y-11848000D01*
X7786286Y-11819428D01*
X7795809Y-11809905D01*
X7872000Y-11905143D02*
X7872000Y-12038476D01*
X7872000Y-11924190D02*
X7881524Y-11914667D01*
X7900571Y-11905143D01*
X7929143Y-11905143D01*
X7948190Y-11914667D01*
X7957714Y-11933714D01*
X7957714Y-12038476D01*
X8081524Y-12038476D02*
X8062476Y-12028952D01*
X8052952Y-12019428D01*
X8043428Y-12000381D01*
X8043428Y-11943238D01*
X8052952Y-11924190D01*
X8062476Y-11914667D01*
X8081524Y-11905143D01*
X8110095Y-11905143D01*
X8129143Y-11914667D01*
X8138667Y-11924190D01*
X8148190Y-11943238D01*
X8148190Y-12000381D01*
X8138667Y-12019428D01*
X8129143Y-12028952D01*
X8110095Y-12038476D01*
X8081524Y-12038476D01*
X8205333Y-11905143D02*
X8281524Y-11905143D01*
X8233905Y-11838476D02*
X8233905Y-12009905D01*
X8243428Y-12028952D01*
X8262476Y-12038476D01*
X8281524Y-12038476D01*
X8500571Y-11905143D02*
X8500571Y-12105143D01*
X8500571Y-11914667D02*
X8519619Y-11905143D01*
X8557714Y-11905143D01*
X8576762Y-11914667D01*
X8586286Y-11924190D01*
X8595810Y-11943238D01*
X8595810Y-12000381D01*
X8586286Y-12019428D01*
X8576762Y-12028952D01*
X8557714Y-12038476D01*
X8519619Y-12038476D01*
X8500571Y-12028952D01*
X8710095Y-12038476D02*
X8691048Y-12028952D01*
X8681524Y-12009905D01*
X8681524Y-11838476D01*
X8872000Y-12038476D02*
X8872000Y-11933714D01*
X8862476Y-11914667D01*
X8843429Y-11905143D01*
X8805333Y-11905143D01*
X8786286Y-11914667D01*
X8872000Y-12028952D02*
X8852952Y-12038476D01*
X8805333Y-12038476D01*
X8786286Y-12028952D01*
X8776762Y-12009905D01*
X8776762Y-11990857D01*
X8786286Y-11971809D01*
X8805333Y-11962286D01*
X8852952Y-11962286D01*
X8872000Y-11952762D01*
X8938667Y-11905143D02*
X9014857Y-11905143D01*
X8967238Y-11838476D02*
X8967238Y-12009905D01*
X8976762Y-12028952D01*
X8995810Y-12038476D01*
X9014857Y-12038476D01*
X9157714Y-12028952D02*
X9138667Y-12038476D01*
X9100571Y-12038476D01*
X9081524Y-12028952D01*
X9072000Y-12009905D01*
X9072000Y-11933714D01*
X9081524Y-11914667D01*
X9100571Y-11905143D01*
X9138667Y-11905143D01*
X9157714Y-11914667D01*
X9167238Y-11933714D01*
X9167238Y-11952762D01*
X9072000Y-11971809D01*
X9338667Y-12038476D02*
X9338667Y-11838476D01*
X9338667Y-12028952D02*
X9319619Y-12038476D01*
X9281524Y-12038476D01*
X9262476Y-12028952D01*
X9252952Y-12019428D01*
X9243429Y-12000381D01*
X9243429Y-11943238D01*
X9252952Y-11924190D01*
X9262476Y-11914667D01*
X9281524Y-11905143D01*
X9319619Y-11905143D01*
X9338667Y-11914667D01*
X9414857Y-12114667D02*
X9424381Y-12105143D01*
X9443429Y-12076571D01*
X9452952Y-12057524D01*
X9462476Y-12028952D01*
X9472000Y-11981333D01*
X9472000Y-11943238D01*
X9462476Y-11895619D01*
X9452952Y-11867048D01*
X9443429Y-11848000D01*
X9424381Y-11819428D01*
X9414857Y-11809905D01*
M02*
