%TF.GenerationSoftware,KiCad,Pcbnew,(6.0.5)*%
%TF.CreationDate,2022-06-04T16:39:10+08:00*%
%TF.ProjectId,keyboard_V3,6b657962-6f61-4726-945f-56332e6b6963,rev?*%
%TF.SameCoordinates,Original*%
%TF.FileFunction,Copper,L2,Bot*%
%TF.FilePolarity,Positive*%
%FSLAX46Y46*%
G04 Gerber Fmt 4.6, Leading zero omitted, Abs format (unit mm)*
G04 Created by KiCad (PCBNEW (6.0.5)) date 2022-06-04 16:39:10*
%MOMM*%
%LPD*%
G01*
G04 APERTURE LIST*
%TA.AperFunction,Profile*%
%ADD10C,0.100000*%
%TD*%
%TA.AperFunction,Profile*%
%ADD11C,0.050000*%
%TD*%
%TA.AperFunction,ComponentPad*%
%ADD12C,2.200000*%
%TD*%
%TA.AperFunction,ComponentPad*%
%ADD13R,1.700000X1.700000*%
%TD*%
%TA.AperFunction,ComponentPad*%
%ADD14O,1.700000X1.700000*%
%TD*%
%TA.AperFunction,SMDPad,CuDef*%
%ADD15R,1.500000X1.000000*%
%TD*%
%TA.AperFunction,ViaPad*%
%ADD16C,0.800000*%
%TD*%
%TA.AperFunction,ViaPad*%
%ADD17C,3.100000*%
%TD*%
%TA.AperFunction,Conductor*%
%ADD18C,0.304800*%
%TD*%
G04 APERTURE END LIST*
D10*
X107950000Y-113030000D02*
G75*
G03*
X110490000Y-110490000I0J2540000D01*
G01*
D11*
X101538462Y-65342253D02*
X106720062Y-65342253D01*
X106720062Y-65342253D02*
X106720062Y-70553853D01*
X106720062Y-70553853D02*
X101538462Y-70553853D01*
X101538462Y-70553853D02*
X101538462Y-65342253D01*
D10*
X29210000Y-113030000D02*
X107950000Y-113030000D01*
D11*
X60909200Y-85674200D02*
X66090800Y-85674200D01*
X66090800Y-85674200D02*
X66090800Y-90855800D01*
X66090800Y-90855800D02*
X60909200Y-90855800D01*
X60909200Y-90855800D02*
X60909200Y-85674200D01*
X60903194Y-65342253D02*
X66084794Y-65342253D01*
X66084794Y-65342253D02*
X66084794Y-70543853D01*
X66084794Y-70543853D02*
X60903194Y-70543853D01*
X60903194Y-70543853D02*
X60903194Y-65342253D01*
X101538462Y-85654200D02*
X106720062Y-85654200D01*
X106720062Y-85654200D02*
X106720062Y-90855800D01*
X106720062Y-90855800D02*
X101538462Y-90855800D01*
X101538462Y-90855800D02*
X101538462Y-85654200D01*
X81220828Y-85654200D02*
X86402428Y-85654200D01*
X86402428Y-85654200D02*
X86402428Y-90855800D01*
X86402428Y-90855800D02*
X81220828Y-90855800D01*
X81220828Y-90855800D02*
X81220828Y-85654200D01*
X81229200Y-65335000D02*
X86410800Y-65335000D01*
X86410800Y-65335000D02*
X86410800Y-70536600D01*
X86410800Y-70536600D02*
X81229200Y-70536600D01*
X81229200Y-70536600D02*
X81229200Y-65335000D01*
D10*
X26670000Y-110490000D02*
X26670000Y-57150000D01*
X110490000Y-110490000D02*
X110490000Y-57150000D01*
X110490000Y-57150000D02*
G75*
G03*
X107950000Y-54610000I-2540000J0D01*
G01*
D11*
X101549200Y-105974200D02*
X106730800Y-105974200D01*
X106730800Y-105974200D02*
X106730800Y-111195800D01*
X106730800Y-111195800D02*
X101549200Y-111195800D01*
X101549200Y-111195800D02*
X101549200Y-105974200D01*
D10*
X107950000Y-54610000D02*
X29210000Y-54610000D01*
D11*
X60909200Y-105984200D02*
X66090800Y-105984200D01*
X66090800Y-105984200D02*
X66090800Y-111175800D01*
X66090800Y-111175800D02*
X60909200Y-111175800D01*
X60909200Y-111175800D02*
X60909200Y-105984200D01*
X26670000Y-110490000D02*
G75*
G03*
X29210000Y-113030000I2540000J0D01*
G01*
X81229200Y-105974200D02*
X86410800Y-105974200D01*
X86410800Y-105974200D02*
X86410800Y-111195800D01*
X86410800Y-111195800D02*
X81229200Y-111195800D01*
X81229200Y-111195800D02*
X81229200Y-105974200D01*
X29210000Y-54610000D02*
G75*
G03*
X26670000Y-57150000I0J-2540000D01*
G01*
D12*
%TO.P,REF\u002A\u002A,2*%
%TO.N,N/C*%
X59690000Y-59690000D03*
%TO.P,REF\u002A\u002A,1*%
X66040000Y-57150000D03*
%TD*%
%TO.P,REF\u002A\u002A,1*%
%TO.N,N/C*%
X106680000Y-97790000D03*
%TO.P,REF\u002A\u002A,2*%
X100330000Y-100330000D03*
%TD*%
%TO.P,REF\u002A\u002A,1*%
%TO.N,N/C*%
X86360000Y-97790000D03*
%TO.P,REF\u002A\u002A,2*%
X80010000Y-100330000D03*
%TD*%
D13*
%TO.P,REF\u002A\u002A,1*%
%TO.N,N/C*%
X46990000Y-91440000D03*
D14*
%TO.P,REF\u002A\u002A,2*%
X46990000Y-93980000D03*
%TO.P,REF\u002A\u002A,3*%
X46990000Y-96520000D03*
%TO.P,REF\u002A\u002A,4*%
X46990000Y-99060000D03*
%TO.P,REF\u002A\u002A,5*%
X46990000Y-101600000D03*
%TO.P,REF\u002A\u002A,6*%
X46990000Y-104140000D03*
%TO.P,REF\u002A\u002A,7*%
X46990000Y-106680000D03*
%TO.P,REF\u002A\u002A,8*%
X46990000Y-109220000D03*
%TO.P,REF\u002A\u002A,9*%
X46990000Y-111760000D03*
%TD*%
D12*
%TO.P,REF\u002A\u002A,1*%
%TO.N,N/C*%
X86360000Y-57150000D03*
%TO.P,REF\u002A\u002A,2*%
X80010000Y-59690000D03*
%TD*%
%TO.P,REF\u002A\u002A,1*%
%TO.N,N/C*%
X106680000Y-77470000D03*
%TO.P,REF\u002A\u002A,2*%
X100330000Y-80010000D03*
%TD*%
D13*
%TO.P,REF\u002A\u002A,1*%
%TO.N,N/C*%
X31750000Y-91440000D03*
D14*
%TO.P,REF\u002A\u002A,2*%
X31750000Y-93980000D03*
%TO.P,REF\u002A\u002A,3*%
X31750000Y-96520000D03*
%TO.P,REF\u002A\u002A,4*%
X31750000Y-99060000D03*
%TO.P,REF\u002A\u002A,5*%
X31750000Y-101600000D03*
%TO.P,REF\u002A\u002A,6*%
X31750000Y-104140000D03*
%TO.P,REF\u002A\u002A,7*%
X31750000Y-106680000D03*
%TO.P,REF\u002A\u002A,8*%
X31750000Y-109220000D03*
%TO.P,REF\u002A\u002A,9*%
X31750000Y-111760000D03*
%TD*%
D12*
%TO.P,REF\u002A\u002A,1*%
%TO.N,N/C*%
X86340782Y-77460391D03*
%TO.P,REF\u002A\u002A,2*%
X79990782Y-80000391D03*
%TD*%
%TO.P,REF\u002A\u002A,1*%
%TO.N,N/C*%
X66040000Y-97790000D03*
%TO.P,REF\u002A\u002A,2*%
X59690000Y-100330000D03*
%TD*%
%TO.P,REF\u002A\u002A,1*%
%TO.N,N/C*%
X66040000Y-77470000D03*
%TO.P,REF\u002A\u002A,2*%
X59690000Y-80010000D03*
%TD*%
%TO.P,REF\u002A\u002A,1*%
%TO.N,N/C*%
X106680000Y-57150000D03*
%TO.P,REF\u002A\u002A,2*%
X100330000Y-59690000D03*
%TD*%
D13*
%TO.P,REF\u002A\u002A,1*%
%TO.N,N/C*%
X44450000Y-91440000D03*
D14*
%TO.P,REF\u002A\u002A,2*%
X41910000Y-91440000D03*
%TO.P,REF\u002A\u002A,3*%
X39370000Y-91440000D03*
%TO.P,REF\u002A\u002A,4*%
X36830000Y-91440000D03*
%TO.P,REF\u002A\u002A,5*%
X34290000Y-91440000D03*
%TD*%
D13*
%TO.P,REF\u002A\u002A,1*%
%TO.N,N/C*%
X43170000Y-83947000D03*
D14*
%TO.P,REF\u002A\u002A,2*%
X40630000Y-83947000D03*
%TO.P,REF\u002A\u002A,3*%
X38090000Y-83947000D03*
%TO.P,REF\u002A\u002A,4*%
X35550000Y-83947000D03*
%TD*%
D13*
%TO.P,REF\u002A\u002A,1*%
%TO.N,N/C*%
X44577000Y-77470000D03*
D14*
%TO.P,REF\u002A\u002A,2*%
X42037000Y-77470000D03*
%TO.P,REF\u002A\u002A,3*%
X39497000Y-77470000D03*
%TO.P,REF\u002A\u002A,4*%
X36957000Y-77470000D03*
%TO.P,REF\u002A\u002A,5*%
X34417000Y-77470000D03*
%TD*%
D15*
%TO.P,REF\u002A\u002A,1*%
%TO.N,N/C*%
X81370000Y-110185000D03*
%TO.P,REF\u002A\u002A,2*%
X81370000Y-106985000D03*
%TO.P,REF\u002A\u002A,3*%
X86270000Y-106985000D03*
%TO.P,REF\u002A\u002A,4*%
X86270000Y-110185000D03*
%TD*%
%TO.P,REF\u002A\u002A,1*%
%TO.N,N/C*%
X101690000Y-69545000D03*
%TO.P,REF\u002A\u002A,2*%
X101690000Y-66345000D03*
%TO.P,REF\u002A\u002A,3*%
X106590000Y-66345000D03*
%TO.P,REF\u002A\u002A,4*%
X106590000Y-69545000D03*
%TD*%
%TO.P,REF\u002A\u002A,1*%
%TO.N,N/C*%
X101690000Y-110185000D03*
%TO.P,REF\u002A\u002A,2*%
X101690000Y-106985000D03*
%TO.P,REF\u002A\u002A,3*%
X106590000Y-106985000D03*
%TO.P,REF\u002A\u002A,4*%
X106590000Y-110185000D03*
%TD*%
%TO.P,REF\u002A\u002A,1*%
%TO.N,N/C*%
X81370000Y-69545000D03*
%TO.P,REF\u002A\u002A,2*%
X81370000Y-66345000D03*
%TO.P,REF\u002A\u002A,3*%
X86270000Y-66345000D03*
%TO.P,REF\u002A\u002A,4*%
X86270000Y-69545000D03*
%TD*%
%TO.P,REF\u002A\u002A,1*%
%TO.N,N/C*%
X61050000Y-69545000D03*
%TO.P,REF\u002A\u002A,2*%
X61050000Y-66345000D03*
%TO.P,REF\u002A\u002A,3*%
X65950000Y-66345000D03*
%TO.P,REF\u002A\u002A,4*%
X65950000Y-69545000D03*
%TD*%
%TO.P,REF\u002A\u002A,1*%
%TO.N,N/C*%
X61050000Y-110185000D03*
%TO.P,REF\u002A\u002A,2*%
X61050000Y-106985000D03*
%TO.P,REF\u002A\u002A,3*%
X65950000Y-106985000D03*
%TO.P,REF\u002A\u002A,4*%
X65950000Y-110185000D03*
%TD*%
%TO.P,REF\u002A\u002A,1*%
%TO.N,N/C*%
X81360668Y-89857220D03*
%TO.P,REF\u002A\u002A,2*%
X81360668Y-86657220D03*
%TO.P,REF\u002A\u002A,3*%
X86260668Y-86657220D03*
%TO.P,REF\u002A\u002A,4*%
X86260668Y-89857220D03*
%TD*%
%TO.P,REF\u002A\u002A,1*%
%TO.N,N/C*%
X101684229Y-89857220D03*
%TO.P,REF\u002A\u002A,2*%
X101684229Y-86657220D03*
%TO.P,REF\u002A\u002A,3*%
X106584229Y-86657220D03*
%TO.P,REF\u002A\u002A,4*%
X106584229Y-89857220D03*
%TD*%
%TO.P,REF\u002A\u002A,1*%
%TO.N,N/C*%
X61050000Y-89865000D03*
%TO.P,REF\u002A\u002A,2*%
X61050000Y-86665000D03*
%TO.P,REF\u002A\u002A,3*%
X65950000Y-86665000D03*
%TO.P,REF\u002A\u002A,4*%
X65950000Y-89865000D03*
%TD*%
D16*
%TO.N,*%
X54610000Y-82550000D03*
X69443600Y-71958200D03*
X58293000Y-103149400D03*
X98501200Y-73304400D03*
X28575000Y-73660000D03*
D17*
X39370000Y-110490000D03*
D16*
X73660000Y-97790000D03*
X68859400Y-111810800D03*
X80213200Y-71120000D03*
X75768200Y-85979000D03*
X93929200Y-69621400D03*
X73660000Y-82550000D03*
X108432600Y-90703400D03*
X58420000Y-90170000D03*
X78765400Y-90246200D03*
X50749200Y-87020400D03*
X107213400Y-63804800D03*
D17*
X93980000Y-92710000D03*
D16*
X57759600Y-88112600D03*
D17*
X33020000Y-57150000D03*
D16*
X109220000Y-82550000D03*
X88163400Y-89941400D03*
X107797600Y-88061800D03*
X109677200Y-92608400D03*
X106553000Y-72313800D03*
X55880000Y-81280000D03*
X88900000Y-82550000D03*
X77571600Y-71094600D03*
X89992200Y-72415400D03*
X99060000Y-90601800D03*
X88036400Y-63855600D03*
X74930000Y-74930000D03*
X42519600Y-87020400D03*
X72390000Y-74930000D03*
X104546400Y-93370400D03*
X53340000Y-81280000D03*
X28575000Y-97155000D03*
X57150000Y-83820000D03*
D17*
X93980000Y-72390000D03*
D16*
X78003400Y-85902800D03*
%TD*%
D18*
%TO.N,*%
X53340000Y-99060000D02*
X53340000Y-97790000D01*
X58293000Y-108254800D02*
X58293000Y-103149400D01*
X68249800Y-71094600D02*
X77571600Y-71094600D01*
X100295498Y-80010000D02*
X100316608Y-79988890D01*
X86572720Y-66370200D02*
X86572720Y-66345000D01*
X38989000Y-81026000D02*
X40630000Y-82667000D01*
X52070000Y-85090000D02*
X49276000Y-85090000D01*
X105410000Y-74930000D02*
X74930000Y-74930000D01*
X48260000Y-83820000D02*
X41910000Y-90170000D01*
X76200000Y-80010000D02*
X100295498Y-80010000D01*
X57607200Y-70967600D02*
X57607200Y-70002400D01*
X30480000Y-96520000D02*
X31750000Y-96520000D01*
X73990200Y-89916000D02*
X66252720Y-89916000D01*
X38090000Y-85481000D02*
X34290000Y-89281000D01*
X99771200Y-89890600D02*
X101376542Y-89890600D01*
X71069200Y-107010200D02*
X66252720Y-107010200D01*
X99060000Y-90601800D02*
X99771200Y-89890600D01*
X79730600Y-72415400D02*
X78638400Y-71323200D01*
X106881982Y-65939618D02*
X106881982Y-66345000D01*
X46990000Y-101600000D02*
X53340000Y-101600000D01*
X108762800Y-96443800D02*
X108762800Y-105841800D01*
X88163400Y-89941400D02*
X86564348Y-89941400D01*
X67233600Y-110185000D02*
X66252720Y-110185000D01*
X107213400Y-65608200D02*
X106881982Y-65939618D01*
X74244000Y-110185000D02*
X71069200Y-107010200D01*
X87071200Y-66370200D02*
X88036400Y-65405000D01*
X46990000Y-93980000D02*
X53340000Y-93980000D01*
X100584000Y-69697600D02*
X98501200Y-71780400D01*
X38090000Y-83947000D02*
X38090000Y-85481000D01*
X32385000Y-74930000D02*
X29845000Y-77470000D01*
X101376542Y-89890600D02*
X101376542Y-89857220D01*
X55880000Y-91440000D02*
X87630000Y-91440000D01*
X88061800Y-86156800D02*
X88061800Y-85572600D01*
X46990000Y-99060000D02*
X53340000Y-99060000D01*
X53340000Y-96520000D02*
X57150000Y-92710000D01*
X89306400Y-69621400D02*
X86572720Y-69621400D01*
X71120000Y-80010000D02*
X76200000Y-80010000D01*
X39497000Y-77470000D02*
X39497000Y-75692000D01*
X30480000Y-71755000D02*
X28575000Y-73660000D01*
X28575000Y-97155000D02*
X30480000Y-99060000D01*
X101387280Y-110185000D02*
X93979800Y-110185000D01*
X53340000Y-93980000D02*
X55880000Y-91440000D01*
X58420000Y-95250000D02*
X83820000Y-95250000D01*
X90170000Y-93980000D02*
X57150000Y-93980000D01*
X73660000Y-77470000D02*
X73660000Y-60960000D01*
X109677200Y-100228400D02*
X109677200Y-92608400D01*
X55870000Y-100340000D02*
X58420000Y-97790000D01*
X60747280Y-89966800D02*
X60747280Y-89865000D01*
X93929200Y-69621400D02*
X89306400Y-69621400D01*
X96500000Y-90170000D02*
X99050000Y-92720000D01*
X79070200Y-89941400D02*
X81058908Y-89941400D01*
X106121200Y-93802200D02*
X108762800Y-96443800D01*
X107569000Y-107035600D02*
X107518400Y-106985000D01*
X53340000Y-97790000D02*
X57150000Y-93980000D01*
X71450200Y-86614000D02*
X66252720Y-86614000D01*
X88239600Y-71120000D02*
X80213200Y-71120000D01*
X29845000Y-77470000D02*
X29845000Y-93345000D01*
X86564348Y-89941400D02*
X86564348Y-89857220D01*
X58420000Y-97790000D02*
X66040000Y-97790000D01*
X40005000Y-80010000D02*
X38989000Y-81026000D01*
X97790000Y-93980000D02*
X96520000Y-95250000D01*
X89992200Y-72415400D02*
X79730600Y-72415400D01*
X93979800Y-110185000D02*
X90728800Y-106934000D01*
X42037000Y-77470000D02*
X42037000Y-74422000D01*
X104546400Y-93370400D02*
X104978200Y-93802200D01*
X41910000Y-90170000D02*
X41910000Y-91440000D01*
X88468200Y-111810800D02*
X108077000Y-111810800D01*
X107950000Y-72390000D02*
X105410000Y-74930000D01*
X106680000Y-57150000D02*
X107950000Y-58420000D01*
X108762800Y-105841800D02*
X107569000Y-107035600D01*
X58420000Y-74930000D02*
X55880000Y-77470000D01*
X35550000Y-83947000D02*
X35550000Y-85608000D01*
X72085200Y-85979000D02*
X75768200Y-85979000D01*
X109220000Y-91440000D02*
X107950000Y-92710000D01*
X42494200Y-86995000D02*
X38100000Y-86995000D01*
X55870000Y-101610000D02*
X55870000Y-100340000D01*
X108077000Y-111810800D02*
X109194600Y-110693200D01*
X102870000Y-93980000D02*
X106680000Y-97790000D01*
X86572720Y-106934000D02*
X86572720Y-106985000D01*
X107383620Y-86657220D02*
X106881982Y-86657220D01*
X76200000Y-80010000D02*
X73660000Y-77470000D01*
X78638400Y-70510400D02*
X79603800Y-69545000D01*
X50800000Y-83820000D02*
X48260000Y-83820000D01*
X59690000Y-80010000D02*
X71120000Y-80010000D01*
X66252720Y-107010200D02*
X66252720Y-106985000D01*
X109677200Y-100228400D02*
X109677200Y-99974400D01*
X58597800Y-71958200D02*
X57607200Y-70967600D01*
X53340000Y-104140000D02*
X55870000Y-101610000D01*
X88925400Y-69621400D02*
X88925400Y-70434200D01*
X107950000Y-59690000D02*
X107950000Y-72390000D01*
X31115000Y-73660000D02*
X28575000Y-76200000D01*
X46990000Y-106680000D02*
X53340000Y-106680000D01*
X86572720Y-69621400D02*
X86572720Y-69545000D01*
X30480000Y-99060000D02*
X31750000Y-99060000D01*
X36830000Y-88265000D02*
X36830000Y-91440000D01*
X108432600Y-87706200D02*
X107607100Y-86880700D01*
X59639200Y-89966800D02*
X60747280Y-89966800D01*
X53340000Y-81280000D02*
X50800000Y-83820000D01*
X28575000Y-76200000D02*
X28575000Y-94615000D01*
X53340000Y-80010000D02*
X40005000Y-80010000D01*
X108432600Y-90703400D02*
X108432600Y-87706200D01*
X36957000Y-78994000D02*
X38989000Y-81026000D01*
X42545000Y-71755000D02*
X30480000Y-71755000D01*
X109194600Y-110693200D02*
X109194600Y-110159800D01*
X40630000Y-82667000D02*
X40630000Y-83947000D01*
X100584000Y-69697600D02*
X101376542Y-69697600D01*
X87071200Y-66370200D02*
X86572720Y-66370200D01*
X38735000Y-74930000D02*
X32385000Y-74930000D01*
X104978200Y-93802200D02*
X106121200Y-93802200D01*
X107950000Y-92710000D02*
X99060000Y-92710000D01*
X109194600Y-110159800D02*
X109194600Y-106756200D01*
X98501200Y-71780400D02*
X98501200Y-73304400D01*
X107213400Y-63804800D02*
X107213400Y-65608200D01*
X71221600Y-111810800D02*
X68859400Y-111810800D01*
X88900000Y-90170000D02*
X88900000Y-82550000D01*
X78638400Y-71323200D02*
X78638400Y-70510400D01*
X42037000Y-74422000D02*
X41275000Y-73660000D01*
X68859400Y-111810800D02*
X67233600Y-110185000D01*
X49276000Y-85090000D02*
X44450000Y-89916000D01*
X89306400Y-69621400D02*
X88925400Y-69621400D01*
X34290000Y-89281000D02*
X34290000Y-91440000D01*
X96520000Y-95250000D02*
X91440000Y-95250000D01*
X90728800Y-106934000D02*
X86572720Y-106934000D01*
X59690000Y-59690000D02*
X100285889Y-59690000D01*
X42519600Y-87020400D02*
X42494200Y-86995000D01*
X66246714Y-69570600D02*
X66246714Y-69545000D01*
X54610000Y-82550000D02*
X52070000Y-85090000D01*
X57607200Y-70002400D02*
X58064600Y-69545000D01*
X88468200Y-111810800D02*
X86842400Y-110185000D01*
X78765400Y-90246200D02*
X79070200Y-89941400D01*
X66725800Y-69570600D02*
X66246714Y-69570600D01*
X59690000Y-84988400D02*
X58978800Y-85699600D01*
X86842400Y-110185000D02*
X86572720Y-110185000D01*
X91440000Y-90170000D02*
X96500000Y-90170000D01*
X54610000Y-99060000D02*
X58420000Y-95250000D01*
X39497000Y-75692000D02*
X38735000Y-74930000D01*
X91440000Y-95250000D02*
X90170000Y-93980000D01*
X86564348Y-86657220D02*
X87561380Y-86657220D01*
X88925400Y-70434200D02*
X88239600Y-71120000D01*
X87071200Y-66370200D02*
X87045800Y-66395600D01*
X35550000Y-85608000D02*
X31750000Y-89408000D01*
X81067280Y-110185000D02*
X74244000Y-110185000D01*
X87477600Y-84988400D02*
X59690000Y-84988400D01*
X58978800Y-85699600D02*
X58978800Y-89306400D01*
X55880000Y-90170000D02*
X58420000Y-90170000D01*
X44577000Y-73787000D02*
X42545000Y-71755000D01*
X88061800Y-85572600D02*
X87477600Y-84988400D01*
X58978800Y-89306400D02*
X59639200Y-89966800D01*
X106881982Y-89890600D02*
X106881982Y-89857220D01*
X87045800Y-66395600D02*
X87020400Y-66395600D01*
X36957000Y-77470000D02*
X36957000Y-78994000D01*
X109194600Y-110159800D02*
X106892720Y-110159800D01*
X46990000Y-96520000D02*
X53340000Y-96520000D01*
X107365800Y-69519800D02*
X106881982Y-69519800D01*
X72390000Y-74930000D02*
X58420000Y-74930000D01*
X71526400Y-86537800D02*
X72085200Y-85979000D01*
X107365800Y-69519800D02*
X107365800Y-71501000D01*
X57150000Y-92710000D02*
X88900000Y-92710000D01*
X46990000Y-104140000D02*
X53340000Y-104140000D01*
X29845000Y-93345000D02*
X30480000Y-93980000D01*
X73660000Y-60960000D02*
X72390000Y-59690000D01*
X102870000Y-93980000D02*
X97790000Y-93980000D01*
X101376542Y-69697600D02*
X101376542Y-69545000D01*
X100285889Y-59690000D02*
X100316608Y-59659281D01*
X46990000Y-91440000D02*
X54610000Y-91440000D01*
X54610000Y-100330000D02*
X54610000Y-99060000D01*
X71526400Y-86537800D02*
X71450200Y-86614000D01*
X53340000Y-106680000D02*
X59690000Y-100330000D01*
X60747280Y-110236000D02*
X60747280Y-110185000D01*
X107797600Y-89611200D02*
X107518200Y-89890600D01*
X106892720Y-110159800D02*
X106892720Y-110185000D01*
X38100000Y-86995000D02*
X36830000Y-88265000D01*
X88900000Y-92710000D02*
X91440000Y-90170000D01*
X69443600Y-71958200D02*
X58597800Y-71958200D01*
X81058908Y-89941400D02*
X81058908Y-89857220D01*
X44450000Y-89916000D02*
X44450000Y-91440000D01*
X60274200Y-110236000D02*
X60747280Y-110236000D01*
X41275000Y-73660000D02*
X31115000Y-73660000D01*
X109220000Y-82550000D02*
X109220000Y-91440000D01*
X28575000Y-94615000D02*
X30480000Y-96520000D01*
X107950000Y-58420000D02*
X107950000Y-59690000D01*
X107365800Y-71501000D02*
X106553000Y-72313800D01*
X109651800Y-106299000D02*
X109677200Y-106273600D01*
X107518200Y-89890600D02*
X106881982Y-89890600D01*
X73660000Y-82550000D02*
X71120000Y-80010000D01*
X106881982Y-69519800D02*
X106881982Y-69545000D01*
X66252720Y-89916000D02*
X66252720Y-89865000D01*
X66252720Y-86614000D02*
X66252720Y-86665000D01*
X100305107Y-100330000D02*
X100316608Y-100318499D01*
X73660000Y-97790000D02*
X73660000Y-100330000D01*
X54610000Y-91440000D02*
X55880000Y-90170000D01*
X66725800Y-69570600D02*
X68249800Y-71094600D01*
X109677200Y-106273600D02*
X109677200Y-100228400D01*
X31750000Y-89408000D02*
X31750000Y-91440000D01*
X87561380Y-86657220D02*
X88061800Y-86156800D01*
X58064600Y-69545000D02*
X60741274Y-69545000D01*
X107518400Y-106985000D02*
X106892720Y-106985000D01*
X56667400Y-87020400D02*
X50749200Y-87020400D01*
X78003400Y-85902800D02*
X73990200Y-89916000D01*
X71221600Y-111810800D02*
X88468200Y-111810800D01*
X109194600Y-106756200D02*
X109651800Y-106299000D01*
X59690000Y-100330000D02*
X100305107Y-100330000D01*
X57150000Y-83820000D02*
X53340000Y-80010000D01*
X57759600Y-88112600D02*
X56667400Y-87020400D01*
X107607100Y-86880700D02*
X107383620Y-86657220D01*
X107797600Y-88061800D02*
X107797600Y-89611200D01*
X53340000Y-101600000D02*
X54610000Y-100330000D01*
X88036400Y-65405000D02*
X88036400Y-63855600D01*
X60274200Y-110236000D02*
X58293000Y-108254800D01*
X55880000Y-77470000D02*
X55880000Y-81280000D01*
X83820000Y-95250000D02*
X86360000Y-97790000D01*
X87630000Y-91440000D02*
X88900000Y-90170000D01*
X79603800Y-69545000D02*
X81067280Y-69545000D01*
X30480000Y-93980000D02*
X31750000Y-93980000D01*
X44577000Y-77470000D02*
X44577000Y-73787000D01*
%TD*%
M02*
