%FSLAX45Y45*%
G04 Gerber Fmt 4.5, Leading zero omitted, Abs format (unit mm)*
G04 Created by KiCad (PCBNEW (6.0.5)) date 2022-06-04 16:39:07*
%MOMM*%
%LPD*%
G01*
G04 APERTURE LIST*
%TA.AperFunction,Profile*%
%ADD10C,0.100000*%
%TD*%
%TA.AperFunction,Profile*%
%ADD11C,0.050000*%
%TD*%
%ADD12C,0.200000*%
%ADD13C,0.040000*%
%ADD14C,0.100000*%
%ADD15C,0.150000*%
%ADD16C,0.300000*%
G04 APERTURE END LIST*
D10*
X10795000Y-11303000D02*
G75*
G03*
X11049000Y-11049000I0J254000D01*
G01*
D11*
X10153846Y-6534225D02*
X10672006Y-6534225D01*
X10672006Y-6534225D02*
X10672006Y-7055385D01*
X10672006Y-7055385D02*
X10153846Y-7055385D01*
X10153846Y-7055385D02*
X10153846Y-6534225D01*
D10*
X2921000Y-11303000D02*
X10795000Y-11303000D01*
D11*
X6090920Y-8567420D02*
X6609080Y-8567420D01*
X6609080Y-8567420D02*
X6609080Y-9085580D01*
X6609080Y-9085580D02*
X6090920Y-9085580D01*
X6090920Y-9085580D02*
X6090920Y-8567420D01*
X6090319Y-6534225D02*
X6608479Y-6534225D01*
X6608479Y-6534225D02*
X6608479Y-7054385D01*
X6608479Y-7054385D02*
X6090319Y-7054385D01*
X6090319Y-7054385D02*
X6090319Y-6534225D01*
X10153846Y-8565420D02*
X10672006Y-8565420D01*
X10672006Y-8565420D02*
X10672006Y-9085580D01*
X10672006Y-9085580D02*
X10153846Y-9085580D01*
X10153846Y-9085580D02*
X10153846Y-8565420D01*
X8122083Y-8565420D02*
X8640243Y-8565420D01*
X8640243Y-8565420D02*
X8640243Y-9085580D01*
X8640243Y-9085580D02*
X8122083Y-9085580D01*
X8122083Y-9085580D02*
X8122083Y-8565420D01*
X8122920Y-6533500D02*
X8641080Y-6533500D01*
X8641080Y-6533500D02*
X8641080Y-7053660D01*
X8641080Y-7053660D02*
X8122920Y-7053660D01*
X8122920Y-7053660D02*
X8122920Y-6533500D01*
D10*
X2667000Y-11049000D02*
X2667000Y-5715000D01*
X11049000Y-11049000D02*
X11049000Y-5715000D01*
X11049000Y-5715000D02*
G75*
G03*
X10795000Y-5461000I-254000J0D01*
G01*
D11*
X10154920Y-10597420D02*
X10673080Y-10597420D01*
X10673080Y-10597420D02*
X10673080Y-11119580D01*
X10673080Y-11119580D02*
X10154920Y-11119580D01*
X10154920Y-11119580D02*
X10154920Y-10597420D01*
D10*
X10795000Y-5461000D02*
X2921000Y-5461000D01*
D11*
X6090920Y-10598420D02*
X6609080Y-10598420D01*
X6609080Y-10598420D02*
X6609080Y-11117580D01*
X6609080Y-11117580D02*
X6090920Y-11117580D01*
X6090920Y-11117580D02*
X6090920Y-10598420D01*
X2667000Y-11049000D02*
G75*
G03*
X2921000Y-11303000I254000J0D01*
G01*
X8122920Y-10597420D02*
X8641080Y-10597420D01*
X8641080Y-10597420D02*
X8641080Y-11119580D01*
X8641080Y-11119580D02*
X8122920Y-11119580D01*
X8122920Y-11119580D02*
X8122920Y-10597420D01*
X2921000Y-5461000D02*
G75*
G03*
X2667000Y-5715000I0J-254000D01*
G01*
D12*
D13*
X2837500Y-7346000D02*
X2877500Y-7386000D01*
X2877500Y-7346000D02*
X2837500Y-7386000D01*
X2837500Y-9695500D02*
X2877500Y-9735500D01*
X2877500Y-9695500D02*
X2837500Y-9735500D01*
X4231960Y-8682040D02*
X4271960Y-8722040D01*
X4271960Y-8682040D02*
X4231960Y-8722040D01*
X5054920Y-8682040D02*
X5094920Y-8722040D01*
X5094920Y-8682040D02*
X5054920Y-8722040D01*
X5314000Y-8108000D02*
X5354000Y-8148000D01*
X5354000Y-8108000D02*
X5314000Y-8148000D01*
X5441000Y-8235000D02*
X5481000Y-8275000D01*
X5481000Y-8235000D02*
X5441000Y-8275000D01*
X5568000Y-8108000D02*
X5608000Y-8148000D01*
X5608000Y-8108000D02*
X5568000Y-8148000D01*
X5695000Y-8362000D02*
X5735000Y-8402000D01*
X5735000Y-8362000D02*
X5695000Y-8402000D01*
X5755960Y-8791260D02*
X5795960Y-8831260D01*
X5795960Y-8791260D02*
X5755960Y-8831260D01*
X5809300Y-10294940D02*
X5849300Y-10334940D01*
X5849300Y-10294940D02*
X5809300Y-10334940D01*
X5822000Y-8997000D02*
X5862000Y-9037000D01*
X5862000Y-8997000D02*
X5822000Y-9037000D01*
X6865940Y-11161080D02*
X6905940Y-11201080D01*
X6905940Y-11161080D02*
X6865940Y-11201080D01*
X6924360Y-7175820D02*
X6964360Y-7215820D01*
X6964360Y-7175820D02*
X6924360Y-7215820D01*
X7219000Y-7473000D02*
X7259000Y-7513000D01*
X7259000Y-7473000D02*
X7219000Y-7513000D01*
X7346000Y-8235000D02*
X7386000Y-8275000D01*
X7386000Y-8235000D02*
X7346000Y-8275000D01*
X7346000Y-9759000D02*
X7386000Y-9799000D01*
X7386000Y-9759000D02*
X7346000Y-9799000D01*
X7473000Y-7473000D02*
X7513000Y-7513000D01*
X7513000Y-7473000D02*
X7473000Y-7513000D01*
X7556820Y-8577900D02*
X7596820Y-8617900D01*
X7596820Y-8577900D02*
X7556820Y-8617900D01*
X7737160Y-7089460D02*
X7777160Y-7129460D01*
X7777160Y-7089460D02*
X7737160Y-7129460D01*
X7780340Y-8570280D02*
X7820340Y-8610280D01*
X7820340Y-8570280D02*
X7780340Y-8610280D01*
X7856540Y-9004620D02*
X7896540Y-9044620D01*
X7896540Y-9004620D02*
X7856540Y-9044620D01*
X8001320Y-7092000D02*
X8041320Y-7132000D01*
X8041320Y-7092000D02*
X8001320Y-7132000D01*
X8783640Y-6365560D02*
X8823640Y-6405560D01*
X8823640Y-6365560D02*
X8783640Y-6405560D01*
X8796340Y-8974140D02*
X8836340Y-9014140D01*
X8836340Y-8974140D02*
X8796340Y-9014140D01*
X8870000Y-8235000D02*
X8910000Y-8275000D01*
X8910000Y-8235000D02*
X8870000Y-8275000D01*
X8979220Y-7221540D02*
X9019220Y-7261540D01*
X9019220Y-7221540D02*
X8979220Y-7261540D01*
X9372920Y-6942140D02*
X9412920Y-6982140D01*
X9412920Y-6942140D02*
X9372920Y-6982140D01*
X9830120Y-7310440D02*
X9870120Y-7350440D01*
X9870120Y-7310440D02*
X9830120Y-7350440D01*
X9886000Y-9040180D02*
X9926000Y-9080180D01*
X9926000Y-9040180D02*
X9886000Y-9080180D01*
X10434640Y-9317040D02*
X10474640Y-9357040D01*
X10474640Y-9317040D02*
X10434640Y-9357040D01*
X10635300Y-7211380D02*
X10675300Y-7251380D01*
X10675300Y-7211380D02*
X10635300Y-7251380D01*
X10701340Y-6360480D02*
X10741340Y-6400480D01*
X10741340Y-6360480D02*
X10701340Y-6400480D01*
X10759760Y-8786180D02*
X10799760Y-8826180D01*
X10799760Y-8786180D02*
X10759760Y-8826180D01*
X10823260Y-9050340D02*
X10863260Y-9090340D01*
X10863260Y-9050340D02*
X10823260Y-9090340D01*
X10902000Y-8235000D02*
X10942000Y-8275000D01*
X10942000Y-8235000D02*
X10902000Y-8275000D01*
X10947720Y-9240840D02*
X10987720Y-9280840D01*
X10987720Y-9240840D02*
X10947720Y-9280840D01*
D14*
X3225000Y-9144000D02*
G75*
G03*
X3225000Y-9144000I-50000J0D01*
G01*
X3225000Y-9398000D02*
G75*
G03*
X3225000Y-9398000I-50000J0D01*
G01*
X3225000Y-9652000D02*
G75*
G03*
X3225000Y-9652000I-50000J0D01*
G01*
X3225000Y-9906000D02*
G75*
G03*
X3225000Y-9906000I-50000J0D01*
G01*
X3225000Y-10160000D02*
G75*
G03*
X3225000Y-10160000I-50000J0D01*
G01*
X3225000Y-10414000D02*
G75*
G03*
X3225000Y-10414000I-50000J0D01*
G01*
X3225000Y-10668000D02*
G75*
G03*
X3225000Y-10668000I-50000J0D01*
G01*
X3225000Y-10922000D02*
G75*
G03*
X3225000Y-10922000I-50000J0D01*
G01*
X3225000Y-11176000D02*
G75*
G03*
X3225000Y-11176000I-50000J0D01*
G01*
X3479000Y-9144000D02*
G75*
G03*
X3479000Y-9144000I-50000J0D01*
G01*
X3491700Y-7747000D02*
G75*
G03*
X3491700Y-7747000I-50000J0D01*
G01*
X3605000Y-8394700D02*
G75*
G03*
X3605000Y-8394700I-50000J0D01*
G01*
X3733000Y-9144000D02*
G75*
G03*
X3733000Y-9144000I-50000J0D01*
G01*
X3745700Y-7747000D02*
G75*
G03*
X3745700Y-7747000I-50000J0D01*
G01*
X3859000Y-8394700D02*
G75*
G03*
X3859000Y-8394700I-50000J0D01*
G01*
X3987000Y-9144000D02*
G75*
G03*
X3987000Y-9144000I-50000J0D01*
G01*
X3999700Y-7747000D02*
G75*
G03*
X3999700Y-7747000I-50000J0D01*
G01*
X4113000Y-8394700D02*
G75*
G03*
X4113000Y-8394700I-50000J0D01*
G01*
X4241000Y-9144000D02*
G75*
G03*
X4241000Y-9144000I-50000J0D01*
G01*
X4253700Y-7747000D02*
G75*
G03*
X4253700Y-7747000I-50000J0D01*
G01*
X4367000Y-8394700D02*
G75*
G03*
X4367000Y-8394700I-50000J0D01*
G01*
X4495000Y-9144000D02*
G75*
G03*
X4495000Y-9144000I-50000J0D01*
G01*
X4507700Y-7747000D02*
G75*
G03*
X4507700Y-7747000I-50000J0D01*
G01*
X4749000Y-9144000D02*
G75*
G03*
X4749000Y-9144000I-50000J0D01*
G01*
X4749000Y-9398000D02*
G75*
G03*
X4749000Y-9398000I-50000J0D01*
G01*
X4749000Y-9652000D02*
G75*
G03*
X4749000Y-9652000I-50000J0D01*
G01*
X4749000Y-9906000D02*
G75*
G03*
X4749000Y-9906000I-50000J0D01*
G01*
X4749000Y-10160000D02*
G75*
G03*
X4749000Y-10160000I-50000J0D01*
G01*
X4749000Y-10414000D02*
G75*
G03*
X4749000Y-10414000I-50000J0D01*
G01*
X4749000Y-10668000D02*
G75*
G03*
X4749000Y-10668000I-50000J0D01*
G01*
X4749000Y-10922000D02*
G75*
G03*
X4749000Y-10922000I-50000J0D01*
G01*
X4749000Y-11176000D02*
G75*
G03*
X4749000Y-11176000I-50000J0D01*
G01*
D15*
X5969000Y-5894000D02*
X5969000Y-6044000D01*
X5894000Y-5969000D02*
X6044000Y-5969000D01*
X5969000Y-7926000D02*
X5969000Y-8076000D01*
X5894000Y-8001000D02*
X6044000Y-8001000D01*
X5969000Y-9958000D02*
X5969000Y-10108000D01*
X5894000Y-10033000D02*
X6044000Y-10033000D01*
X6604000Y-5640000D02*
X6604000Y-5790000D01*
X6529000Y-5715000D02*
X6679000Y-5715000D01*
X6604000Y-7672000D02*
X6604000Y-7822000D01*
X6529000Y-7747000D02*
X6679000Y-7747000D01*
X6604000Y-9704000D02*
X6604000Y-9854000D01*
X6529000Y-9779000D02*
X6679000Y-9779000D01*
X7999078Y-7925039D02*
X7999078Y-8075039D01*
X7924078Y-8000039D02*
X8074078Y-8000039D01*
X8001000Y-5894000D02*
X8001000Y-6044000D01*
X7926000Y-5969000D02*
X8076000Y-5969000D01*
X8001000Y-9958000D02*
X8001000Y-10108000D01*
X7926000Y-10033000D02*
X8076000Y-10033000D01*
X8634078Y-7671039D02*
X8634078Y-7821039D01*
X8559078Y-7746039D02*
X8709078Y-7746039D01*
X8636000Y-5640000D02*
X8636000Y-5790000D01*
X8561000Y-5715000D02*
X8711000Y-5715000D01*
X8636000Y-9704000D02*
X8636000Y-9854000D01*
X8561000Y-9779000D02*
X8711000Y-9779000D01*
X10033000Y-5894000D02*
X10033000Y-6044000D01*
X9958000Y-5969000D02*
X10108000Y-5969000D01*
X10033000Y-7926000D02*
X10033000Y-8076000D01*
X9958000Y-8001000D02*
X10108000Y-8001000D01*
X10033000Y-9958000D02*
X10033000Y-10108000D01*
X9958000Y-10033000D02*
X10108000Y-10033000D01*
X10668000Y-5640000D02*
X10668000Y-5790000D01*
X10593000Y-5715000D02*
X10743000Y-5715000D01*
X10668000Y-7672000D02*
X10668000Y-7822000D01*
X10593000Y-7747000D02*
X10743000Y-7747000D01*
X10668000Y-9704000D02*
X10668000Y-9854000D01*
X10593000Y-9779000D02*
X10743000Y-9779000D01*
D16*
X3408067Y-5821067D02*
X3408067Y-5608933D01*
X3195933Y-5608933D01*
X3195933Y-5821067D01*
X3408067Y-5821067D01*
X4043067Y-11155067D02*
X4043067Y-10942933D01*
X3830933Y-10942933D01*
X3830933Y-11155067D01*
X4043067Y-11155067D01*
X9504067Y-7345067D02*
X9504067Y-7132933D01*
X9291933Y-7132933D01*
X9291933Y-7345067D01*
X9504067Y-7345067D01*
X9504067Y-9377067D02*
X9504067Y-9164933D01*
X9291933Y-9164933D01*
X9291933Y-9377067D01*
X9504067Y-9377067D01*
D12*
X2919619Y-11618476D02*
X2919619Y-11418476D01*
X2967238Y-11418476D01*
X2995809Y-11428000D01*
X3014857Y-11447048D01*
X3024381Y-11466095D01*
X3033905Y-11504190D01*
X3033905Y-11532762D01*
X3024381Y-11570857D01*
X3014857Y-11589905D01*
X2995809Y-11608952D01*
X2967238Y-11618476D01*
X2919619Y-11618476D01*
X3119619Y-11618476D02*
X3119619Y-11485143D01*
X3119619Y-11523238D02*
X3129143Y-11504190D01*
X3138667Y-11494667D01*
X3157714Y-11485143D01*
X3176762Y-11485143D01*
X3243428Y-11618476D02*
X3243428Y-11485143D01*
X3243428Y-11418476D02*
X3233905Y-11428000D01*
X3243428Y-11437524D01*
X3252952Y-11428000D01*
X3243428Y-11418476D01*
X3243428Y-11437524D01*
X3367238Y-11618476D02*
X3348190Y-11608952D01*
X3338667Y-11589905D01*
X3338667Y-11418476D01*
X3472000Y-11618476D02*
X3452952Y-11608952D01*
X3443428Y-11589905D01*
X3443428Y-11418476D01*
X3700571Y-11618476D02*
X3700571Y-11418476D01*
X3767238Y-11561333D01*
X3833905Y-11418476D01*
X3833905Y-11618476D01*
X4014857Y-11618476D02*
X4014857Y-11513714D01*
X4005333Y-11494667D01*
X3986286Y-11485143D01*
X3948190Y-11485143D01*
X3929143Y-11494667D01*
X4014857Y-11608952D02*
X3995809Y-11618476D01*
X3948190Y-11618476D01*
X3929143Y-11608952D01*
X3919619Y-11589905D01*
X3919619Y-11570857D01*
X3929143Y-11551809D01*
X3948190Y-11542286D01*
X3995809Y-11542286D01*
X4014857Y-11532762D01*
X4110095Y-11485143D02*
X4110095Y-11685143D01*
X4110095Y-11494667D02*
X4129143Y-11485143D01*
X4167238Y-11485143D01*
X4186286Y-11494667D01*
X4195810Y-11504190D01*
X4205333Y-11523238D01*
X4205333Y-11580381D01*
X4195810Y-11599428D01*
X4186286Y-11608952D01*
X4167238Y-11618476D01*
X4129143Y-11618476D01*
X4110095Y-11608952D01*
X4291048Y-11599428D02*
X4300571Y-11608952D01*
X4291048Y-11618476D01*
X4281524Y-11608952D01*
X4291048Y-11599428D01*
X4291048Y-11618476D01*
X4291048Y-11494667D02*
X4300571Y-11504190D01*
X4291048Y-11513714D01*
X4281524Y-11504190D01*
X4291048Y-11494667D01*
X4291048Y-11513714D01*
D13*
X2622000Y-11928000D02*
X2662000Y-11968000D01*
X2662000Y-11928000D02*
X2622000Y-11968000D01*
D12*
X2957714Y-11838476D02*
X2976762Y-11838476D01*
X2995809Y-11848000D01*
X3005333Y-11857524D01*
X3014857Y-11876571D01*
X3024381Y-11914667D01*
X3024381Y-11962286D01*
X3014857Y-12000381D01*
X3005333Y-12019428D01*
X2995809Y-12028952D01*
X2976762Y-12038476D01*
X2957714Y-12038476D01*
X2938667Y-12028952D01*
X2929143Y-12019428D01*
X2919619Y-12000381D01*
X2910095Y-11962286D01*
X2910095Y-11914667D01*
X2919619Y-11876571D01*
X2929143Y-11857524D01*
X2938667Y-11848000D01*
X2957714Y-11838476D01*
X3110095Y-12019428D02*
X3119619Y-12028952D01*
X3110095Y-12038476D01*
X3100571Y-12028952D01*
X3110095Y-12019428D01*
X3110095Y-12038476D01*
X3291048Y-11905143D02*
X3291048Y-12038476D01*
X3243428Y-11828952D02*
X3195809Y-11971809D01*
X3319619Y-11971809D01*
X3433905Y-11838476D02*
X3452952Y-11838476D01*
X3472000Y-11848000D01*
X3481524Y-11857524D01*
X3491048Y-11876571D01*
X3500571Y-11914667D01*
X3500571Y-11962286D01*
X3491048Y-12000381D01*
X3481524Y-12019428D01*
X3472000Y-12028952D01*
X3452952Y-12038476D01*
X3433905Y-12038476D01*
X3414857Y-12028952D01*
X3405333Y-12019428D01*
X3395809Y-12000381D01*
X3386286Y-11962286D01*
X3386286Y-11914667D01*
X3395809Y-11876571D01*
X3405333Y-11857524D01*
X3414857Y-11848000D01*
X3433905Y-11838476D01*
X3624381Y-11838476D02*
X3643428Y-11838476D01*
X3662476Y-11848000D01*
X3672000Y-11857524D01*
X3681524Y-11876571D01*
X3691048Y-11914667D01*
X3691048Y-11962286D01*
X3681524Y-12000381D01*
X3672000Y-12019428D01*
X3662476Y-12028952D01*
X3643428Y-12038476D01*
X3624381Y-12038476D01*
X3605333Y-12028952D01*
X3595809Y-12019428D01*
X3586286Y-12000381D01*
X3576762Y-11962286D01*
X3576762Y-11914667D01*
X3586286Y-11876571D01*
X3595809Y-11857524D01*
X3605333Y-11848000D01*
X3624381Y-11838476D01*
X3776762Y-12038476D02*
X3776762Y-11905143D01*
X3776762Y-11924190D02*
X3786286Y-11914667D01*
X3805333Y-11905143D01*
X3833905Y-11905143D01*
X3852952Y-11914667D01*
X3862476Y-11933714D01*
X3862476Y-12038476D01*
X3862476Y-11933714D02*
X3872000Y-11914667D01*
X3891048Y-11905143D01*
X3919619Y-11905143D01*
X3938667Y-11914667D01*
X3948190Y-11933714D01*
X3948190Y-12038476D01*
X4043428Y-12038476D02*
X4043428Y-11905143D01*
X4043428Y-11924190D02*
X4052952Y-11914667D01*
X4072000Y-11905143D01*
X4100571Y-11905143D01*
X4119619Y-11914667D01*
X4129143Y-11933714D01*
X4129143Y-12038476D01*
X4129143Y-11933714D02*
X4138667Y-11914667D01*
X4157714Y-11905143D01*
X4186286Y-11905143D01*
X4205333Y-11914667D01*
X4214857Y-11933714D01*
X4214857Y-12038476D01*
X4605333Y-11828952D02*
X4433905Y-12086095D01*
X4862476Y-11838476D02*
X4881524Y-11838476D01*
X4900571Y-11848000D01*
X4910095Y-11857524D01*
X4919619Y-11876571D01*
X4929143Y-11914667D01*
X4929143Y-11962286D01*
X4919619Y-12000381D01*
X4910095Y-12019428D01*
X4900571Y-12028952D01*
X4881524Y-12038476D01*
X4862476Y-12038476D01*
X4843429Y-12028952D01*
X4833905Y-12019428D01*
X4824381Y-12000381D01*
X4814857Y-11962286D01*
X4814857Y-11914667D01*
X4824381Y-11876571D01*
X4833905Y-11857524D01*
X4843429Y-11848000D01*
X4862476Y-11838476D01*
X5014857Y-12019428D02*
X5024381Y-12028952D01*
X5014857Y-12038476D01*
X5005333Y-12028952D01*
X5014857Y-12019428D01*
X5014857Y-12038476D01*
X5148190Y-11838476D02*
X5167238Y-11838476D01*
X5186286Y-11848000D01*
X5195810Y-11857524D01*
X5205333Y-11876571D01*
X5214857Y-11914667D01*
X5214857Y-11962286D01*
X5205333Y-12000381D01*
X5195810Y-12019428D01*
X5186286Y-12028952D01*
X5167238Y-12038476D01*
X5148190Y-12038476D01*
X5129143Y-12028952D01*
X5119619Y-12019428D01*
X5110095Y-12000381D01*
X5100571Y-11962286D01*
X5100571Y-11914667D01*
X5110095Y-11876571D01*
X5119619Y-11857524D01*
X5129143Y-11848000D01*
X5148190Y-11838476D01*
X5405333Y-12038476D02*
X5291048Y-12038476D01*
X5348190Y-12038476D02*
X5348190Y-11838476D01*
X5329143Y-11867048D01*
X5310095Y-11886095D01*
X5291048Y-11895619D01*
X5586286Y-11838476D02*
X5491048Y-11838476D01*
X5481524Y-11933714D01*
X5491048Y-11924190D01*
X5510095Y-11914667D01*
X5557714Y-11914667D01*
X5576762Y-11924190D01*
X5586286Y-11933714D01*
X5595809Y-11952762D01*
X5595809Y-12000381D01*
X5586286Y-12019428D01*
X5576762Y-12028952D01*
X5557714Y-12038476D01*
X5510095Y-12038476D01*
X5491048Y-12028952D01*
X5481524Y-12019428D01*
X5662476Y-11838476D02*
X5795809Y-11838476D01*
X5710095Y-12038476D01*
X5862476Y-11838476D02*
X5862476Y-11876571D01*
X5938667Y-11838476D02*
X5938667Y-11876571D01*
X6233905Y-12114667D02*
X6224381Y-12105143D01*
X6205333Y-12076571D01*
X6195809Y-12057524D01*
X6186286Y-12028952D01*
X6176762Y-11981333D01*
X6176762Y-11943238D01*
X6186286Y-11895619D01*
X6195809Y-11867048D01*
X6205333Y-11848000D01*
X6224381Y-11819428D01*
X6233905Y-11809905D01*
X6291048Y-11838476D02*
X6414857Y-11838476D01*
X6348190Y-11914667D01*
X6376762Y-11914667D01*
X6395809Y-11924190D01*
X6405333Y-11933714D01*
X6414857Y-11952762D01*
X6414857Y-12000381D01*
X6405333Y-12019428D01*
X6395809Y-12028952D01*
X6376762Y-12038476D01*
X6319619Y-12038476D01*
X6300571Y-12028952D01*
X6291048Y-12019428D01*
X6586286Y-11838476D02*
X6548190Y-11838476D01*
X6529143Y-11848000D01*
X6519619Y-11857524D01*
X6500571Y-11886095D01*
X6491048Y-11924190D01*
X6491048Y-12000381D01*
X6500571Y-12019428D01*
X6510095Y-12028952D01*
X6529143Y-12038476D01*
X6567238Y-12038476D01*
X6586286Y-12028952D01*
X6595809Y-12019428D01*
X6605333Y-12000381D01*
X6605333Y-11952762D01*
X6595809Y-11933714D01*
X6586286Y-11924190D01*
X6567238Y-11914667D01*
X6529143Y-11914667D01*
X6510095Y-11924190D01*
X6500571Y-11933714D01*
X6491048Y-11952762D01*
X6843428Y-12038476D02*
X6843428Y-11838476D01*
X6929143Y-12038476D02*
X6929143Y-11933714D01*
X6919619Y-11914667D01*
X6900571Y-11905143D01*
X6872000Y-11905143D01*
X6852952Y-11914667D01*
X6843428Y-11924190D01*
X7052952Y-12038476D02*
X7033905Y-12028952D01*
X7024381Y-12019428D01*
X7014857Y-12000381D01*
X7014857Y-11943238D01*
X7024381Y-11924190D01*
X7033905Y-11914667D01*
X7052952Y-11905143D01*
X7081524Y-11905143D01*
X7100571Y-11914667D01*
X7110095Y-11924190D01*
X7119619Y-11943238D01*
X7119619Y-12000381D01*
X7110095Y-12019428D01*
X7100571Y-12028952D01*
X7081524Y-12038476D01*
X7052952Y-12038476D01*
X7233905Y-12038476D02*
X7214857Y-12028952D01*
X7205333Y-12009905D01*
X7205333Y-11838476D01*
X7386286Y-12028952D02*
X7367238Y-12038476D01*
X7329143Y-12038476D01*
X7310095Y-12028952D01*
X7300571Y-12009905D01*
X7300571Y-11933714D01*
X7310095Y-11914667D01*
X7329143Y-11905143D01*
X7367238Y-11905143D01*
X7386286Y-11914667D01*
X7395809Y-11933714D01*
X7395809Y-11952762D01*
X7300571Y-11971809D01*
X7472000Y-12028952D02*
X7491048Y-12038476D01*
X7529143Y-12038476D01*
X7548190Y-12028952D01*
X7557714Y-12009905D01*
X7557714Y-12000381D01*
X7548190Y-11981333D01*
X7529143Y-11971809D01*
X7500571Y-11971809D01*
X7481524Y-11962286D01*
X7472000Y-11943238D01*
X7472000Y-11933714D01*
X7481524Y-11914667D01*
X7500571Y-11905143D01*
X7529143Y-11905143D01*
X7548190Y-11914667D01*
X7624381Y-12114667D02*
X7633905Y-12105143D01*
X7652952Y-12076571D01*
X7662476Y-12057524D01*
X7672000Y-12028952D01*
X7681524Y-11981333D01*
X7681524Y-11943238D01*
X7672000Y-11895619D01*
X7662476Y-11867048D01*
X7652952Y-11848000D01*
X7633905Y-11819428D01*
X7624381Y-11809905D01*
D14*
X2662000Y-12212000D02*
G75*
G03*
X2662000Y-12212000I-50000J0D01*
G01*
D12*
X3024381Y-12302476D02*
X2910095Y-12302476D01*
X2967238Y-12302476D02*
X2967238Y-12102476D01*
X2948190Y-12131048D01*
X2929143Y-12150095D01*
X2910095Y-12159619D01*
X3110095Y-12283428D02*
X3119619Y-12292952D01*
X3110095Y-12302476D01*
X3100571Y-12292952D01*
X3110095Y-12283428D01*
X3110095Y-12302476D01*
X3243428Y-12102476D02*
X3262476Y-12102476D01*
X3281524Y-12112000D01*
X3291048Y-12121524D01*
X3300571Y-12140571D01*
X3310095Y-12178667D01*
X3310095Y-12226286D01*
X3300571Y-12264381D01*
X3291048Y-12283428D01*
X3281524Y-12292952D01*
X3262476Y-12302476D01*
X3243428Y-12302476D01*
X3224381Y-12292952D01*
X3214857Y-12283428D01*
X3205333Y-12264381D01*
X3195809Y-12226286D01*
X3195809Y-12178667D01*
X3205333Y-12140571D01*
X3214857Y-12121524D01*
X3224381Y-12112000D01*
X3243428Y-12102476D01*
X3433905Y-12102476D02*
X3452952Y-12102476D01*
X3472000Y-12112000D01*
X3481524Y-12121524D01*
X3491048Y-12140571D01*
X3500571Y-12178667D01*
X3500571Y-12226286D01*
X3491048Y-12264381D01*
X3481524Y-12283428D01*
X3472000Y-12292952D01*
X3452952Y-12302476D01*
X3433905Y-12302476D01*
X3414857Y-12292952D01*
X3405333Y-12283428D01*
X3395809Y-12264381D01*
X3386286Y-12226286D01*
X3386286Y-12178667D01*
X3395809Y-12140571D01*
X3405333Y-12121524D01*
X3414857Y-12112000D01*
X3433905Y-12102476D01*
X3624381Y-12102476D02*
X3643428Y-12102476D01*
X3662476Y-12112000D01*
X3672000Y-12121524D01*
X3681524Y-12140571D01*
X3691048Y-12178667D01*
X3691048Y-12226286D01*
X3681524Y-12264381D01*
X3672000Y-12283428D01*
X3662476Y-12292952D01*
X3643428Y-12302476D01*
X3624381Y-12302476D01*
X3605333Y-12292952D01*
X3595809Y-12283428D01*
X3586286Y-12264381D01*
X3576762Y-12226286D01*
X3576762Y-12178667D01*
X3586286Y-12140571D01*
X3595809Y-12121524D01*
X3605333Y-12112000D01*
X3624381Y-12102476D01*
X3776762Y-12302476D02*
X3776762Y-12169143D01*
X3776762Y-12188190D02*
X3786286Y-12178667D01*
X3805333Y-12169143D01*
X3833905Y-12169143D01*
X3852952Y-12178667D01*
X3862476Y-12197714D01*
X3862476Y-12302476D01*
X3862476Y-12197714D02*
X3872000Y-12178667D01*
X3891048Y-12169143D01*
X3919619Y-12169143D01*
X3938667Y-12178667D01*
X3948190Y-12197714D01*
X3948190Y-12302476D01*
X4043428Y-12302476D02*
X4043428Y-12169143D01*
X4043428Y-12188190D02*
X4052952Y-12178667D01*
X4072000Y-12169143D01*
X4100571Y-12169143D01*
X4119619Y-12178667D01*
X4129143Y-12197714D01*
X4129143Y-12302476D01*
X4129143Y-12197714D02*
X4138667Y-12178667D01*
X4157714Y-12169143D01*
X4186286Y-12169143D01*
X4205333Y-12178667D01*
X4214857Y-12197714D01*
X4214857Y-12302476D01*
X4605333Y-12092952D02*
X4433905Y-12350095D01*
X4862476Y-12102476D02*
X4881524Y-12102476D01*
X4900571Y-12112000D01*
X4910095Y-12121524D01*
X4919619Y-12140571D01*
X4929143Y-12178667D01*
X4929143Y-12226286D01*
X4919619Y-12264381D01*
X4910095Y-12283428D01*
X4900571Y-12292952D01*
X4881524Y-12302476D01*
X4862476Y-12302476D01*
X4843429Y-12292952D01*
X4833905Y-12283428D01*
X4824381Y-12264381D01*
X4814857Y-12226286D01*
X4814857Y-12178667D01*
X4824381Y-12140571D01*
X4833905Y-12121524D01*
X4843429Y-12112000D01*
X4862476Y-12102476D01*
X5014857Y-12283428D02*
X5024381Y-12292952D01*
X5014857Y-12302476D01*
X5005333Y-12292952D01*
X5014857Y-12283428D01*
X5014857Y-12302476D01*
X5148190Y-12102476D02*
X5167238Y-12102476D01*
X5186286Y-12112000D01*
X5195810Y-12121524D01*
X5205333Y-12140571D01*
X5214857Y-12178667D01*
X5214857Y-12226286D01*
X5205333Y-12264381D01*
X5195810Y-12283428D01*
X5186286Y-12292952D01*
X5167238Y-12302476D01*
X5148190Y-12302476D01*
X5129143Y-12292952D01*
X5119619Y-12283428D01*
X5110095Y-12264381D01*
X5100571Y-12226286D01*
X5100571Y-12178667D01*
X5110095Y-12140571D01*
X5119619Y-12121524D01*
X5129143Y-12112000D01*
X5148190Y-12102476D01*
X5281524Y-12102476D02*
X5405333Y-12102476D01*
X5338667Y-12178667D01*
X5367238Y-12178667D01*
X5386286Y-12188190D01*
X5395810Y-12197714D01*
X5405333Y-12216762D01*
X5405333Y-12264381D01*
X5395810Y-12283428D01*
X5386286Y-12292952D01*
X5367238Y-12302476D01*
X5310095Y-12302476D01*
X5291048Y-12292952D01*
X5281524Y-12283428D01*
X5500571Y-12302476D02*
X5538667Y-12302476D01*
X5557714Y-12292952D01*
X5567238Y-12283428D01*
X5586286Y-12254857D01*
X5595809Y-12216762D01*
X5595809Y-12140571D01*
X5586286Y-12121524D01*
X5576762Y-12112000D01*
X5557714Y-12102476D01*
X5519619Y-12102476D01*
X5500571Y-12112000D01*
X5491048Y-12121524D01*
X5481524Y-12140571D01*
X5481524Y-12188190D01*
X5491048Y-12207238D01*
X5500571Y-12216762D01*
X5519619Y-12226286D01*
X5557714Y-12226286D01*
X5576762Y-12216762D01*
X5586286Y-12207238D01*
X5595809Y-12188190D01*
X5767238Y-12169143D02*
X5767238Y-12302476D01*
X5719619Y-12092952D02*
X5672000Y-12235809D01*
X5795809Y-12235809D01*
X5862476Y-12102476D02*
X5862476Y-12140571D01*
X5938667Y-12102476D02*
X5938667Y-12140571D01*
X6233905Y-12378667D02*
X6224381Y-12369143D01*
X6205333Y-12340571D01*
X6195809Y-12321524D01*
X6186286Y-12292952D01*
X6176762Y-12245333D01*
X6176762Y-12207238D01*
X6186286Y-12159619D01*
X6195809Y-12131048D01*
X6205333Y-12112000D01*
X6224381Y-12083428D01*
X6233905Y-12073905D01*
X6291048Y-12102476D02*
X6414857Y-12102476D01*
X6348190Y-12178667D01*
X6376762Y-12178667D01*
X6395809Y-12188190D01*
X6405333Y-12197714D01*
X6414857Y-12216762D01*
X6414857Y-12264381D01*
X6405333Y-12283428D01*
X6395809Y-12292952D01*
X6376762Y-12302476D01*
X6319619Y-12302476D01*
X6300571Y-12292952D01*
X6291048Y-12283428D01*
X6491048Y-12121524D02*
X6500571Y-12112000D01*
X6519619Y-12102476D01*
X6567238Y-12102476D01*
X6586286Y-12112000D01*
X6595809Y-12121524D01*
X6605333Y-12140571D01*
X6605333Y-12159619D01*
X6595809Y-12188190D01*
X6481524Y-12302476D01*
X6605333Y-12302476D01*
X6843428Y-12302476D02*
X6843428Y-12102476D01*
X6929143Y-12302476D02*
X6929143Y-12197714D01*
X6919619Y-12178667D01*
X6900571Y-12169143D01*
X6872000Y-12169143D01*
X6852952Y-12178667D01*
X6843428Y-12188190D01*
X7052952Y-12302476D02*
X7033905Y-12292952D01*
X7024381Y-12283428D01*
X7014857Y-12264381D01*
X7014857Y-12207238D01*
X7024381Y-12188190D01*
X7033905Y-12178667D01*
X7052952Y-12169143D01*
X7081524Y-12169143D01*
X7100571Y-12178667D01*
X7110095Y-12188190D01*
X7119619Y-12207238D01*
X7119619Y-12264381D01*
X7110095Y-12283428D01*
X7100571Y-12292952D01*
X7081524Y-12302476D01*
X7052952Y-12302476D01*
X7233905Y-12302476D02*
X7214857Y-12292952D01*
X7205333Y-12273905D01*
X7205333Y-12102476D01*
X7386286Y-12292952D02*
X7367238Y-12302476D01*
X7329143Y-12302476D01*
X7310095Y-12292952D01*
X7300571Y-12273905D01*
X7300571Y-12197714D01*
X7310095Y-12178667D01*
X7329143Y-12169143D01*
X7367238Y-12169143D01*
X7386286Y-12178667D01*
X7395809Y-12197714D01*
X7395809Y-12216762D01*
X7300571Y-12235809D01*
X7472000Y-12292952D02*
X7491048Y-12302476D01*
X7529143Y-12302476D01*
X7548190Y-12292952D01*
X7557714Y-12273905D01*
X7557714Y-12264381D01*
X7548190Y-12245333D01*
X7529143Y-12235809D01*
X7500571Y-12235809D01*
X7481524Y-12226286D01*
X7472000Y-12207238D01*
X7472000Y-12197714D01*
X7481524Y-12178667D01*
X7500571Y-12169143D01*
X7529143Y-12169143D01*
X7548190Y-12178667D01*
X7624381Y-12378667D02*
X7633905Y-12369143D01*
X7652952Y-12340571D01*
X7662476Y-12321524D01*
X7672000Y-12292952D01*
X7681524Y-12245333D01*
X7681524Y-12207238D01*
X7672000Y-12159619D01*
X7662476Y-12131048D01*
X7652952Y-12112000D01*
X7633905Y-12083428D01*
X7624381Y-12073905D01*
D15*
X2587000Y-12401000D02*
X2587000Y-12551000D01*
X2512000Y-12476000D02*
X2662000Y-12476000D01*
D12*
X3024381Y-12566476D02*
X2910095Y-12566476D01*
X2967238Y-12566476D02*
X2967238Y-12366476D01*
X2948190Y-12395048D01*
X2929143Y-12414095D01*
X2910095Y-12423619D01*
X3110095Y-12547428D02*
X3119619Y-12556952D01*
X3110095Y-12566476D01*
X3100571Y-12556952D01*
X3110095Y-12547428D01*
X3110095Y-12566476D01*
X3300571Y-12366476D02*
X3205333Y-12366476D01*
X3195809Y-12461714D01*
X3205333Y-12452190D01*
X3224381Y-12442667D01*
X3272000Y-12442667D01*
X3291048Y-12452190D01*
X3300571Y-12461714D01*
X3310095Y-12480762D01*
X3310095Y-12528381D01*
X3300571Y-12547428D01*
X3291048Y-12556952D01*
X3272000Y-12566476D01*
X3224381Y-12566476D01*
X3205333Y-12556952D01*
X3195809Y-12547428D01*
X3433905Y-12366476D02*
X3452952Y-12366476D01*
X3472000Y-12376000D01*
X3481524Y-12385524D01*
X3491048Y-12404571D01*
X3500571Y-12442667D01*
X3500571Y-12490286D01*
X3491048Y-12528381D01*
X3481524Y-12547428D01*
X3472000Y-12556952D01*
X3452952Y-12566476D01*
X3433905Y-12566476D01*
X3414857Y-12556952D01*
X3405333Y-12547428D01*
X3395809Y-12528381D01*
X3386286Y-12490286D01*
X3386286Y-12442667D01*
X3395809Y-12404571D01*
X3405333Y-12385524D01*
X3414857Y-12376000D01*
X3433905Y-12366476D01*
X3624381Y-12366476D02*
X3643428Y-12366476D01*
X3662476Y-12376000D01*
X3672000Y-12385524D01*
X3681524Y-12404571D01*
X3691048Y-12442667D01*
X3691048Y-12490286D01*
X3681524Y-12528381D01*
X3672000Y-12547428D01*
X3662476Y-12556952D01*
X3643428Y-12566476D01*
X3624381Y-12566476D01*
X3605333Y-12556952D01*
X3595809Y-12547428D01*
X3586286Y-12528381D01*
X3576762Y-12490286D01*
X3576762Y-12442667D01*
X3586286Y-12404571D01*
X3595809Y-12385524D01*
X3605333Y-12376000D01*
X3624381Y-12366476D01*
X3776762Y-12566476D02*
X3776762Y-12433143D01*
X3776762Y-12452190D02*
X3786286Y-12442667D01*
X3805333Y-12433143D01*
X3833905Y-12433143D01*
X3852952Y-12442667D01*
X3862476Y-12461714D01*
X3862476Y-12566476D01*
X3862476Y-12461714D02*
X3872000Y-12442667D01*
X3891048Y-12433143D01*
X3919619Y-12433143D01*
X3938667Y-12442667D01*
X3948190Y-12461714D01*
X3948190Y-12566476D01*
X4043428Y-12566476D02*
X4043428Y-12433143D01*
X4043428Y-12452190D02*
X4052952Y-12442667D01*
X4072000Y-12433143D01*
X4100571Y-12433143D01*
X4119619Y-12442667D01*
X4129143Y-12461714D01*
X4129143Y-12566476D01*
X4129143Y-12461714D02*
X4138667Y-12442667D01*
X4157714Y-12433143D01*
X4186286Y-12433143D01*
X4205333Y-12442667D01*
X4214857Y-12461714D01*
X4214857Y-12566476D01*
X4605333Y-12356952D02*
X4433905Y-12614095D01*
X4862476Y-12366476D02*
X4881524Y-12366476D01*
X4900571Y-12376000D01*
X4910095Y-12385524D01*
X4919619Y-12404571D01*
X4929143Y-12442667D01*
X4929143Y-12490286D01*
X4919619Y-12528381D01*
X4910095Y-12547428D01*
X4900571Y-12556952D01*
X4881524Y-12566476D01*
X4862476Y-12566476D01*
X4843429Y-12556952D01*
X4833905Y-12547428D01*
X4824381Y-12528381D01*
X4814857Y-12490286D01*
X4814857Y-12442667D01*
X4824381Y-12404571D01*
X4833905Y-12385524D01*
X4843429Y-12376000D01*
X4862476Y-12366476D01*
X5014857Y-12547428D02*
X5024381Y-12556952D01*
X5014857Y-12566476D01*
X5005333Y-12556952D01*
X5014857Y-12547428D01*
X5014857Y-12566476D01*
X5148190Y-12366476D02*
X5167238Y-12366476D01*
X5186286Y-12376000D01*
X5195810Y-12385524D01*
X5205333Y-12404571D01*
X5214857Y-12442667D01*
X5214857Y-12490286D01*
X5205333Y-12528381D01*
X5195810Y-12547428D01*
X5186286Y-12556952D01*
X5167238Y-12566476D01*
X5148190Y-12566476D01*
X5129143Y-12556952D01*
X5119619Y-12547428D01*
X5110095Y-12528381D01*
X5100571Y-12490286D01*
X5100571Y-12442667D01*
X5110095Y-12404571D01*
X5119619Y-12385524D01*
X5129143Y-12376000D01*
X5148190Y-12366476D01*
X5395810Y-12366476D02*
X5300571Y-12366476D01*
X5291048Y-12461714D01*
X5300571Y-12452190D01*
X5319619Y-12442667D01*
X5367238Y-12442667D01*
X5386286Y-12452190D01*
X5395810Y-12461714D01*
X5405333Y-12480762D01*
X5405333Y-12528381D01*
X5395810Y-12547428D01*
X5386286Y-12556952D01*
X5367238Y-12566476D01*
X5319619Y-12566476D01*
X5300571Y-12556952D01*
X5291048Y-12547428D01*
X5500571Y-12566476D02*
X5538667Y-12566476D01*
X5557714Y-12556952D01*
X5567238Y-12547428D01*
X5586286Y-12518857D01*
X5595809Y-12480762D01*
X5595809Y-12404571D01*
X5586286Y-12385524D01*
X5576762Y-12376000D01*
X5557714Y-12366476D01*
X5519619Y-12366476D01*
X5500571Y-12376000D01*
X5491048Y-12385524D01*
X5481524Y-12404571D01*
X5481524Y-12452190D01*
X5491048Y-12471238D01*
X5500571Y-12480762D01*
X5519619Y-12490286D01*
X5557714Y-12490286D01*
X5576762Y-12480762D01*
X5586286Y-12471238D01*
X5595809Y-12452190D01*
X5786286Y-12566476D02*
X5672000Y-12566476D01*
X5729143Y-12566476D02*
X5729143Y-12366476D01*
X5710095Y-12395048D01*
X5691048Y-12414095D01*
X5672000Y-12423619D01*
X5862476Y-12366476D02*
X5862476Y-12404571D01*
X5938667Y-12366476D02*
X5938667Y-12404571D01*
X6233905Y-12642667D02*
X6224381Y-12633143D01*
X6205333Y-12604571D01*
X6195809Y-12585524D01*
X6186286Y-12556952D01*
X6176762Y-12509333D01*
X6176762Y-12471238D01*
X6186286Y-12423619D01*
X6195809Y-12395048D01*
X6205333Y-12376000D01*
X6224381Y-12347428D01*
X6233905Y-12337905D01*
X6414857Y-12566476D02*
X6300571Y-12566476D01*
X6357714Y-12566476D02*
X6357714Y-12366476D01*
X6338667Y-12395048D01*
X6319619Y-12414095D01*
X6300571Y-12423619D01*
X6529143Y-12452190D02*
X6510095Y-12442667D01*
X6500571Y-12433143D01*
X6491048Y-12414095D01*
X6491048Y-12404571D01*
X6500571Y-12385524D01*
X6510095Y-12376000D01*
X6529143Y-12366476D01*
X6567238Y-12366476D01*
X6586286Y-12376000D01*
X6595809Y-12385524D01*
X6605333Y-12404571D01*
X6605333Y-12414095D01*
X6595809Y-12433143D01*
X6586286Y-12442667D01*
X6567238Y-12452190D01*
X6529143Y-12452190D01*
X6510095Y-12461714D01*
X6500571Y-12471238D01*
X6491048Y-12490286D01*
X6491048Y-12528381D01*
X6500571Y-12547428D01*
X6510095Y-12556952D01*
X6529143Y-12566476D01*
X6567238Y-12566476D01*
X6586286Y-12556952D01*
X6595809Y-12547428D01*
X6605333Y-12528381D01*
X6605333Y-12490286D01*
X6595809Y-12471238D01*
X6586286Y-12461714D01*
X6567238Y-12452190D01*
X6843428Y-12566476D02*
X6843428Y-12366476D01*
X6929143Y-12566476D02*
X6929143Y-12461714D01*
X6919619Y-12442667D01*
X6900571Y-12433143D01*
X6872000Y-12433143D01*
X6852952Y-12442667D01*
X6843428Y-12452190D01*
X7052952Y-12566476D02*
X7033905Y-12556952D01*
X7024381Y-12547428D01*
X7014857Y-12528381D01*
X7014857Y-12471238D01*
X7024381Y-12452190D01*
X7033905Y-12442667D01*
X7052952Y-12433143D01*
X7081524Y-12433143D01*
X7100571Y-12442667D01*
X7110095Y-12452190D01*
X7119619Y-12471238D01*
X7119619Y-12528381D01*
X7110095Y-12547428D01*
X7100571Y-12556952D01*
X7081524Y-12566476D01*
X7052952Y-12566476D01*
X7233905Y-12566476D02*
X7214857Y-12556952D01*
X7205333Y-12537905D01*
X7205333Y-12366476D01*
X7386286Y-12556952D02*
X7367238Y-12566476D01*
X7329143Y-12566476D01*
X7310095Y-12556952D01*
X7300571Y-12537905D01*
X7300571Y-12461714D01*
X7310095Y-12442667D01*
X7329143Y-12433143D01*
X7367238Y-12433143D01*
X7386286Y-12442667D01*
X7395809Y-12461714D01*
X7395809Y-12480762D01*
X7300571Y-12499809D01*
X7472000Y-12556952D02*
X7491048Y-12566476D01*
X7529143Y-12566476D01*
X7548190Y-12556952D01*
X7557714Y-12537905D01*
X7557714Y-12528381D01*
X7548190Y-12509333D01*
X7529143Y-12499809D01*
X7500571Y-12499809D01*
X7481524Y-12490286D01*
X7472000Y-12471238D01*
X7472000Y-12461714D01*
X7481524Y-12442667D01*
X7500571Y-12433143D01*
X7529143Y-12433143D01*
X7548190Y-12442667D01*
X7624381Y-12642667D02*
X7633905Y-12633143D01*
X7652952Y-12604571D01*
X7662476Y-12585524D01*
X7672000Y-12556952D01*
X7681524Y-12509333D01*
X7681524Y-12471238D01*
X7672000Y-12423619D01*
X7662476Y-12395048D01*
X7652952Y-12376000D01*
X7633905Y-12347428D01*
X7624381Y-12337905D01*
X2632711Y-12816711D02*
X2632711Y-12675289D01*
X2491289Y-12675289D01*
X2491289Y-12816711D01*
X2632711Y-12816711D01*
X2900571Y-12636476D02*
X3024381Y-12636476D01*
X2957714Y-12712667D01*
X2986286Y-12712667D01*
X3005333Y-12722190D01*
X3014857Y-12731714D01*
X3024381Y-12750762D01*
X3024381Y-12798381D01*
X3014857Y-12817428D01*
X3005333Y-12826952D01*
X2986286Y-12836476D01*
X2929143Y-12836476D01*
X2910095Y-12826952D01*
X2900571Y-12817428D01*
X3110095Y-12817428D02*
X3119619Y-12826952D01*
X3110095Y-12836476D01*
X3100571Y-12826952D01*
X3110095Y-12817428D01*
X3110095Y-12836476D01*
X3243428Y-12636476D02*
X3262476Y-12636476D01*
X3281524Y-12646000D01*
X3291048Y-12655524D01*
X3300571Y-12674571D01*
X3310095Y-12712667D01*
X3310095Y-12760286D01*
X3300571Y-12798381D01*
X3291048Y-12817428D01*
X3281524Y-12826952D01*
X3262476Y-12836476D01*
X3243428Y-12836476D01*
X3224381Y-12826952D01*
X3214857Y-12817428D01*
X3205333Y-12798381D01*
X3195809Y-12760286D01*
X3195809Y-12712667D01*
X3205333Y-12674571D01*
X3214857Y-12655524D01*
X3224381Y-12646000D01*
X3243428Y-12636476D01*
X3433905Y-12636476D02*
X3452952Y-12636476D01*
X3472000Y-12646000D01*
X3481524Y-12655524D01*
X3491048Y-12674571D01*
X3500571Y-12712667D01*
X3500571Y-12760286D01*
X3491048Y-12798381D01*
X3481524Y-12817428D01*
X3472000Y-12826952D01*
X3452952Y-12836476D01*
X3433905Y-12836476D01*
X3414857Y-12826952D01*
X3405333Y-12817428D01*
X3395809Y-12798381D01*
X3386286Y-12760286D01*
X3386286Y-12712667D01*
X3395809Y-12674571D01*
X3405333Y-12655524D01*
X3414857Y-12646000D01*
X3433905Y-12636476D01*
X3624381Y-12636476D02*
X3643428Y-12636476D01*
X3662476Y-12646000D01*
X3672000Y-12655524D01*
X3681524Y-12674571D01*
X3691048Y-12712667D01*
X3691048Y-12760286D01*
X3681524Y-12798381D01*
X3672000Y-12817428D01*
X3662476Y-12826952D01*
X3643428Y-12836476D01*
X3624381Y-12836476D01*
X3605333Y-12826952D01*
X3595809Y-12817428D01*
X3586286Y-12798381D01*
X3576762Y-12760286D01*
X3576762Y-12712667D01*
X3586286Y-12674571D01*
X3595809Y-12655524D01*
X3605333Y-12646000D01*
X3624381Y-12636476D01*
X3776762Y-12836476D02*
X3776762Y-12703143D01*
X3776762Y-12722190D02*
X3786286Y-12712667D01*
X3805333Y-12703143D01*
X3833905Y-12703143D01*
X3852952Y-12712667D01*
X3862476Y-12731714D01*
X3862476Y-12836476D01*
X3862476Y-12731714D02*
X3872000Y-12712667D01*
X3891048Y-12703143D01*
X3919619Y-12703143D01*
X3938667Y-12712667D01*
X3948190Y-12731714D01*
X3948190Y-12836476D01*
X4043428Y-12836476D02*
X4043428Y-12703143D01*
X4043428Y-12722190D02*
X4052952Y-12712667D01*
X4072000Y-12703143D01*
X4100571Y-12703143D01*
X4119619Y-12712667D01*
X4129143Y-12731714D01*
X4129143Y-12836476D01*
X4129143Y-12731714D02*
X4138667Y-12712667D01*
X4157714Y-12703143D01*
X4186286Y-12703143D01*
X4205333Y-12712667D01*
X4214857Y-12731714D01*
X4214857Y-12836476D01*
X4605333Y-12626952D02*
X4433905Y-12884095D01*
X4862476Y-12636476D02*
X4881524Y-12636476D01*
X4900571Y-12646000D01*
X4910095Y-12655524D01*
X4919619Y-12674571D01*
X4929143Y-12712667D01*
X4929143Y-12760286D01*
X4919619Y-12798381D01*
X4910095Y-12817428D01*
X4900571Y-12826952D01*
X4881524Y-12836476D01*
X4862476Y-12836476D01*
X4843429Y-12826952D01*
X4833905Y-12817428D01*
X4824381Y-12798381D01*
X4814857Y-12760286D01*
X4814857Y-12712667D01*
X4824381Y-12674571D01*
X4833905Y-12655524D01*
X4843429Y-12646000D01*
X4862476Y-12636476D01*
X5014857Y-12817428D02*
X5024381Y-12826952D01*
X5014857Y-12836476D01*
X5005333Y-12826952D01*
X5014857Y-12817428D01*
X5014857Y-12836476D01*
X5214857Y-12836476D02*
X5100571Y-12836476D01*
X5157714Y-12836476D02*
X5157714Y-12636476D01*
X5138667Y-12665048D01*
X5119619Y-12684095D01*
X5100571Y-12693619D01*
X5405333Y-12836476D02*
X5291048Y-12836476D01*
X5348190Y-12836476D02*
X5348190Y-12636476D01*
X5329143Y-12665048D01*
X5310095Y-12684095D01*
X5291048Y-12693619D01*
X5519619Y-12722190D02*
X5500571Y-12712667D01*
X5491048Y-12703143D01*
X5481524Y-12684095D01*
X5481524Y-12674571D01*
X5491048Y-12655524D01*
X5500571Y-12646000D01*
X5519619Y-12636476D01*
X5557714Y-12636476D01*
X5576762Y-12646000D01*
X5586286Y-12655524D01*
X5595809Y-12674571D01*
X5595809Y-12684095D01*
X5586286Y-12703143D01*
X5576762Y-12712667D01*
X5557714Y-12722190D01*
X5519619Y-12722190D01*
X5500571Y-12731714D01*
X5491048Y-12741238D01*
X5481524Y-12760286D01*
X5481524Y-12798381D01*
X5491048Y-12817428D01*
X5500571Y-12826952D01*
X5519619Y-12836476D01*
X5557714Y-12836476D01*
X5576762Y-12826952D01*
X5586286Y-12817428D01*
X5595809Y-12798381D01*
X5595809Y-12760286D01*
X5586286Y-12741238D01*
X5576762Y-12731714D01*
X5557714Y-12722190D01*
X5786286Y-12836476D02*
X5672000Y-12836476D01*
X5729143Y-12836476D02*
X5729143Y-12636476D01*
X5710095Y-12665048D01*
X5691048Y-12684095D01*
X5672000Y-12693619D01*
X5862476Y-12636476D02*
X5862476Y-12674571D01*
X5938667Y-12636476D02*
X5938667Y-12674571D01*
X6233905Y-12912667D02*
X6224381Y-12903143D01*
X6205333Y-12874571D01*
X6195809Y-12855524D01*
X6186286Y-12826952D01*
X6176762Y-12779333D01*
X6176762Y-12741238D01*
X6186286Y-12693619D01*
X6195809Y-12665048D01*
X6205333Y-12646000D01*
X6224381Y-12617428D01*
X6233905Y-12607905D01*
X6395809Y-12703143D02*
X6395809Y-12836476D01*
X6348190Y-12626952D02*
X6300571Y-12769809D01*
X6424381Y-12769809D01*
X6652952Y-12836476D02*
X6652952Y-12636476D01*
X6738667Y-12836476D02*
X6738667Y-12731714D01*
X6729143Y-12712667D01*
X6710095Y-12703143D01*
X6681524Y-12703143D01*
X6662476Y-12712667D01*
X6652952Y-12722190D01*
X6862476Y-12836476D02*
X6843428Y-12826952D01*
X6833905Y-12817428D01*
X6824381Y-12798381D01*
X6824381Y-12741238D01*
X6833905Y-12722190D01*
X6843428Y-12712667D01*
X6862476Y-12703143D01*
X6891048Y-12703143D01*
X6910095Y-12712667D01*
X6919619Y-12722190D01*
X6929143Y-12741238D01*
X6929143Y-12798381D01*
X6919619Y-12817428D01*
X6910095Y-12826952D01*
X6891048Y-12836476D01*
X6862476Y-12836476D01*
X7043428Y-12836476D02*
X7024381Y-12826952D01*
X7014857Y-12807905D01*
X7014857Y-12636476D01*
X7195809Y-12826952D02*
X7176762Y-12836476D01*
X7138667Y-12836476D01*
X7119619Y-12826952D01*
X7110095Y-12807905D01*
X7110095Y-12731714D01*
X7119619Y-12712667D01*
X7138667Y-12703143D01*
X7176762Y-12703143D01*
X7195809Y-12712667D01*
X7205333Y-12731714D01*
X7205333Y-12750762D01*
X7110095Y-12769809D01*
X7281524Y-12826952D02*
X7300571Y-12836476D01*
X7338667Y-12836476D01*
X7357714Y-12826952D01*
X7367238Y-12807905D01*
X7367238Y-12798381D01*
X7357714Y-12779333D01*
X7338667Y-12769809D01*
X7310095Y-12769809D01*
X7291048Y-12760286D01*
X7281524Y-12741238D01*
X7281524Y-12731714D01*
X7291048Y-12712667D01*
X7310095Y-12703143D01*
X7338667Y-12703143D01*
X7357714Y-12712667D01*
X7433905Y-12912667D02*
X7443428Y-12903143D01*
X7462476Y-12874571D01*
X7472000Y-12855524D01*
X7481524Y-12826952D01*
X7491048Y-12779333D01*
X7491048Y-12741238D01*
X7481524Y-12693619D01*
X7472000Y-12665048D01*
X7462476Y-12646000D01*
X7443428Y-12617428D01*
X7433905Y-12607905D01*
M02*
