M48
; DRILL file {KiCad (6.0.5)} date Sat Jun  4 16:39:09 2022
; FORMAT={-:-/ absolute / inch / decimal}
; #@! TF.CreationDate,2022-06-04T16:39:09+08:00
; #@! TF.GenerationSoftware,Kicad,Pcbnew,(6.0.5)
; #@! TF.FileFunction,Plated,1,2,PTH
FMAT,2
INCH
; #@! TA.AperFunction,Plated,PTH,ViaDrill
T1C0.0157
; #@! TA.AperFunction,Plated,PTH,ComponentDrill
T2C0.0394
; #@! TA.AperFunction,Plated,PTH,ComponentDrill
T3C0.0591
; #@! TA.AperFunction,Plated,PTH,ViaDrill
T4C0.1181
%
G90
G05
T1
X1.125Y-2.9
X1.125Y-3.825
X1.674Y-3.426
X1.998Y-3.426
X2.1Y-3.2
X2.15Y-3.25
X2.2Y-3.2
X2.25Y-3.3
X2.274Y-3.469
X2.295Y-4.061
X2.3Y-3.55
X2.711Y-4.402
X2.734Y-2.833
X2.85Y-2.95
X2.9Y-3.25
X2.9Y-3.85
X2.95Y-2.95
X2.983Y-3.385
X3.054Y-2.799
X3.071Y-3.382
X3.101Y-3.553
X3.158Y-2.8
X3.466Y-2.514
X3.471Y-3.541
X3.5Y-3.25
X3.543Y-2.851
X3.698Y-2.741
X3.878Y-2.886
X3.9Y-3.567
X4.116Y-3.676
X4.195Y-2.847
X4.221Y-2.512
X4.244Y-3.467
X4.269Y-3.571
X4.3Y-3.25
X4.318Y-3.646
T2
X1.25Y-3.6
X1.25Y-3.7
X1.25Y-3.8
X1.25Y-3.9
X1.25Y-4.0
X1.25Y-4.1
X1.25Y-4.2
X1.25Y-4.3
X1.25Y-4.4
X1.35Y-3.6
X1.355Y-3.05
X1.3996Y-3.305
X1.45Y-3.6
X1.455Y-3.05
X1.4996Y-3.305
X1.55Y-3.6
X1.555Y-3.05
X1.5996Y-3.305
X1.65Y-3.6
X1.655Y-3.05
X1.6996Y-3.305
X1.75Y-3.6
X1.755Y-3.05
X1.85Y-3.6
X1.85Y-3.7
X1.85Y-3.8
X1.85Y-3.9
X1.85Y-4.0
X1.85Y-4.1
X1.85Y-4.2
X1.85Y-4.3
X1.85Y-4.4
T3
X2.35Y-2.35
X2.35Y-3.15
X2.35Y-3.95
X2.6Y-2.25
X2.6Y-3.05
X2.6Y-3.85
X3.1492Y-3.1496
X3.15Y-2.35
X3.15Y-3.95
X3.3992Y-3.0496
X3.4Y-2.25
X3.4Y-3.85
X3.95Y-2.35
X3.95Y-3.15
X3.95Y-3.95
X4.2Y-2.25
X4.2Y-3.05
X4.2Y-3.85
T4
X1.3Y-2.25
X1.55Y-4.35
X3.7Y-2.85
X3.7Y-3.65
T0
M30
