%TF.GenerationSoftware,KiCad,Pcbnew,(6.0.5)*%
%TF.CreationDate,2022-06-04T16:39:11+08:00*%
%TF.ProjectId,keyboard_V3,6b657962-6f61-4726-945f-56332e6b6963,rev?*%
%TF.SameCoordinates,Original*%
%TF.FileFunction,Soldermask,Top*%
%TF.FilePolarity,Negative*%
%FSLAX46Y46*%
G04 Gerber Fmt 4.6, Leading zero omitted, Abs format (unit mm)*
G04 Created by KiCad (PCBNEW (6.0.5)) date 2022-06-04 16:39:11*
%MOMM*%
%LPD*%
G01*
G04 APERTURE LIST*
G04 Aperture macros list*
%AMRoundRect*
0 Rectangle with rounded corners*
0 $1 Rounding radius*
0 $2 $3 $4 $5 $6 $7 $8 $9 X,Y pos of 4 corners*
0 Add a 4 corners polygon primitive as box body*
4,1,4,$2,$3,$4,$5,$6,$7,$8,$9,$2,$3,0*
0 Add four circle primitives for the rounded corners*
1,1,$1+$1,$2,$3*
1,1,$1+$1,$4,$5*
1,1,$1+$1,$6,$7*
1,1,$1+$1,$8,$9*
0 Add four rect primitives between the rounded corners*
20,1,$1+$1,$2,$3,$4,$5,0*
20,1,$1+$1,$4,$5,$6,$7,0*
20,1,$1+$1,$6,$7,$8,$9,0*
20,1,$1+$1,$8,$9,$2,$3,0*%
G04 Aperture macros list end*
%ADD10C,0.304000*%
%TA.AperFunction,Profile*%
%ADD11C,0.100000*%
%TD*%
%TA.AperFunction,Profile*%
%ADD12C,0.050000*%
%TD*%
%ADD13C,2.340000*%
%ADD14C,4.140000*%
%ADD15RoundRect,0.070000X-0.850000X-0.850000X0.850000X-0.850000X0.850000X0.850000X-0.850000X0.850000X0*%
%ADD16O,1.840000X1.840000*%
%ADD17RoundRect,0.070000X-0.850000X0.850000X-0.850000X-0.850000X0.850000X-0.850000X0.850000X0.850000X0*%
G04 APERTURE END LIST*
D10*
X99212000Y-90601800D02*
G75*
G03*
X99212000Y-90601800I-152000J0D01*
G01*
X109829200Y-92608400D02*
G75*
G03*
X109829200Y-92608400I-152000J0D01*
G01*
X104698400Y-93370400D02*
G75*
G03*
X104698400Y-93370400I-152000J0D01*
G01*
X108584600Y-90703400D02*
G75*
G03*
X108584600Y-90703400I-152000J0D01*
G01*
X107949600Y-88061800D02*
G75*
G03*
X107949600Y-88061800I-152000J0D01*
G01*
X109372000Y-82550000D02*
G75*
G03*
X109372000Y-82550000I-152000J0D01*
G01*
X107365400Y-63804800D02*
G75*
G03*
X107365400Y-63804800I-152000J0D01*
G01*
X106705000Y-72313800D02*
G75*
G03*
X106705000Y-72313800I-152000J0D01*
G01*
X98653200Y-73304400D02*
G75*
G03*
X98653200Y-73304400I-152000J0D01*
G01*
X94081200Y-69621400D02*
G75*
G03*
X94081200Y-69621400I-152000J0D01*
G01*
X88188400Y-63855600D02*
G75*
G03*
X88188400Y-63855600I-152000J0D01*
G01*
X90144200Y-72415400D02*
G75*
G03*
X90144200Y-72415400I-152000J0D01*
G01*
X89052000Y-82550000D02*
G75*
G03*
X89052000Y-82550000I-152000J0D01*
G01*
X88315400Y-89941400D02*
G75*
G03*
X88315400Y-89941400I-152000J0D01*
G01*
X78917400Y-90246200D02*
G75*
G03*
X78917400Y-90246200I-152000J0D01*
G01*
X78155400Y-85902800D02*
G75*
G03*
X78155400Y-85902800I-152000J0D01*
G01*
X75920200Y-85979000D02*
G75*
G03*
X75920200Y-85979000I-152000J0D01*
G01*
X80365200Y-71120000D02*
G75*
G03*
X80365200Y-71120000I-152000J0D01*
G01*
X77723600Y-71094600D02*
G75*
G03*
X77723600Y-71094600I-152000J0D01*
G01*
X75082000Y-74930000D02*
G75*
G03*
X75082000Y-74930000I-152000J0D01*
G01*
X72542000Y-74930000D02*
G75*
G03*
X72542000Y-74930000I-152000J0D01*
G01*
X69595600Y-71958200D02*
G75*
G03*
X69595600Y-71958200I-152000J0D01*
G01*
X73812000Y-82550000D02*
G75*
G03*
X73812000Y-82550000I-152000J0D01*
G01*
X73812000Y-97790000D02*
G75*
G03*
X73812000Y-97790000I-152000J0D01*
G01*
X69011400Y-111810800D02*
G75*
G03*
X69011400Y-111810800I-152000J0D01*
G01*
X58445000Y-103149400D02*
G75*
G03*
X58445000Y-103149400I-152000J0D01*
G01*
X58572000Y-90170000D02*
G75*
G03*
X58572000Y-90170000I-152000J0D01*
G01*
X57911600Y-88112600D02*
G75*
G03*
X57911600Y-88112600I-152000J0D01*
G01*
X57302000Y-83820000D02*
G75*
G03*
X57302000Y-83820000I-152000J0D01*
G01*
X56032000Y-81280000D02*
G75*
G03*
X56032000Y-81280000I-152000J0D01*
G01*
X54762000Y-82550000D02*
G75*
G03*
X54762000Y-82550000I-152000J0D01*
G01*
X53492000Y-81280000D02*
G75*
G03*
X53492000Y-81280000I-152000J0D01*
G01*
X50899110Y-87018932D02*
G75*
G03*
X50899110Y-87018932I-152000J0D01*
G01*
X42671600Y-87020400D02*
G75*
G03*
X42671600Y-87020400I-152000J0D01*
G01*
X28727000Y-97155000D02*
G75*
G03*
X28727000Y-97155000I-152000J0D01*
G01*
X28727000Y-73660000D02*
G75*
G03*
X28727000Y-73660000I-152000J0D01*
G01*
D11*
X107950000Y-113030000D02*
G75*
G03*
X110490000Y-110490000I0J2540000D01*
G01*
D12*
X101538462Y-65342253D02*
X106720062Y-65342253D01*
X106720062Y-65342253D02*
X106720062Y-70553853D01*
X106720062Y-70553853D02*
X101538462Y-70553853D01*
X101538462Y-70553853D02*
X101538462Y-65342253D01*
D11*
X29210000Y-113030000D02*
X107950000Y-113030000D01*
D12*
X60909200Y-85674200D02*
X66090800Y-85674200D01*
X66090800Y-85674200D02*
X66090800Y-90855800D01*
X66090800Y-90855800D02*
X60909200Y-90855800D01*
X60909200Y-90855800D02*
X60909200Y-85674200D01*
X60903194Y-65342253D02*
X66084794Y-65342253D01*
X66084794Y-65342253D02*
X66084794Y-70543853D01*
X66084794Y-70543853D02*
X60903194Y-70543853D01*
X60903194Y-70543853D02*
X60903194Y-65342253D01*
X101538462Y-85654200D02*
X106720062Y-85654200D01*
X106720062Y-85654200D02*
X106720062Y-90855800D01*
X106720062Y-90855800D02*
X101538462Y-90855800D01*
X101538462Y-90855800D02*
X101538462Y-85654200D01*
X81220828Y-85654200D02*
X86402428Y-85654200D01*
X86402428Y-85654200D02*
X86402428Y-90855800D01*
X86402428Y-90855800D02*
X81220828Y-90855800D01*
X81220828Y-90855800D02*
X81220828Y-85654200D01*
X81229200Y-65335000D02*
X86410800Y-65335000D01*
X86410800Y-65335000D02*
X86410800Y-70536600D01*
X86410800Y-70536600D02*
X81229200Y-70536600D01*
X81229200Y-70536600D02*
X81229200Y-65335000D01*
D11*
X26670000Y-110490000D02*
X26670000Y-57150000D01*
X110490000Y-110490000D02*
X110490000Y-57150000D01*
X110490000Y-57150000D02*
G75*
G03*
X107950000Y-54610000I-2540000J0D01*
G01*
D12*
X101549200Y-105974200D02*
X106730800Y-105974200D01*
X106730800Y-105974200D02*
X106730800Y-111195800D01*
X106730800Y-111195800D02*
X101549200Y-111195800D01*
X101549200Y-111195800D02*
X101549200Y-105974200D01*
D11*
X107950000Y-54610000D02*
X29210000Y-54610000D01*
D12*
X60909200Y-105984200D02*
X66090800Y-105984200D01*
X66090800Y-105984200D02*
X66090800Y-111175800D01*
X66090800Y-111175800D02*
X60909200Y-111175800D01*
X60909200Y-111175800D02*
X60909200Y-105984200D01*
X26670000Y-110490000D02*
G75*
G03*
X29210000Y-113030000I2540000J0D01*
G01*
X81229200Y-105974200D02*
X86410800Y-105974200D01*
X86410800Y-105974200D02*
X86410800Y-111195800D01*
X86410800Y-111195800D02*
X81229200Y-111195800D01*
X81229200Y-111195800D02*
X81229200Y-105974200D01*
X29210000Y-54610000D02*
G75*
G03*
X26670000Y-57150000I0J-2540000D01*
G01*
D13*
%TO.C,REF\u002A\u002A*%
X59690000Y-59690000D03*
X66040000Y-57150000D03*
D14*
X63500000Y-62230000D03*
%TD*%
%TO.C,REF\u002A\u002A*%
X104140000Y-102870000D03*
D13*
X106680000Y-97790000D03*
X100330000Y-100330000D03*
%TD*%
D14*
%TO.C,REF\u002A\u002A*%
X83820000Y-102870000D03*
D13*
X86360000Y-97790000D03*
X80010000Y-100330000D03*
%TD*%
D15*
%TO.C,REF\u002A\u002A*%
X46990000Y-91440000D03*
D16*
X46990000Y-93980000D03*
X46990000Y-96520000D03*
X46990000Y-99060000D03*
X46990000Y-101600000D03*
X46990000Y-104140000D03*
X46990000Y-106680000D03*
X46990000Y-109220000D03*
X46990000Y-111760000D03*
%TD*%
D14*
%TO.C,REF\u002A\u002A*%
X83820000Y-62230000D03*
D13*
X86360000Y-57150000D03*
X80010000Y-59690000D03*
%TD*%
D14*
%TO.C,REF\u002A\u002A*%
X104140000Y-82550000D03*
D13*
X106680000Y-77470000D03*
X100330000Y-80010000D03*
%TD*%
D15*
%TO.C,REF\u002A\u002A*%
X31750000Y-91440000D03*
D16*
X31750000Y-93980000D03*
X31750000Y-96520000D03*
X31750000Y-99060000D03*
X31750000Y-101600000D03*
X31750000Y-104140000D03*
X31750000Y-106680000D03*
X31750000Y-109220000D03*
X31750000Y-111760000D03*
%TD*%
D14*
%TO.C,REF\u002A\u002A*%
X83800782Y-82540391D03*
D13*
X86340782Y-77460391D03*
X79990782Y-80000391D03*
%TD*%
D14*
%TO.C,REF\u002A\u002A*%
X63500000Y-102870000D03*
D13*
X66040000Y-97790000D03*
X59690000Y-100330000D03*
%TD*%
D14*
%TO.C,REF\u002A\u002A*%
X63500000Y-82550000D03*
D13*
X66040000Y-77470000D03*
X59690000Y-80010000D03*
%TD*%
D14*
%TO.C,REF\u002A\u002A*%
X104140000Y-62230000D03*
D13*
X106680000Y-57150000D03*
X100330000Y-59690000D03*
%TD*%
D17*
%TO.C,REF\u002A\u002A*%
X44450000Y-91440000D03*
D16*
X41910000Y-91440000D03*
X39370000Y-91440000D03*
X36830000Y-91440000D03*
X34290000Y-91440000D03*
%TD*%
D17*
%TO.C,REF\u002A\u002A*%
X43170000Y-83947000D03*
D16*
X40630000Y-83947000D03*
X38090000Y-83947000D03*
X35550000Y-83947000D03*
%TD*%
D17*
%TO.C,REF\u002A\u002A*%
X44577000Y-77470000D03*
D16*
X42037000Y-77470000D03*
X39497000Y-77470000D03*
X36957000Y-77470000D03*
X34417000Y-77470000D03*
%TD*%
M02*
