%TF.GenerationSoftware,KiCad,Pcbnew,(6.0.5)*%
%TF.CreationDate,2022-06-04T16:39:11+08:00*%
%TF.ProjectId,keyboard_V3,6b657962-6f61-4726-945f-56332e6b6963,rev?*%
%TF.SameCoordinates,Original*%
%TF.FileFunction,Profile,NP*%
%FSLAX46Y46*%
G04 Gerber Fmt 4.6, Leading zero omitted, Abs format (unit mm)*
G04 Created by KiCad (PCBNEW (6.0.5)) date 2022-06-04 16:39:11*
%MOMM*%
%LPD*%
G01*
G04 APERTURE LIST*
%TA.AperFunction,Profile*%
%ADD10C,0.100000*%
%TD*%
%TA.AperFunction,Profile*%
%ADD11C,0.050000*%
%TD*%
G04 APERTURE END LIST*
D10*
X107950000Y-113030000D02*
G75*
G03*
X110490000Y-110490000I0J2540000D01*
G01*
D11*
X101538462Y-65342253D02*
X106720062Y-65342253D01*
X106720062Y-65342253D02*
X106720062Y-70553853D01*
X106720062Y-70553853D02*
X101538462Y-70553853D01*
X101538462Y-70553853D02*
X101538462Y-65342253D01*
D10*
X29210000Y-113030000D02*
X107950000Y-113030000D01*
D11*
X60909200Y-85674200D02*
X66090800Y-85674200D01*
X66090800Y-85674200D02*
X66090800Y-90855800D01*
X66090800Y-90855800D02*
X60909200Y-90855800D01*
X60909200Y-90855800D02*
X60909200Y-85674200D01*
X60903194Y-65342253D02*
X66084794Y-65342253D01*
X66084794Y-65342253D02*
X66084794Y-70543853D01*
X66084794Y-70543853D02*
X60903194Y-70543853D01*
X60903194Y-70543853D02*
X60903194Y-65342253D01*
X101538462Y-85654200D02*
X106720062Y-85654200D01*
X106720062Y-85654200D02*
X106720062Y-90855800D01*
X106720062Y-90855800D02*
X101538462Y-90855800D01*
X101538462Y-90855800D02*
X101538462Y-85654200D01*
X81220828Y-85654200D02*
X86402428Y-85654200D01*
X86402428Y-85654200D02*
X86402428Y-90855800D01*
X86402428Y-90855800D02*
X81220828Y-90855800D01*
X81220828Y-90855800D02*
X81220828Y-85654200D01*
X81229200Y-65335000D02*
X86410800Y-65335000D01*
X86410800Y-65335000D02*
X86410800Y-70536600D01*
X86410800Y-70536600D02*
X81229200Y-70536600D01*
X81229200Y-70536600D02*
X81229200Y-65335000D01*
D10*
X26670000Y-110490000D02*
X26670000Y-57150000D01*
X110490000Y-110490000D02*
X110490000Y-57150000D01*
X110490000Y-57150000D02*
G75*
G03*
X107950000Y-54610000I-2540000J0D01*
G01*
D11*
X101549200Y-105974200D02*
X106730800Y-105974200D01*
X106730800Y-105974200D02*
X106730800Y-111195800D01*
X106730800Y-111195800D02*
X101549200Y-111195800D01*
X101549200Y-111195800D02*
X101549200Y-105974200D01*
D10*
X107950000Y-54610000D02*
X29210000Y-54610000D01*
D11*
X60909200Y-105984200D02*
X66090800Y-105984200D01*
X66090800Y-105984200D02*
X66090800Y-111175800D01*
X66090800Y-111175800D02*
X60909200Y-111175800D01*
X60909200Y-111175800D02*
X60909200Y-105984200D01*
X26670000Y-110490000D02*
G75*
G03*
X29210000Y-113030000I2540000J0D01*
G01*
X81229200Y-105974200D02*
X86410800Y-105974200D01*
X86410800Y-105974200D02*
X86410800Y-111195800D01*
X86410800Y-111195800D02*
X81229200Y-111195800D01*
X81229200Y-111195800D02*
X81229200Y-105974200D01*
X29210000Y-54610000D02*
G75*
G03*
X26670000Y-57150000I0J-2540000D01*
G01*
M02*
