%TF.GenerationSoftware,KiCad,Pcbnew,(6.0.5)*%
%TF.CreationDate,2022-06-04T16:39:10+08:00*%
%TF.ProjectId,keyboard_V3,6b657962-6f61-4726-945f-56332e6b6963,rev?*%
%TF.SameCoordinates,Original*%
%TF.FileFunction,Copper,L1,Top*%
%TF.FilePolarity,Positive*%
%FSLAX46Y46*%
G04 Gerber Fmt 4.6, Leading zero omitted, Abs format (unit mm)*
G04 Created by KiCad (PCBNEW (6.0.5)) date 2022-06-04 16:39:10*
%MOMM*%
%LPD*%
G01*
G04 APERTURE LIST*
%TA.AperFunction,Profile*%
%ADD10C,0.100000*%
%TD*%
%TA.AperFunction,Profile*%
%ADD11C,0.050000*%
%TD*%
%TA.AperFunction,ComponentPad*%
%ADD12C,2.200000*%
%TD*%
%TA.AperFunction,ComponentPad*%
%ADD13R,1.700000X1.700000*%
%TD*%
%TA.AperFunction,ComponentPad*%
%ADD14O,1.700000X1.700000*%
%TD*%
%TA.AperFunction,ViaPad*%
%ADD15C,0.800000*%
%TD*%
%TA.AperFunction,ViaPad*%
%ADD16C,3.100000*%
%TD*%
%TA.AperFunction,Conductor*%
%ADD17C,0.304800*%
%TD*%
G04 APERTURE END LIST*
D10*
X107950000Y-113030000D02*
G75*
G03*
X110490000Y-110490000I0J2540000D01*
G01*
D11*
X101538462Y-65342253D02*
X106720062Y-65342253D01*
X106720062Y-65342253D02*
X106720062Y-70553853D01*
X106720062Y-70553853D02*
X101538462Y-70553853D01*
X101538462Y-70553853D02*
X101538462Y-65342253D01*
D10*
X29210000Y-113030000D02*
X107950000Y-113030000D01*
D11*
X60909200Y-85674200D02*
X66090800Y-85674200D01*
X66090800Y-85674200D02*
X66090800Y-90855800D01*
X66090800Y-90855800D02*
X60909200Y-90855800D01*
X60909200Y-90855800D02*
X60909200Y-85674200D01*
X60903194Y-65342253D02*
X66084794Y-65342253D01*
X66084794Y-65342253D02*
X66084794Y-70543853D01*
X66084794Y-70543853D02*
X60903194Y-70543853D01*
X60903194Y-70543853D02*
X60903194Y-65342253D01*
X101538462Y-85654200D02*
X106720062Y-85654200D01*
X106720062Y-85654200D02*
X106720062Y-90855800D01*
X106720062Y-90855800D02*
X101538462Y-90855800D01*
X101538462Y-90855800D02*
X101538462Y-85654200D01*
X81220828Y-85654200D02*
X86402428Y-85654200D01*
X86402428Y-85654200D02*
X86402428Y-90855800D01*
X86402428Y-90855800D02*
X81220828Y-90855800D01*
X81220828Y-90855800D02*
X81220828Y-85654200D01*
X81229200Y-65335000D02*
X86410800Y-65335000D01*
X86410800Y-65335000D02*
X86410800Y-70536600D01*
X86410800Y-70536600D02*
X81229200Y-70536600D01*
X81229200Y-70536600D02*
X81229200Y-65335000D01*
D10*
X26670000Y-110490000D02*
X26670000Y-57150000D01*
X110490000Y-110490000D02*
X110490000Y-57150000D01*
X110490000Y-57150000D02*
G75*
G03*
X107950000Y-54610000I-2540000J0D01*
G01*
D11*
X101549200Y-105974200D02*
X106730800Y-105974200D01*
X106730800Y-105974200D02*
X106730800Y-111195800D01*
X106730800Y-111195800D02*
X101549200Y-111195800D01*
X101549200Y-111195800D02*
X101549200Y-105974200D01*
D10*
X107950000Y-54610000D02*
X29210000Y-54610000D01*
D11*
X60909200Y-105984200D02*
X66090800Y-105984200D01*
X66090800Y-105984200D02*
X66090800Y-111175800D01*
X66090800Y-111175800D02*
X60909200Y-111175800D01*
X60909200Y-111175800D02*
X60909200Y-105984200D01*
X26670000Y-110490000D02*
G75*
G03*
X29210000Y-113030000I2540000J0D01*
G01*
X81229200Y-105974200D02*
X86410800Y-105974200D01*
X86410800Y-105974200D02*
X86410800Y-111195800D01*
X86410800Y-111195800D02*
X81229200Y-111195800D01*
X81229200Y-111195800D02*
X81229200Y-105974200D01*
X29210000Y-54610000D02*
G75*
G03*
X26670000Y-57150000I0J-2540000D01*
G01*
D12*
%TO.P,REF\u002A\u002A,2*%
%TO.N,N/C*%
X59690000Y-59690000D03*
%TO.P,REF\u002A\u002A,1*%
X66040000Y-57150000D03*
%TD*%
%TO.P,REF\u002A\u002A,1*%
%TO.N,N/C*%
X106680000Y-97790000D03*
%TO.P,REF\u002A\u002A,2*%
X100330000Y-100330000D03*
%TD*%
%TO.P,REF\u002A\u002A,1*%
%TO.N,N/C*%
X86360000Y-97790000D03*
%TO.P,REF\u002A\u002A,2*%
X80010000Y-100330000D03*
%TD*%
D13*
%TO.P,REF\u002A\u002A,1*%
%TO.N,N/C*%
X46990000Y-91440000D03*
D14*
%TO.P,REF\u002A\u002A,2*%
X46990000Y-93980000D03*
%TO.P,REF\u002A\u002A,3*%
X46990000Y-96520000D03*
%TO.P,REF\u002A\u002A,4*%
X46990000Y-99060000D03*
%TO.P,REF\u002A\u002A,5*%
X46990000Y-101600000D03*
%TO.P,REF\u002A\u002A,6*%
X46990000Y-104140000D03*
%TO.P,REF\u002A\u002A,7*%
X46990000Y-106680000D03*
%TO.P,REF\u002A\u002A,8*%
X46990000Y-109220000D03*
%TO.P,REF\u002A\u002A,9*%
X46990000Y-111760000D03*
%TD*%
D12*
%TO.P,REF\u002A\u002A,1*%
%TO.N,N/C*%
X86360000Y-57150000D03*
%TO.P,REF\u002A\u002A,2*%
X80010000Y-59690000D03*
%TD*%
%TO.P,REF\u002A\u002A,1*%
%TO.N,N/C*%
X106680000Y-77470000D03*
%TO.P,REF\u002A\u002A,2*%
X100330000Y-80010000D03*
%TD*%
D13*
%TO.P,REF\u002A\u002A,1*%
%TO.N,N/C*%
X31750000Y-91440000D03*
D14*
%TO.P,REF\u002A\u002A,2*%
X31750000Y-93980000D03*
%TO.P,REF\u002A\u002A,3*%
X31750000Y-96520000D03*
%TO.P,REF\u002A\u002A,4*%
X31750000Y-99060000D03*
%TO.P,REF\u002A\u002A,5*%
X31750000Y-101600000D03*
%TO.P,REF\u002A\u002A,6*%
X31750000Y-104140000D03*
%TO.P,REF\u002A\u002A,7*%
X31750000Y-106680000D03*
%TO.P,REF\u002A\u002A,8*%
X31750000Y-109220000D03*
%TO.P,REF\u002A\u002A,9*%
X31750000Y-111760000D03*
%TD*%
D12*
%TO.P,REF\u002A\u002A,1*%
%TO.N,N/C*%
X86340782Y-77460391D03*
%TO.P,REF\u002A\u002A,2*%
X79990782Y-80000391D03*
%TD*%
%TO.P,REF\u002A\u002A,1*%
%TO.N,N/C*%
X66040000Y-97790000D03*
%TO.P,REF\u002A\u002A,2*%
X59690000Y-100330000D03*
%TD*%
%TO.P,REF\u002A\u002A,1*%
%TO.N,N/C*%
X66040000Y-77470000D03*
%TO.P,REF\u002A\u002A,2*%
X59690000Y-80010000D03*
%TD*%
%TO.P,REF\u002A\u002A,1*%
%TO.N,N/C*%
X106680000Y-57150000D03*
%TO.P,REF\u002A\u002A,2*%
X100330000Y-59690000D03*
%TD*%
D13*
%TO.P,REF\u002A\u002A,1*%
%TO.N,N/C*%
X44450000Y-91440000D03*
D14*
%TO.P,REF\u002A\u002A,2*%
X41910000Y-91440000D03*
%TO.P,REF\u002A\u002A,3*%
X39370000Y-91440000D03*
%TO.P,REF\u002A\u002A,4*%
X36830000Y-91440000D03*
%TO.P,REF\u002A\u002A,5*%
X34290000Y-91440000D03*
%TD*%
D13*
%TO.P,REF\u002A\u002A,1*%
%TO.N,N/C*%
X43170000Y-83947000D03*
D14*
%TO.P,REF\u002A\u002A,2*%
X40630000Y-83947000D03*
%TO.P,REF\u002A\u002A,3*%
X38090000Y-83947000D03*
%TO.P,REF\u002A\u002A,4*%
X35550000Y-83947000D03*
%TD*%
D13*
%TO.P,REF\u002A\u002A,1*%
%TO.N,N/C*%
X44577000Y-77470000D03*
D14*
%TO.P,REF\u002A\u002A,2*%
X42037000Y-77470000D03*
%TO.P,REF\u002A\u002A,3*%
X39497000Y-77470000D03*
%TO.P,REF\u002A\u002A,4*%
X36957000Y-77470000D03*
%TO.P,REF\u002A\u002A,5*%
X34417000Y-77470000D03*
%TD*%
D15*
%TO.N,*%
X54610000Y-82550000D03*
X69443600Y-71958200D03*
X58293000Y-103149400D03*
X98501200Y-73304400D03*
X28575000Y-73660000D03*
D16*
X39370000Y-110490000D03*
D15*
X73660000Y-97790000D03*
X68859400Y-111810800D03*
X80213200Y-71120000D03*
X75768200Y-85979000D03*
X93929200Y-69621400D03*
X73660000Y-82550000D03*
X108432600Y-90703400D03*
X58420000Y-90170000D03*
X78765400Y-90246200D03*
X50749200Y-87020400D03*
X107213400Y-63804800D03*
D16*
X93980000Y-92710000D03*
D15*
X57759600Y-88112600D03*
D16*
X33020000Y-57150000D03*
D15*
X109220000Y-82550000D03*
X88163400Y-89941400D03*
X107797600Y-88061800D03*
X109677200Y-92608400D03*
X106553000Y-72313800D03*
X55880000Y-81280000D03*
X88900000Y-82550000D03*
X77571600Y-71094600D03*
X89992200Y-72415400D03*
X99060000Y-90601800D03*
X88036400Y-63855600D03*
X74930000Y-74930000D03*
X42519600Y-87020400D03*
X72390000Y-74930000D03*
X104546400Y-93370400D03*
X53340000Y-81280000D03*
X28575000Y-97155000D03*
X57150000Y-83820000D03*
D16*
X93980000Y-72390000D03*
D15*
X78003400Y-85902800D03*
%TD*%
D17*
%TO.N,*%
X66040000Y-77470000D02*
X68580000Y-80010000D01*
X75768200Y-85979000D02*
X77546200Y-84201000D01*
X54610000Y-80010000D02*
X53340000Y-81280000D01*
X54610000Y-82550000D02*
X55880000Y-81280000D01*
X82931000Y-57150000D02*
X78105000Y-57150000D01*
X33147000Y-72390000D02*
X31115000Y-74422000D01*
X54610000Y-109220000D02*
X55880000Y-107950000D01*
X55880000Y-85090000D02*
X52441000Y-81651000D01*
X57150000Y-83820000D02*
X57150000Y-109220000D01*
X101828600Y-93370400D02*
X104546400Y-93370400D01*
X80213200Y-71120000D02*
X77597000Y-71120000D01*
X90424000Y-77495400D02*
X90424000Y-88823800D01*
X106553000Y-72313800D02*
X97282000Y-72313800D01*
X34417000Y-79248000D02*
X34417000Y-77470000D01*
X107238800Y-63779400D02*
X107213400Y-63804800D01*
X78638400Y-74650600D02*
X96469200Y-74650600D01*
X90424000Y-88823800D02*
X89306400Y-89941400D01*
X108559600Y-86588600D02*
X108559600Y-83312000D01*
X76047600Y-59207400D02*
X76047600Y-70485000D01*
X75057000Y-71805800D02*
X74904600Y-71958200D01*
X54610000Y-76200000D02*
X54610000Y-80010000D01*
X78943200Y-75717400D02*
X88646000Y-75717400D01*
X73660000Y-82550000D02*
X73660000Y-97790000D01*
X97028000Y-90119200D02*
X101701600Y-94792800D01*
X78003400Y-85902800D02*
X78003400Y-84759800D01*
X74904600Y-71958200D02*
X69443600Y-71958200D01*
X87630000Y-73660000D02*
X58420000Y-73660000D01*
X88036400Y-63855600D02*
X88036400Y-62255400D01*
X43170000Y-83947000D02*
X43170000Y-81651000D01*
X57150000Y-73660000D02*
X54610000Y-76200000D01*
X89306400Y-89941400D02*
X88163400Y-89941400D01*
X101701600Y-94792800D02*
X105892600Y-94792800D01*
X105892600Y-94792800D02*
X108432600Y-92252800D01*
X108559600Y-83312000D02*
X102717600Y-77470000D01*
X86340782Y-77460391D02*
X88900000Y-80019609D01*
X38354000Y-88900000D02*
X39370000Y-89916000D01*
X46990000Y-111760000D02*
X54610000Y-111760000D01*
X68580000Y-90170000D02*
X67310000Y-91440000D01*
X93827600Y-63373000D02*
X93827600Y-68580000D01*
X91490800Y-90119200D02*
X97028000Y-90119200D01*
X57759600Y-88112600D02*
X57759600Y-102616000D01*
X99060000Y-90601800D02*
X101828600Y-93370400D01*
X97282000Y-72313800D02*
X94615000Y-69646800D01*
X106680000Y-77470000D02*
X109220000Y-80010000D01*
X57759600Y-102616000D02*
X58293000Y-103149400D01*
X43170000Y-81651000D02*
X42291000Y-80772000D01*
X28575000Y-73660000D02*
X28575000Y-97155000D01*
X57150000Y-109220000D02*
X54610000Y-111760000D01*
X78003400Y-84759800D02*
X78384400Y-84378800D01*
X31115000Y-84455000D02*
X35560000Y-88900000D01*
X67310000Y-91440000D02*
X59690000Y-91440000D01*
X103860600Y-57988200D02*
X102997000Y-57124600D01*
X93827600Y-63373000D02*
X93827600Y-63728600D01*
X78384400Y-84378800D02*
X78460600Y-84302600D01*
X93827600Y-61163200D02*
X93827600Y-63373000D01*
X55880000Y-107950000D02*
X55880000Y-85090000D01*
X97155000Y-74650600D02*
X96469200Y-74650600D01*
X68859400Y-111810800D02*
X54660800Y-111810800D01*
X68580000Y-71120000D02*
X67310000Y-72390000D01*
X42291000Y-80772000D02*
X35941000Y-80772000D01*
X94615000Y-69646800D02*
X94589600Y-69621400D01*
X94589600Y-69621400D02*
X93929200Y-69621400D01*
X78105000Y-57150000D02*
X76047600Y-59207400D01*
X109677200Y-89941400D02*
X109677200Y-92608400D01*
X67310000Y-72390000D02*
X33147000Y-72390000D01*
X50749200Y-87020400D02*
X42519600Y-87020400D01*
X107213400Y-61341000D02*
X103860600Y-57988200D01*
X54660800Y-111810800D02*
X54610000Y-111760000D01*
X88900000Y-72390000D02*
X87630000Y-73660000D01*
X91490800Y-90170000D02*
X91490800Y-90119200D01*
X108432600Y-92252800D02*
X108432600Y-90703400D01*
X90449400Y-77470000D02*
X90424000Y-77495400D01*
X35941000Y-80772000D02*
X34417000Y-79248000D01*
X78765400Y-90246200D02*
X78765400Y-91313000D01*
X39370000Y-89916000D02*
X39370000Y-91440000D01*
X76047600Y-70815200D02*
X75057000Y-71805800D01*
X80213200Y-92760800D02*
X88900000Y-92760800D01*
X68580000Y-80010000D02*
X68580000Y-82550000D01*
X78765400Y-91313000D02*
X80213200Y-92760800D01*
X88900000Y-92760800D02*
X91490800Y-90170000D01*
X86360000Y-57150000D02*
X88900000Y-59690000D01*
X35560000Y-88900000D02*
X38354000Y-88900000D01*
X102997000Y-57124600D02*
X97866200Y-57124600D01*
X77546200Y-75742800D02*
X78638400Y-74650600D01*
X78460600Y-84302600D02*
X78460600Y-76200000D01*
X107213400Y-63804800D02*
X107213400Y-61341000D01*
X52441000Y-81651000D02*
X43170000Y-81651000D01*
X72390000Y-74930000D02*
X74930000Y-74930000D01*
X97866200Y-57124600D02*
X93827600Y-61163200D01*
X88900000Y-80019609D02*
X88900000Y-82550000D01*
X77597000Y-71120000D02*
X77571600Y-71094600D01*
X109220000Y-80010000D02*
X109220000Y-82550000D01*
X88036400Y-62255400D02*
X82931000Y-57150000D01*
X68808600Y-111760000D02*
X68859400Y-111810800D01*
X93827600Y-68580000D02*
X89992200Y-72415400D01*
X31115000Y-74422000D02*
X31115000Y-84455000D01*
X66040000Y-57150000D02*
X68580000Y-59690000D01*
X78460600Y-76200000D02*
X78943200Y-75717400D01*
X77546200Y-84201000D02*
X77546200Y-75742800D01*
X102717600Y-77470000D02*
X90449400Y-77470000D01*
X88900000Y-59690000D02*
X88900000Y-72390000D01*
X107797600Y-88061800D02*
X107797600Y-87350600D01*
X102717600Y-76149200D02*
X102717600Y-77470000D01*
X68580000Y-82550000D02*
X68580000Y-90170000D01*
X59690000Y-91440000D02*
X58420000Y-90170000D01*
X58420000Y-73660000D02*
X57150000Y-73660000D01*
X68580000Y-59690000D02*
X68580000Y-71120000D01*
X107797600Y-87350600D02*
X108559600Y-86588600D01*
X88646000Y-75717400D02*
X90424000Y-77495400D01*
X46990000Y-109220000D02*
X54610000Y-109220000D01*
X98501200Y-73304400D02*
X97155000Y-74650600D01*
X107797600Y-88061800D02*
X109677200Y-89941400D01*
X106553000Y-72313800D02*
X102717600Y-76149200D01*
X76047600Y-70485000D02*
X76047600Y-70815200D01*
%TD*%
M02*
