%TF.GenerationSoftware,KiCad,Pcbnew,(6.0.5)*%
%TF.CreationDate,2022-06-04T16:39:11+08:00*%
%TF.ProjectId,keyboard_V3,6b657962-6f61-4726-945f-56332e6b6963,rev?*%
%TF.SameCoordinates,Original*%
%TF.FileFunction,Legend,Top*%
%TF.FilePolarity,Positive*%
%FSLAX46Y46*%
G04 Gerber Fmt 4.6, Leading zero omitted, Abs format (unit mm)*
G04 Created by KiCad (PCBNEW (6.0.5)) date 2022-06-04 16:39:11*
%MOMM*%
%LPD*%
G01*
G04 APERTURE LIST*
%TA.AperFunction,Profile*%
%ADD10C,0.100000*%
%TD*%
%TA.AperFunction,Profile*%
%ADD11C,0.050000*%
%TD*%
%ADD12C,0.150000*%
%ADD13C,0.120000*%
G04 APERTURE END LIST*
D10*
X107950000Y-113030000D02*
G75*
G03*
X110490000Y-110490000I0J2540000D01*
G01*
D11*
X101538462Y-65342253D02*
X106720062Y-65342253D01*
X106720062Y-65342253D02*
X106720062Y-70553853D01*
X106720062Y-70553853D02*
X101538462Y-70553853D01*
X101538462Y-70553853D02*
X101538462Y-65342253D01*
D10*
X29210000Y-113030000D02*
X107950000Y-113030000D01*
D11*
X60909200Y-85674200D02*
X66090800Y-85674200D01*
X66090800Y-85674200D02*
X66090800Y-90855800D01*
X66090800Y-90855800D02*
X60909200Y-90855800D01*
X60909200Y-90855800D02*
X60909200Y-85674200D01*
X60903194Y-65342253D02*
X66084794Y-65342253D01*
X66084794Y-65342253D02*
X66084794Y-70543853D01*
X66084794Y-70543853D02*
X60903194Y-70543853D01*
X60903194Y-70543853D02*
X60903194Y-65342253D01*
X101538462Y-85654200D02*
X106720062Y-85654200D01*
X106720062Y-85654200D02*
X106720062Y-90855800D01*
X106720062Y-90855800D02*
X101538462Y-90855800D01*
X101538462Y-90855800D02*
X101538462Y-85654200D01*
X81220828Y-85654200D02*
X86402428Y-85654200D01*
X86402428Y-85654200D02*
X86402428Y-90855800D01*
X86402428Y-90855800D02*
X81220828Y-90855800D01*
X81220828Y-90855800D02*
X81220828Y-85654200D01*
X81229200Y-65335000D02*
X86410800Y-65335000D01*
X86410800Y-65335000D02*
X86410800Y-70536600D01*
X86410800Y-70536600D02*
X81229200Y-70536600D01*
X81229200Y-70536600D02*
X81229200Y-65335000D01*
D10*
X26670000Y-110490000D02*
X26670000Y-57150000D01*
X110490000Y-110490000D02*
X110490000Y-57150000D01*
X110490000Y-57150000D02*
G75*
G03*
X107950000Y-54610000I-2540000J0D01*
G01*
D11*
X101549200Y-105974200D02*
X106730800Y-105974200D01*
X106730800Y-105974200D02*
X106730800Y-111195800D01*
X106730800Y-111195800D02*
X101549200Y-111195800D01*
X101549200Y-111195800D02*
X101549200Y-105974200D01*
D10*
X107950000Y-54610000D02*
X29210000Y-54610000D01*
D11*
X60909200Y-105984200D02*
X66090800Y-105984200D01*
X66090800Y-105984200D02*
X66090800Y-111175800D01*
X66090800Y-111175800D02*
X60909200Y-111175800D01*
X60909200Y-111175800D02*
X60909200Y-105984200D01*
X26670000Y-110490000D02*
G75*
G03*
X29210000Y-113030000I2540000J0D01*
G01*
X81229200Y-105974200D02*
X86410800Y-105974200D01*
X86410800Y-105974200D02*
X86410800Y-111195800D01*
X86410800Y-111195800D02*
X81229200Y-111195800D01*
X81229200Y-111195800D02*
X81229200Y-105974200D01*
X29210000Y-54610000D02*
G75*
G03*
X26670000Y-57150000I0J-2540000D01*
G01*
D12*
X32507619Y-75518660D02*
X33507619Y-75643660D01*
X33507619Y-75881755D01*
X33460000Y-76018660D01*
X33364761Y-76101994D01*
X33269523Y-76137708D01*
X33079047Y-76161517D01*
X32936190Y-76143660D01*
X32745714Y-76072232D01*
X32650476Y-76012708D01*
X32555238Y-75905565D01*
X32507619Y-75756755D01*
X32507619Y-75518660D01*
X32555238Y-76905565D02*
X32507619Y-76804375D01*
X32507619Y-76613898D01*
X32555238Y-76524613D01*
X32650476Y-76488898D01*
X33031428Y-76536517D01*
X33126666Y-76596041D01*
X33174285Y-76697232D01*
X33174285Y-76887708D01*
X33126666Y-76976994D01*
X33031428Y-77012708D01*
X32936190Y-77000803D01*
X32840952Y-76512708D01*
X32555238Y-77334136D02*
X32507619Y-77423422D01*
X32507619Y-77613898D01*
X32555238Y-77715089D01*
X32650476Y-77774613D01*
X32698095Y-77780565D01*
X32793333Y-77744851D01*
X32840952Y-77655565D01*
X32840952Y-77512708D01*
X32888571Y-77423422D01*
X32983809Y-77387708D01*
X33031428Y-77393660D01*
X33126666Y-77453184D01*
X33174285Y-77554375D01*
X33174285Y-77697232D01*
X33126666Y-77786517D01*
X32507619Y-78185327D02*
X33174285Y-78268660D01*
X33507619Y-78310327D02*
X33460000Y-78256755D01*
X33412380Y-78298422D01*
X33460000Y-78351994D01*
X33507619Y-78310327D01*
X33412380Y-78298422D01*
X33174285Y-79173422D02*
X32364761Y-79072232D01*
X32269523Y-79012708D01*
X32221904Y-78959136D01*
X32174285Y-78857946D01*
X32174285Y-78715089D01*
X32221904Y-78625803D01*
X32555238Y-79096041D02*
X32507619Y-78994851D01*
X32507619Y-78804375D01*
X32555238Y-78715089D01*
X32602857Y-78673422D01*
X32698095Y-78637708D01*
X32983809Y-78673422D01*
X33079047Y-78732946D01*
X33126666Y-78786517D01*
X33174285Y-78887708D01*
X33174285Y-79078184D01*
X33126666Y-79167470D01*
X33174285Y-79649613D02*
X32507619Y-79566279D01*
X33079047Y-79637708D02*
X33126666Y-79691279D01*
X33174285Y-79792470D01*
X33174285Y-79935327D01*
X33126666Y-80024613D01*
X33031428Y-80060327D01*
X32507619Y-79994851D01*
X32507619Y-81232946D02*
X33507619Y-81357946D01*
X33126666Y-81310327D02*
X33174285Y-81411517D01*
X33174285Y-81601994D01*
X33126666Y-81691279D01*
X33079047Y-81732946D01*
X32983809Y-81768660D01*
X32698095Y-81732946D01*
X32602857Y-81673422D01*
X32555238Y-81619851D01*
X32507619Y-81518660D01*
X32507619Y-81328184D01*
X32555238Y-81238898D01*
X33174285Y-82125803D02*
X32507619Y-82280565D01*
X33174285Y-82601994D02*
X32507619Y-82280565D01*
X32269523Y-82155565D01*
X32221904Y-82101994D01*
X32174285Y-82000803D01*
X32793333Y-83649613D02*
X32793333Y-84125803D01*
X32507619Y-83518660D02*
X33507619Y-83976994D01*
X32507619Y-84185327D01*
X32507619Y-84661517D02*
X32555238Y-84572232D01*
X32650476Y-84536517D01*
X33507619Y-84643660D01*
X32507619Y-85185327D02*
X32555238Y-85096041D01*
X32650476Y-85060327D01*
X33507619Y-85167470D01*
X32555238Y-85953184D02*
X32507619Y-85851994D01*
X32507619Y-85661517D01*
X32555238Y-85572232D01*
X32650476Y-85536517D01*
X33031428Y-85584136D01*
X33126666Y-85643660D01*
X33174285Y-85744851D01*
X33174285Y-85935327D01*
X33126666Y-86024613D01*
X33031428Y-86060327D01*
X32936190Y-86048422D01*
X32840952Y-85560327D01*
X33174285Y-86506755D02*
X32507619Y-86423422D01*
X33079047Y-86494851D02*
X33126666Y-86548422D01*
X33174285Y-86649613D01*
X33174285Y-86792470D01*
X33126666Y-86881755D01*
X33031428Y-86917470D01*
X32507619Y-86851994D01*
X50164285Y-56062619D02*
X50164285Y-57062619D01*
X49926190Y-57062619D01*
X49783333Y-57015000D01*
X49688095Y-56919761D01*
X49640476Y-56824523D01*
X49592857Y-56634047D01*
X49592857Y-56491190D01*
X49640476Y-56300714D01*
X49688095Y-56205476D01*
X49783333Y-56110238D01*
X49926190Y-56062619D01*
X50164285Y-56062619D01*
X48783333Y-56110238D02*
X48878571Y-56062619D01*
X49069047Y-56062619D01*
X49164285Y-56110238D01*
X49211904Y-56205476D01*
X49211904Y-56586428D01*
X49164285Y-56681666D01*
X49069047Y-56729285D01*
X48878571Y-56729285D01*
X48783333Y-56681666D01*
X48735714Y-56586428D01*
X48735714Y-56491190D01*
X49211904Y-56395952D01*
X48354761Y-56110238D02*
X48259523Y-56062619D01*
X48069047Y-56062619D01*
X47973809Y-56110238D01*
X47926190Y-56205476D01*
X47926190Y-56253095D01*
X47973809Y-56348333D01*
X48069047Y-56395952D01*
X48211904Y-56395952D01*
X48307142Y-56443571D01*
X48354761Y-56538809D01*
X48354761Y-56586428D01*
X48307142Y-56681666D01*
X48211904Y-56729285D01*
X48069047Y-56729285D01*
X47973809Y-56681666D01*
X47497619Y-56062619D02*
X47497619Y-56729285D01*
X47497619Y-57062619D02*
X47545238Y-57015000D01*
X47497619Y-56967380D01*
X47450000Y-57015000D01*
X47497619Y-57062619D01*
X47497619Y-56967380D01*
X46592857Y-56729285D02*
X46592857Y-55919761D01*
X46640476Y-55824523D01*
X46688095Y-55776904D01*
X46783333Y-55729285D01*
X46926190Y-55729285D01*
X47021428Y-55776904D01*
X46592857Y-56110238D02*
X46688095Y-56062619D01*
X46878571Y-56062619D01*
X46973809Y-56110238D01*
X47021428Y-56157857D01*
X47069047Y-56253095D01*
X47069047Y-56538809D01*
X47021428Y-56634047D01*
X46973809Y-56681666D01*
X46878571Y-56729285D01*
X46688095Y-56729285D01*
X46592857Y-56681666D01*
X46116666Y-56729285D02*
X46116666Y-56062619D01*
X46116666Y-56634047D02*
X46069047Y-56681666D01*
X45973809Y-56729285D01*
X45830952Y-56729285D01*
X45735714Y-56681666D01*
X45688095Y-56586428D01*
X45688095Y-56062619D01*
X44116666Y-56586428D02*
X43973809Y-56538809D01*
X43926190Y-56491190D01*
X43878571Y-56395952D01*
X43878571Y-56253095D01*
X43926190Y-56157857D01*
X43973809Y-56110238D01*
X44069047Y-56062619D01*
X44450000Y-56062619D01*
X44450000Y-57062619D01*
X44116666Y-57062619D01*
X44021428Y-57015000D01*
X43973809Y-56967380D01*
X43926190Y-56872142D01*
X43926190Y-56776904D01*
X43973809Y-56681666D01*
X44021428Y-56634047D01*
X44116666Y-56586428D01*
X44450000Y-56586428D01*
X43545238Y-56729285D02*
X43307142Y-56062619D01*
X43069047Y-56729285D02*
X43307142Y-56062619D01*
X43402380Y-55824523D01*
X43450000Y-55776904D01*
X43545238Y-55729285D01*
X41973809Y-56348333D02*
X41497619Y-56348333D01*
X42069047Y-56062619D02*
X41735714Y-57062619D01*
X41402380Y-56062619D01*
X40926190Y-56062619D02*
X41021428Y-56110238D01*
X41069047Y-56205476D01*
X41069047Y-57062619D01*
X40402380Y-56062619D02*
X40497619Y-56110238D01*
X40545238Y-56205476D01*
X40545238Y-57062619D01*
X39640476Y-56110238D02*
X39735714Y-56062619D01*
X39926190Y-56062619D01*
X40021428Y-56110238D01*
X40069047Y-56205476D01*
X40069047Y-56586428D01*
X40021428Y-56681666D01*
X39926190Y-56729285D01*
X39735714Y-56729285D01*
X39640476Y-56681666D01*
X39592857Y-56586428D01*
X39592857Y-56491190D01*
X40069047Y-56395952D01*
X39164285Y-56729285D02*
X39164285Y-56062619D01*
X39164285Y-56634047D02*
X39116666Y-56681666D01*
X39021428Y-56729285D01*
X38878571Y-56729285D01*
X38783333Y-56681666D01*
X38735714Y-56586428D01*
X38735714Y-56062619D01*
X32210476Y-60142380D02*
X32210476Y-59142380D01*
X32543809Y-59856666D01*
X32877142Y-59142380D01*
X32877142Y-60142380D01*
X33258095Y-59142380D02*
X33877142Y-59142380D01*
X33543809Y-59523333D01*
X33686666Y-59523333D01*
X33781904Y-59570952D01*
X33829523Y-59618571D01*
X33877142Y-59713809D01*
X33877142Y-59951904D01*
X33829523Y-60047142D01*
X33781904Y-60094761D01*
X33686666Y-60142380D01*
X33400952Y-60142380D01*
X33305714Y-60094761D01*
X33258095Y-60047142D01*
%TO.C,REF\u002A\u002A*%
X62166666Y-54808380D02*
X61833333Y-54332190D01*
X61595238Y-54808380D02*
X61595238Y-53808380D01*
X61976190Y-53808380D01*
X62071428Y-53856000D01*
X62119047Y-53903619D01*
X62166666Y-53998857D01*
X62166666Y-54141714D01*
X62119047Y-54236952D01*
X62071428Y-54284571D01*
X61976190Y-54332190D01*
X61595238Y-54332190D01*
X62595238Y-54284571D02*
X62928571Y-54284571D01*
X63071428Y-54808380D02*
X62595238Y-54808380D01*
X62595238Y-53808380D01*
X63071428Y-53808380D01*
X63833333Y-54284571D02*
X63500000Y-54284571D01*
X63500000Y-54808380D02*
X63500000Y-53808380D01*
X63976190Y-53808380D01*
X64500000Y-53808380D02*
X64500000Y-54046476D01*
X64261904Y-53951238D02*
X64500000Y-54046476D01*
X64738095Y-53951238D01*
X64357142Y-54236952D02*
X64500000Y-54046476D01*
X64642857Y-54236952D01*
X65261904Y-53808380D02*
X65261904Y-54046476D01*
X65023809Y-53951238D02*
X65261904Y-54046476D01*
X65500000Y-53951238D01*
X65119047Y-54236952D02*
X65261904Y-54046476D01*
X65404761Y-54236952D01*
X102806666Y-95448380D02*
X102473333Y-94972190D01*
X102235238Y-95448380D02*
X102235238Y-94448380D01*
X102616190Y-94448380D01*
X102711428Y-94496000D01*
X102759047Y-94543619D01*
X102806666Y-94638857D01*
X102806666Y-94781714D01*
X102759047Y-94876952D01*
X102711428Y-94924571D01*
X102616190Y-94972190D01*
X102235238Y-94972190D01*
X103235238Y-94924571D02*
X103568571Y-94924571D01*
X103711428Y-95448380D02*
X103235238Y-95448380D01*
X103235238Y-94448380D01*
X103711428Y-94448380D01*
X104473333Y-94924571D02*
X104140000Y-94924571D01*
X104140000Y-95448380D02*
X104140000Y-94448380D01*
X104616190Y-94448380D01*
X105140000Y-94448380D02*
X105140000Y-94686476D01*
X104901904Y-94591238D02*
X105140000Y-94686476D01*
X105378095Y-94591238D01*
X104997142Y-94876952D02*
X105140000Y-94686476D01*
X105282857Y-94876952D01*
X105901904Y-94448380D02*
X105901904Y-94686476D01*
X105663809Y-94591238D02*
X105901904Y-94686476D01*
X106140000Y-94591238D01*
X105759047Y-94876952D02*
X105901904Y-94686476D01*
X106044761Y-94876952D01*
X82486666Y-95448380D02*
X82153333Y-94972190D01*
X81915238Y-95448380D02*
X81915238Y-94448380D01*
X82296190Y-94448380D01*
X82391428Y-94496000D01*
X82439047Y-94543619D01*
X82486666Y-94638857D01*
X82486666Y-94781714D01*
X82439047Y-94876952D01*
X82391428Y-94924571D01*
X82296190Y-94972190D01*
X81915238Y-94972190D01*
X82915238Y-94924571D02*
X83248571Y-94924571D01*
X83391428Y-95448380D02*
X82915238Y-95448380D01*
X82915238Y-94448380D01*
X83391428Y-94448380D01*
X84153333Y-94924571D02*
X83820000Y-94924571D01*
X83820000Y-95448380D02*
X83820000Y-94448380D01*
X84296190Y-94448380D01*
X84820000Y-94448380D02*
X84820000Y-94686476D01*
X84581904Y-94591238D02*
X84820000Y-94686476D01*
X85058095Y-94591238D01*
X84677142Y-94876952D02*
X84820000Y-94686476D01*
X84962857Y-94876952D01*
X85581904Y-94448380D02*
X85581904Y-94686476D01*
X85343809Y-94591238D02*
X85581904Y-94686476D01*
X85820000Y-94591238D01*
X85439047Y-94876952D02*
X85581904Y-94686476D01*
X85724761Y-94876952D01*
X45656666Y-89122380D02*
X45323333Y-88646190D01*
X45085238Y-89122380D02*
X45085238Y-88122380D01*
X45466190Y-88122380D01*
X45561428Y-88170000D01*
X45609047Y-88217619D01*
X45656666Y-88312857D01*
X45656666Y-88455714D01*
X45609047Y-88550952D01*
X45561428Y-88598571D01*
X45466190Y-88646190D01*
X45085238Y-88646190D01*
X46085238Y-88598571D02*
X46418571Y-88598571D01*
X46561428Y-89122380D02*
X46085238Y-89122380D01*
X46085238Y-88122380D01*
X46561428Y-88122380D01*
X47323333Y-88598571D02*
X46990000Y-88598571D01*
X46990000Y-89122380D02*
X46990000Y-88122380D01*
X47466190Y-88122380D01*
X47990000Y-88122380D02*
X47990000Y-88360476D01*
X47751904Y-88265238D02*
X47990000Y-88360476D01*
X48228095Y-88265238D01*
X47847142Y-88550952D02*
X47990000Y-88360476D01*
X48132857Y-88550952D01*
X48751904Y-88122380D02*
X48751904Y-88360476D01*
X48513809Y-88265238D02*
X48751904Y-88360476D01*
X48990000Y-88265238D01*
X48609047Y-88550952D02*
X48751904Y-88360476D01*
X48894761Y-88550952D01*
X82486666Y-54808380D02*
X82153333Y-54332190D01*
X81915238Y-54808380D02*
X81915238Y-53808380D01*
X82296190Y-53808380D01*
X82391428Y-53856000D01*
X82439047Y-53903619D01*
X82486666Y-53998857D01*
X82486666Y-54141714D01*
X82439047Y-54236952D01*
X82391428Y-54284571D01*
X82296190Y-54332190D01*
X81915238Y-54332190D01*
X82915238Y-54284571D02*
X83248571Y-54284571D01*
X83391428Y-54808380D02*
X82915238Y-54808380D01*
X82915238Y-53808380D01*
X83391428Y-53808380D01*
X84153333Y-54284571D02*
X83820000Y-54284571D01*
X83820000Y-54808380D02*
X83820000Y-53808380D01*
X84296190Y-53808380D01*
X84820000Y-53808380D02*
X84820000Y-54046476D01*
X84581904Y-53951238D02*
X84820000Y-54046476D01*
X85058095Y-53951238D01*
X84677142Y-54236952D02*
X84820000Y-54046476D01*
X84962857Y-54236952D01*
X85581904Y-53808380D02*
X85581904Y-54046476D01*
X85343809Y-53951238D02*
X85581904Y-54046476D01*
X85820000Y-53951238D01*
X85439047Y-54236952D02*
X85581904Y-54046476D01*
X85724761Y-54236952D01*
X102806666Y-75128380D02*
X102473333Y-74652190D01*
X102235238Y-75128380D02*
X102235238Y-74128380D01*
X102616190Y-74128380D01*
X102711428Y-74176000D01*
X102759047Y-74223619D01*
X102806666Y-74318857D01*
X102806666Y-74461714D01*
X102759047Y-74556952D01*
X102711428Y-74604571D01*
X102616190Y-74652190D01*
X102235238Y-74652190D01*
X103235238Y-74604571D02*
X103568571Y-74604571D01*
X103711428Y-75128380D02*
X103235238Y-75128380D01*
X103235238Y-74128380D01*
X103711428Y-74128380D01*
X104473333Y-74604571D02*
X104140000Y-74604571D01*
X104140000Y-75128380D02*
X104140000Y-74128380D01*
X104616190Y-74128380D01*
X105140000Y-74128380D02*
X105140000Y-74366476D01*
X104901904Y-74271238D02*
X105140000Y-74366476D01*
X105378095Y-74271238D01*
X104997142Y-74556952D02*
X105140000Y-74366476D01*
X105282857Y-74556952D01*
X105901904Y-74128380D02*
X105901904Y-74366476D01*
X105663809Y-74271238D02*
X105901904Y-74366476D01*
X106140000Y-74271238D01*
X105759047Y-74556952D02*
X105901904Y-74366476D01*
X106044761Y-74556952D01*
X30416666Y-89122380D02*
X30083333Y-88646190D01*
X29845238Y-89122380D02*
X29845238Y-88122380D01*
X30226190Y-88122380D01*
X30321428Y-88170000D01*
X30369047Y-88217619D01*
X30416666Y-88312857D01*
X30416666Y-88455714D01*
X30369047Y-88550952D01*
X30321428Y-88598571D01*
X30226190Y-88646190D01*
X29845238Y-88646190D01*
X30845238Y-88598571D02*
X31178571Y-88598571D01*
X31321428Y-89122380D02*
X30845238Y-89122380D01*
X30845238Y-88122380D01*
X31321428Y-88122380D01*
X32083333Y-88598571D02*
X31750000Y-88598571D01*
X31750000Y-89122380D02*
X31750000Y-88122380D01*
X32226190Y-88122380D01*
X32750000Y-88122380D02*
X32750000Y-88360476D01*
X32511904Y-88265238D02*
X32750000Y-88360476D01*
X32988095Y-88265238D01*
X32607142Y-88550952D02*
X32750000Y-88360476D01*
X32892857Y-88550952D01*
X33511904Y-88122380D02*
X33511904Y-88360476D01*
X33273809Y-88265238D02*
X33511904Y-88360476D01*
X33750000Y-88265238D01*
X33369047Y-88550952D02*
X33511904Y-88360476D01*
X33654761Y-88550952D01*
X82467448Y-75118771D02*
X82134115Y-74642581D01*
X81896020Y-75118771D02*
X81896020Y-74118771D01*
X82276972Y-74118771D01*
X82372210Y-74166391D01*
X82419829Y-74214010D01*
X82467448Y-74309248D01*
X82467448Y-74452105D01*
X82419829Y-74547343D01*
X82372210Y-74594962D01*
X82276972Y-74642581D01*
X81896020Y-74642581D01*
X82896020Y-74594962D02*
X83229353Y-74594962D01*
X83372210Y-75118771D02*
X82896020Y-75118771D01*
X82896020Y-74118771D01*
X83372210Y-74118771D01*
X84134115Y-74594962D02*
X83800782Y-74594962D01*
X83800782Y-75118771D02*
X83800782Y-74118771D01*
X84276972Y-74118771D01*
X84800782Y-74118771D02*
X84800782Y-74356867D01*
X84562686Y-74261629D02*
X84800782Y-74356867D01*
X85038877Y-74261629D01*
X84657924Y-74547343D02*
X84800782Y-74356867D01*
X84943639Y-74547343D01*
X85562686Y-74118771D02*
X85562686Y-74356867D01*
X85324591Y-74261629D02*
X85562686Y-74356867D01*
X85800782Y-74261629D01*
X85419829Y-74547343D02*
X85562686Y-74356867D01*
X85705543Y-74547343D01*
X62166666Y-95448380D02*
X61833333Y-94972190D01*
X61595238Y-95448380D02*
X61595238Y-94448380D01*
X61976190Y-94448380D01*
X62071428Y-94496000D01*
X62119047Y-94543619D01*
X62166666Y-94638857D01*
X62166666Y-94781714D01*
X62119047Y-94876952D01*
X62071428Y-94924571D01*
X61976190Y-94972190D01*
X61595238Y-94972190D01*
X62595238Y-94924571D02*
X62928571Y-94924571D01*
X63071428Y-95448380D02*
X62595238Y-95448380D01*
X62595238Y-94448380D01*
X63071428Y-94448380D01*
X63833333Y-94924571D02*
X63500000Y-94924571D01*
X63500000Y-95448380D02*
X63500000Y-94448380D01*
X63976190Y-94448380D01*
X64500000Y-94448380D02*
X64500000Y-94686476D01*
X64261904Y-94591238D02*
X64500000Y-94686476D01*
X64738095Y-94591238D01*
X64357142Y-94876952D02*
X64500000Y-94686476D01*
X64642857Y-94876952D01*
X65261904Y-94448380D02*
X65261904Y-94686476D01*
X65023809Y-94591238D02*
X65261904Y-94686476D01*
X65500000Y-94591238D01*
X65119047Y-94876952D02*
X65261904Y-94686476D01*
X65404761Y-94876952D01*
X62166666Y-75128380D02*
X61833333Y-74652190D01*
X61595238Y-75128380D02*
X61595238Y-74128380D01*
X61976190Y-74128380D01*
X62071428Y-74176000D01*
X62119047Y-74223619D01*
X62166666Y-74318857D01*
X62166666Y-74461714D01*
X62119047Y-74556952D01*
X62071428Y-74604571D01*
X61976190Y-74652190D01*
X61595238Y-74652190D01*
X62595238Y-74604571D02*
X62928571Y-74604571D01*
X63071428Y-75128380D02*
X62595238Y-75128380D01*
X62595238Y-74128380D01*
X63071428Y-74128380D01*
X63833333Y-74604571D02*
X63500000Y-74604571D01*
X63500000Y-75128380D02*
X63500000Y-74128380D01*
X63976190Y-74128380D01*
X64500000Y-74128380D02*
X64500000Y-74366476D01*
X64261904Y-74271238D02*
X64500000Y-74366476D01*
X64738095Y-74271238D01*
X64357142Y-74556952D02*
X64500000Y-74366476D01*
X64642857Y-74556952D01*
X65261904Y-74128380D02*
X65261904Y-74366476D01*
X65023809Y-74271238D02*
X65261904Y-74366476D01*
X65500000Y-74271238D01*
X65119047Y-74556952D02*
X65261904Y-74366476D01*
X65404761Y-74556952D01*
X102806666Y-54808380D02*
X102473333Y-54332190D01*
X102235238Y-54808380D02*
X102235238Y-53808380D01*
X102616190Y-53808380D01*
X102711428Y-53856000D01*
X102759047Y-53903619D01*
X102806666Y-53998857D01*
X102806666Y-54141714D01*
X102759047Y-54236952D01*
X102711428Y-54284571D01*
X102616190Y-54332190D01*
X102235238Y-54332190D01*
X103235238Y-54284571D02*
X103568571Y-54284571D01*
X103711428Y-54808380D02*
X103235238Y-54808380D01*
X103235238Y-53808380D01*
X103711428Y-53808380D01*
X104473333Y-54284571D02*
X104140000Y-54284571D01*
X104140000Y-54808380D02*
X104140000Y-53808380D01*
X104616190Y-53808380D01*
X105140000Y-53808380D02*
X105140000Y-54046476D01*
X104901904Y-53951238D02*
X105140000Y-54046476D01*
X105378095Y-53951238D01*
X104997142Y-54236952D02*
X105140000Y-54046476D01*
X105282857Y-54236952D01*
X105901904Y-53808380D02*
X105901904Y-54046476D01*
X105663809Y-53951238D02*
X105901904Y-54046476D01*
X106140000Y-53951238D01*
X105759047Y-54236952D02*
X105901904Y-54046476D01*
X106044761Y-54236952D01*
X39336666Y-94407380D02*
X39003333Y-93931190D01*
X38765238Y-94407380D02*
X38765238Y-93407380D01*
X39146190Y-93407380D01*
X39241428Y-93455000D01*
X39289047Y-93502619D01*
X39336666Y-93597857D01*
X39336666Y-93740714D01*
X39289047Y-93835952D01*
X39241428Y-93883571D01*
X39146190Y-93931190D01*
X38765238Y-93931190D01*
X39765238Y-93883571D02*
X40098571Y-93883571D01*
X40241428Y-94407380D02*
X39765238Y-94407380D01*
X39765238Y-93407380D01*
X40241428Y-93407380D01*
X41003333Y-93883571D02*
X40670000Y-93883571D01*
X40670000Y-94407380D02*
X40670000Y-93407380D01*
X41146190Y-93407380D01*
X41670000Y-93407380D02*
X41670000Y-93645476D01*
X41431904Y-93550238D02*
X41670000Y-93645476D01*
X41908095Y-93550238D01*
X41527142Y-93835952D02*
X41670000Y-93645476D01*
X41812857Y-93835952D01*
X42431904Y-93407380D02*
X42431904Y-93645476D01*
X42193809Y-93550238D02*
X42431904Y-93645476D01*
X42670000Y-93550238D01*
X42289047Y-93835952D02*
X42431904Y-93645476D01*
X42574761Y-93835952D01*
X45952380Y-85280333D02*
X45476190Y-85613666D01*
X45952380Y-85851761D02*
X44952380Y-85851761D01*
X44952380Y-85470809D01*
X45000000Y-85375571D01*
X45047619Y-85327952D01*
X45142857Y-85280333D01*
X45285714Y-85280333D01*
X45380952Y-85327952D01*
X45428571Y-85375571D01*
X45476190Y-85470809D01*
X45476190Y-85851761D01*
X45428571Y-84851761D02*
X45428571Y-84518428D01*
X45952380Y-84375571D02*
X45952380Y-84851761D01*
X44952380Y-84851761D01*
X44952380Y-84375571D01*
X45428571Y-83613666D02*
X45428571Y-83947000D01*
X45952380Y-83947000D02*
X44952380Y-83947000D01*
X44952380Y-83470809D01*
X44952380Y-82947000D02*
X45190476Y-82947000D01*
X45095238Y-83185095D02*
X45190476Y-82947000D01*
X45095238Y-82708904D01*
X45380952Y-83089857D02*
X45190476Y-82947000D01*
X45380952Y-82804142D01*
X44952380Y-82185095D02*
X45190476Y-82185095D01*
X45095238Y-82423190D02*
X45190476Y-82185095D01*
X45095238Y-81947000D01*
X45380952Y-82327952D02*
X45190476Y-82185095D01*
X45380952Y-82042238D01*
X47799380Y-78803333D02*
X47323190Y-79136666D01*
X47799380Y-79374761D02*
X46799380Y-79374761D01*
X46799380Y-78993809D01*
X46847000Y-78898571D01*
X46894619Y-78850952D01*
X46989857Y-78803333D01*
X47132714Y-78803333D01*
X47227952Y-78850952D01*
X47275571Y-78898571D01*
X47323190Y-78993809D01*
X47323190Y-79374761D01*
X47275571Y-78374761D02*
X47275571Y-78041428D01*
X47799380Y-77898571D02*
X47799380Y-78374761D01*
X46799380Y-78374761D01*
X46799380Y-77898571D01*
X47275571Y-77136666D02*
X47275571Y-77470000D01*
X47799380Y-77470000D02*
X46799380Y-77470000D01*
X46799380Y-76993809D01*
X46799380Y-76470000D02*
X47037476Y-76470000D01*
X46942238Y-76708095D02*
X47037476Y-76470000D01*
X46942238Y-76231904D01*
X47227952Y-76612857D02*
X47037476Y-76470000D01*
X47227952Y-76327142D01*
X46799380Y-75708095D02*
X47037476Y-75708095D01*
X46942238Y-75946190D02*
X47037476Y-75708095D01*
X46942238Y-75470000D01*
X47227952Y-75850952D02*
X47037476Y-75708095D01*
X47227952Y-75565238D01*
D13*
X56515000Y-69215000D02*
X56515000Y-55245000D01*
X70485000Y-55245000D02*
X70485000Y-69215000D01*
X70485000Y-69215000D02*
X56515000Y-69215000D01*
X56515000Y-55245000D02*
X70485000Y-55245000D01*
X97155000Y-95885000D02*
X111125000Y-95885000D01*
X111125000Y-109855000D02*
X97155000Y-109855000D01*
X111125000Y-95885000D02*
X111125000Y-109855000D01*
X97155000Y-109855000D02*
X97155000Y-95885000D01*
X76835000Y-95885000D02*
X90805000Y-95885000D01*
X76835000Y-109855000D02*
X76835000Y-95885000D01*
X90805000Y-109855000D02*
X76835000Y-109855000D01*
X90805000Y-95885000D02*
X90805000Y-109855000D01*
X45660000Y-92710000D02*
X48320000Y-92710000D01*
X48320000Y-92710000D02*
X48320000Y-113090000D01*
X45660000Y-92710000D02*
X45660000Y-113090000D01*
X48320000Y-90110000D02*
X48320000Y-91440000D01*
X45660000Y-113090000D02*
X48320000Y-113090000D01*
X46990000Y-90110000D02*
X48320000Y-90110000D01*
X76835000Y-69215000D02*
X76835000Y-55245000D01*
X76835000Y-55245000D02*
X90805000Y-55245000D01*
X90805000Y-69215000D02*
X76835000Y-69215000D01*
X90805000Y-55245000D02*
X90805000Y-69215000D01*
X97155000Y-89535000D02*
X97155000Y-75565000D01*
X111125000Y-75565000D02*
X111125000Y-89535000D01*
X111125000Y-89535000D02*
X97155000Y-89535000D01*
X97155000Y-75565000D02*
X111125000Y-75565000D01*
X30420000Y-92710000D02*
X33080000Y-92710000D01*
X31750000Y-90110000D02*
X33080000Y-90110000D01*
X30420000Y-113090000D02*
X33080000Y-113090000D01*
X33080000Y-92710000D02*
X33080000Y-113090000D01*
X33080000Y-90110000D02*
X33080000Y-91440000D01*
X30420000Y-92710000D02*
X30420000Y-113090000D01*
X76815782Y-75555391D02*
X90785782Y-75555391D01*
X90785782Y-75555391D02*
X90785782Y-89525391D01*
X76815782Y-89525391D02*
X76815782Y-75555391D01*
X90785782Y-89525391D02*
X76815782Y-89525391D01*
X70485000Y-109855000D02*
X56515000Y-109855000D01*
X70485000Y-95885000D02*
X70485000Y-109855000D01*
X56515000Y-95885000D02*
X70485000Y-95885000D01*
X56515000Y-109855000D02*
X56515000Y-95885000D01*
X56515000Y-89535000D02*
X56515000Y-75565000D01*
X56515000Y-75565000D02*
X70485000Y-75565000D01*
X70485000Y-89535000D02*
X56515000Y-89535000D01*
X70485000Y-75565000D02*
X70485000Y-89535000D01*
X97155000Y-69215000D02*
X97155000Y-55245000D01*
X111125000Y-69215000D02*
X97155000Y-69215000D01*
X111125000Y-55245000D02*
X111125000Y-69215000D01*
X97155000Y-55245000D02*
X111125000Y-55245000D01*
X32960000Y-90110000D02*
X32960000Y-92770000D01*
X45780000Y-92770000D02*
X44450000Y-92770000D01*
X43180000Y-90110000D02*
X43180000Y-92770000D01*
X43180000Y-90110000D02*
X32960000Y-90110000D01*
X43180000Y-92770000D02*
X32960000Y-92770000D01*
X45780000Y-91440000D02*
X45780000Y-92770000D01*
X34220000Y-82617000D02*
X34220000Y-85277000D01*
X41900000Y-82617000D02*
X41900000Y-85277000D01*
X41900000Y-85277000D02*
X34220000Y-85277000D01*
X43170000Y-82617000D02*
X44500000Y-82617000D01*
X44500000Y-82617000D02*
X44500000Y-83947000D01*
X41900000Y-82617000D02*
X34220000Y-82617000D01*
X43307000Y-76140000D02*
X33087000Y-76140000D01*
X33087000Y-76140000D02*
X33087000Y-78800000D01*
X43307000Y-78800000D02*
X33087000Y-78800000D01*
X45907000Y-77470000D02*
X45907000Y-78800000D01*
X43307000Y-76140000D02*
X43307000Y-78800000D01*
X45907000Y-78800000D02*
X44577000Y-78800000D01*
%TD*%
M02*
